M48
;Layer_Color=6321
;FILE_FORMAT=4:2
METRIC,LZ
;TYPE=PLATED
T1F00S00C0.60
T2F00S00C0.71
T3F00S00C0.76
T4F00S00C1.02
T5F00S00C3.30
%
T01
X00814Y00688
X00836Y00739
X00864Y0074
X00836Y00769
X00918Y00703
X00957Y00698
X00894Y00644
X00789Y00685
Y007253
X00766Y00759
X00715Y00713
X007012Y006662
X0065Y00675
X00649Y00692
X006325Y00695
Y007175
X00634Y00758
Y00779
X00669Y00741
X00575Y00632
T02
X0093Y00724
T03
X009445Y005587
Y005841
Y006095
Y006349
Y006603
Y006857
Y007111
Y007365
Y007619
Y007873
X009699
Y007619
Y007365
Y007111
Y006857
Y006603
Y006349
Y006095
Y005841
Y005587
X005381
Y005841
Y006095
Y006349
Y006603
Y006857
Y007111
Y007365
Y007619
Y007873
X005127
Y007619
Y007365
Y007111
Y006857
Y006603
Y006349
Y006095
Y005841
Y005587
T04
X006635Y005808
X006911
X007189
X007466
X007328Y006092
X007051
X006772
X006495
X007605
T05
X008301Y00595
X005799
M30
