G04 Layer_Color=2752767*
%FSLAX42Y42*%
%MOMM*%
G71*
G01*
G75*
%ADD37C,0.13*%
%ADD63C,0.17*%
D37*
X9394Y7822D02*
Y7924D01*
X9496D01*
Y7822D01*
X9394D01*
X9648D02*
Y7924D01*
X9750D01*
Y7822D01*
X9648D01*
X9394Y7568D02*
Y7670D01*
X9496D01*
Y7568D01*
X9394D01*
X9648D02*
Y7670D01*
X9750D01*
Y7568D01*
X9648D01*
X9394Y7314D02*
Y7416D01*
X9496D01*
Y7314D01*
X9394D01*
X9648D02*
Y7416D01*
X9750D01*
Y7314D01*
X9648D01*
X9394Y7060D02*
Y7162D01*
X9496D01*
Y7060D01*
X9394D01*
X9648D02*
Y7162D01*
X9750D01*
Y7060D01*
X9648D01*
X9394Y6806D02*
Y6908D01*
X9496D01*
Y6806D01*
X9394D01*
X9648D02*
Y6908D01*
X9750D01*
Y6806D01*
X9648D01*
X9394Y6552D02*
Y6654D01*
X9496D01*
Y6552D01*
X9394D01*
X9648D02*
Y6654D01*
X9750D01*
Y6552D01*
X9648D01*
X9394Y6298D02*
Y6400D01*
X9496D01*
Y6298D01*
X9394D01*
X9648D02*
Y6400D01*
X9750D01*
Y6298D01*
X9648D01*
X9394Y6044D02*
Y6146D01*
X9496D01*
Y6044D01*
X9394D01*
X9648D02*
Y6146D01*
X9750D01*
Y6044D01*
X9648D01*
X9394Y5790D02*
Y5892D01*
X9496D01*
Y5790D01*
X9394D01*
X9648D02*
Y5892D01*
X9750D01*
Y5790D01*
X9648D01*
X9394Y5536D02*
Y5638D01*
X9496D01*
Y5536D01*
X9394D01*
X9648D02*
Y5638D01*
X9750D01*
Y5536D01*
X9648D01*
X5076Y7822D02*
Y7924D01*
X5178D01*
Y7822D01*
X5076D01*
X5330D02*
Y7924D01*
X5432D01*
Y7822D01*
X5330D01*
X5076Y7568D02*
Y7670D01*
X5178D01*
Y7568D01*
X5076D01*
X5330D02*
Y7670D01*
X5432D01*
Y7568D01*
X5330D01*
X5076Y7314D02*
Y7416D01*
X5178D01*
Y7314D01*
X5076D01*
X5330D02*
Y7416D01*
X5432D01*
Y7314D01*
X5330D01*
X5076Y7060D02*
Y7162D01*
X5178D01*
Y7060D01*
X5076D01*
X5330D02*
Y7162D01*
X5432D01*
Y7060D01*
X5330D01*
X5076Y6806D02*
Y6908D01*
X5178D01*
Y6806D01*
X5076D01*
X5330D02*
Y6908D01*
X5432D01*
Y6806D01*
X5330D01*
X5076Y6552D02*
Y6654D01*
X5178D01*
Y6552D01*
X5076D01*
X5330D02*
Y6654D01*
X5432D01*
Y6552D01*
X5330D01*
X5076Y6298D02*
Y6400D01*
X5178D01*
Y6298D01*
X5076D01*
X5330D02*
Y6400D01*
X5432D01*
Y6298D01*
X5330D01*
X5076Y6044D02*
Y6146D01*
X5178D01*
Y6044D01*
X5076D01*
X5330D02*
Y6146D01*
X5432D01*
Y6044D01*
X5330D01*
X5076Y5790D02*
Y5892D01*
X5178D01*
Y5790D01*
X5076D01*
X5330D02*
Y5892D01*
X5432D01*
Y5790D01*
X5330D01*
X5076Y5536D02*
Y5638D01*
X5178D01*
Y5536D01*
X5076D01*
X5330D02*
Y5638D01*
X5432D01*
Y5536D01*
X5330D01*
X6635Y5757D02*
X6584Y5859D01*
X6685D01*
X6635Y5757D01*
X6911D02*
X6861Y5859D01*
X6962D01*
X6911Y5757D01*
X7189D02*
X7138Y5859D01*
X7240D01*
X7189Y5757D01*
X7466D02*
X7415Y5859D01*
X7517D01*
X7466Y5757D01*
X6495Y6041D02*
X6444Y6143D01*
X6546D01*
X6495Y6041D01*
X6772D02*
X6721Y6143D01*
X6823D01*
X6772Y6041D01*
X7051D02*
X7000Y6143D01*
X7102D01*
X7051Y6041D01*
X7328D02*
X7277Y6143D01*
X7379D01*
X7328Y6041D01*
X7605D02*
X7554Y6143D01*
X7656D01*
X7605Y6041D01*
X8140Y6829D02*
X8165Y6855D01*
X8191D01*
X8165Y6880D01*
X8191Y6905D01*
X8165D01*
X8140Y6931D01*
X8115Y6905D01*
X8089D01*
X8115Y6880D01*
X8089Y6855D01*
X8115D01*
X8140Y6829D01*
X8360Y7639D02*
X8385Y7665D01*
X8411D01*
X8385Y7690D01*
X8411Y7715D01*
X8385D01*
X8360Y7741D01*
X8335Y7715D01*
X8309D01*
X8335Y7690D01*
X8309Y7665D01*
X8335D01*
X8360Y7639D01*
X7660Y7539D02*
X7685Y7565D01*
X7711D01*
X7685Y7590D01*
X7711Y7615D01*
X7685D01*
X7660Y7641D01*
X7635Y7615D01*
X7609D01*
X7635Y7590D01*
X7609Y7565D01*
X7635D01*
X7660Y7539D01*
X9249Y7189D02*
X9275Y7240D01*
X9249Y7291D01*
X9300Y7265D01*
X9351Y7291D01*
X9325Y7240D01*
X9351Y7189D01*
X9300Y7215D01*
X9249Y7189D01*
X9180Y6979D02*
X9205Y7005D01*
X9231D01*
X9205Y7030D01*
X9231Y7055D01*
X9205D01*
X9180Y7081D01*
X9155Y7055D01*
X9129D01*
X9155Y7030D01*
X9129Y7005D01*
X9155D01*
X9180Y6979D01*
X9570Y6929D02*
X9595Y6955D01*
X9621D01*
X9595Y6980D01*
X9621Y7005D01*
X9595D01*
X9570Y7031D01*
X9545Y7005D01*
X9519D01*
X9545Y6980D01*
X9519Y6955D01*
X9545D01*
X9570Y6929D01*
X7890Y7202D02*
X7915Y7227D01*
X7941D01*
X7915Y7253D01*
X7941Y7278D01*
X7915D01*
X7890Y7303D01*
X7865Y7278D01*
X7839D01*
X7865Y7253D01*
X7839Y7227D01*
X7865D01*
X7890Y7202D01*
Y6799D02*
X7915Y6825D01*
X7941D01*
X7915Y6850D01*
X7941Y6875D01*
X7915D01*
X7890Y6901D01*
X7865Y6875D01*
X7839D01*
X7865Y6850D01*
X7839Y6825D01*
X7865D01*
X7890Y6799D01*
X8640Y7349D02*
X8665Y7375D01*
X8691D01*
X8665Y7400D01*
X8691Y7425D01*
X8665D01*
X8640Y7451D01*
X8615Y7425D01*
X8589D01*
X8615Y7400D01*
X8589Y7375D01*
X8615D01*
X8640Y7349D01*
X8360Y7339D02*
X8385Y7365D01*
X8411D01*
X8385Y7390D01*
X8411Y7415D01*
X8385D01*
X8360Y7441D01*
X8335Y7415D01*
X8309D01*
X8335Y7390D01*
X8309Y7365D01*
X8335D01*
X8360Y7339D01*
X8940Y6389D02*
X8965Y6415D01*
X8991D01*
X8965Y6440D01*
X8991Y6465D01*
X8965D01*
X8940Y6491D01*
X8915Y6465D01*
X8889D01*
X8915Y6440D01*
X8889Y6415D01*
X8915D01*
X8940Y6389D01*
X7150Y7079D02*
X7175Y7105D01*
X7201D01*
X7175Y7130D01*
X7201Y7155D01*
X7175D01*
X7150Y7181D01*
X7125Y7155D01*
X7099D01*
X7125Y7130D01*
X7099Y7105D01*
X7125D01*
X7150Y7079D01*
X6340Y7739D02*
X6365Y7765D01*
X6391D01*
X6365Y7790D01*
X6391Y7815D01*
X6365D01*
X6340Y7841D01*
X6315Y7815D01*
X6289D01*
X6315Y7790D01*
X6289Y7765D01*
X6315D01*
X6340Y7739D01*
Y7529D02*
X6365Y7555D01*
X6391D01*
X6365Y7580D01*
X6391Y7605D01*
X6365D01*
X6340Y7631D01*
X6315Y7605D01*
X6289D01*
X6315Y7580D01*
X6289Y7555D01*
X6315D01*
X6340Y7529D01*
X6690Y7359D02*
X6715Y7385D01*
X6741D01*
X6715Y7410D01*
X6741Y7435D01*
X6715D01*
X6690Y7461D01*
X6665Y7435D01*
X6639D01*
X6665Y7410D01*
X6639Y7385D01*
X6665D01*
X6690Y7359D01*
X6325Y7124D02*
X6350Y7150D01*
X6376D01*
X6350Y7175D01*
X6376Y7200D01*
X6350D01*
X6325Y7226D01*
X6300Y7200D01*
X6274D01*
X6300Y7175D01*
X6274Y7150D01*
X6300D01*
X6325Y7124D01*
X5750Y6269D02*
X5775Y6295D01*
X5801D01*
X5775Y6320D01*
X5801Y6345D01*
X5775D01*
X5750Y6371D01*
X5725Y6345D01*
X5699D01*
X5725Y6320D01*
X5699Y6295D01*
X5725D01*
X5750Y6269D01*
X6490Y6869D02*
X6515Y6895D01*
X6541D01*
X6515Y6920D01*
X6541Y6945D01*
X6515D01*
X6490Y6971D01*
X6465Y6945D01*
X6439D01*
X6465Y6920D01*
X6439Y6895D01*
X6465D01*
X6490Y6869D01*
X6500Y6699D02*
X6525Y6725D01*
X6551D01*
X6525Y6750D01*
X6551Y6775D01*
X6525D01*
X6500Y6801D01*
X6475Y6775D01*
X6449D01*
X6475Y6750D01*
X6449Y6725D01*
X6475D01*
X6500Y6699D01*
X7012Y6612D02*
X7038Y6637D01*
X7063D01*
X7038Y6662D01*
X7063Y6688D01*
X7038D01*
X7012Y6713D01*
X6987Y6688D01*
X6962D01*
X6987Y6662D01*
X6962Y6637D01*
X6987D01*
X7012Y6612D01*
X6325Y6899D02*
X6350Y6925D01*
X6376D01*
X6350Y6950D01*
X6376Y6975D01*
X6350D01*
X6325Y7001D01*
X6300Y6975D01*
X6274D01*
X6300Y6950D01*
X6274Y6925D01*
X6300D01*
X6325Y6899D01*
D63*
X5850Y5950D02*
G03*
X5850Y5950I-51J0D01*
G01*
X8352D02*
G03*
X8352Y5950I-51J0D01*
G01*
M02*
