G04 Layer_Physical_Order=2*
G04 Layer_Color=11436288*
%FSLAX42Y42*%
%MOMM*%
G71*
G01*
G75*
%ADD11R,1.45X1.05*%
%ADD13R,1.30X0.90*%
%ADD19C,1.52*%
%ADD21C,0.50*%
%ADD22C,0.25*%
%ADD25C,4.83*%
%ADD26C,1.88*%
%ADD27R,1.88X1.88*%
%ADD28C,1.30*%
%ADD29C,1.27*%
%ADD30R,0.91X0.81*%
%ADD31R,1.45X1.25*%
%ADD32R,1.55X1.55*%
%ADD33R,1.55X1.35*%
%ADD34R,1.35X1.55*%
G36*
X9220Y6350D02*
Y5480D01*
X9600D01*
Y5700D01*
X9800D01*
Y5450D01*
Y5350D01*
X9040D01*
Y6350D01*
X8020D01*
Y6530D01*
X9220D01*
Y6350D01*
D02*
G37*
G36*
X9090Y6950D02*
X9340Y6700D01*
X9340Y5960D01*
X9541Y5960D01*
X9550Y5951D01*
X9550Y5729D01*
X9541Y5720D01*
X9259Y5720D01*
X9250Y5729D01*
X9250Y6590D01*
X8029Y6590D01*
X8020Y6599D01*
X8020Y7107D01*
X9090D01*
Y6950D01*
D02*
G37*
D11*
X8710Y7232D02*
D03*
Y7047D02*
D03*
X8410Y7232D02*
D03*
Y7047D02*
D03*
X8190Y7787D02*
D03*
Y7602D02*
D03*
X7840D02*
D03*
Y7787D02*
D03*
D13*
X9010Y7270D02*
D03*
Y7050D02*
D03*
X8110Y7270D02*
D03*
Y7050D02*
D03*
X9130Y6440D02*
D03*
Y6640D02*
D03*
X8730Y6440D02*
D03*
Y6640D02*
D03*
X8440Y6430D02*
D03*
Y6630D02*
D03*
X8150Y6640D02*
D03*
Y6440D02*
D03*
D19*
X9445Y7873D02*
D03*
X9699D02*
D03*
X9445Y7619D02*
D03*
X9699D02*
D03*
X9445Y7365D02*
D03*
X9699D02*
D03*
X9445Y7111D02*
D03*
X9699D02*
D03*
X9445Y6857D02*
D03*
X9699D02*
D03*
X9445Y6603D02*
D03*
X9699D02*
D03*
X9445Y6349D02*
D03*
X9699D02*
D03*
X9445Y6095D02*
D03*
X9699D02*
D03*
X9445Y5841D02*
D03*
X9699D02*
D03*
X9445Y5587D02*
D03*
X9699D02*
D03*
X5127Y7873D02*
D03*
X5381D02*
D03*
X5127Y7619D02*
D03*
X5381D02*
D03*
X5127Y7365D02*
D03*
X5381D02*
D03*
X5127Y7111D02*
D03*
X5381D02*
D03*
X5127Y6857D02*
D03*
X5381D02*
D03*
X5127Y6603D02*
D03*
X5381D02*
D03*
X5127Y6349D02*
D03*
X5381D02*
D03*
X5127Y6095D02*
D03*
X5381D02*
D03*
X5127Y5841D02*
D03*
X5381D02*
D03*
X5127Y5587D02*
D03*
X5381D02*
D03*
D21*
X8020Y6320D02*
X8120Y6420D01*
X5127Y5587D02*
X5284Y5430D01*
X5833D01*
X6495Y6092D01*
X7055Y6320D02*
X8020D01*
X7012Y6362D02*
X7055Y6320D01*
X5750D02*
X7045D01*
X7050Y6325D01*
X7012Y6362D02*
Y6662D01*
D22*
X5610Y6720D02*
X6300Y7410D01*
X6690D01*
X5310Y6720D02*
X5610D01*
X5250Y6660D02*
X5310Y6720D01*
X5510Y6410D02*
X6275Y7175D01*
X5510Y5716D02*
Y6410D01*
X9180Y6920D02*
Y7030D01*
Y6920D02*
X9370Y6730D01*
X6360Y6650D02*
X6850D01*
X6325Y6685D02*
X6360Y6650D01*
X6325Y6685D02*
Y6950D01*
X7058Y6858D02*
X7882D01*
X6850Y6650D02*
X7058Y6858D01*
X8190Y7772D02*
X8235Y7818D01*
X8360Y7690D02*
X8640D01*
X8670Y7720D01*
X8471Y7777D02*
X8484Y7791D01*
X8471Y7777D02*
Y7777D01*
X8430Y7818D02*
X8471Y7777D01*
X8235Y7818D02*
X8430D01*
X8670Y7720D02*
X8700Y7690D01*
X7660Y7590D02*
Y7607D01*
X8491Y7592D02*
X8698D01*
X8484Y7599D02*
X8491Y7592D01*
X8698D02*
X9015Y7275D01*
X9300Y7240D02*
Y7730D01*
X9320Y7750D01*
X9570Y6980D02*
Y7490D01*
X9699Y7619D01*
X9572Y6730D02*
X9699Y6603D01*
X9370Y6730D02*
X9572D01*
X9240Y7140D02*
X9445Y6935D01*
Y6857D02*
Y6935D01*
X9320Y7750D02*
X9500D01*
X9623Y7873D01*
X9699D01*
X8003Y7140D02*
X9240D01*
X7890Y7253D02*
X8003Y7140D01*
X7680Y7253D02*
X7890D01*
X7882Y6858D02*
X7890Y6850D01*
X8640Y7300D02*
Y7400D01*
X8550Y7490D02*
X8640Y7400D01*
X8303Y7490D02*
X8550D01*
X8640Y7300D02*
X8710Y7230D01*
X8100Y7270D02*
X8110D01*
X7910Y7460D02*
X8100Y7270D01*
X7700Y7460D02*
X7910D01*
X8060Y7390D02*
X8360D01*
X7879Y7571D02*
X8060Y7390D01*
X8190Y7602D02*
X8303Y7490D01*
X7283Y7020D02*
X7350Y7088D01*
X7120Y7020D02*
X7283D01*
X6850Y6750D02*
X7120Y7020D01*
X7335Y7257D02*
X7350Y7272D01*
X7300Y7257D02*
X7335D01*
X7172Y7130D02*
X7300Y7257D01*
X7550Y7460D02*
X7700D01*
X7411Y7599D02*
X7550Y7460D01*
X7359Y7599D02*
X7411D01*
X7512Y7420D02*
X7680Y7253D01*
X7278Y7420D02*
X7512D01*
X7088Y7610D02*
X7278Y7420D01*
X7150Y7130D02*
X7172D01*
X6940Y6920D02*
X7130Y7110D01*
X6490Y6920D02*
X6940D01*
X7571Y7696D02*
X7660Y7607D01*
X7350Y7088D02*
X7680D01*
X6340Y7790D02*
X6475D01*
X6480Y7785D01*
X6545Y7850D01*
X6340Y7580D02*
X6475D01*
X6505Y7610D01*
X5250Y5972D02*
X5381Y5841D01*
X5250Y5972D02*
Y6660D01*
X6275Y7175D02*
X6325D01*
X5381Y5587D02*
X5510Y5716D01*
X6500Y6750D02*
X6850D01*
X7822Y7791D02*
X7840Y7772D01*
X7359Y7791D02*
X7822D01*
X6520Y7860D02*
X6545D01*
X6505Y7610D02*
X6545Y7570D01*
X6560Y7585D01*
X6893D01*
X6545Y7850D02*
X6610Y7785D01*
D25*
X5799Y5950D02*
D03*
X8301D02*
D03*
D26*
X6635Y5808D02*
D03*
X6911D02*
D03*
X7189D02*
D03*
X7466D02*
D03*
X6495Y6092D02*
D03*
X6772D02*
D03*
X7051D02*
D03*
X7328D02*
D03*
D27*
X7605D02*
D03*
D28*
X8140Y6880D02*
D03*
X8360Y7690D02*
D03*
X7660Y7590D02*
D03*
X9180Y7030D02*
D03*
X9570Y6980D02*
D03*
X7890Y7253D02*
D03*
Y6850D02*
D03*
X8640Y7400D02*
D03*
X8360Y7390D02*
D03*
X8940Y6440D02*
D03*
X7150Y7130D02*
D03*
X6340Y7790D02*
D03*
Y7580D02*
D03*
X6690Y7410D02*
D03*
X6325Y7175D02*
D03*
X5750Y6320D02*
D03*
X6490Y6920D02*
D03*
X6500Y6750D02*
D03*
X7012Y6662D02*
D03*
X6325Y6950D02*
D03*
D29*
X9300Y7240D02*
D03*
D30*
X7571Y7696D02*
D03*
X7359Y7599D02*
D03*
Y7791D02*
D03*
X8696Y7696D02*
D03*
X8484Y7599D02*
D03*
Y7791D02*
D03*
D31*
X7680Y7253D02*
D03*
Y7088D02*
D03*
D32*
X7350Y7272D02*
D03*
Y7088D02*
D03*
D33*
X6545Y7610D02*
D03*
Y7810D02*
D03*
D34*
X6893Y7610D02*
D03*
X7088D02*
D03*
M02*
