G04 Layer_Color=15132400*
%FSLAX42Y42*%
%MOMM*%
G71*
G01*
G75*
%ADD35C,0.25*%
%ADD36C,0.15*%
%ADD37C,0.13*%
%ADD38C,0.20*%
%ADD39C,0.20*%
G36*
X6379Y6662D02*
X6325Y6596D01*
X6381D01*
Y6580D01*
X6302D01*
Y6598D01*
X6353Y6661D01*
X6308D01*
Y6678D01*
X6379D01*
Y6662D01*
D02*
G37*
G36*
X6297Y6661D02*
X6269D01*
Y6580D01*
X6249D01*
Y6661D01*
X6220D01*
Y6678D01*
X6297D01*
Y6661D01*
D02*
G37*
G36*
X6437Y6580D02*
X6418D01*
Y6651D01*
X6418Y6650D01*
X6418Y6650D01*
X6417Y6650D01*
X6417Y6649D01*
X6416Y6648D01*
X6414Y6647D01*
X6413Y6646D01*
X6411Y6645D01*
X6410Y6644D01*
X6408Y6643D01*
X6406Y6642D01*
X6404Y6641D01*
X6399Y6639D01*
X6394Y6637D01*
Y6653D01*
X6394D01*
X6395Y6654D01*
X6395Y6654D01*
X6396Y6654D01*
X6397Y6655D01*
X6399Y6655D01*
X6401Y6657D01*
X6404Y6658D01*
X6407Y6660D01*
X6410Y6662D01*
X6410Y6662D01*
X6410Y6663D01*
X6411Y6663D01*
X6411Y6664D01*
X6413Y6665D01*
X6415Y6667D01*
X6417Y6669D01*
X6419Y6672D01*
X6420Y6675D01*
X6422Y6678D01*
X6437D01*
Y6580D01*
D02*
G37*
G36*
X5728Y7266D02*
Y7266D01*
Y7265D01*
Y7264D01*
Y7263D01*
Y7262D01*
X5728Y7260D01*
Y7258D01*
Y7257D01*
X5727Y7252D01*
X5727Y7248D01*
X5727Y7246D01*
X5727Y7245D01*
X5726Y7243D01*
X5726Y7241D01*
Y7241D01*
X5726Y7241D01*
Y7241D01*
X5726Y7240D01*
X5725Y7239D01*
X5725Y7237D01*
X5724Y7235D01*
X5723Y7233D01*
X5722Y7231D01*
X5720Y7229D01*
X5720Y7229D01*
X5719Y7228D01*
X5719Y7227D01*
X5717Y7226D01*
X5716Y7225D01*
X5714Y7224D01*
X5711Y7222D01*
X5709Y7221D01*
X5709D01*
X5709Y7221D01*
X5708Y7221D01*
X5708Y7221D01*
X5707Y7220D01*
X5706Y7220D01*
X5705Y7220D01*
X5704Y7220D01*
X5701Y7219D01*
X5698Y7219D01*
X5694Y7218D01*
X5690Y7218D01*
X5688D01*
X5687Y7218D01*
X5685D01*
X5684Y7218D01*
X5682Y7219D01*
X5679Y7219D01*
X5675Y7219D01*
X5672Y7220D01*
X5670Y7221D01*
X5669Y7221D01*
X5669D01*
X5668Y7221D01*
X5668Y7222D01*
X5666Y7223D01*
X5665Y7224D01*
X5663Y7225D01*
X5661Y7226D01*
X5659Y7228D01*
X5657Y7230D01*
X5657Y7230D01*
X5657Y7231D01*
X5656Y7232D01*
X5655Y7233D01*
X5654Y7235D01*
X5653Y7236D01*
X5653Y7238D01*
X5652Y7241D01*
Y7241D01*
X5652Y7241D01*
Y7241D01*
X5652Y7242D01*
X5651Y7243D01*
X5651Y7244D01*
X5651Y7245D01*
X5651Y7247D01*
X5651Y7248D01*
X5651Y7250D01*
X5650Y7252D01*
X5650Y7255D01*
X5650Y7257D01*
Y7260D01*
X5650Y7262D01*
Y7265D01*
Y7318D01*
X5670D01*
Y7265D01*
Y7264D01*
Y7264D01*
Y7263D01*
Y7263D01*
Y7261D01*
Y7260D01*
X5670Y7258D01*
Y7255D01*
X5670Y7252D01*
X5670Y7251D01*
Y7250D01*
X5670Y7249D01*
X5670Y7248D01*
Y7248D01*
X5671Y7247D01*
X5671Y7246D01*
X5672Y7245D01*
X5672Y7243D01*
X5674Y7242D01*
X5675Y7240D01*
X5676Y7238D01*
X5677Y7238D01*
X5677Y7238D01*
X5678Y7237D01*
X5680Y7237D01*
X5682Y7236D01*
X5684Y7236D01*
X5687Y7235D01*
X5689Y7235D01*
X5691D01*
X5692Y7235D01*
X5694Y7235D01*
X5696Y7236D01*
X5698Y7236D01*
X5700Y7237D01*
X5702Y7238D01*
X5702Y7238D01*
X5703Y7239D01*
X5703Y7240D01*
X5704Y7241D01*
X5705Y7242D01*
X5706Y7243D01*
X5707Y7245D01*
X5707Y7247D01*
Y7247D01*
X5707Y7248D01*
X5707Y7249D01*
X5708Y7251D01*
Y7252D01*
X5708Y7253D01*
Y7254D01*
X5708Y7256D01*
Y7257D01*
X5708Y7259D01*
Y7261D01*
Y7263D01*
Y7318D01*
X5728D01*
Y7266D01*
D02*
G37*
G36*
X5777Y7318D02*
X5779Y7318D01*
X5780Y7318D01*
X5782Y7317D01*
X5783Y7317D01*
X5787Y7316D01*
X5788Y7315D01*
X5790Y7314D01*
X5792Y7313D01*
X5794Y7312D01*
X5796Y7311D01*
X5797Y7309D01*
X5797Y7309D01*
X5798Y7309D01*
X5798Y7309D01*
X5798Y7308D01*
X5800Y7307D01*
X5801Y7305D01*
X5802Y7302D01*
X5803Y7299D01*
X5804Y7296D01*
X5804Y7295D01*
X5804Y7293D01*
Y7293D01*
Y7292D01*
X5804Y7292D01*
X5804Y7291D01*
X5804Y7290D01*
X5804Y7289D01*
X5803Y7287D01*
X5803Y7286D01*
X5802Y7284D01*
X5801Y7282D01*
X5800Y7281D01*
X5798Y7279D01*
X5797Y7277D01*
X5795Y7276D01*
X5793Y7274D01*
X5790Y7272D01*
X5790D01*
X5791Y7272D01*
X5791D01*
X5792Y7272D01*
X5793Y7272D01*
X5795Y7271D01*
X5797Y7270D01*
X5799Y7268D01*
X5802Y7266D01*
X5804Y7264D01*
X5804Y7264D01*
X5804Y7263D01*
X5805Y7262D01*
X5806Y7260D01*
X5807Y7258D01*
X5808Y7255D01*
X5808Y7252D01*
X5809Y7249D01*
Y7249D01*
Y7249D01*
Y7248D01*
X5808Y7247D01*
X5808Y7246D01*
X5808Y7245D01*
X5808Y7243D01*
X5807Y7242D01*
X5806Y7238D01*
X5805Y7236D01*
X5805Y7234D01*
X5804Y7233D01*
X5802Y7231D01*
X5801Y7229D01*
X5799Y7227D01*
X5799Y7227D01*
X5799Y7227D01*
X5798Y7226D01*
X5797Y7226D01*
X5796Y7225D01*
X5795Y7224D01*
X5794Y7224D01*
X5793Y7223D01*
X5791Y7222D01*
X5789Y7221D01*
X5787Y7220D01*
X5785Y7220D01*
X5783Y7219D01*
X5781Y7219D01*
X5778Y7218D01*
X5776Y7218D01*
X5774D01*
X5773Y7218D01*
X5772Y7218D01*
X5771Y7219D01*
X5770Y7219D01*
X5768Y7219D01*
X5765Y7220D01*
X5761Y7221D01*
X5759Y7222D01*
X5757Y7223D01*
X5755Y7225D01*
X5754Y7226D01*
X5754Y7226D01*
X5753Y7226D01*
X5753Y7227D01*
X5752Y7227D01*
X5752Y7228D01*
X5751Y7229D01*
X5750Y7230D01*
X5749Y7231D01*
X5748Y7233D01*
X5747Y7234D01*
X5746Y7237D01*
X5745Y7241D01*
X5744Y7243D01*
X5744Y7246D01*
X5762Y7248D01*
Y7248D01*
Y7248D01*
X5762Y7247D01*
X5762Y7246D01*
X5763Y7244D01*
X5763Y7242D01*
X5764Y7240D01*
X5765Y7239D01*
X5766Y7237D01*
X5767Y7237D01*
X5767Y7237D01*
X5768Y7236D01*
X5769Y7236D01*
X5770Y7235D01*
X5772Y7234D01*
X5774Y7234D01*
X5776Y7234D01*
X5776D01*
X5777Y7234D01*
X5778Y7234D01*
X5779Y7234D01*
X5781Y7235D01*
X5782Y7236D01*
X5784Y7237D01*
X5785Y7238D01*
X5785Y7238D01*
X5786Y7239D01*
X5787Y7240D01*
X5787Y7241D01*
X5788Y7243D01*
X5789Y7245D01*
X5789Y7247D01*
X5789Y7250D01*
Y7250D01*
Y7250D01*
Y7251D01*
X5789Y7252D01*
X5789Y7254D01*
X5788Y7256D01*
X5788Y7258D01*
X5787Y7260D01*
X5785Y7261D01*
X5785Y7261D01*
X5785Y7262D01*
X5784Y7263D01*
X5783Y7263D01*
X5782Y7264D01*
X5780Y7265D01*
X5778Y7265D01*
X5776Y7266D01*
X5775D01*
X5774Y7265D01*
X5773Y7265D01*
X5771Y7265D01*
X5770Y7265D01*
X5768Y7264D01*
X5770Y7279D01*
X5771D01*
X5772Y7279D01*
X5774Y7279D01*
X5776Y7280D01*
X5778Y7280D01*
X5780Y7281D01*
X5781Y7282D01*
X5782Y7283D01*
X5782Y7283D01*
X5783Y7284D01*
X5783Y7285D01*
X5784Y7286D01*
X5785Y7288D01*
X5785Y7290D01*
X5785Y7292D01*
Y7292D01*
Y7293D01*
X5785Y7293D01*
X5785Y7295D01*
X5785Y7296D01*
X5784Y7297D01*
X5783Y7299D01*
X5783Y7300D01*
X5782Y7300D01*
X5782Y7300D01*
X5781Y7301D01*
X5780Y7301D01*
X5779Y7302D01*
X5778Y7302D01*
X5776Y7302D01*
X5775Y7303D01*
X5774D01*
X5773Y7302D01*
X5772Y7302D01*
X5771Y7302D01*
X5769Y7301D01*
X5768Y7300D01*
X5766Y7299D01*
X5766Y7299D01*
X5766Y7299D01*
X5765Y7298D01*
X5765Y7297D01*
X5764Y7295D01*
X5763Y7294D01*
X5763Y7292D01*
X5762Y7289D01*
X5745Y7292D01*
Y7292D01*
X5745Y7293D01*
Y7293D01*
X5745Y7294D01*
X5746Y7295D01*
X5746Y7298D01*
X5747Y7300D01*
X5748Y7302D01*
X5749Y7304D01*
X5751Y7307D01*
X5751Y7307D01*
X5751Y7307D01*
X5752Y7308D01*
X5753Y7310D01*
X5755Y7311D01*
X5756Y7312D01*
X5758Y7314D01*
X5761Y7315D01*
X5761D01*
X5761Y7315D01*
X5762Y7315D01*
X5763Y7316D01*
X5765Y7317D01*
X5767Y7317D01*
X5770Y7318D01*
X5772Y7318D01*
X5775Y7318D01*
X5776D01*
X5777Y7318D01*
D02*
G37*
G36*
X9164Y5300D02*
X9145D01*
Y5318D01*
X9164D01*
Y5300D01*
D02*
G37*
G36*
X8871Y5292D02*
X8873Y5292D01*
X8874Y5292D01*
X8876Y5292D01*
X8879Y5291D01*
X8883Y5290D01*
X8886Y5289D01*
X8888Y5288D01*
X8889Y5288D01*
X8889D01*
X8890Y5287D01*
X8890Y5287D01*
X8892Y5286D01*
X8893Y5284D01*
X8895Y5282D01*
X8896Y5280D01*
X8898Y5277D01*
X8899Y5274D01*
X8881Y5270D01*
Y5271D01*
X8881Y5271D01*
X8881Y5272D01*
X8880Y5273D01*
X8880Y5274D01*
X8879Y5275D01*
X8878Y5276D01*
X8877Y5277D01*
X8877Y5277D01*
X8876Y5277D01*
X8876Y5277D01*
X8875Y5278D01*
X8873Y5278D01*
X8872Y5279D01*
X8870Y5279D01*
X8868Y5279D01*
X8867D01*
X8865Y5279D01*
X8864Y5279D01*
X8862Y5278D01*
X8860Y5278D01*
X8859Y5278D01*
X8857Y5277D01*
X8857D01*
X8857Y5277D01*
X8856Y5276D01*
X8856Y5275D01*
X8855Y5274D01*
X8855Y5273D01*
Y5273D01*
Y5273D01*
X8856Y5272D01*
X8856Y5271D01*
X8857Y5270D01*
X8857Y5270D01*
X8857Y5269D01*
X8858Y5269D01*
X8858Y5269D01*
X8859Y5269D01*
X8859Y5269D01*
X8860Y5268D01*
X8861Y5268D01*
X8862Y5268D01*
X8864Y5267D01*
X8866Y5267D01*
X8867Y5266D01*
X8870Y5266D01*
X8872Y5265D01*
X8875Y5264D01*
X8875D01*
X8875Y5264D01*
X8876Y5264D01*
X8877Y5264D01*
X8878Y5263D01*
X8880Y5263D01*
X8883Y5262D01*
X8886Y5261D01*
X8890Y5259D01*
X8891Y5258D01*
X8893Y5258D01*
X8894Y5257D01*
X8895Y5256D01*
X8896Y5256D01*
X8896Y5255D01*
X8897Y5254D01*
X8898Y5252D01*
X8900Y5250D01*
X8900Y5248D01*
X8901Y5245D01*
X8901Y5242D01*
Y5242D01*
Y5242D01*
Y5241D01*
X8901Y5240D01*
X8901Y5240D01*
X8901Y5239D01*
X8900Y5236D01*
X8899Y5234D01*
X8899Y5232D01*
X8898Y5231D01*
X8897Y5230D01*
X8896Y5228D01*
X8895Y5227D01*
X8893Y5225D01*
X8893Y5225D01*
X8893Y5225D01*
X8892Y5225D01*
X8892Y5224D01*
X8891Y5224D01*
X8890Y5223D01*
X8889Y5223D01*
X8887Y5222D01*
X8886Y5221D01*
X8884Y5221D01*
X8882Y5220D01*
X8880Y5220D01*
X8877Y5219D01*
X8875Y5219D01*
X8872Y5219D01*
X8869Y5218D01*
X8868D01*
X8867Y5219D01*
X8866D01*
X8864Y5219D01*
X8863Y5219D01*
X8861Y5219D01*
X8857Y5220D01*
X8853Y5221D01*
X8850Y5222D01*
X8848Y5223D01*
X8846Y5224D01*
X8846Y5224D01*
X8846Y5225D01*
X8845Y5225D01*
X8845Y5225D01*
X8843Y5227D01*
X8842Y5228D01*
X8840Y5231D01*
X8838Y5233D01*
X8837Y5237D01*
X8835Y5240D01*
X8854Y5243D01*
Y5243D01*
X8854Y5242D01*
X8855Y5241D01*
X8855Y5240D01*
X8856Y5238D01*
X8857Y5237D01*
X8858Y5236D01*
X8859Y5235D01*
X8859Y5235D01*
X8860Y5234D01*
X8860Y5234D01*
X8862Y5233D01*
X8863Y5233D01*
X8865Y5232D01*
X8867Y5232D01*
X8869Y5232D01*
X8870D01*
X8872Y5232D01*
X8873Y5232D01*
X8875Y5233D01*
X8877Y5233D01*
X8879Y5234D01*
X8880Y5235D01*
X8880Y5235D01*
X8881Y5235D01*
X8881Y5235D01*
X8881Y5236D01*
X8882Y5237D01*
X8882Y5237D01*
X8882Y5238D01*
X8883Y5240D01*
Y5240D01*
Y5240D01*
X8882Y5241D01*
X8882Y5242D01*
X8881Y5243D01*
X8881Y5243D01*
X8881Y5244D01*
X8880Y5244D01*
X8879Y5244D01*
X8878Y5245D01*
X8877Y5245D01*
X8875Y5246D01*
X8875D01*
X8874Y5246D01*
X8873Y5246D01*
X8871Y5246D01*
X8870Y5247D01*
X8868Y5247D01*
X8865Y5248D01*
X8863Y5249D01*
X8858Y5250D01*
X8856Y5251D01*
X8853Y5252D01*
X8851Y5252D01*
X8849Y5253D01*
X8848Y5254D01*
X8846Y5255D01*
X8846Y5255D01*
X8846Y5255D01*
X8846Y5255D01*
X8845Y5256D01*
X8844Y5257D01*
X8842Y5259D01*
X8841Y5261D01*
X8839Y5264D01*
X8839Y5265D01*
X8838Y5267D01*
X8838Y5269D01*
X8838Y5271D01*
Y5271D01*
Y5271D01*
Y5271D01*
X8838Y5272D01*
X8838Y5273D01*
X8838Y5274D01*
X8839Y5276D01*
X8840Y5278D01*
X8841Y5281D01*
X8842Y5282D01*
X8843Y5284D01*
X8844Y5285D01*
X8845Y5286D01*
X8845Y5286D01*
X8845Y5286D01*
X8846Y5287D01*
X8847Y5287D01*
X8847Y5287D01*
X8848Y5288D01*
X8849Y5289D01*
X8851Y5289D01*
X8852Y5290D01*
X8854Y5290D01*
X8856Y5291D01*
X8858Y5291D01*
X8860Y5292D01*
X8862Y5292D01*
X8865Y5292D01*
X8870D01*
X8871Y5292D01*
D02*
G37*
G36*
X8952Y5246D02*
X8916D01*
Y5265D01*
X8952D01*
Y5246D01*
D02*
G37*
G36*
X9108Y5257D02*
X9134Y5220D01*
X9111D01*
X9096Y5242D01*
X9082Y5220D01*
X9060D01*
X9086Y5256D01*
X9061Y5291D01*
X9084D01*
X9096Y5271D01*
X9110Y5291D01*
X9132D01*
X9108Y5257D01*
D02*
G37*
G36*
X9265Y5292D02*
X9267Y5292D01*
X9269Y5291D01*
X9271Y5291D01*
X9273Y5290D01*
X9276Y5289D01*
X9276Y5289D01*
X9276Y5289D01*
X9277Y5288D01*
X9279Y5287D01*
X9280Y5285D01*
X9281Y5284D01*
X9283Y5282D01*
X9284Y5280D01*
X9284Y5280D01*
X9284Y5279D01*
X9284Y5278D01*
X9285Y5276D01*
X9285Y5274D01*
X9285Y5272D01*
X9286Y5269D01*
X9286Y5265D01*
Y5220D01*
X9267D01*
Y5260D01*
Y5260D01*
Y5261D01*
Y5261D01*
Y5262D01*
X9267Y5264D01*
X9267Y5266D01*
X9266Y5268D01*
X9266Y5270D01*
X9266Y5272D01*
X9265Y5273D01*
X9265Y5274D01*
X9265Y5274D01*
X9264Y5275D01*
X9264Y5275D01*
X9263Y5276D01*
X9262Y5277D01*
X9260Y5277D01*
X9259Y5278D01*
X9257Y5278D01*
X9256D01*
X9255Y5278D01*
X9254Y5278D01*
X9253Y5277D01*
X9252Y5277D01*
X9251Y5276D01*
X9249Y5276D01*
X9249Y5275D01*
X9249Y5275D01*
X9248Y5275D01*
X9248Y5274D01*
X9247Y5273D01*
X9246Y5272D01*
X9245Y5270D01*
X9244Y5268D01*
Y5268D01*
X9244Y5268D01*
X9244Y5267D01*
X9244Y5265D01*
X9244Y5263D01*
X9243Y5260D01*
X9243Y5257D01*
Y5254D01*
Y5220D01*
X9224D01*
Y5259D01*
Y5259D01*
Y5259D01*
Y5260D01*
Y5260D01*
Y5262D01*
X9224Y5264D01*
X9224Y5266D01*
X9224Y5268D01*
X9224Y5270D01*
X9223Y5271D01*
X9223Y5272D01*
Y5272D01*
X9223Y5272D01*
X9223Y5273D01*
X9222Y5274D01*
X9222Y5275D01*
X9221Y5276D01*
X9220Y5276D01*
X9220Y5277D01*
X9220Y5277D01*
X9219Y5277D01*
X9219Y5277D01*
X9218Y5278D01*
X9217Y5278D01*
X9216Y5278D01*
X9214D01*
X9213Y5278D01*
X9212Y5278D01*
X9211Y5277D01*
X9209Y5277D01*
X9208Y5276D01*
X9207Y5276D01*
X9207Y5275D01*
X9206Y5275D01*
X9206Y5275D01*
X9205Y5274D01*
X9204Y5273D01*
X9203Y5272D01*
X9202Y5270D01*
X9202Y5269D01*
Y5269D01*
X9201Y5268D01*
X9201Y5267D01*
X9201Y5265D01*
X9201Y5263D01*
X9201Y5261D01*
X9200Y5258D01*
Y5254D01*
Y5220D01*
X9182D01*
Y5291D01*
X9199D01*
Y5281D01*
X9199Y5281D01*
X9199Y5281D01*
X9200Y5282D01*
X9201Y5283D01*
X9201Y5284D01*
X9202Y5285D01*
X9204Y5286D01*
X9205Y5287D01*
X9207Y5288D01*
X9208Y5289D01*
X9212Y5291D01*
X9214Y5291D01*
X9216Y5292D01*
X9218Y5292D01*
X9221Y5292D01*
X9222D01*
X9223Y5292D01*
X9225Y5292D01*
X9227Y5292D01*
X9229Y5291D01*
X9231Y5290D01*
X9233Y5289D01*
X9233Y5289D01*
X9233Y5289D01*
X9234Y5288D01*
X9235Y5287D01*
X9237Y5286D01*
X9238Y5285D01*
X9240Y5283D01*
X9241Y5281D01*
X9241Y5281D01*
X9242Y5282D01*
X9243Y5283D01*
X9244Y5284D01*
X9245Y5286D01*
X9247Y5287D01*
X9249Y5288D01*
X9251Y5289D01*
X9251Y5290D01*
X9252Y5290D01*
X9253Y5290D01*
X9254Y5291D01*
X9256Y5291D01*
X9258Y5292D01*
X9260Y5292D01*
X9262Y5292D01*
X9264D01*
X9265Y5292D01*
D02*
G37*
G36*
X9536D02*
X9538Y5292D01*
X9540Y5291D01*
X9542Y5291D01*
X9544Y5290D01*
X9546Y5289D01*
X9540Y5272D01*
X9540Y5273D01*
X9539Y5273D01*
X9539Y5273D01*
X9537Y5274D01*
X9536Y5275D01*
X9535Y5275D01*
X9533Y5275D01*
X9532Y5276D01*
X9531D01*
X9530Y5275D01*
X9529Y5275D01*
X9528Y5275D01*
X9527Y5275D01*
X9526Y5274D01*
X9525Y5273D01*
X9525Y5273D01*
X9524Y5273D01*
X9524Y5272D01*
X9523Y5271D01*
X9523Y5270D01*
X9522Y5269D01*
X9521Y5267D01*
X9521Y5265D01*
Y5265D01*
X9521Y5265D01*
X9520Y5264D01*
Y5264D01*
X9520Y5263D01*
X9520Y5262D01*
X9520Y5260D01*
X9520Y5259D01*
X9520Y5257D01*
X9520Y5255D01*
Y5253D01*
X9519Y5251D01*
X9519Y5248D01*
Y5245D01*
Y5242D01*
Y5220D01*
X9500D01*
Y5291D01*
X9518D01*
Y5281D01*
X9518Y5281D01*
X9519Y5282D01*
X9519Y5283D01*
X9521Y5285D01*
X9522Y5286D01*
X9523Y5288D01*
X9524Y5289D01*
X9526Y5290D01*
X9526Y5290D01*
X9526Y5290D01*
X9527Y5291D01*
X9528Y5291D01*
X9529Y5292D01*
X9531Y5292D01*
X9532Y5292D01*
X9534Y5292D01*
X9535D01*
X9536Y5292D01*
D02*
G37*
G36*
X8722Y7170D02*
X8703D01*
Y7241D01*
X8703Y7240D01*
X8703Y7240D01*
X8703Y7240D01*
X8702Y7239D01*
X8701Y7238D01*
X8700Y7237D01*
X8698Y7236D01*
X8697Y7235D01*
X8695Y7234D01*
X8693Y7233D01*
X8691Y7232D01*
X8689Y7231D01*
X8684Y7229D01*
X8679Y7227D01*
Y7243D01*
X8680D01*
X8680Y7244D01*
X8680Y7244D01*
X8681Y7244D01*
X8682Y7245D01*
X8684Y7245D01*
X8686Y7247D01*
X8689Y7248D01*
X8692Y7250D01*
X8695Y7252D01*
X8695Y7252D01*
X8696Y7253D01*
X8696Y7253D01*
X8697Y7254D01*
X8698Y7255D01*
X8700Y7257D01*
X8702Y7259D01*
X8704Y7262D01*
X8706Y7265D01*
X8707Y7268D01*
X8722D01*
Y7170D01*
D02*
G37*
G36*
X5256Y5150D02*
X5235D01*
X5215Y5223D01*
X5196Y5150D01*
X5174D01*
X5151Y5248D01*
X5171D01*
X5186Y5180D01*
X5204Y5248D01*
X5228D01*
X5245Y5179D01*
X5259Y5248D01*
X5279D01*
X5256Y5150D01*
D02*
G37*
G36*
X5447D02*
X5428D01*
Y5221D01*
X5428Y5220D01*
X5428Y5220D01*
X5427Y5220D01*
X5426Y5219D01*
X5425Y5218D01*
X5424Y5217D01*
X5423Y5216D01*
X5421Y5215D01*
X5419Y5214D01*
X5418Y5213D01*
X5416Y5212D01*
X5414Y5211D01*
X5409Y5209D01*
X5404Y5207D01*
Y5223D01*
X5404D01*
X5404Y5224D01*
X5405Y5224D01*
X5405Y5224D01*
X5407Y5225D01*
X5409Y5225D01*
X5411Y5227D01*
X5414Y5228D01*
X5417Y5230D01*
X5420Y5232D01*
X5420Y5232D01*
X5420Y5233D01*
X5421Y5233D01*
X5421Y5234D01*
X5423Y5235D01*
X5424Y5237D01*
X5426Y5239D01*
X5428Y5242D01*
X5430Y5245D01*
X5432Y5248D01*
X5447D01*
Y5150D01*
D02*
G37*
G36*
X5383D02*
X5365D01*
X5365Y5227D01*
X5346Y5150D01*
X5327D01*
X5308Y5227D01*
Y5150D01*
X5289D01*
Y5248D01*
X5319D01*
X5336Y5181D01*
X5354Y5248D01*
X5383D01*
Y5150D01*
D02*
G37*
G36*
X7254Y7588D02*
X7255Y7588D01*
X7256Y7588D01*
X7258Y7587D01*
X7259Y7587D01*
X7263Y7586D01*
X7267Y7585D01*
X7269Y7584D01*
X7270Y7583D01*
X7272Y7582D01*
X7274Y7580D01*
X7274Y7580D01*
X7274Y7580D01*
X7275Y7579D01*
X7275Y7579D01*
X7276Y7578D01*
X7277Y7577D01*
X7277Y7576D01*
X7278Y7575D01*
X7279Y7572D01*
X7281Y7569D01*
X7281Y7567D01*
X7282Y7565D01*
X7282Y7563D01*
X7282Y7561D01*
Y7560D01*
Y7560D01*
X7282Y7558D01*
X7282Y7557D01*
X7282Y7555D01*
X7281Y7553D01*
X7281Y7550D01*
X7280Y7548D01*
X7280Y7548D01*
X7279Y7547D01*
X7279Y7546D01*
X7278Y7544D01*
X7277Y7543D01*
X7276Y7540D01*
X7274Y7538D01*
X7272Y7536D01*
X7272Y7536D01*
X7272Y7535D01*
X7271Y7534D01*
X7269Y7533D01*
X7268Y7531D01*
X7266Y7529D01*
X7263Y7526D01*
X7260Y7523D01*
X7260Y7523D01*
X7260Y7523D01*
X7259Y7523D01*
X7259Y7522D01*
X7257Y7521D01*
X7255Y7519D01*
X7253Y7517D01*
X7252Y7515D01*
X7250Y7514D01*
X7249Y7513D01*
X7249Y7512D01*
X7249Y7512D01*
X7248Y7512D01*
X7248Y7511D01*
X7247Y7511D01*
X7246Y7509D01*
X7245Y7507D01*
X7282D01*
Y7490D01*
X7217D01*
Y7490D01*
Y7490D01*
X7217Y7491D01*
X7217Y7492D01*
X7217Y7493D01*
X7217Y7494D01*
X7218Y7496D01*
X7219Y7499D01*
X7220Y7502D01*
X7221Y7505D01*
X7223Y7509D01*
Y7509D01*
X7223Y7509D01*
X7224Y7510D01*
X7224Y7510D01*
X7225Y7511D01*
X7226Y7512D01*
X7226Y7513D01*
X7228Y7515D01*
X7229Y7517D01*
X7230Y7518D01*
X7232Y7520D01*
X7234Y7522D01*
X7236Y7524D01*
X7239Y7527D01*
X7241Y7529D01*
X7244Y7532D01*
X7244Y7532D01*
X7245Y7533D01*
X7245Y7533D01*
X7246Y7534D01*
X7247Y7535D01*
X7248Y7536D01*
X7251Y7538D01*
X7253Y7541D01*
X7256Y7544D01*
X7257Y7545D01*
X7258Y7546D01*
X7259Y7547D01*
X7259Y7548D01*
X7260Y7548D01*
X7260Y7549D01*
X7261Y7550D01*
X7261Y7552D01*
X7262Y7553D01*
X7263Y7555D01*
X7263Y7557D01*
X7263Y7559D01*
Y7560D01*
Y7560D01*
Y7560D01*
X7263Y7562D01*
X7263Y7563D01*
X7263Y7565D01*
X7262Y7566D01*
X7261Y7568D01*
X7260Y7569D01*
X7260Y7569D01*
X7259Y7570D01*
X7259Y7570D01*
X7258Y7571D01*
X7256Y7571D01*
X7255Y7572D01*
X7253Y7572D01*
X7251Y7573D01*
X7250D01*
X7249Y7572D01*
X7247Y7572D01*
X7246Y7572D01*
X7244Y7571D01*
X7243Y7570D01*
X7241Y7569D01*
X7241Y7569D01*
X7241Y7568D01*
X7240Y7568D01*
X7240Y7566D01*
X7239Y7565D01*
X7238Y7563D01*
X7238Y7560D01*
X7237Y7557D01*
X7219Y7559D01*
Y7559D01*
X7219Y7560D01*
Y7561D01*
X7219Y7562D01*
X7219Y7563D01*
X7220Y7564D01*
X7220Y7566D01*
X7221Y7568D01*
X7222Y7571D01*
X7224Y7575D01*
X7225Y7577D01*
X7226Y7579D01*
X7228Y7580D01*
X7229Y7581D01*
X7229Y7581D01*
X7230Y7582D01*
X7230Y7582D01*
X7231Y7582D01*
X7232Y7583D01*
X7233Y7583D01*
X7234Y7584D01*
X7235Y7585D01*
X7237Y7585D01*
X7238Y7586D01*
X7242Y7587D01*
X7247Y7588D01*
X7249Y7588D01*
X7251Y7588D01*
X7253D01*
X7254Y7588D01*
D02*
G37*
G36*
X6927Y7587D02*
X6931D01*
X6935Y7587D01*
X6939Y7587D01*
X6941Y7587D01*
X6942Y7587D01*
X6944Y7586D01*
X6945Y7586D01*
X6945D01*
X6945Y7586D01*
X6946Y7586D01*
X6946Y7586D01*
X6948Y7585D01*
X6950Y7584D01*
X6952Y7583D01*
X6954Y7581D01*
X6957Y7579D01*
X6959Y7576D01*
Y7576D01*
X6959Y7576D01*
X6959Y7576D01*
X6960Y7575D01*
X6960Y7574D01*
X6961Y7573D01*
X6961Y7572D01*
X6962Y7571D01*
X6963Y7569D01*
X6964Y7565D01*
X6964Y7562D01*
X6965Y7558D01*
Y7557D01*
Y7557D01*
Y7557D01*
Y7556D01*
X6965Y7555D01*
Y7554D01*
X6964Y7552D01*
X6964Y7550D01*
X6963Y7547D01*
X6962Y7545D01*
X6961Y7542D01*
X6961Y7542D01*
X6961Y7541D01*
X6960Y7540D01*
X6959Y7539D01*
X6958Y7537D01*
X6956Y7536D01*
X6955Y7534D01*
X6953Y7533D01*
X6953Y7533D01*
X6952Y7532D01*
X6951Y7532D01*
X6950Y7531D01*
X6948Y7530D01*
X6947Y7529D01*
X6945Y7529D01*
X6943Y7528D01*
X6943D01*
X6942Y7528D01*
X6942D01*
X6941Y7528D01*
X6940Y7528D01*
X6939Y7527D01*
X6938D01*
X6936Y7527D01*
X6935Y7527D01*
X6933Y7527D01*
X6931Y7527D01*
X6929D01*
X6927Y7527D01*
X6910D01*
Y7490D01*
X6890D01*
Y7588D01*
X6926D01*
X6927Y7587D01*
D02*
G37*
G36*
X5107Y5247D02*
X5111D01*
X5115Y5247D01*
X5119Y5247D01*
X5121Y5247D01*
X5122Y5247D01*
X5124Y5246D01*
X5125Y5246D01*
X5125D01*
X5125Y5246D01*
X5126Y5246D01*
X5126Y5246D01*
X5128Y5245D01*
X5130Y5244D01*
X5132Y5243D01*
X5134Y5241D01*
X5137Y5239D01*
X5139Y5236D01*
Y5236D01*
X5139Y5236D01*
X5139Y5236D01*
X5140Y5235D01*
X5140Y5234D01*
X5141Y5233D01*
X5141Y5232D01*
X5142Y5231D01*
X5143Y5229D01*
X5144Y5225D01*
X5144Y5222D01*
X5145Y5218D01*
Y5217D01*
Y5217D01*
Y5217D01*
Y5216D01*
X5145Y5215D01*
Y5214D01*
X5144Y5212D01*
X5144Y5210D01*
X5143Y5207D01*
X5142Y5205D01*
X5141Y5202D01*
X5141Y5202D01*
X5141Y5201D01*
X5140Y5200D01*
X5139Y5199D01*
X5138Y5197D01*
X5136Y5196D01*
X5135Y5194D01*
X5133Y5193D01*
X5133Y5193D01*
X5132Y5192D01*
X5131Y5192D01*
X5130Y5191D01*
X5128Y5190D01*
X5127Y5189D01*
X5125Y5189D01*
X5123Y5188D01*
X5123D01*
X5122Y5188D01*
X5122D01*
X5121Y5188D01*
X5120Y5188D01*
X5119Y5187D01*
X5118D01*
X5116Y5187D01*
X5115Y5187D01*
X5113Y5187D01*
X5111Y5187D01*
X5109D01*
X5107Y5187D01*
X5090D01*
Y5150D01*
X5070D01*
Y5248D01*
X5106D01*
X5107Y5247D01*
D02*
G37*
G36*
X6539Y7488D02*
X6540Y7488D01*
X6542Y7488D01*
X6543Y7487D01*
X6545Y7487D01*
X6549Y7486D01*
X6552Y7485D01*
X6554Y7484D01*
X6556Y7483D01*
X6558Y7482D01*
X6559Y7480D01*
X6559Y7480D01*
X6560Y7480D01*
X6560Y7479D01*
X6561Y7479D01*
X6561Y7478D01*
X6562Y7477D01*
X6563Y7476D01*
X6564Y7475D01*
X6565Y7472D01*
X6566Y7469D01*
X6567Y7467D01*
X6567Y7465D01*
X6567Y7463D01*
X6568Y7461D01*
Y7460D01*
Y7460D01*
X6567Y7458D01*
X6567Y7457D01*
X6567Y7455D01*
X6567Y7453D01*
X6566Y7450D01*
X6565Y7448D01*
X6565Y7448D01*
X6565Y7447D01*
X6564Y7446D01*
X6563Y7444D01*
X6562Y7443D01*
X6561Y7440D01*
X6560Y7438D01*
X6558Y7436D01*
X6558Y7436D01*
X6557Y7435D01*
X6556Y7434D01*
X6555Y7433D01*
X6553Y7431D01*
X6551Y7429D01*
X6549Y7426D01*
X6545Y7423D01*
X6545Y7423D01*
X6545Y7423D01*
X6545Y7423D01*
X6544Y7422D01*
X6543Y7421D01*
X6541Y7419D01*
X6539Y7417D01*
X6537Y7415D01*
X6535Y7414D01*
X6535Y7413D01*
X6534Y7412D01*
X6534Y7412D01*
X6534Y7412D01*
X6533Y7411D01*
X6533Y7411D01*
X6532Y7409D01*
X6530Y7407D01*
X6568D01*
Y7390D01*
X6502D01*
Y7390D01*
Y7390D01*
X6502Y7391D01*
X6502Y7392D01*
X6502Y7393D01*
X6503Y7394D01*
X6503Y7396D01*
X6504Y7399D01*
X6505Y7402D01*
X6507Y7405D01*
X6508Y7409D01*
Y7409D01*
X6509Y7409D01*
X6509Y7410D01*
X6510Y7410D01*
X6510Y7411D01*
X6511Y7412D01*
X6512Y7413D01*
X6513Y7415D01*
X6514Y7417D01*
X6516Y7418D01*
X6518Y7420D01*
X6520Y7422D01*
X6522Y7424D01*
X6524Y7427D01*
X6527Y7429D01*
X6529Y7432D01*
X6530Y7432D01*
X6530Y7433D01*
X6531Y7433D01*
X6531Y7434D01*
X6533Y7435D01*
X6534Y7436D01*
X6536Y7438D01*
X6539Y7441D01*
X6541Y7444D01*
X6542Y7445D01*
X6543Y7446D01*
X6544Y7447D01*
X6545Y7448D01*
X6545Y7448D01*
X6545Y7449D01*
X6546Y7450D01*
X6547Y7452D01*
X6548Y7453D01*
X6548Y7455D01*
X6549Y7457D01*
X6549Y7459D01*
Y7460D01*
Y7460D01*
Y7460D01*
X6549Y7462D01*
X6548Y7463D01*
X6548Y7465D01*
X6547Y7466D01*
X6547Y7468D01*
X6545Y7469D01*
X6545Y7469D01*
X6545Y7470D01*
X6544Y7470D01*
X6543Y7471D01*
X6542Y7471D01*
X6540Y7472D01*
X6538Y7472D01*
X6536Y7473D01*
X6535D01*
X6534Y7472D01*
X6533Y7472D01*
X6531Y7472D01*
X6530Y7471D01*
X6528Y7470D01*
X6527Y7469D01*
X6527Y7469D01*
X6526Y7468D01*
X6526Y7468D01*
X6525Y7466D01*
X6524Y7465D01*
X6524Y7463D01*
X6523Y7460D01*
X6523Y7457D01*
X6504Y7459D01*
Y7459D01*
X6504Y7460D01*
Y7461D01*
X6505Y7462D01*
X6505Y7463D01*
X6505Y7464D01*
X6506Y7466D01*
X6506Y7468D01*
X6508Y7471D01*
X6509Y7475D01*
X6510Y7477D01*
X6512Y7479D01*
X6513Y7480D01*
X6515Y7481D01*
X6515Y7481D01*
X6515Y7482D01*
X6515Y7482D01*
X6516Y7482D01*
X6517Y7483D01*
X6518Y7483D01*
X6519Y7484D01*
X6521Y7485D01*
X6522Y7485D01*
X6524Y7486D01*
X6528Y7487D01*
X6532Y7488D01*
X6534Y7488D01*
X6537Y7488D01*
X6538D01*
X6539Y7488D01*
D02*
G37*
G36*
X8658Y7216D02*
Y7216D01*
Y7215D01*
Y7214D01*
Y7213D01*
Y7212D01*
X8658Y7210D01*
Y7208D01*
Y7207D01*
X8657Y7202D01*
X8657Y7198D01*
X8657Y7196D01*
X8657Y7195D01*
X8656Y7193D01*
X8656Y7191D01*
Y7191D01*
X8656Y7191D01*
Y7191D01*
X8656Y7190D01*
X8655Y7189D01*
X8655Y7187D01*
X8654Y7185D01*
X8653Y7183D01*
X8652Y7181D01*
X8650Y7179D01*
X8650Y7179D01*
X8649Y7178D01*
X8649Y7177D01*
X8647Y7176D01*
X8646Y7175D01*
X8644Y7174D01*
X8641Y7172D01*
X8639Y7171D01*
X8639D01*
X8639Y7171D01*
X8638Y7171D01*
X8638Y7171D01*
X8637Y7170D01*
X8636Y7170D01*
X8635Y7170D01*
X8634Y7170D01*
X8631Y7169D01*
X8628Y7169D01*
X8624Y7168D01*
X8620Y7168D01*
X8618D01*
X8617Y7168D01*
X8615D01*
X8614Y7168D01*
X8612Y7169D01*
X8609Y7169D01*
X8605Y7169D01*
X8602Y7170D01*
X8600Y7171D01*
X8599Y7171D01*
X8599D01*
X8598Y7171D01*
X8598Y7172D01*
X8596Y7173D01*
X8595Y7174D01*
X8593Y7175D01*
X8591Y7176D01*
X8589Y7178D01*
X8587Y7180D01*
X8587Y7180D01*
X8587Y7181D01*
X8586Y7182D01*
X8585Y7183D01*
X8584Y7185D01*
X8583Y7186D01*
X8583Y7188D01*
X8582Y7191D01*
Y7191D01*
X8582Y7191D01*
Y7191D01*
X8582Y7192D01*
X8581Y7193D01*
X8581Y7194D01*
X8581Y7195D01*
X8581Y7197D01*
X8581Y7198D01*
X8581Y7200D01*
X8580Y7202D01*
X8580Y7205D01*
X8580Y7207D01*
Y7210D01*
X8580Y7212D01*
Y7215D01*
Y7268D01*
X8600D01*
Y7215D01*
Y7214D01*
Y7214D01*
Y7213D01*
Y7213D01*
Y7211D01*
Y7210D01*
X8600Y7208D01*
Y7205D01*
X8600Y7202D01*
X8600Y7201D01*
Y7200D01*
X8600Y7199D01*
X8600Y7198D01*
Y7198D01*
X8601Y7197D01*
X8601Y7196D01*
X8602Y7195D01*
X8602Y7193D01*
X8604Y7192D01*
X8605Y7190D01*
X8606Y7188D01*
X8607Y7188D01*
X8607Y7188D01*
X8608Y7187D01*
X8610Y7187D01*
X8612Y7186D01*
X8614Y7186D01*
X8617Y7185D01*
X8619Y7185D01*
X8621D01*
X8622Y7185D01*
X8624Y7185D01*
X8626Y7186D01*
X8628Y7186D01*
X8630Y7187D01*
X8632Y7188D01*
X8632Y7188D01*
X8633Y7189D01*
X8633Y7190D01*
X8634Y7191D01*
X8635Y7192D01*
X8636Y7193D01*
X8637Y7195D01*
X8637Y7197D01*
Y7197D01*
X8637Y7198D01*
X8637Y7199D01*
X8638Y7201D01*
Y7202D01*
X8638Y7203D01*
Y7204D01*
X8638Y7206D01*
Y7207D01*
X8638Y7209D01*
Y7211D01*
Y7213D01*
Y7268D01*
X8658D01*
Y7216D01*
D02*
G37*
G36*
X6488Y7436D02*
Y7436D01*
Y7435D01*
Y7434D01*
Y7433D01*
Y7432D01*
X6488Y7430D01*
Y7428D01*
Y7427D01*
X6487Y7422D01*
X6487Y7418D01*
X6487Y7416D01*
X6487Y7415D01*
X6486Y7413D01*
X6486Y7411D01*
Y7411D01*
X6486Y7411D01*
Y7411D01*
X6486Y7410D01*
X6485Y7409D01*
X6485Y7407D01*
X6484Y7405D01*
X6483Y7403D01*
X6482Y7401D01*
X6480Y7399D01*
X6480Y7399D01*
X6479Y7398D01*
X6479Y7397D01*
X6477Y7396D01*
X6476Y7395D01*
X6474Y7394D01*
X6471Y7392D01*
X6469Y7391D01*
X6469D01*
X6469Y7391D01*
X6468Y7391D01*
X6468Y7391D01*
X6467Y7390D01*
X6466Y7390D01*
X6465Y7390D01*
X6464Y7390D01*
X6461Y7389D01*
X6458Y7389D01*
X6454Y7388D01*
X6450Y7388D01*
X6448D01*
X6447Y7388D01*
X6445D01*
X6444Y7388D01*
X6442Y7389D01*
X6439Y7389D01*
X6435Y7389D01*
X6432Y7390D01*
X6430Y7391D01*
X6429Y7391D01*
X6429D01*
X6428Y7391D01*
X6428Y7392D01*
X6426Y7393D01*
X6425Y7394D01*
X6423Y7395D01*
X6421Y7396D01*
X6419Y7398D01*
X6417Y7400D01*
X6417Y7400D01*
X6417Y7401D01*
X6416Y7402D01*
X6415Y7403D01*
X6414Y7405D01*
X6413Y7406D01*
X6413Y7408D01*
X6412Y7411D01*
Y7411D01*
X6412Y7411D01*
Y7411D01*
X6412Y7412D01*
X6411Y7413D01*
X6411Y7414D01*
X6411Y7415D01*
X6411Y7417D01*
X6411Y7418D01*
X6411Y7420D01*
X6410Y7422D01*
X6410Y7425D01*
X6410Y7427D01*
Y7430D01*
X6410Y7432D01*
Y7435D01*
Y7488D01*
X6430D01*
Y7435D01*
Y7434D01*
Y7434D01*
Y7433D01*
Y7433D01*
Y7431D01*
Y7430D01*
X6430Y7428D01*
Y7425D01*
X6430Y7422D01*
X6430Y7421D01*
Y7420D01*
X6430Y7419D01*
X6430Y7418D01*
Y7418D01*
X6431Y7417D01*
X6431Y7416D01*
X6432Y7415D01*
X6432Y7413D01*
X6434Y7412D01*
X6435Y7410D01*
X6436Y7408D01*
X6437Y7408D01*
X6437Y7408D01*
X6438Y7407D01*
X6440Y7407D01*
X6442Y7406D01*
X6444Y7406D01*
X6447Y7405D01*
X6449Y7405D01*
X6451D01*
X6452Y7405D01*
X6454Y7405D01*
X6456Y7406D01*
X6458Y7406D01*
X6460Y7407D01*
X6462Y7408D01*
X6462Y7408D01*
X6463Y7409D01*
X6463Y7410D01*
X6464Y7411D01*
X6465Y7412D01*
X6466Y7413D01*
X6467Y7415D01*
X6467Y7417D01*
Y7417D01*
X6467Y7418D01*
X6467Y7419D01*
X6468Y7421D01*
Y7422D01*
X6468Y7423D01*
Y7424D01*
X6468Y7426D01*
Y7427D01*
X6468Y7429D01*
Y7431D01*
Y7433D01*
Y7488D01*
X6488D01*
Y7436D01*
D02*
G37*
G36*
X6874Y6811D02*
X6886D01*
Y6795D01*
X6874D01*
Y6775D01*
X6856D01*
Y6795D01*
X6816D01*
Y6811D01*
X6858Y6873D01*
X6874D01*
Y6811D01*
D02*
G37*
G36*
X6770Y6872D02*
X6772D01*
X6773Y6872D01*
X6775D01*
X6779Y6872D01*
X6783Y6871D01*
X6786Y6871D01*
X6788Y6870D01*
X6789Y6870D01*
X6789D01*
X6789Y6870D01*
X6790Y6869D01*
X6792Y6869D01*
X6793Y6868D01*
X6795Y6866D01*
X6797Y6865D01*
X6799Y6863D01*
X6800Y6860D01*
Y6860D01*
X6801Y6860D01*
X6801Y6860D01*
X6801Y6859D01*
X6802Y6858D01*
X6803Y6856D01*
X6803Y6854D01*
X6804Y6851D01*
X6805Y6848D01*
X6805Y6845D01*
Y6845D01*
Y6845D01*
Y6844D01*
X6805Y6843D01*
Y6842D01*
X6805Y6841D01*
X6804Y6839D01*
X6803Y6836D01*
X6802Y6833D01*
X6800Y6830D01*
X6799Y6828D01*
X6798Y6827D01*
X6798Y6827D01*
X6798Y6827D01*
X6798Y6826D01*
X6797Y6826D01*
X6796Y6825D01*
X6796Y6825D01*
X6795Y6824D01*
X6794Y6823D01*
X6792Y6822D01*
X6791Y6822D01*
X6789Y6821D01*
X6787Y6820D01*
X6785Y6820D01*
X6784Y6819D01*
X6781Y6818D01*
X6779Y6818D01*
X6779D01*
X6779Y6818D01*
X6780Y6817D01*
X6781Y6817D01*
X6783Y6816D01*
X6784Y6814D01*
X6786Y6813D01*
X6788Y6812D01*
X6789Y6810D01*
X6790Y6810D01*
X6790Y6809D01*
X6791Y6808D01*
X6792Y6806D01*
X6794Y6804D01*
X6795Y6803D01*
X6796Y6801D01*
X6797Y6800D01*
X6798Y6798D01*
X6799Y6796D01*
X6801Y6794D01*
X6813Y6775D01*
X6789D01*
X6775Y6796D01*
X6775Y6796D01*
X6775Y6797D01*
X6774Y6797D01*
X6774Y6798D01*
X6773Y6799D01*
X6772Y6800D01*
X6771Y6802D01*
X6769Y6805D01*
X6767Y6807D01*
X6766Y6809D01*
X6765Y6810D01*
X6764Y6811D01*
X6764Y6811D01*
X6764Y6811D01*
X6763Y6812D01*
X6763Y6812D01*
X6762Y6813D01*
X6761Y6813D01*
X6760Y6814D01*
X6759Y6815D01*
X6758D01*
X6758Y6815D01*
X6757Y6815D01*
X6756Y6815D01*
X6755Y6815D01*
X6753Y6816D01*
X6751Y6816D01*
X6745D01*
Y6775D01*
X6725D01*
Y6873D01*
X6769D01*
X6770Y6872D01*
D02*
G37*
G36*
X8785Y5220D02*
X8767D01*
Y5231D01*
X8767Y5230D01*
X8767Y5230D01*
X8766Y5229D01*
X8765Y5227D01*
X8763Y5226D01*
X8761Y5224D01*
X8759Y5223D01*
X8757Y5222D01*
X8757Y5221D01*
X8756Y5221D01*
X8755Y5221D01*
X8753Y5220D01*
X8751Y5219D01*
X8749Y5219D01*
X8746Y5219D01*
X8744Y5218D01*
X8743D01*
X8741Y5219D01*
X8740Y5219D01*
X8738Y5219D01*
X8735Y5220D01*
X8733Y5221D01*
X8731Y5222D01*
X8731Y5222D01*
X8730Y5222D01*
X8729Y5223D01*
X8728Y5224D01*
X8727Y5225D01*
X8725Y5226D01*
X8724Y5228D01*
X8723Y5230D01*
X8723Y5231D01*
X8722Y5231D01*
X8722Y5233D01*
X8722Y5234D01*
X8721Y5237D01*
X8721Y5239D01*
X8721Y5242D01*
X8720Y5246D01*
Y5291D01*
X8739D01*
Y5258D01*
Y5258D01*
Y5257D01*
Y5257D01*
Y5256D01*
Y5255D01*
Y5253D01*
X8739Y5250D01*
X8739Y5247D01*
X8740Y5244D01*
X8740Y5243D01*
X8740Y5242D01*
X8740Y5241D01*
X8740Y5240D01*
Y5240D01*
X8740Y5239D01*
X8741Y5239D01*
X8741Y5238D01*
X8741Y5237D01*
X8742Y5236D01*
X8743Y5236D01*
X8744Y5235D01*
X8744Y5235D01*
X8744Y5234D01*
X8745Y5234D01*
X8746Y5234D01*
X8747Y5233D01*
X8748Y5233D01*
X8749Y5233D01*
X8751Y5233D01*
X8752D01*
X8753Y5233D01*
X8754Y5233D01*
X8755Y5233D01*
X8756Y5234D01*
X8758Y5235D01*
X8759Y5235D01*
X8760Y5236D01*
X8760Y5236D01*
X8761Y5236D01*
X8762Y5237D01*
X8762Y5238D01*
X8763Y5239D01*
X8764Y5240D01*
X8765Y5242D01*
Y5242D01*
X8765Y5243D01*
Y5243D01*
X8765Y5244D01*
X8765Y5245D01*
X8765Y5246D01*
X8765Y5247D01*
X8766Y5248D01*
X8766Y5250D01*
Y5252D01*
X8766Y5254D01*
X8766Y5256D01*
Y5258D01*
Y5261D01*
Y5291D01*
X8785D01*
Y5220D01*
D02*
G37*
G36*
X9213Y5468D02*
X9214Y5468D01*
X9215Y5468D01*
X9217Y5467D01*
X9219Y5467D01*
X9220Y5466D01*
X9222Y5466D01*
X9224Y5465D01*
X9226Y5464D01*
X9228Y5463D01*
X9229Y5461D01*
X9231Y5460D01*
X9233Y5458D01*
X9233Y5458D01*
X9233Y5457D01*
X9233Y5457D01*
X9234Y5456D01*
X9235Y5454D01*
X9236Y5453D01*
X9237Y5451D01*
X9237Y5448D01*
X9238Y5446D01*
X9239Y5443D01*
X9240Y5440D01*
X9241Y5436D01*
X9241Y5432D01*
X9242Y5428D01*
X9242Y5423D01*
X9242Y5418D01*
Y5418D01*
Y5418D01*
Y5417D01*
Y5417D01*
Y5415D01*
X9242Y5414D01*
X9242Y5411D01*
X9242Y5409D01*
X9241Y5406D01*
X9241Y5403D01*
X9241Y5399D01*
X9240Y5396D01*
X9239Y5393D01*
X9238Y5390D01*
X9237Y5386D01*
X9236Y5383D01*
X9234Y5381D01*
X9233Y5378D01*
X9233Y5378D01*
X9232Y5378D01*
X9232Y5377D01*
X9231Y5377D01*
X9230Y5376D01*
X9229Y5375D01*
X9228Y5374D01*
X9227Y5373D01*
X9225Y5372D01*
X9224Y5371D01*
X9222Y5370D01*
X9220Y5370D01*
X9218Y5369D01*
X9215Y5369D01*
X9213Y5368D01*
X9211Y5368D01*
X9210D01*
X9209Y5368D01*
X9208D01*
X9207Y5368D01*
X9206Y5369D01*
X9204Y5369D01*
X9202Y5370D01*
X9201Y5370D01*
X9199Y5371D01*
X9197Y5372D01*
X9195Y5373D01*
X9193Y5374D01*
X9191Y5375D01*
X9189Y5377D01*
X9188Y5379D01*
X9187Y5379D01*
X9187Y5380D01*
X9187Y5380D01*
X9186Y5381D01*
X9186Y5382D01*
X9185Y5384D01*
X9184Y5386D01*
X9183Y5388D01*
X9182Y5391D01*
X9182Y5393D01*
X9181Y5397D01*
X9180Y5400D01*
X9180Y5404D01*
X9179Y5408D01*
X9179Y5413D01*
X9179Y5418D01*
Y5418D01*
Y5418D01*
Y5419D01*
Y5419D01*
Y5421D01*
X9179Y5423D01*
X9179Y5425D01*
X9180Y5428D01*
X9180Y5430D01*
X9180Y5434D01*
X9181Y5437D01*
X9181Y5440D01*
X9182Y5443D01*
X9183Y5447D01*
X9184Y5450D01*
X9185Y5453D01*
X9187Y5456D01*
X9188Y5458D01*
X9189Y5458D01*
X9189Y5458D01*
X9189Y5459D01*
X9190Y5460D01*
X9191Y5460D01*
X9192Y5461D01*
X9193Y5462D01*
X9194Y5463D01*
X9196Y5464D01*
X9197Y5465D01*
X9199Y5466D01*
X9201Y5467D01*
X9203Y5467D01*
X9206Y5468D01*
X9208Y5468D01*
X9211Y5468D01*
X9212D01*
X9213Y5468D01*
D02*
G37*
G36*
X8681Y5169D02*
X8683Y5169D01*
X8685Y5169D01*
X8687Y5169D01*
X8689Y5168D01*
X8693Y5168D01*
X8698Y5166D01*
X8700Y5165D01*
X8703Y5164D01*
X8705Y5163D01*
X8707Y5162D01*
X8707Y5162D01*
X8707Y5161D01*
X8708Y5161D01*
X8708Y5160D01*
X8709Y5160D01*
X8710Y5159D01*
X8711Y5158D01*
X8712Y5156D01*
X8713Y5155D01*
X8714Y5153D01*
X8716Y5152D01*
X8717Y5150D01*
X8718Y5148D01*
X8719Y5146D01*
X8719Y5143D01*
X8720Y5141D01*
X8700Y5137D01*
Y5137D01*
X8700Y5137D01*
X8700Y5138D01*
X8699Y5139D01*
X8699Y5141D01*
X8698Y5143D01*
X8696Y5145D01*
X8694Y5147D01*
X8692Y5148D01*
X8692Y5149D01*
X8691Y5149D01*
X8690Y5150D01*
X8689Y5150D01*
X8687Y5151D01*
X8684Y5152D01*
X8681Y5152D01*
X8678Y5153D01*
X8677D01*
X8676Y5152D01*
X8675Y5152D01*
X8674Y5152D01*
X8672Y5152D01*
X8671Y5152D01*
X8668Y5151D01*
X8666Y5150D01*
X8664Y5149D01*
X8663Y5148D01*
X8661Y5147D01*
X8659Y5146D01*
X8658Y5144D01*
X8658Y5144D01*
X8657Y5144D01*
X8657Y5143D01*
X8657Y5143D01*
X8656Y5142D01*
X8655Y5141D01*
X8655Y5140D01*
X8654Y5138D01*
X8653Y5137D01*
X8653Y5135D01*
X8652Y5133D01*
X8651Y5131D01*
X8651Y5128D01*
X8651Y5126D01*
X8650Y5123D01*
X8650Y5120D01*
Y5120D01*
Y5119D01*
Y5118D01*
X8650Y5117D01*
X8651Y5116D01*
X8651Y5114D01*
X8651Y5112D01*
X8651Y5110D01*
X8652Y5106D01*
X8654Y5101D01*
X8654Y5099D01*
X8655Y5097D01*
X8657Y5095D01*
X8658Y5094D01*
X8658Y5094D01*
X8658Y5093D01*
X8659Y5093D01*
X8659Y5092D01*
X8660Y5092D01*
X8661Y5091D01*
X8662Y5090D01*
X8663Y5089D01*
X8665Y5088D01*
X8666Y5088D01*
X8670Y5086D01*
X8672Y5086D01*
X8674Y5085D01*
X8676Y5085D01*
X8678Y5085D01*
X8679D01*
X8680Y5085D01*
X8682Y5085D01*
X8684Y5086D01*
X8686Y5086D01*
X8688Y5086D01*
X8691Y5087D01*
X8691D01*
X8691Y5087D01*
X8692Y5088D01*
X8693Y5088D01*
X8694Y5089D01*
X8696Y5090D01*
X8698Y5091D01*
X8700Y5092D01*
X8701Y5093D01*
Y5106D01*
X8679D01*
Y5122D01*
X8721D01*
Y5083D01*
X8721Y5083D01*
X8721Y5083D01*
X8720Y5082D01*
X8719Y5082D01*
X8719Y5081D01*
X8717Y5080D01*
X8714Y5078D01*
X8711Y5076D01*
X8707Y5074D01*
X8703Y5073D01*
X8703D01*
X8703Y5073D01*
X8702Y5072D01*
X8701Y5072D01*
X8700Y5072D01*
X8699Y5071D01*
X8697Y5071D01*
X8696Y5070D01*
X8692Y5070D01*
X8688Y5069D01*
X8684Y5068D01*
X8679Y5068D01*
X8678D01*
X8677Y5068D01*
X8676D01*
X8674Y5068D01*
X8672Y5069D01*
X8670Y5069D01*
X8666Y5070D01*
X8662Y5071D01*
X8657Y5072D01*
X8655Y5073D01*
X8653Y5075D01*
X8653Y5075D01*
X8652Y5075D01*
X8652Y5075D01*
X8651Y5076D01*
X8650Y5076D01*
X8649Y5077D01*
X8648Y5078D01*
X8646Y5079D01*
X8644Y5082D01*
X8641Y5085D01*
X8638Y5089D01*
X8636Y5093D01*
Y5093D01*
X8635Y5094D01*
X8635Y5094D01*
X8635Y5095D01*
X8634Y5096D01*
X8634Y5097D01*
X8633Y5099D01*
X8633Y5101D01*
X8632Y5103D01*
X8632Y5105D01*
X8631Y5109D01*
X8630Y5114D01*
X8630Y5119D01*
Y5119D01*
Y5120D01*
Y5121D01*
X8630Y5122D01*
Y5123D01*
X8630Y5125D01*
X8631Y5126D01*
X8631Y5128D01*
X8632Y5132D01*
X8633Y5137D01*
X8634Y5142D01*
X8635Y5144D01*
X8636Y5146D01*
X8636Y5146D01*
X8637Y5147D01*
X8637Y5147D01*
X8637Y5148D01*
X8638Y5149D01*
X8639Y5150D01*
X8640Y5151D01*
X8641Y5153D01*
X8642Y5154D01*
X8644Y5156D01*
X8645Y5157D01*
X8647Y5159D01*
X8649Y5160D01*
X8651Y5162D01*
X8655Y5164D01*
X8655D01*
X8655Y5165D01*
X8656Y5165D01*
X8657Y5165D01*
X8658Y5166D01*
X8659Y5166D01*
X8660Y5166D01*
X8661Y5167D01*
X8663Y5167D01*
X8665Y5168D01*
X8667Y5168D01*
X8669Y5169D01*
X8673Y5169D01*
X8678Y5169D01*
X8680D01*
X8681Y5169D01*
D02*
G37*
G36*
X9263Y5368D02*
X9249D01*
X9273Y5469D01*
X9287D01*
X9263Y5368D01*
D02*
G37*
G36*
X9138Y5468D02*
X9139Y5468D01*
X9140Y5468D01*
X9142Y5467D01*
X9144Y5467D01*
X9147Y5466D01*
X9151Y5465D01*
X9153Y5464D01*
X9155Y5463D01*
X9156Y5462D01*
X9158Y5460D01*
X9158Y5460D01*
X9158Y5460D01*
X9159Y5459D01*
X9159Y5459D01*
X9160Y5458D01*
X9161Y5457D01*
X9161Y5456D01*
X9162Y5455D01*
X9164Y5452D01*
X9165Y5449D01*
X9166Y5447D01*
X9166Y5445D01*
X9166Y5443D01*
X9166Y5441D01*
Y5440D01*
Y5440D01*
X9166Y5438D01*
X9166Y5437D01*
X9166Y5435D01*
X9165Y5433D01*
X9165Y5430D01*
X9164Y5428D01*
X9164Y5428D01*
X9163Y5427D01*
X9163Y5426D01*
X9162Y5424D01*
X9161Y5423D01*
X9160Y5420D01*
X9158Y5418D01*
X9156Y5416D01*
X9156Y5416D01*
X9156Y5415D01*
X9155Y5414D01*
X9154Y5413D01*
X9152Y5411D01*
X9150Y5409D01*
X9147Y5406D01*
X9144Y5403D01*
X9144Y5403D01*
X9144Y5403D01*
X9143Y5403D01*
X9143Y5402D01*
X9141Y5401D01*
X9139Y5399D01*
X9137Y5397D01*
X9136Y5395D01*
X9134Y5394D01*
X9133Y5393D01*
X9133Y5392D01*
X9133Y5392D01*
X9132Y5392D01*
X9132Y5391D01*
X9131Y5391D01*
X9130Y5389D01*
X9129Y5387D01*
X9166D01*
Y5370D01*
X9101D01*
Y5370D01*
Y5370D01*
X9101Y5371D01*
X9101Y5372D01*
X9101Y5373D01*
X9101Y5374D01*
X9102Y5376D01*
X9103Y5379D01*
X9104Y5382D01*
X9105Y5385D01*
X9107Y5389D01*
Y5389D01*
X9107Y5389D01*
X9108Y5390D01*
X9108Y5390D01*
X9109Y5391D01*
X9110Y5392D01*
X9111Y5393D01*
X9112Y5395D01*
X9113Y5397D01*
X9115Y5398D01*
X9116Y5400D01*
X9118Y5402D01*
X9120Y5404D01*
X9123Y5407D01*
X9125Y5409D01*
X9128Y5412D01*
X9128Y5412D01*
X9129Y5413D01*
X9129Y5413D01*
X9130Y5414D01*
X9131Y5415D01*
X9132Y5416D01*
X9135Y5418D01*
X9137Y5421D01*
X9140Y5424D01*
X9141Y5425D01*
X9142Y5426D01*
X9143Y5427D01*
X9144Y5428D01*
X9144Y5428D01*
X9144Y5429D01*
X9145Y5430D01*
X9146Y5432D01*
X9146Y5433D01*
X9147Y5435D01*
X9147Y5437D01*
X9148Y5439D01*
Y5440D01*
Y5440D01*
Y5440D01*
X9147Y5442D01*
X9147Y5443D01*
X9147Y5445D01*
X9146Y5446D01*
X9145Y5448D01*
X9144Y5449D01*
X9144Y5449D01*
X9144Y5450D01*
X9143Y5450D01*
X9142Y5451D01*
X9140Y5451D01*
X9139Y5452D01*
X9137Y5452D01*
X9135Y5453D01*
X9134D01*
X9133Y5452D01*
X9131Y5452D01*
X9130Y5452D01*
X9128Y5451D01*
X9127Y5450D01*
X9125Y5449D01*
X9125Y5449D01*
X9125Y5448D01*
X9124Y5448D01*
X9124Y5446D01*
X9123Y5445D01*
X9122Y5443D01*
X9122Y5440D01*
X9122Y5437D01*
X9103Y5439D01*
Y5439D01*
X9103Y5440D01*
Y5441D01*
X9103Y5442D01*
X9104Y5443D01*
X9104Y5444D01*
X9104Y5446D01*
X9105Y5448D01*
X9106Y5451D01*
X9108Y5455D01*
X9109Y5457D01*
X9110Y5459D01*
X9112Y5460D01*
X9113Y5461D01*
X9113Y5461D01*
X9114Y5462D01*
X9114Y5462D01*
X9115Y5462D01*
X9116Y5463D01*
X9117Y5463D01*
X9118Y5464D01*
X9119Y5465D01*
X9121Y5465D01*
X9123Y5466D01*
X9126Y5467D01*
X9131Y5468D01*
X9133Y5468D01*
X9135Y5468D01*
X9137D01*
X9138Y5468D01*
D02*
G37*
G36*
X8702Y5451D02*
X8650D01*
Y5429D01*
X8699D01*
Y5413D01*
X8650D01*
Y5386D01*
X8704D01*
Y5370D01*
X8630D01*
Y5468D01*
X8702D01*
Y5451D01*
D02*
G37*
G36*
X8774Y5142D02*
X8776Y5142D01*
X8778Y5141D01*
X8780Y5141D01*
X8782Y5140D01*
X8784Y5139D01*
X8778Y5122D01*
X8778Y5123D01*
X8777Y5123D01*
X8777Y5123D01*
X8775Y5124D01*
X8774Y5125D01*
X8773Y5125D01*
X8771Y5125D01*
X8770Y5126D01*
X8769D01*
X8768Y5125D01*
X8767Y5125D01*
X8766Y5125D01*
X8765Y5125D01*
X8764Y5124D01*
X8763Y5123D01*
X8763Y5123D01*
X8763Y5123D01*
X8762Y5122D01*
X8761Y5121D01*
X8761Y5120D01*
X8760Y5119D01*
X8759Y5117D01*
X8759Y5115D01*
Y5115D01*
X8759Y5115D01*
X8758Y5114D01*
Y5114D01*
X8758Y5113D01*
X8758Y5112D01*
X8758Y5110D01*
X8758Y5109D01*
X8758Y5107D01*
X8758Y5105D01*
Y5103D01*
X8757Y5101D01*
X8757Y5098D01*
Y5095D01*
Y5092D01*
Y5070D01*
X8739D01*
Y5141D01*
X8756D01*
Y5131D01*
X8756Y5131D01*
X8757Y5132D01*
X8757Y5133D01*
X8759Y5135D01*
X8760Y5136D01*
X8761Y5138D01*
X8762Y5139D01*
X8764Y5140D01*
X8764Y5140D01*
X8764Y5140D01*
X8765Y5141D01*
X8766Y5141D01*
X8767Y5142D01*
X8769Y5142D01*
X8770Y5142D01*
X8772Y5142D01*
X8773D01*
X8774Y5142D01*
D02*
G37*
G36*
X8856Y5070D02*
X8839D01*
Y5081D01*
X8839Y5080D01*
X8838Y5080D01*
X8838Y5079D01*
X8836Y5077D01*
X8835Y5076D01*
X8833Y5074D01*
X8831Y5073D01*
X8829Y5072D01*
X8828Y5071D01*
X8828Y5071D01*
X8826Y5071D01*
X8825Y5070D01*
X8823Y5069D01*
X8820Y5069D01*
X8818Y5069D01*
X8816Y5068D01*
X8814D01*
X8813Y5069D01*
X8811Y5069D01*
X8809Y5069D01*
X8807Y5070D01*
X8805Y5071D01*
X8803Y5072D01*
X8802Y5072D01*
X8802Y5072D01*
X8801Y5073D01*
X8800Y5074D01*
X8798Y5075D01*
X8797Y5076D01*
X8796Y5078D01*
X8795Y5080D01*
X8794Y5081D01*
X8794Y5081D01*
X8794Y5083D01*
X8793Y5084D01*
X8793Y5087D01*
X8792Y5089D01*
X8792Y5092D01*
X8792Y5096D01*
Y5141D01*
X8811D01*
Y5108D01*
Y5108D01*
Y5107D01*
Y5107D01*
Y5106D01*
Y5105D01*
Y5103D01*
X8811Y5100D01*
X8811Y5097D01*
X8811Y5094D01*
X8811Y5093D01*
X8811Y5092D01*
X8812Y5091D01*
X8812Y5090D01*
Y5090D01*
X8812Y5089D01*
X8812Y5089D01*
X8813Y5088D01*
X8813Y5087D01*
X8814Y5086D01*
X8814Y5086D01*
X8815Y5085D01*
X8816Y5085D01*
X8816Y5084D01*
X8817Y5084D01*
X8817Y5084D01*
X8818Y5083D01*
X8820Y5083D01*
X8821Y5083D01*
X8822Y5083D01*
X8823D01*
X8824Y5083D01*
X8825Y5083D01*
X8827Y5083D01*
X8828Y5084D01*
X8830Y5085D01*
X8831Y5085D01*
X8831Y5086D01*
X8832Y5086D01*
X8832Y5086D01*
X8833Y5087D01*
X8834Y5088D01*
X8835Y5089D01*
X8836Y5090D01*
X8836Y5092D01*
Y5092D01*
X8837Y5093D01*
Y5093D01*
X8837Y5094D01*
X8837Y5095D01*
X8837Y5096D01*
X8837Y5097D01*
X8837Y5098D01*
X8837Y5100D01*
Y5102D01*
X8838Y5104D01*
X8838Y5106D01*
Y5108D01*
Y5111D01*
Y5141D01*
X8856D01*
Y5070D01*
D02*
G37*
G36*
X9072Y5142D02*
X9073Y5142D01*
X9075Y5142D01*
X9076Y5141D01*
X9078Y5141D01*
X9080Y5140D01*
X9082Y5140D01*
X9084Y5139D01*
X9086Y5138D01*
X9088Y5137D01*
X9090Y5135D01*
X9092Y5134D01*
X9094Y5132D01*
X9094Y5132D01*
X9094Y5131D01*
X9095Y5131D01*
X9095Y5130D01*
X9096Y5129D01*
X9097Y5127D01*
X9098Y5126D01*
X9098Y5124D01*
X9099Y5122D01*
X9100Y5119D01*
X9101Y5117D01*
X9102Y5114D01*
X9102Y5111D01*
X9103Y5107D01*
X9103Y5104D01*
Y5100D01*
X9056D01*
Y5100D01*
Y5099D01*
Y5099D01*
X9056Y5098D01*
X9056Y5097D01*
X9057Y5095D01*
X9057Y5093D01*
X9058Y5091D01*
X9059Y5089D01*
X9060Y5087D01*
X9061Y5087D01*
X9061Y5086D01*
X9062Y5086D01*
X9063Y5085D01*
X9065Y5084D01*
X9067Y5083D01*
X9069Y5083D01*
X9071Y5082D01*
X9072D01*
X9073Y5083D01*
X9074Y5083D01*
X9075Y5083D01*
X9076Y5083D01*
X9077Y5084D01*
X9079Y5085D01*
X9079Y5085D01*
X9079Y5085D01*
X9080Y5086D01*
X9080Y5087D01*
X9081Y5088D01*
X9082Y5089D01*
X9083Y5091D01*
X9083Y5093D01*
X9102Y5089D01*
Y5089D01*
X9102Y5089D01*
X9101Y5088D01*
X9101Y5088D01*
X9101Y5087D01*
X9100Y5086D01*
X9099Y5084D01*
X9097Y5081D01*
X9095Y5078D01*
X9093Y5076D01*
X9090Y5074D01*
X9090D01*
X9090Y5074D01*
X9090Y5073D01*
X9089Y5073D01*
X9088Y5073D01*
X9087Y5072D01*
X9086Y5072D01*
X9085Y5071D01*
X9082Y5070D01*
X9079Y5069D01*
X9075Y5069D01*
X9071Y5068D01*
X9070D01*
X9069Y5069D01*
X9068D01*
X9067Y5069D01*
X9065Y5069D01*
X9063Y5069D01*
X9061Y5070D01*
X9059Y5071D01*
X9056Y5071D01*
X9054Y5072D01*
X9052Y5074D01*
X9050Y5075D01*
X9047Y5076D01*
X9046Y5078D01*
X9044Y5080D01*
X9044Y5081D01*
X9043Y5081D01*
X9043Y5081D01*
X9043Y5082D01*
X9042Y5083D01*
X9042Y5084D01*
X9041Y5086D01*
X9040Y5087D01*
X9040Y5089D01*
X9039Y5091D01*
X9038Y5093D01*
X9038Y5095D01*
X9038Y5097D01*
X9037Y5099D01*
X9037Y5102D01*
X9037Y5105D01*
Y5105D01*
Y5106D01*
Y5107D01*
X9037Y5108D01*
X9037Y5109D01*
X9037Y5111D01*
X9038Y5113D01*
X9038Y5115D01*
X9039Y5119D01*
X9040Y5121D01*
X9041Y5124D01*
X9042Y5126D01*
X9043Y5128D01*
X9044Y5130D01*
X9046Y5132D01*
X9046Y5132D01*
X9046Y5133D01*
X9047Y5133D01*
X9048Y5134D01*
X9049Y5135D01*
X9050Y5135D01*
X9051Y5136D01*
X9052Y5137D01*
X9054Y5138D01*
X9056Y5139D01*
X9058Y5140D01*
X9060Y5141D01*
X9062Y5141D01*
X9064Y5142D01*
X9067Y5142D01*
X9069Y5142D01*
X9071D01*
X9072Y5142D01*
D02*
G37*
G36*
X9214Y5149D02*
X9178D01*
X9175Y5132D01*
X9175D01*
X9176Y5132D01*
X9176Y5133D01*
X9178Y5133D01*
X9179Y5134D01*
X9181Y5134D01*
X9183Y5135D01*
X9186Y5135D01*
X9188Y5135D01*
X9189D01*
X9190Y5135D01*
X9191Y5135D01*
X9192Y5135D01*
X9194Y5135D01*
X9195Y5134D01*
X9199Y5133D01*
X9201Y5132D01*
X9202Y5132D01*
X9204Y5130D01*
X9206Y5129D01*
X9208Y5128D01*
X9209Y5126D01*
X9209Y5126D01*
X9210Y5126D01*
X9210Y5125D01*
X9211Y5125D01*
X9211Y5124D01*
X9212Y5123D01*
X9213Y5121D01*
X9214Y5120D01*
X9214Y5118D01*
X9215Y5117D01*
X9216Y5115D01*
X9217Y5113D01*
X9217Y5110D01*
X9218Y5108D01*
X9218Y5105D01*
X9218Y5103D01*
Y5103D01*
Y5102D01*
Y5102D01*
X9218Y5101D01*
Y5100D01*
X9218Y5098D01*
X9217Y5097D01*
X9217Y5096D01*
X9216Y5092D01*
X9215Y5088D01*
X9214Y5086D01*
X9213Y5085D01*
X9212Y5083D01*
X9211Y5081D01*
X9211Y5081D01*
X9211Y5080D01*
X9210Y5080D01*
X9209Y5079D01*
X9208Y5078D01*
X9207Y5077D01*
X9206Y5076D01*
X9204Y5075D01*
X9202Y5073D01*
X9200Y5072D01*
X9198Y5071D01*
X9196Y5070D01*
X9193Y5069D01*
X9190Y5069D01*
X9188Y5068D01*
X9184Y5068D01*
X9183D01*
X9182Y5068D01*
X9181Y5068D01*
X9180Y5069D01*
X9178Y5069D01*
X9177Y5069D01*
X9173Y5070D01*
X9169Y5071D01*
X9168Y5072D01*
X9166Y5073D01*
X9164Y5074D01*
X9162Y5075D01*
X9162Y5075D01*
X9162Y5076D01*
X9161Y5076D01*
X9161Y5077D01*
X9160Y5077D01*
X9159Y5078D01*
X9159Y5079D01*
X9158Y5080D01*
X9157Y5082D01*
X9156Y5083D01*
X9155Y5087D01*
X9153Y5090D01*
X9153Y5093D01*
X9152Y5095D01*
X9171Y5097D01*
Y5097D01*
X9171Y5096D01*
X9171Y5095D01*
X9172Y5093D01*
X9172Y5092D01*
X9173Y5090D01*
X9174Y5088D01*
X9176Y5087D01*
X9176Y5087D01*
X9176Y5086D01*
X9177Y5086D01*
X9178Y5085D01*
X9180Y5084D01*
X9181Y5084D01*
X9183Y5083D01*
X9185Y5083D01*
X9185D01*
X9186Y5083D01*
X9187Y5083D01*
X9188Y5084D01*
X9190Y5084D01*
X9191Y5085D01*
X9193Y5086D01*
X9195Y5088D01*
X9195Y5088D01*
X9195Y5089D01*
X9196Y5090D01*
X9197Y5092D01*
X9198Y5094D01*
X9198Y5096D01*
X9199Y5099D01*
X9199Y5102D01*
Y5102D01*
Y5103D01*
Y5103D01*
Y5104D01*
X9199Y5105D01*
X9198Y5107D01*
X9198Y5110D01*
X9197Y5112D01*
X9196Y5114D01*
X9195Y5116D01*
X9195Y5116D01*
X9194Y5117D01*
X9193Y5117D01*
X9192Y5118D01*
X9190Y5119D01*
X9189Y5120D01*
X9186Y5120D01*
X9184Y5120D01*
X9183D01*
X9183Y5120D01*
X9181Y5120D01*
X9179Y5120D01*
X9177Y5119D01*
X9175Y5118D01*
X9173Y5117D01*
X9172Y5116D01*
X9171Y5115D01*
X9170Y5113D01*
X9155Y5115D01*
X9164Y5166D01*
X9214D01*
Y5149D01*
D02*
G37*
G36*
X9000Y5142D02*
X9001Y5142D01*
X9002Y5142D01*
X9004Y5141D01*
X9005Y5141D01*
X9007Y5141D01*
X9008Y5140D01*
X9010Y5139D01*
X9012Y5138D01*
X9014Y5137D01*
X9015Y5136D01*
X9017Y5134D01*
X9019Y5133D01*
X9019Y5132D01*
X9019Y5132D01*
X9020Y5132D01*
X9020Y5131D01*
X9021Y5130D01*
X9021Y5129D01*
X9022Y5127D01*
X9023Y5126D01*
X9024Y5124D01*
X9025Y5122D01*
X9025Y5120D01*
X9026Y5117D01*
X9027Y5115D01*
X9027Y5112D01*
X9027Y5109D01*
X9027Y5106D01*
Y5106D01*
Y5105D01*
Y5104D01*
X9027Y5103D01*
X9027Y5101D01*
X9027Y5100D01*
X9027Y5098D01*
X9026Y5096D01*
X9025Y5091D01*
X9025Y5089D01*
X9024Y5087D01*
X9023Y5084D01*
X9021Y5082D01*
X9020Y5080D01*
X9019Y5078D01*
X9019Y5078D01*
X9018Y5078D01*
X9018Y5077D01*
X9017Y5077D01*
X9016Y5076D01*
X9015Y5075D01*
X9014Y5074D01*
X9013Y5073D01*
X9011Y5072D01*
X9010Y5072D01*
X9006Y5070D01*
X9004Y5069D01*
X9002Y5069D01*
X9000Y5069D01*
X8998Y5068D01*
X8997D01*
X8996Y5069D01*
X8994Y5069D01*
X8993Y5069D01*
X8991Y5069D01*
X8989Y5070D01*
X8987Y5071D01*
X8987Y5071D01*
X8986Y5071D01*
X8985Y5072D01*
X8984Y5073D01*
X8983Y5074D01*
X8981Y5075D01*
X8979Y5077D01*
X8977Y5079D01*
Y5043D01*
X8958D01*
Y5141D01*
X8976D01*
Y5130D01*
X8976Y5131D01*
X8977Y5131D01*
X8977Y5132D01*
X8978Y5133D01*
X8980Y5135D01*
X8981Y5136D01*
X8983Y5138D01*
X8985Y5139D01*
X8985Y5139D01*
X8986Y5139D01*
X8987Y5140D01*
X8989Y5141D01*
X8991Y5141D01*
X8993Y5142D01*
X8995Y5142D01*
X8998Y5142D01*
X8999D01*
X9000Y5142D01*
D02*
G37*
G36*
X8917D02*
X8918Y5142D01*
X8919Y5142D01*
X8920Y5141D01*
X8922Y5141D01*
X8924Y5141D01*
X8925Y5140D01*
X8927Y5139D01*
X8929Y5138D01*
X8930Y5137D01*
X8932Y5136D01*
X8934Y5134D01*
X8935Y5133D01*
X8936Y5132D01*
X8936Y5132D01*
X8936Y5132D01*
X8937Y5131D01*
X8937Y5130D01*
X8938Y5129D01*
X8939Y5127D01*
X8940Y5126D01*
X8941Y5124D01*
X8941Y5122D01*
X8942Y5120D01*
X8943Y5117D01*
X8943Y5115D01*
X8944Y5112D01*
X8944Y5109D01*
X8944Y5106D01*
Y5106D01*
Y5105D01*
Y5104D01*
X8944Y5103D01*
X8944Y5101D01*
X8944Y5100D01*
X8943Y5098D01*
X8943Y5096D01*
X8942Y5091D01*
X8941Y5089D01*
X8940Y5087D01*
X8939Y5084D01*
X8938Y5082D01*
X8937Y5080D01*
X8935Y5078D01*
X8935Y5078D01*
X8935Y5078D01*
X8934Y5077D01*
X8934Y5077D01*
X8933Y5076D01*
X8932Y5075D01*
X8931Y5074D01*
X8930Y5073D01*
X8928Y5072D01*
X8926Y5072D01*
X8923Y5070D01*
X8921Y5069D01*
X8919Y5069D01*
X8917Y5069D01*
X8914Y5068D01*
X8913D01*
X8912Y5069D01*
X8911Y5069D01*
X8909Y5069D01*
X8907Y5069D01*
X8906Y5070D01*
X8904Y5071D01*
X8904Y5071D01*
X8903Y5071D01*
X8902Y5072D01*
X8901Y5073D01*
X8899Y5074D01*
X8898Y5075D01*
X8896Y5077D01*
X8894Y5079D01*
Y5043D01*
X8875D01*
Y5141D01*
X8893D01*
Y5130D01*
X8893Y5131D01*
X8893Y5131D01*
X8894Y5132D01*
X8895Y5133D01*
X8896Y5135D01*
X8898Y5136D01*
X8900Y5138D01*
X8902Y5139D01*
X8902Y5139D01*
X8903Y5139D01*
X8904Y5140D01*
X8906Y5141D01*
X8907Y5141D01*
X8910Y5142D01*
X8912Y5142D01*
X8915Y5142D01*
X8916D01*
X8917Y5142D01*
D02*
G37*
G36*
X9327Y5468D02*
X9329Y5468D01*
X9330Y5468D01*
X9331Y5467D01*
X9333Y5467D01*
X9337Y5466D01*
X9340Y5465D01*
X9342Y5464D01*
X9344Y5463D01*
X9346Y5462D01*
X9348Y5460D01*
X9348Y5460D01*
X9348Y5460D01*
X9348Y5459D01*
X9349Y5459D01*
X9350Y5458D01*
X9350Y5457D01*
X9351Y5456D01*
X9352Y5455D01*
X9353Y5452D01*
X9355Y5449D01*
X9355Y5447D01*
X9355Y5445D01*
X9356Y5443D01*
X9356Y5441D01*
Y5440D01*
Y5440D01*
X9356Y5438D01*
X9356Y5437D01*
X9355Y5435D01*
X9355Y5433D01*
X9354Y5430D01*
X9353Y5428D01*
X9353Y5428D01*
X9353Y5427D01*
X9352Y5426D01*
X9352Y5424D01*
X9351Y5423D01*
X9349Y5420D01*
X9348Y5418D01*
X9346Y5416D01*
X9346Y5416D01*
X9345Y5415D01*
X9344Y5414D01*
X9343Y5413D01*
X9341Y5411D01*
X9339Y5409D01*
X9337Y5406D01*
X9334Y5403D01*
X9334Y5403D01*
X9333Y5403D01*
X9333Y5403D01*
X9332Y5402D01*
X9331Y5401D01*
X9329Y5399D01*
X9327Y5397D01*
X9325Y5395D01*
X9324Y5394D01*
X9323Y5393D01*
X9322Y5392D01*
X9322Y5392D01*
X9322Y5392D01*
X9322Y5391D01*
X9321Y5391D01*
X9320Y5389D01*
X9319Y5387D01*
X9356D01*
Y5370D01*
X9290D01*
Y5370D01*
Y5370D01*
X9290Y5371D01*
X9291Y5372D01*
X9291Y5373D01*
X9291Y5374D01*
X9291Y5376D01*
X9292Y5379D01*
X9293Y5382D01*
X9295Y5385D01*
X9297Y5389D01*
Y5389D01*
X9297Y5389D01*
X9297Y5390D01*
X9298Y5390D01*
X9298Y5391D01*
X9299Y5392D01*
X9300Y5393D01*
X9301Y5395D01*
X9303Y5397D01*
X9304Y5398D01*
X9306Y5400D01*
X9308Y5402D01*
X9310Y5404D01*
X9312Y5407D01*
X9315Y5409D01*
X9318Y5412D01*
X9318Y5412D01*
X9318Y5413D01*
X9319Y5413D01*
X9320Y5414D01*
X9321Y5415D01*
X9322Y5416D01*
X9324Y5418D01*
X9327Y5421D01*
X9329Y5424D01*
X9331Y5425D01*
X9332Y5426D01*
X9333Y5427D01*
X9333Y5428D01*
X9333Y5428D01*
X9334Y5429D01*
X9334Y5430D01*
X9335Y5432D01*
X9336Y5433D01*
X9337Y5435D01*
X9337Y5437D01*
X9337Y5439D01*
Y5440D01*
Y5440D01*
Y5440D01*
X9337Y5442D01*
X9337Y5443D01*
X9336Y5445D01*
X9336Y5446D01*
X9335Y5448D01*
X9334Y5449D01*
X9334Y5449D01*
X9333Y5450D01*
X9332Y5450D01*
X9331Y5451D01*
X9330Y5451D01*
X9328Y5452D01*
X9327Y5452D01*
X9324Y5453D01*
X9323D01*
X9322Y5452D01*
X9321Y5452D01*
X9319Y5452D01*
X9318Y5451D01*
X9316Y5450D01*
X9315Y5449D01*
X9315Y5449D01*
X9314Y5448D01*
X9314Y5448D01*
X9313Y5446D01*
X9313Y5445D01*
X9312Y5443D01*
X9311Y5440D01*
X9311Y5437D01*
X9293Y5439D01*
Y5439D01*
X9293Y5440D01*
Y5441D01*
X9293Y5442D01*
X9293Y5443D01*
X9294Y5444D01*
X9294Y5446D01*
X9294Y5448D01*
X9296Y5451D01*
X9297Y5455D01*
X9299Y5457D01*
X9300Y5459D01*
X9301Y5460D01*
X9303Y5461D01*
X9303Y5461D01*
X9303Y5462D01*
X9304Y5462D01*
X9304Y5462D01*
X9305Y5463D01*
X9306Y5463D01*
X9308Y5464D01*
X9309Y5465D01*
X9310Y5465D01*
X9312Y5466D01*
X9316Y5467D01*
X9320Y5468D01*
X9322Y5468D01*
X9325Y5468D01*
X9326D01*
X9327Y5468D01*
D02*
G37*
G36*
X9455Y5292D02*
X9456Y5292D01*
X9458Y5292D01*
X9459Y5291D01*
X9461Y5291D01*
X9463Y5290D01*
X9465Y5290D01*
X9467Y5289D01*
X9469Y5288D01*
X9471Y5287D01*
X9473Y5285D01*
X9475Y5284D01*
X9477Y5282D01*
X9477Y5282D01*
X9478Y5281D01*
X9478Y5281D01*
X9478Y5280D01*
X9479Y5279D01*
X9480Y5277D01*
X9481Y5276D01*
X9482Y5274D01*
X9482Y5272D01*
X9483Y5269D01*
X9484Y5267D01*
X9485Y5264D01*
X9485Y5261D01*
X9486Y5257D01*
X9486Y5254D01*
Y5250D01*
X9439D01*
Y5250D01*
Y5249D01*
Y5249D01*
X9439Y5248D01*
X9439Y5247D01*
X9440Y5245D01*
X9440Y5243D01*
X9441Y5241D01*
X9442Y5239D01*
X9444Y5237D01*
X9444Y5237D01*
X9444Y5236D01*
X9445Y5236D01*
X9446Y5235D01*
X9448Y5234D01*
X9450Y5233D01*
X9452Y5233D01*
X9454Y5232D01*
X9455D01*
X9456Y5233D01*
X9457Y5233D01*
X9458Y5233D01*
X9459Y5233D01*
X9461Y5234D01*
X9462Y5235D01*
X9462Y5235D01*
X9462Y5235D01*
X9463Y5236D01*
X9463Y5237D01*
X9464Y5238D01*
X9465Y5239D01*
X9466Y5241D01*
X9466Y5243D01*
X9485Y5239D01*
Y5239D01*
X9485Y5239D01*
X9485Y5238D01*
X9484Y5238D01*
X9484Y5237D01*
X9483Y5236D01*
X9482Y5234D01*
X9481Y5231D01*
X9479Y5228D01*
X9476Y5226D01*
X9474Y5224D01*
X9473D01*
X9473Y5224D01*
X9473Y5223D01*
X9472Y5223D01*
X9471Y5223D01*
X9470Y5222D01*
X9469Y5222D01*
X9468Y5221D01*
X9465Y5220D01*
X9462Y5219D01*
X9458Y5219D01*
X9454Y5218D01*
X9453D01*
X9453Y5219D01*
X9451D01*
X9450Y5219D01*
X9448Y5219D01*
X9446Y5219D01*
X9444Y5220D01*
X9442Y5221D01*
X9439Y5221D01*
X9437Y5222D01*
X9435Y5224D01*
X9433Y5225D01*
X9431Y5226D01*
X9429Y5228D01*
X9427Y5230D01*
X9427Y5231D01*
X9427Y5231D01*
X9426Y5231D01*
X9426Y5232D01*
X9425Y5233D01*
X9425Y5234D01*
X9424Y5236D01*
X9424Y5237D01*
X9423Y5239D01*
X9422Y5241D01*
X9422Y5243D01*
X9421Y5245D01*
X9421Y5247D01*
X9420Y5249D01*
X9420Y5252D01*
X9420Y5255D01*
Y5255D01*
Y5256D01*
Y5257D01*
X9420Y5258D01*
X9420Y5259D01*
X9420Y5261D01*
X9421Y5263D01*
X9421Y5265D01*
X9422Y5269D01*
X9423Y5271D01*
X9424Y5274D01*
X9425Y5276D01*
X9426Y5278D01*
X9428Y5280D01*
X9429Y5282D01*
X9429Y5282D01*
X9430Y5283D01*
X9430Y5283D01*
X9431Y5284D01*
X9432Y5285D01*
X9433Y5285D01*
X9434Y5286D01*
X9436Y5287D01*
X9437Y5288D01*
X9439Y5289D01*
X9441Y5290D01*
X9443Y5291D01*
X9445Y5291D01*
X9447Y5292D01*
X9450Y5292D01*
X9452Y5292D01*
X9454D01*
X9455Y5292D01*
D02*
G37*
G36*
X9400Y5291D02*
X9413D01*
Y5276D01*
X9400D01*
Y5247D01*
Y5247D01*
Y5247D01*
Y5246D01*
Y5246D01*
Y5244D01*
Y5243D01*
X9400Y5241D01*
Y5239D01*
Y5238D01*
X9400Y5237D01*
Y5237D01*
X9400Y5237D01*
X9400Y5236D01*
X9401Y5236D01*
X9402Y5235D01*
X9402Y5235D01*
X9403Y5234D01*
X9404Y5234D01*
X9405Y5234D01*
X9405D01*
X9406Y5234D01*
X9407Y5234D01*
X9408Y5234D01*
X9409Y5235D01*
X9411Y5235D01*
X9412Y5236D01*
X9414Y5221D01*
X9414D01*
X9414Y5221D01*
X9413Y5221D01*
X9412Y5220D01*
X9410Y5220D01*
X9408Y5219D01*
X9405Y5219D01*
X9402Y5219D01*
X9399Y5218D01*
X9398D01*
X9397Y5219D01*
X9396Y5219D01*
X9395Y5219D01*
X9393Y5219D01*
X9392Y5220D01*
X9390Y5220D01*
X9390Y5220D01*
X9389Y5220D01*
X9389Y5221D01*
X9388Y5221D01*
X9386Y5223D01*
X9385Y5224D01*
X9384Y5225D01*
X9384Y5225D01*
X9384Y5225D01*
X9383Y5226D01*
X9383Y5226D01*
X9383Y5227D01*
X9382Y5229D01*
X9382Y5230D01*
X9382Y5232D01*
Y5232D01*
X9381Y5232D01*
Y5233D01*
X9381Y5235D01*
X9381Y5236D01*
Y5239D01*
X9381Y5240D01*
Y5242D01*
Y5243D01*
Y5245D01*
Y5276D01*
X9372D01*
Y5291D01*
X9381D01*
Y5305D01*
X9400Y5316D01*
Y5291D01*
D02*
G37*
G36*
X8667Y5317D02*
X8671D01*
X8675Y5317D01*
X8679Y5317D01*
X8681Y5317D01*
X8682Y5317D01*
X8684Y5316D01*
X8685Y5316D01*
X8685D01*
X8685Y5316D01*
X8686Y5316D01*
X8686Y5316D01*
X8688Y5315D01*
X8690Y5314D01*
X8692Y5313D01*
X8694Y5311D01*
X8697Y5309D01*
X8699Y5306D01*
Y5306D01*
X8699Y5306D01*
X8699Y5306D01*
X8700Y5305D01*
X8700Y5304D01*
X8701Y5303D01*
X8701Y5302D01*
X8702Y5301D01*
X8703Y5299D01*
X8704Y5295D01*
X8704Y5292D01*
X8705Y5288D01*
Y5287D01*
Y5287D01*
Y5287D01*
Y5286D01*
X8705Y5285D01*
Y5284D01*
X8704Y5282D01*
X8704Y5280D01*
X8703Y5277D01*
X8702Y5275D01*
X8701Y5272D01*
X8701Y5272D01*
X8701Y5271D01*
X8700Y5270D01*
X8699Y5269D01*
X8698Y5267D01*
X8696Y5266D01*
X8695Y5264D01*
X8693Y5263D01*
X8693Y5263D01*
X8692Y5262D01*
X8691Y5262D01*
X8690Y5261D01*
X8688Y5260D01*
X8687Y5259D01*
X8685Y5259D01*
X8683Y5258D01*
X8683D01*
X8682Y5258D01*
X8682D01*
X8681Y5258D01*
X8680Y5258D01*
X8679Y5257D01*
X8678D01*
X8676Y5257D01*
X8675Y5257D01*
X8673Y5257D01*
X8671Y5257D01*
X8669D01*
X8667Y5257D01*
X8650D01*
Y5220D01*
X8630D01*
Y5318D01*
X8666D01*
X8667Y5317D01*
D02*
G37*
G36*
X9164Y5220D02*
X9145D01*
Y5291D01*
X9164D01*
Y5220D01*
D02*
G37*
G36*
X8823D02*
X8804D01*
Y5318D01*
X8823D01*
Y5220D01*
D02*
G37*
G36*
X9334Y5292D02*
X9335Y5292D01*
X9337Y5292D01*
X9338Y5291D01*
X9340Y5291D01*
X9342Y5290D01*
X9344Y5290D01*
X9346Y5289D01*
X9348Y5288D01*
X9350Y5287D01*
X9352Y5285D01*
X9354Y5284D01*
X9356Y5282D01*
X9356Y5282D01*
X9356Y5281D01*
X9357Y5281D01*
X9357Y5280D01*
X9358Y5279D01*
X9359Y5277D01*
X9360Y5276D01*
X9360Y5274D01*
X9361Y5272D01*
X9362Y5269D01*
X9363Y5267D01*
X9363Y5264D01*
X9364Y5261D01*
X9364Y5257D01*
X9365Y5254D01*
Y5250D01*
X9318D01*
Y5250D01*
Y5249D01*
Y5249D01*
X9318Y5248D01*
X9318Y5247D01*
X9318Y5245D01*
X9319Y5243D01*
X9320Y5241D01*
X9321Y5239D01*
X9322Y5237D01*
X9322Y5237D01*
X9323Y5236D01*
X9324Y5236D01*
X9325Y5235D01*
X9327Y5234D01*
X9329Y5233D01*
X9331Y5233D01*
X9333Y5232D01*
X9334D01*
X9335Y5233D01*
X9336Y5233D01*
X9337Y5233D01*
X9338Y5233D01*
X9339Y5234D01*
X9340Y5235D01*
X9341Y5235D01*
X9341Y5235D01*
X9342Y5236D01*
X9342Y5237D01*
X9343Y5238D01*
X9344Y5239D01*
X9344Y5241D01*
X9345Y5243D01*
X9364Y5239D01*
Y5239D01*
X9364Y5239D01*
X9363Y5238D01*
X9363Y5238D01*
X9363Y5237D01*
X9362Y5236D01*
X9361Y5234D01*
X9359Y5231D01*
X9357Y5228D01*
X9355Y5226D01*
X9352Y5224D01*
X9352D01*
X9352Y5224D01*
X9351Y5223D01*
X9351Y5223D01*
X9350Y5223D01*
X9349Y5222D01*
X9348Y5222D01*
X9347Y5221D01*
X9344Y5220D01*
X9341Y5219D01*
X9337Y5219D01*
X9333Y5218D01*
X9332D01*
X9331Y5219D01*
X9330D01*
X9329Y5219D01*
X9327Y5219D01*
X9325Y5219D01*
X9323Y5220D01*
X9320Y5221D01*
X9318Y5221D01*
X9316Y5222D01*
X9314Y5224D01*
X9311Y5225D01*
X9309Y5226D01*
X9308Y5228D01*
X9306Y5230D01*
X9306Y5231D01*
X9305Y5231D01*
X9305Y5231D01*
X9305Y5232D01*
X9304Y5233D01*
X9304Y5234D01*
X9303Y5236D01*
X9302Y5237D01*
X9302Y5239D01*
X9301Y5241D01*
X9300Y5243D01*
X9300Y5245D01*
X9299Y5247D01*
X9299Y5249D01*
X9299Y5252D01*
X9299Y5255D01*
Y5255D01*
Y5256D01*
Y5257D01*
X9299Y5258D01*
X9299Y5259D01*
X9299Y5261D01*
X9299Y5263D01*
X9300Y5265D01*
X9301Y5269D01*
X9302Y5271D01*
X9303Y5274D01*
X9304Y5276D01*
X9305Y5278D01*
X9306Y5280D01*
X9308Y5282D01*
X9308Y5282D01*
X9308Y5283D01*
X9309Y5283D01*
X9310Y5284D01*
X9310Y5285D01*
X9312Y5285D01*
X9313Y5286D01*
X9314Y5287D01*
X9316Y5288D01*
X9318Y5289D01*
X9319Y5290D01*
X9322Y5291D01*
X9324Y5291D01*
X9326Y5292D01*
X9329Y5292D01*
X9331Y5292D01*
X9333D01*
X9334Y5292D01*
D02*
G37*
G36*
X8945Y5370D02*
X8923D01*
X8904Y5443D01*
X8885Y5370D01*
X8863D01*
X8840Y5468D01*
X8860D01*
X8875Y5400D01*
X8893Y5468D01*
X8916D01*
X8933Y5399D01*
X8948Y5468D01*
X8968D01*
X8945Y5370D01*
D02*
G37*
G36*
X9416D02*
X9398D01*
Y5441D01*
X9397Y5440D01*
X9397Y5440D01*
X9397Y5440D01*
X9396Y5439D01*
X9395Y5438D01*
X9394Y5437D01*
X9392Y5436D01*
X9391Y5435D01*
X9389Y5434D01*
X9387Y5433D01*
X9385Y5432D01*
X9383Y5431D01*
X9379Y5429D01*
X9373Y5427D01*
Y5443D01*
X9374D01*
X9374Y5444D01*
X9374Y5444D01*
X9375Y5444D01*
X9376Y5445D01*
X9378Y5445D01*
X9381Y5447D01*
X9383Y5448D01*
X9386Y5450D01*
X9389Y5452D01*
X9389Y5452D01*
X9390Y5453D01*
X9390Y5453D01*
X9391Y5454D01*
X9392Y5455D01*
X9394Y5457D01*
X9396Y5459D01*
X9398Y5462D01*
X9400Y5465D01*
X9401Y5468D01*
X9416D01*
Y5370D01*
D02*
G37*
G36*
X8758Y5469D02*
X8759Y5469D01*
X8761Y5469D01*
X8763Y5469D01*
X8765Y5468D01*
X8770Y5467D01*
X8772Y5467D01*
X8774Y5466D01*
X8776Y5465D01*
X8779Y5464D01*
X8781Y5463D01*
X8782Y5461D01*
X8783Y5461D01*
X8783Y5461D01*
X8783Y5460D01*
X8784Y5460D01*
X8785Y5459D01*
X8785Y5458D01*
X8786Y5457D01*
X8787Y5456D01*
X8788Y5454D01*
X8789Y5452D01*
X8790Y5451D01*
X8790Y5449D01*
X8791Y5447D01*
X8792Y5444D01*
X8792Y5442D01*
X8792Y5440D01*
X8773Y5439D01*
Y5439D01*
Y5439D01*
X8772Y5440D01*
X8772Y5441D01*
X8771Y5443D01*
X8771Y5445D01*
X8770Y5447D01*
X8768Y5448D01*
X8767Y5450D01*
X8767Y5450D01*
X8766Y5450D01*
X8765Y5451D01*
X8764Y5451D01*
X8762Y5452D01*
X8760Y5452D01*
X8758Y5453D01*
X8755Y5453D01*
X8753D01*
X8752Y5453D01*
X8750Y5453D01*
X8748Y5452D01*
X8745Y5451D01*
X8743Y5451D01*
X8741Y5449D01*
X8741Y5449D01*
X8741Y5449D01*
X8740Y5449D01*
X8740Y5448D01*
X8739Y5447D01*
X8739Y5446D01*
X8738Y5445D01*
X8738Y5443D01*
Y5443D01*
Y5443D01*
X8738Y5442D01*
X8739Y5441D01*
X8739Y5440D01*
X8739Y5439D01*
X8740Y5438D01*
X8741Y5437D01*
X8741Y5437D01*
X8742Y5437D01*
X8742Y5437D01*
X8743Y5436D01*
X8744Y5436D01*
X8745Y5435D01*
X8746Y5435D01*
X8747Y5434D01*
X8749Y5434D01*
X8750Y5433D01*
X8752Y5433D01*
X8754Y5432D01*
X8757Y5432D01*
X8759Y5431D01*
X8759D01*
X8760Y5431D01*
X8761Y5431D01*
X8762Y5430D01*
X8763Y5430D01*
X8764Y5430D01*
X8766Y5429D01*
X8767Y5429D01*
X8771Y5428D01*
X8774Y5427D01*
X8777Y5425D01*
X8779Y5425D01*
X8780Y5424D01*
X8780D01*
X8781Y5424D01*
X8781Y5423D01*
X8783Y5422D01*
X8784Y5421D01*
X8786Y5420D01*
X8788Y5418D01*
X8790Y5416D01*
X8791Y5414D01*
X8791Y5414D01*
X8792Y5413D01*
X8792Y5411D01*
X8793Y5410D01*
X8794Y5407D01*
X8795Y5405D01*
X8795Y5402D01*
X8795Y5398D01*
Y5398D01*
Y5398D01*
Y5397D01*
Y5397D01*
X8795Y5396D01*
X8795Y5395D01*
X8795Y5393D01*
X8794Y5391D01*
X8793Y5388D01*
X8792Y5385D01*
X8790Y5383D01*
Y5382D01*
X8790Y5382D01*
X8789Y5381D01*
X8788Y5380D01*
X8787Y5378D01*
X8785Y5377D01*
X8783Y5375D01*
X8780Y5373D01*
X8777Y5372D01*
X8777D01*
X8777Y5372D01*
X8776Y5371D01*
X8775Y5371D01*
X8775Y5371D01*
X8774Y5371D01*
X8773Y5370D01*
X8771Y5370D01*
X8770Y5370D01*
X8768Y5369D01*
X8764Y5369D01*
X8760Y5368D01*
X8756Y5368D01*
X8754D01*
X8753Y5368D01*
X8751Y5368D01*
X8750Y5369D01*
X8748Y5369D01*
X8745Y5369D01*
X8741Y5370D01*
X8738Y5371D01*
X8736Y5372D01*
X8734Y5373D01*
X8731Y5374D01*
X8729Y5375D01*
X8727Y5377D01*
X8727Y5377D01*
X8727Y5377D01*
X8726Y5377D01*
X8726Y5378D01*
X8725Y5379D01*
X8724Y5380D01*
X8723Y5382D01*
X8722Y5383D01*
X8721Y5385D01*
X8720Y5386D01*
X8719Y5389D01*
X8718Y5391D01*
X8718Y5393D01*
X8717Y5396D01*
X8716Y5399D01*
X8716Y5402D01*
X8735Y5404D01*
Y5403D01*
X8735Y5403D01*
Y5403D01*
X8735Y5402D01*
X8736Y5400D01*
X8736Y5398D01*
X8737Y5396D01*
X8739Y5393D01*
X8740Y5391D01*
X8742Y5389D01*
X8742Y5389D01*
X8743Y5389D01*
X8744Y5388D01*
X8746Y5387D01*
X8748Y5386D01*
X8750Y5386D01*
X8753Y5385D01*
X8756Y5385D01*
X8758D01*
X8759Y5385D01*
X8762Y5385D01*
X8764Y5386D01*
X8766Y5386D01*
X8768Y5387D01*
X8770Y5389D01*
X8771Y5389D01*
X8771Y5389D01*
X8772Y5390D01*
X8773Y5391D01*
X8774Y5393D01*
X8775Y5395D01*
X8775Y5396D01*
X8775Y5398D01*
Y5398D01*
Y5399D01*
X8775Y5399D01*
X8775Y5400D01*
X8775Y5401D01*
X8774Y5402D01*
X8774Y5403D01*
X8773Y5404D01*
X8773Y5404D01*
X8773Y5405D01*
X8772Y5405D01*
X8772Y5406D01*
X8771Y5406D01*
X8769Y5407D01*
X8768Y5408D01*
X8766Y5408D01*
X8766D01*
X8765Y5409D01*
X8764Y5409D01*
X8764Y5409D01*
X8763Y5409D01*
X8762Y5410D01*
X8761Y5410D01*
X8760Y5410D01*
X8758Y5411D01*
X8756Y5411D01*
X8755Y5412D01*
X8753Y5412D01*
X8750Y5413D01*
X8750D01*
X8750Y5413D01*
X8749Y5413D01*
X8748Y5413D01*
X8747Y5414D01*
X8745Y5414D01*
X8743Y5415D01*
X8742Y5415D01*
X8738Y5417D01*
X8734Y5418D01*
X8733Y5419D01*
X8731Y5420D01*
X8730Y5421D01*
X8728Y5422D01*
X8728Y5422D01*
X8728Y5423D01*
X8727Y5423D01*
X8727Y5424D01*
X8726Y5425D01*
X8725Y5426D01*
X8725Y5427D01*
X8724Y5428D01*
X8722Y5431D01*
X8721Y5434D01*
X8720Y5436D01*
X8720Y5438D01*
X8720Y5440D01*
X8719Y5442D01*
Y5442D01*
Y5442D01*
Y5443D01*
Y5443D01*
X8720Y5445D01*
X8720Y5447D01*
X8720Y5449D01*
X8721Y5451D01*
X8722Y5454D01*
X8723Y5456D01*
Y5456D01*
X8724Y5456D01*
X8724Y5457D01*
X8725Y5458D01*
X8727Y5460D01*
X8728Y5461D01*
X8730Y5463D01*
X8733Y5464D01*
X8736Y5466D01*
X8736D01*
X8736Y5466D01*
X8736Y5466D01*
X8737Y5466D01*
X8738Y5467D01*
X8739Y5467D01*
X8740Y5467D01*
X8741Y5468D01*
X8744Y5468D01*
X8747Y5469D01*
X8751Y5469D01*
X8755Y5469D01*
X8757D01*
X8758Y5469D01*
D02*
G37*
G36*
X9009Y5319D02*
X9010D01*
X9012Y5319D01*
X9014Y5319D01*
X9016Y5318D01*
X9019Y5318D01*
X9021Y5317D01*
X9024Y5316D01*
X9027Y5315D01*
X9030Y5314D01*
X9033Y5312D01*
X9036Y5310D01*
X9038Y5308D01*
X9041Y5306D01*
X9041Y5306D01*
X9041Y5305D01*
X9042Y5304D01*
X9043Y5303D01*
X9044Y5302D01*
X9045Y5300D01*
X9046Y5298D01*
X9047Y5296D01*
X9049Y5294D01*
X9050Y5291D01*
X9051Y5288D01*
X9052Y5285D01*
X9053Y5281D01*
X9053Y5277D01*
X9054Y5273D01*
X9054Y5269D01*
Y5268D01*
Y5268D01*
X9054Y5266D01*
Y5265D01*
X9053Y5263D01*
X9053Y5260D01*
X9053Y5258D01*
X9052Y5255D01*
X9052Y5252D01*
X9051Y5249D01*
X9050Y5246D01*
X9048Y5243D01*
X9047Y5240D01*
X9045Y5237D01*
X9043Y5234D01*
X9041Y5231D01*
X9041Y5231D01*
X9040Y5231D01*
X9040Y5230D01*
X9039Y5229D01*
X9037Y5228D01*
X9036Y5227D01*
X9034Y5226D01*
X9032Y5225D01*
X9030Y5224D01*
X9027Y5222D01*
X9024Y5221D01*
X9021Y5220D01*
X9018Y5219D01*
X9014Y5219D01*
X9011Y5218D01*
X9007Y5218D01*
X9006D01*
X9005Y5218D01*
X9003Y5218D01*
X9001Y5219D01*
X8999Y5219D01*
X8997Y5219D01*
X8994Y5220D01*
X8991Y5221D01*
X8989Y5221D01*
X8986Y5223D01*
X8983Y5224D01*
X8980Y5225D01*
X8977Y5227D01*
X8975Y5229D01*
X8972Y5231D01*
X8972Y5232D01*
X8972Y5232D01*
X8971Y5233D01*
X8970Y5234D01*
X8969Y5235D01*
X8968Y5237D01*
X8967Y5239D01*
X8966Y5241D01*
X8965Y5243D01*
X8963Y5246D01*
X8962Y5249D01*
X8961Y5252D01*
X8960Y5256D01*
X8960Y5260D01*
X8959Y5264D01*
X8959Y5268D01*
Y5268D01*
Y5269D01*
Y5269D01*
X8959Y5271D01*
Y5272D01*
X8960Y5273D01*
X8960Y5275D01*
X8960Y5277D01*
X8960Y5281D01*
X8961Y5285D01*
X8962Y5289D01*
X8964Y5293D01*
Y5293D01*
X8964Y5293D01*
X8964Y5294D01*
X8964Y5294D01*
X8965Y5296D01*
X8966Y5298D01*
X8967Y5300D01*
X8969Y5302D01*
X8971Y5304D01*
X8973Y5307D01*
X8973Y5307D01*
X8973Y5307D01*
X8974Y5308D01*
X8975Y5309D01*
X8977Y5310D01*
X8978Y5311D01*
X8980Y5313D01*
X8983Y5314D01*
X8985Y5315D01*
X8986D01*
X8986Y5316D01*
X8986Y5316D01*
X8987Y5316D01*
X8988Y5316D01*
X8989Y5317D01*
X8990Y5317D01*
X8991Y5317D01*
X8995Y5318D01*
X8998Y5319D01*
X9002Y5319D01*
X9006Y5319D01*
X9007D01*
X9009Y5319D01*
D02*
G37*
G36*
X9015Y5469D02*
X9017Y5469D01*
X9019Y5469D01*
X9021Y5469D01*
X9023Y5468D01*
X9027Y5467D01*
X9030Y5467D01*
X9032Y5466D01*
X9034Y5465D01*
X9036Y5464D01*
X9038Y5463D01*
X9040Y5461D01*
X9040Y5461D01*
X9040Y5461D01*
X9041Y5460D01*
X9041Y5460D01*
X9042Y5459D01*
X9043Y5458D01*
X9044Y5457D01*
X9045Y5456D01*
X9046Y5454D01*
X9046Y5452D01*
X9047Y5451D01*
X9048Y5449D01*
X9049Y5447D01*
X9049Y5444D01*
X9050Y5442D01*
X9050Y5440D01*
X9030Y5439D01*
Y5439D01*
Y5439D01*
X9030Y5440D01*
X9030Y5441D01*
X9029Y5443D01*
X9028Y5445D01*
X9027Y5447D01*
X9026Y5448D01*
X9025Y5450D01*
X9024Y5450D01*
X9024Y5450D01*
X9023Y5451D01*
X9021Y5451D01*
X9020Y5452D01*
X9018Y5452D01*
X9015Y5453D01*
X9012Y5453D01*
X9011D01*
X9009Y5453D01*
X9007Y5453D01*
X9005Y5452D01*
X9003Y5451D01*
X9001Y5451D01*
X8999Y5449D01*
X8999Y5449D01*
X8998Y5449D01*
X8998Y5449D01*
X8997Y5448D01*
X8997Y5447D01*
X8996Y5446D01*
X8996Y5445D01*
X8996Y5443D01*
Y5443D01*
Y5443D01*
X8996Y5442D01*
X8996Y5441D01*
X8997Y5440D01*
X8997Y5439D01*
X8998Y5438D01*
X8999Y5437D01*
X8999Y5437D01*
X8999Y5437D01*
X9000Y5437D01*
X9001Y5436D01*
X9001Y5436D01*
X9002Y5435D01*
X9003Y5435D01*
X9005Y5434D01*
X9006Y5434D01*
X9008Y5433D01*
X9010Y5433D01*
X9012Y5432D01*
X9014Y5432D01*
X9017Y5431D01*
X9017D01*
X9017Y5431D01*
X9018Y5431D01*
X9019Y5430D01*
X9020Y5430D01*
X9022Y5430D01*
X9023Y5429D01*
X9025Y5429D01*
X9028Y5428D01*
X9032Y5427D01*
X9035Y5425D01*
X9036Y5425D01*
X9038Y5424D01*
X9038D01*
X9038Y5424D01*
X9039Y5423D01*
X9040Y5422D01*
X9042Y5421D01*
X9043Y5420D01*
X9045Y5418D01*
X9047Y5416D01*
X9049Y5414D01*
X9049Y5414D01*
X9049Y5413D01*
X9050Y5411D01*
X9051Y5410D01*
X9051Y5407D01*
X9052Y5405D01*
X9052Y5402D01*
X9053Y5398D01*
Y5398D01*
Y5398D01*
Y5397D01*
Y5397D01*
X9052Y5396D01*
X9052Y5395D01*
X9052Y5393D01*
X9051Y5391D01*
X9051Y5388D01*
X9049Y5385D01*
X9048Y5383D01*
Y5382D01*
X9048Y5382D01*
X9047Y5381D01*
X9046Y5380D01*
X9044Y5378D01*
X9043Y5377D01*
X9040Y5375D01*
X9038Y5373D01*
X9035Y5372D01*
X9034D01*
X9034Y5372D01*
X9034Y5371D01*
X9033Y5371D01*
X9032Y5371D01*
X9031Y5371D01*
X9030Y5370D01*
X9029Y5370D01*
X9027Y5370D01*
X9026Y5369D01*
X9022Y5369D01*
X9018Y5368D01*
X9013Y5368D01*
X9012D01*
X9010Y5368D01*
X9009Y5368D01*
X9007Y5369D01*
X9005Y5369D01*
X9003Y5369D01*
X8998Y5370D01*
X8996Y5371D01*
X8994Y5372D01*
X8991Y5373D01*
X8989Y5374D01*
X8987Y5375D01*
X8985Y5377D01*
X8985Y5377D01*
X8985Y5377D01*
X8984Y5377D01*
X8983Y5378D01*
X8983Y5379D01*
X8982Y5380D01*
X8981Y5382D01*
X8980Y5383D01*
X8979Y5385D01*
X8978Y5386D01*
X8977Y5389D01*
X8976Y5391D01*
X8975Y5393D01*
X8974Y5396D01*
X8974Y5399D01*
X8973Y5402D01*
X8992Y5404D01*
Y5403D01*
X8993Y5403D01*
Y5403D01*
X8993Y5402D01*
X8993Y5400D01*
X8994Y5398D01*
X8995Y5396D01*
X8996Y5393D01*
X8998Y5391D01*
X8999Y5389D01*
X9000Y5389D01*
X9000Y5389D01*
X9001Y5388D01*
X9003Y5387D01*
X9005Y5386D01*
X9008Y5386D01*
X9010Y5385D01*
X9014Y5385D01*
X9015D01*
X9017Y5385D01*
X9019Y5385D01*
X9021Y5386D01*
X9024Y5386D01*
X9026Y5387D01*
X9028Y5389D01*
X9028Y5389D01*
X9029Y5389D01*
X9030Y5390D01*
X9030Y5391D01*
X9031Y5393D01*
X9032Y5395D01*
X9033Y5396D01*
X9033Y5398D01*
Y5398D01*
Y5399D01*
X9033Y5399D01*
X9033Y5400D01*
X9032Y5401D01*
X9032Y5402D01*
X9031Y5403D01*
X9031Y5404D01*
X9031Y5404D01*
X9030Y5405D01*
X9030Y5405D01*
X9029Y5406D01*
X9028Y5406D01*
X9027Y5407D01*
X9026Y5408D01*
X9024Y5408D01*
X9024D01*
X9023Y5409D01*
X9022Y5409D01*
X9021Y5409D01*
X9020Y5409D01*
X9019Y5410D01*
X9018Y5410D01*
X9017Y5410D01*
X9016Y5411D01*
X9014Y5411D01*
X9012Y5412D01*
X9010Y5412D01*
X9008Y5413D01*
X9008D01*
X9007Y5413D01*
X9006Y5413D01*
X9005Y5413D01*
X9004Y5414D01*
X9003Y5414D01*
X9001Y5415D01*
X8999Y5415D01*
X8996Y5417D01*
X8992Y5418D01*
X8990Y5419D01*
X8989Y5420D01*
X8987Y5421D01*
X8986Y5422D01*
X8986Y5422D01*
X8985Y5423D01*
X8985Y5423D01*
X8984Y5424D01*
X8984Y5425D01*
X8983Y5426D01*
X8982Y5427D01*
X8981Y5428D01*
X8980Y5431D01*
X8978Y5434D01*
X8978Y5436D01*
X8977Y5438D01*
X8977Y5440D01*
X8977Y5442D01*
Y5442D01*
Y5442D01*
Y5443D01*
Y5443D01*
X8977Y5445D01*
X8977Y5447D01*
X8978Y5449D01*
X8979Y5451D01*
X8980Y5454D01*
X8981Y5456D01*
Y5456D01*
X8981Y5456D01*
X8982Y5457D01*
X8983Y5458D01*
X8984Y5460D01*
X8986Y5461D01*
X8988Y5463D01*
X8990Y5464D01*
X8993Y5466D01*
X8993D01*
X8994Y5466D01*
X8994Y5466D01*
X8995Y5466D01*
X8995Y5467D01*
X8996Y5467D01*
X8997Y5467D01*
X8999Y5468D01*
X9001Y5468D01*
X9005Y5469D01*
X9008Y5469D01*
X9012Y5469D01*
X9014D01*
X9015Y5469D01*
D02*
G37*
G36*
X6643Y7978D02*
X6644Y7978D01*
X6646Y7978D01*
X6647Y7977D01*
X6649Y7977D01*
X6652Y7976D01*
X6654Y7975D01*
X6656Y7974D01*
X6658Y7973D01*
X6659Y7972D01*
X6661Y7971D01*
X6663Y7969D01*
X6663Y7969D01*
X6663Y7969D01*
X6664Y7969D01*
X6664Y7968D01*
X6665Y7967D01*
X6666Y7965D01*
X6668Y7962D01*
X6669Y7959D01*
X6669Y7956D01*
X6670Y7955D01*
X6670Y7953D01*
Y7953D01*
Y7952D01*
X6670Y7952D01*
X6669Y7951D01*
X6669Y7950D01*
X6669Y7949D01*
X6669Y7947D01*
X6668Y7946D01*
X6667Y7944D01*
X6666Y7942D01*
X6665Y7941D01*
X6664Y7939D01*
X6662Y7937D01*
X6660Y7936D01*
X6658Y7934D01*
X6656Y7932D01*
X6656D01*
X6656Y7932D01*
X6657D01*
X6657Y7932D01*
X6659Y7932D01*
X6660Y7931D01*
X6663Y7930D01*
X6665Y7928D01*
X6667Y7926D01*
X6669Y7924D01*
X6669Y7924D01*
X6670Y7923D01*
X6671Y7922D01*
X6672Y7920D01*
X6673Y7918D01*
X6673Y7915D01*
X6674Y7912D01*
X6674Y7909D01*
Y7909D01*
Y7909D01*
Y7908D01*
X6674Y7907D01*
X6674Y7906D01*
X6674Y7905D01*
X6673Y7903D01*
X6673Y7902D01*
X6672Y7898D01*
X6671Y7896D01*
X6670Y7894D01*
X6669Y7893D01*
X6668Y7891D01*
X6666Y7889D01*
X6665Y7887D01*
X6665Y7887D01*
X6664Y7887D01*
X6664Y7886D01*
X6663Y7886D01*
X6662Y7885D01*
X6661Y7884D01*
X6660Y7884D01*
X6658Y7883D01*
X6657Y7882D01*
X6655Y7881D01*
X6653Y7880D01*
X6651Y7880D01*
X6649Y7879D01*
X6646Y7879D01*
X6644Y7878D01*
X6641Y7878D01*
X6640D01*
X6639Y7878D01*
X6638Y7878D01*
X6637Y7879D01*
X6635Y7879D01*
X6634Y7879D01*
X6630Y7880D01*
X6627Y7881D01*
X6625Y7882D01*
X6623Y7883D01*
X6621Y7885D01*
X6619Y7886D01*
X6619Y7886D01*
X6619Y7886D01*
X6618Y7887D01*
X6618Y7887D01*
X6617Y7888D01*
X6616Y7889D01*
X6616Y7890D01*
X6615Y7891D01*
X6614Y7893D01*
X6613Y7894D01*
X6611Y7897D01*
X6610Y7901D01*
X6610Y7903D01*
X6609Y7906D01*
X6627Y7908D01*
Y7908D01*
Y7908D01*
X6627Y7907D01*
X6628Y7906D01*
X6628Y7904D01*
X6629Y7902D01*
X6630Y7900D01*
X6631Y7899D01*
X6632Y7897D01*
X6632Y7897D01*
X6633Y7897D01*
X6634Y7896D01*
X6635Y7896D01*
X6636Y7895D01*
X6637Y7894D01*
X6639Y7894D01*
X6641Y7894D01*
X6641D01*
X6642Y7894D01*
X6643Y7894D01*
X6645Y7894D01*
X6646Y7895D01*
X6648Y7896D01*
X6649Y7897D01*
X6651Y7898D01*
X6651Y7898D01*
X6652Y7899D01*
X6652Y7900D01*
X6653Y7901D01*
X6654Y7903D01*
X6654Y7905D01*
X6655Y7907D01*
X6655Y7910D01*
Y7910D01*
Y7910D01*
Y7911D01*
X6655Y7912D01*
X6655Y7914D01*
X6654Y7916D01*
X6653Y7918D01*
X6652Y7920D01*
X6651Y7921D01*
X6651Y7921D01*
X6650Y7922D01*
X6649Y7923D01*
X6648Y7923D01*
X6647Y7924D01*
X6646Y7925D01*
X6644Y7925D01*
X6642Y7926D01*
X6640D01*
X6639Y7925D01*
X6638Y7925D01*
X6637Y7925D01*
X6635Y7925D01*
X6633Y7924D01*
X6635Y7939D01*
X6637D01*
X6638Y7939D01*
X6640Y7939D01*
X6641Y7940D01*
X6643Y7940D01*
X6645Y7941D01*
X6647Y7942D01*
X6647Y7943D01*
X6648Y7943D01*
X6648Y7944D01*
X6649Y7945D01*
X6650Y7946D01*
X6650Y7948D01*
X6651Y7950D01*
X6651Y7952D01*
Y7952D01*
Y7953D01*
X6651Y7953D01*
X6651Y7955D01*
X6650Y7956D01*
X6650Y7957D01*
X6649Y7959D01*
X6648Y7960D01*
X6648Y7960D01*
X6648Y7960D01*
X6647Y7961D01*
X6646Y7961D01*
X6645Y7962D01*
X6644Y7962D01*
X6642Y7962D01*
X6640Y7963D01*
X6639D01*
X6638Y7962D01*
X6637Y7962D01*
X6636Y7962D01*
X6635Y7961D01*
X6633Y7960D01*
X6632Y7959D01*
X6632Y7959D01*
X6631Y7959D01*
X6631Y7958D01*
X6630Y7957D01*
X6629Y7955D01*
X6629Y7954D01*
X6628Y7952D01*
X6628Y7949D01*
X6611Y7952D01*
Y7952D01*
X6611Y7953D01*
Y7953D01*
X6611Y7954D01*
X6611Y7955D01*
X6612Y7958D01*
X6613Y7960D01*
X6614Y7962D01*
X6615Y7964D01*
X6616Y7967D01*
X6616Y7967D01*
X6617Y7967D01*
X6618Y7968D01*
X6619Y7970D01*
X6620Y7971D01*
X6622Y7972D01*
X6624Y7974D01*
X6626Y7975D01*
X6626D01*
X6627Y7975D01*
X6627Y7975D01*
X6629Y7976D01*
X6630Y7977D01*
X6633Y7977D01*
X6635Y7978D01*
X6638Y7978D01*
X6641Y7978D01*
X6642D01*
X6643Y7978D01*
D02*
G37*
G36*
X6582Y7880D02*
X6563D01*
Y7951D01*
X6563Y7950D01*
X6563Y7950D01*
X6562Y7950D01*
X6561Y7949D01*
X6560Y7948D01*
X6559Y7947D01*
X6558Y7946D01*
X6556Y7945D01*
X6555Y7944D01*
X6553Y7943D01*
X6551Y7942D01*
X6549Y7941D01*
X6544Y7939D01*
X6539Y7937D01*
Y7953D01*
X6539D01*
X6539Y7954D01*
X6540Y7954D01*
X6540Y7954D01*
X6542Y7955D01*
X6544Y7955D01*
X6546Y7957D01*
X6549Y7958D01*
X6552Y7960D01*
X6555Y7962D01*
X6555Y7962D01*
X6555Y7963D01*
X6556Y7963D01*
X6556Y7964D01*
X6558Y7965D01*
X6560Y7967D01*
X6562Y7969D01*
X6563Y7972D01*
X6565Y7975D01*
X6567Y7978D01*
X6582D01*
Y7880D01*
D02*
G37*
G36*
X7285Y6977D02*
X7287D01*
X7288Y6977D01*
X7290D01*
X7294Y6977D01*
X7298Y6976D01*
X7301Y6976D01*
X7303Y6975D01*
X7304Y6975D01*
X7304D01*
X7304Y6975D01*
X7305Y6974D01*
X7307Y6974D01*
X7308Y6973D01*
X7310Y6971D01*
X7312Y6970D01*
X7314Y6968D01*
X7315Y6965D01*
Y6965D01*
X7316Y6965D01*
X7316Y6965D01*
X7316Y6964D01*
X7317Y6963D01*
X7318Y6961D01*
X7318Y6959D01*
X7319Y6956D01*
X7320Y6953D01*
X7320Y6950D01*
Y6950D01*
Y6950D01*
Y6949D01*
X7320Y6948D01*
Y6947D01*
X7320Y6946D01*
X7319Y6944D01*
X7318Y6941D01*
X7317Y6938D01*
X7315Y6935D01*
X7314Y6933D01*
X7313Y6932D01*
X7313Y6932D01*
X7313Y6932D01*
X7313Y6931D01*
X7312Y6931D01*
X7311Y6930D01*
X7311Y6930D01*
X7310Y6929D01*
X7309Y6928D01*
X7307Y6927D01*
X7306Y6927D01*
X7304Y6926D01*
X7302Y6925D01*
X7300Y6925D01*
X7299Y6924D01*
X7296Y6923D01*
X7294Y6923D01*
X7294D01*
X7294Y6923D01*
X7295Y6922D01*
X7296Y6922D01*
X7298Y6921D01*
X7299Y6919D01*
X7301Y6918D01*
X7303Y6917D01*
X7304Y6915D01*
X7305Y6915D01*
X7305Y6914D01*
X7306Y6913D01*
X7307Y6911D01*
X7309Y6909D01*
X7310Y6908D01*
X7311Y6906D01*
X7312Y6905D01*
X7313Y6903D01*
X7314Y6901D01*
X7316Y6899D01*
X7328Y6880D01*
X7304D01*
X7290Y6901D01*
X7290Y6901D01*
X7290Y6902D01*
X7289Y6902D01*
X7289Y6903D01*
X7288Y6904D01*
X7287Y6905D01*
X7286Y6907D01*
X7284Y6910D01*
X7282Y6912D01*
X7281Y6914D01*
X7280Y6915D01*
X7279Y6916D01*
X7279Y6916D01*
X7279Y6916D01*
X7278Y6917D01*
X7278Y6917D01*
X7277Y6918D01*
X7276Y6918D01*
X7275Y6919D01*
X7274Y6920D01*
X7273D01*
X7273Y6920D01*
X7272Y6920D01*
X7271Y6920D01*
X7270Y6920D01*
X7268Y6921D01*
X7266Y6921D01*
X7260D01*
Y6880D01*
X7240D01*
Y6978D01*
X7284D01*
X7285Y6977D01*
D02*
G37*
G36*
X7458Y6880D02*
X7439D01*
Y6951D01*
X7439Y6950D01*
X7439Y6950D01*
X7438Y6950D01*
X7437Y6949D01*
X7436Y6948D01*
X7435Y6947D01*
X7434Y6946D01*
X7432Y6945D01*
X7430Y6944D01*
X7429Y6943D01*
X7427Y6942D01*
X7425Y6941D01*
X7420Y6939D01*
X7415Y6937D01*
Y6953D01*
X7415D01*
X7415Y6954D01*
X7416Y6954D01*
X7416Y6954D01*
X7418Y6955D01*
X7420Y6955D01*
X7422Y6957D01*
X7425Y6958D01*
X7428Y6960D01*
X7431Y6962D01*
X7431Y6962D01*
X7431Y6963D01*
X7432Y6963D01*
X7432Y6964D01*
X7434Y6965D01*
X7435Y6967D01*
X7437Y6969D01*
X7439Y6972D01*
X7441Y6975D01*
X7443Y6978D01*
X7458D01*
Y6880D01*
D02*
G37*
G36*
X7382D02*
X7363D01*
Y6951D01*
X7363Y6950D01*
X7363Y6950D01*
X7362Y6950D01*
X7361Y6949D01*
X7360Y6948D01*
X7359Y6947D01*
X7358Y6946D01*
X7356Y6945D01*
X7355Y6944D01*
X7353Y6943D01*
X7351Y6942D01*
X7349Y6941D01*
X7344Y6939D01*
X7339Y6937D01*
Y6953D01*
X7339D01*
X7339Y6954D01*
X7340Y6954D01*
X7340Y6954D01*
X7342Y6955D01*
X7344Y6955D01*
X7346Y6957D01*
X7349Y6958D01*
X7352Y6960D01*
X7355Y6962D01*
X7355Y6962D01*
X7355Y6963D01*
X7356Y6963D01*
X7356Y6964D01*
X7358Y6965D01*
X7360Y6967D01*
X7362Y6969D01*
X7363Y6972D01*
X7365Y6975D01*
X7367Y6978D01*
X7382D01*
Y6880D01*
D02*
G37*
G36*
X5585Y7927D02*
X5587D01*
X5588Y7927D01*
X5590D01*
X5594Y7927D01*
X5598Y7926D01*
X5601Y7926D01*
X5603Y7925D01*
X5604Y7925D01*
X5604D01*
X5604Y7925D01*
X5605Y7924D01*
X5607Y7924D01*
X5608Y7923D01*
X5610Y7921D01*
X5612Y7920D01*
X5614Y7918D01*
X5615Y7915D01*
Y7915D01*
X5616Y7915D01*
X5616Y7915D01*
X5616Y7914D01*
X5617Y7913D01*
X5618Y7911D01*
X5618Y7909D01*
X5619Y7906D01*
X5620Y7903D01*
X5620Y7900D01*
Y7900D01*
Y7900D01*
Y7899D01*
X5620Y7898D01*
Y7897D01*
X5620Y7896D01*
X5619Y7894D01*
X5618Y7891D01*
X5617Y7888D01*
X5615Y7885D01*
X5614Y7883D01*
X5613Y7882D01*
X5613Y7882D01*
X5613Y7882D01*
X5613Y7881D01*
X5612Y7881D01*
X5611Y7880D01*
X5611Y7880D01*
X5610Y7879D01*
X5609Y7878D01*
X5607Y7877D01*
X5606Y7877D01*
X5604Y7876D01*
X5602Y7875D01*
X5600Y7875D01*
X5599Y7874D01*
X5596Y7873D01*
X5594Y7873D01*
X5594D01*
X5594Y7873D01*
X5595Y7872D01*
X5596Y7872D01*
X5598Y7871D01*
X5599Y7869D01*
X5601Y7868D01*
X5603Y7867D01*
X5604Y7865D01*
X5605Y7865D01*
X5605Y7864D01*
X5606Y7863D01*
X5607Y7861D01*
X5609Y7859D01*
X5610Y7858D01*
X5611Y7856D01*
X5612Y7855D01*
X5613Y7853D01*
X5614Y7851D01*
X5616Y7849D01*
X5628Y7830D01*
X5604D01*
X5590Y7851D01*
X5590Y7851D01*
X5590Y7852D01*
X5589Y7852D01*
X5589Y7853D01*
X5588Y7854D01*
X5587Y7855D01*
X5586Y7857D01*
X5584Y7860D01*
X5582Y7862D01*
X5581Y7864D01*
X5580Y7865D01*
X5579Y7866D01*
X5579Y7866D01*
X5579Y7866D01*
X5578Y7867D01*
X5578Y7867D01*
X5577Y7868D01*
X5576Y7868D01*
X5575Y7869D01*
X5574Y7870D01*
X5573D01*
X5573Y7870D01*
X5572Y7870D01*
X5571Y7870D01*
X5570Y7870D01*
X5568Y7871D01*
X5566Y7871D01*
X5560D01*
Y7830D01*
X5540D01*
Y7928D01*
X5584D01*
X5585Y7927D01*
D02*
G37*
G36*
X6022Y7830D02*
X6003D01*
Y7901D01*
X6003Y7900D01*
X6003Y7900D01*
X6002Y7900D01*
X6001Y7899D01*
X6000Y7898D01*
X5999Y7897D01*
X5998Y7896D01*
X5996Y7895D01*
X5995Y7894D01*
X5993Y7893D01*
X5991Y7892D01*
X5989Y7891D01*
X5984Y7889D01*
X5979Y7887D01*
Y7903D01*
X5979D01*
X5979Y7904D01*
X5980Y7904D01*
X5980Y7904D01*
X5982Y7905D01*
X5984Y7905D01*
X5986Y7907D01*
X5989Y7908D01*
X5992Y7910D01*
X5995Y7912D01*
X5995Y7912D01*
X5995Y7913D01*
X5996Y7913D01*
X5996Y7914D01*
X5998Y7915D01*
X6000Y7917D01*
X6002Y7919D01*
X6003Y7922D01*
X6005Y7925D01*
X6007Y7928D01*
X6022D01*
Y7830D01*
D02*
G37*
G36*
X5682D02*
X5663D01*
Y7901D01*
X5663Y7900D01*
X5663Y7900D01*
X5662Y7900D01*
X5661Y7899D01*
X5660Y7898D01*
X5659Y7897D01*
X5658Y7896D01*
X5656Y7895D01*
X5655Y7894D01*
X5653Y7893D01*
X5651Y7892D01*
X5649Y7891D01*
X5644Y7889D01*
X5639Y7887D01*
Y7903D01*
X5639D01*
X5639Y7904D01*
X5640Y7904D01*
X5640Y7904D01*
X5642Y7905D01*
X5644Y7905D01*
X5646Y7907D01*
X5649Y7908D01*
X5652Y7910D01*
X5655Y7912D01*
X5655Y7912D01*
X5655Y7913D01*
X5656Y7913D01*
X5656Y7914D01*
X5658Y7915D01*
X5660Y7917D01*
X5662Y7919D01*
X5663Y7922D01*
X5665Y7925D01*
X5667Y7928D01*
X5682D01*
Y7830D01*
D02*
G37*
G36*
X6485Y7977D02*
X6487D01*
X6488Y7977D01*
X6490D01*
X6494Y7977D01*
X6498Y7976D01*
X6501Y7976D01*
X6503Y7975D01*
X6504Y7975D01*
X6504D01*
X6504Y7975D01*
X6505Y7974D01*
X6507Y7974D01*
X6508Y7973D01*
X6510Y7971D01*
X6512Y7970D01*
X6514Y7968D01*
X6515Y7965D01*
Y7965D01*
X6516Y7965D01*
X6516Y7965D01*
X6516Y7964D01*
X6517Y7963D01*
X6518Y7961D01*
X6518Y7959D01*
X6519Y7956D01*
X6520Y7953D01*
X6520Y7950D01*
Y7950D01*
Y7950D01*
Y7949D01*
X6520Y7948D01*
Y7947D01*
X6520Y7946D01*
X6519Y7944D01*
X6518Y7941D01*
X6517Y7938D01*
X6515Y7935D01*
X6514Y7933D01*
X6513Y7932D01*
X6513Y7932D01*
X6513Y7932D01*
X6513Y7931D01*
X6512Y7931D01*
X6511Y7930D01*
X6511Y7930D01*
X6510Y7929D01*
X6509Y7928D01*
X6507Y7927D01*
X6506Y7927D01*
X6504Y7926D01*
X6502Y7925D01*
X6500Y7925D01*
X6499Y7924D01*
X6496Y7923D01*
X6494Y7923D01*
X6494D01*
X6494Y7923D01*
X6495Y7922D01*
X6496Y7922D01*
X6498Y7921D01*
X6499Y7919D01*
X6501Y7918D01*
X6503Y7917D01*
X6504Y7915D01*
X6505Y7915D01*
X6505Y7914D01*
X6506Y7913D01*
X6507Y7911D01*
X6509Y7909D01*
X6510Y7908D01*
X6511Y7906D01*
X6512Y7905D01*
X6513Y7903D01*
X6514Y7901D01*
X6516Y7899D01*
X6528Y7880D01*
X6504D01*
X6490Y7901D01*
X6490Y7901D01*
X6490Y7902D01*
X6489Y7902D01*
X6489Y7903D01*
X6488Y7904D01*
X6487Y7905D01*
X6486Y7907D01*
X6484Y7910D01*
X6482Y7912D01*
X6481Y7914D01*
X6480Y7915D01*
X6479Y7916D01*
X6479Y7916D01*
X6479Y7916D01*
X6478Y7917D01*
X6478Y7917D01*
X6477Y7918D01*
X6476Y7918D01*
X6475Y7919D01*
X6474Y7920D01*
X6473D01*
X6473Y7920D01*
X6472Y7920D01*
X6471Y7920D01*
X6470Y7920D01*
X6468Y7921D01*
X6466Y7921D01*
X6460D01*
Y7880D01*
X6440D01*
Y7978D01*
X6484D01*
X6485Y7977D01*
D02*
G37*
G36*
X5772Y7909D02*
X5736D01*
X5733Y7892D01*
X5733D01*
X5734Y7892D01*
X5734Y7893D01*
X5736Y7893D01*
X5737Y7894D01*
X5739Y7894D01*
X5741Y7895D01*
X5744Y7895D01*
X5746Y7895D01*
X5747D01*
X5748Y7895D01*
X5749Y7895D01*
X5750Y7895D01*
X5752Y7895D01*
X5753Y7894D01*
X5757Y7893D01*
X5759Y7892D01*
X5760Y7892D01*
X5762Y7890D01*
X5764Y7889D01*
X5766Y7888D01*
X5767Y7886D01*
X5767Y7886D01*
X5768Y7886D01*
X5768Y7885D01*
X5769Y7885D01*
X5769Y7884D01*
X5770Y7883D01*
X5771Y7881D01*
X5772Y7880D01*
X5772Y7878D01*
X5773Y7877D01*
X5774Y7875D01*
X5775Y7873D01*
X5775Y7870D01*
X5776Y7868D01*
X5776Y7865D01*
X5776Y7863D01*
Y7863D01*
Y7862D01*
Y7862D01*
X5776Y7861D01*
Y7860D01*
X5776Y7858D01*
X5775Y7857D01*
X5775Y7856D01*
X5774Y7852D01*
X5773Y7848D01*
X5772Y7846D01*
X5771Y7845D01*
X5770Y7843D01*
X5769Y7841D01*
X5769Y7841D01*
X5769Y7840D01*
X5768Y7840D01*
X5767Y7839D01*
X5766Y7838D01*
X5765Y7837D01*
X5764Y7836D01*
X5762Y7835D01*
X5760Y7833D01*
X5758Y7832D01*
X5756Y7831D01*
X5754Y7830D01*
X5751Y7829D01*
X5748Y7829D01*
X5746Y7828D01*
X5742Y7828D01*
X5741D01*
X5740Y7828D01*
X5739Y7828D01*
X5738Y7829D01*
X5736Y7829D01*
X5735Y7829D01*
X5731Y7830D01*
X5727Y7831D01*
X5726Y7832D01*
X5724Y7833D01*
X5722Y7834D01*
X5720Y7835D01*
X5720Y7835D01*
X5720Y7836D01*
X5719Y7836D01*
X5719Y7837D01*
X5718Y7837D01*
X5717Y7838D01*
X5717Y7839D01*
X5716Y7840D01*
X5715Y7842D01*
X5714Y7843D01*
X5713Y7847D01*
X5711Y7850D01*
X5711Y7853D01*
X5710Y7855D01*
X5729Y7857D01*
Y7857D01*
X5729Y7856D01*
X5729Y7855D01*
X5730Y7853D01*
X5730Y7852D01*
X5731Y7850D01*
X5732Y7848D01*
X5734Y7847D01*
X5734Y7847D01*
X5734Y7846D01*
X5735Y7846D01*
X5736Y7845D01*
X5737Y7844D01*
X5739Y7844D01*
X5741Y7843D01*
X5743Y7843D01*
X5743D01*
X5744Y7843D01*
X5745Y7843D01*
X5746Y7844D01*
X5748Y7844D01*
X5749Y7845D01*
X5751Y7846D01*
X5753Y7848D01*
X5753Y7848D01*
X5753Y7849D01*
X5754Y7850D01*
X5755Y7852D01*
X5756Y7854D01*
X5756Y7856D01*
X5757Y7859D01*
X5757Y7862D01*
Y7862D01*
Y7863D01*
Y7863D01*
Y7864D01*
X5757Y7865D01*
X5756Y7867D01*
X5756Y7870D01*
X5755Y7872D01*
X5754Y7874D01*
X5753Y7876D01*
X5753Y7876D01*
X5752Y7877D01*
X5751Y7877D01*
X5750Y7878D01*
X5748Y7879D01*
X5747Y7880D01*
X5744Y7880D01*
X5742Y7880D01*
X5741D01*
X5741Y7880D01*
X5739Y7880D01*
X5737Y7880D01*
X5735Y7879D01*
X5733Y7878D01*
X5731Y7877D01*
X5730Y7876D01*
X5729Y7875D01*
X5728Y7873D01*
X5713Y7875D01*
X5722Y7926D01*
X5772D01*
Y7909D01*
D02*
G37*
G36*
X9105Y6797D02*
X9107D01*
X9108Y6797D01*
X9110D01*
X9114Y6797D01*
X9118Y6796D01*
X9121Y6796D01*
X9123Y6795D01*
X9124Y6795D01*
X9124D01*
X9124Y6795D01*
X9125Y6794D01*
X9127Y6794D01*
X9128Y6793D01*
X9130Y6791D01*
X9132Y6790D01*
X9134Y6788D01*
X9135Y6785D01*
Y6785D01*
X9136Y6785D01*
X9136Y6785D01*
X9136Y6784D01*
X9137Y6783D01*
X9138Y6781D01*
X9138Y6779D01*
X9139Y6776D01*
X9140Y6773D01*
X9140Y6770D01*
Y6770D01*
Y6770D01*
Y6769D01*
X9140Y6768D01*
Y6767D01*
X9140Y6766D01*
X9139Y6764D01*
X9138Y6761D01*
X9137Y6758D01*
X9135Y6755D01*
X9134Y6753D01*
X9133Y6752D01*
X9133Y6752D01*
X9133Y6752D01*
X9133Y6751D01*
X9132Y6751D01*
X9131Y6750D01*
X9131Y6750D01*
X9130Y6749D01*
X9129Y6748D01*
X9127Y6747D01*
X9126Y6747D01*
X9124Y6746D01*
X9122Y6745D01*
X9120Y6745D01*
X9119Y6744D01*
X9116Y6743D01*
X9114Y6743D01*
X9114D01*
X9114Y6743D01*
X9115Y6742D01*
X9116Y6742D01*
X9118Y6741D01*
X9119Y6739D01*
X9121Y6738D01*
X9123Y6737D01*
X9124Y6735D01*
X9125Y6735D01*
X9125Y6734D01*
X9126Y6733D01*
X9127Y6731D01*
X9129Y6729D01*
X9130Y6728D01*
X9131Y6726D01*
X9132Y6725D01*
X9133Y6723D01*
X9134Y6721D01*
X9136Y6719D01*
X9148Y6700D01*
X9124D01*
X9110Y6721D01*
X9110Y6721D01*
X9110Y6722D01*
X9109Y6722D01*
X9109Y6723D01*
X9108Y6724D01*
X9107Y6725D01*
X9106Y6727D01*
X9104Y6730D01*
X9102Y6732D01*
X9101Y6734D01*
X9100Y6735D01*
X9099Y6736D01*
X9099Y6736D01*
X9099Y6736D01*
X9098Y6737D01*
X9098Y6737D01*
X9097Y6738D01*
X9096Y6738D01*
X9095Y6739D01*
X9094Y6740D01*
X9093D01*
X9093Y6740D01*
X9092Y6740D01*
X9091Y6740D01*
X9090Y6740D01*
X9088Y6741D01*
X9086Y6741D01*
X9080D01*
Y6700D01*
X9060D01*
Y6798D01*
X9104D01*
X9105Y6797D01*
D02*
G37*
G36*
X7712Y7350D02*
X7693D01*
Y7421D01*
X7693Y7420D01*
X7693Y7420D01*
X7692Y7420D01*
X7691Y7419D01*
X7690Y7418D01*
X7689Y7417D01*
X7688Y7416D01*
X7686Y7415D01*
X7685Y7414D01*
X7683Y7413D01*
X7681Y7412D01*
X7679Y7411D01*
X7674Y7409D01*
X7669Y7407D01*
Y7423D01*
X7669D01*
X7669Y7424D01*
X7670Y7424D01*
X7670Y7424D01*
X7672Y7425D01*
X7674Y7425D01*
X7676Y7427D01*
X7679Y7428D01*
X7682Y7430D01*
X7685Y7432D01*
X7685Y7432D01*
X7685Y7433D01*
X7686Y7433D01*
X7686Y7434D01*
X7688Y7435D01*
X7690Y7437D01*
X7692Y7439D01*
X7693Y7442D01*
X7695Y7445D01*
X7697Y7448D01*
X7712D01*
Y7350D01*
D02*
G37*
G36*
X7615Y7447D02*
X7617D01*
X7618Y7447D01*
X7620D01*
X7624Y7447D01*
X7628Y7446D01*
X7631Y7446D01*
X7633Y7445D01*
X7634Y7445D01*
X7634D01*
X7634Y7445D01*
X7635Y7444D01*
X7637Y7444D01*
X7638Y7443D01*
X7640Y7441D01*
X7642Y7440D01*
X7644Y7438D01*
X7645Y7435D01*
Y7435D01*
X7646Y7435D01*
X7646Y7435D01*
X7646Y7434D01*
X7647Y7433D01*
X7648Y7431D01*
X7648Y7429D01*
X7649Y7426D01*
X7650Y7423D01*
X7650Y7420D01*
Y7420D01*
Y7420D01*
Y7419D01*
X7650Y7418D01*
Y7417D01*
X7650Y7416D01*
X7649Y7414D01*
X7648Y7411D01*
X7647Y7408D01*
X7645Y7405D01*
X7644Y7403D01*
X7643Y7402D01*
X7643Y7402D01*
X7643Y7402D01*
X7643Y7401D01*
X7642Y7401D01*
X7641Y7400D01*
X7641Y7400D01*
X7640Y7399D01*
X7639Y7398D01*
X7637Y7397D01*
X7636Y7397D01*
X7634Y7396D01*
X7632Y7395D01*
X7630Y7395D01*
X7629Y7394D01*
X7626Y7393D01*
X7624Y7393D01*
X7624D01*
X7624Y7393D01*
X7625Y7392D01*
X7626Y7392D01*
X7628Y7391D01*
X7629Y7389D01*
X7631Y7388D01*
X7633Y7387D01*
X7634Y7385D01*
X7635Y7385D01*
X7635Y7384D01*
X7636Y7383D01*
X7637Y7381D01*
X7639Y7379D01*
X7640Y7378D01*
X7641Y7376D01*
X7642Y7375D01*
X7643Y7373D01*
X7644Y7371D01*
X7646Y7369D01*
X7658Y7350D01*
X7634D01*
X7620Y7371D01*
X7620Y7371D01*
X7620Y7372D01*
X7619Y7372D01*
X7619Y7373D01*
X7618Y7374D01*
X7617Y7375D01*
X7616Y7377D01*
X7614Y7380D01*
X7612Y7382D01*
X7611Y7384D01*
X7610Y7385D01*
X7609Y7386D01*
X7609Y7386D01*
X7609Y7386D01*
X7608Y7387D01*
X7608Y7387D01*
X7607Y7388D01*
X7606Y7388D01*
X7605Y7389D01*
X7604Y7390D01*
X7603D01*
X7603Y7390D01*
X7602Y7390D01*
X7601Y7390D01*
X7600Y7390D01*
X7598Y7391D01*
X7596Y7391D01*
X7590D01*
Y7350D01*
X7570D01*
Y7448D01*
X7614D01*
X7615Y7447D01*
D02*
G37*
G36*
X7775Y7448D02*
X7776Y7448D01*
X7777Y7448D01*
X7779Y7447D01*
X7780Y7447D01*
X7784Y7446D01*
X7788Y7445D01*
X7790Y7444D01*
X7791Y7443D01*
X7793Y7442D01*
X7795Y7440D01*
X7795Y7440D01*
X7795Y7440D01*
X7796Y7439D01*
X7796Y7439D01*
X7797Y7438D01*
X7798Y7437D01*
X7798Y7436D01*
X7799Y7435D01*
X7800Y7432D01*
X7802Y7429D01*
X7802Y7427D01*
X7803Y7425D01*
X7803Y7423D01*
X7803Y7421D01*
Y7420D01*
Y7420D01*
X7803Y7418D01*
X7803Y7417D01*
X7803Y7415D01*
X7802Y7413D01*
X7802Y7410D01*
X7801Y7408D01*
X7801Y7408D01*
X7800Y7407D01*
X7800Y7406D01*
X7799Y7404D01*
X7798Y7403D01*
X7797Y7400D01*
X7795Y7398D01*
X7793Y7396D01*
X7793Y7396D01*
X7793Y7395D01*
X7792Y7394D01*
X7790Y7393D01*
X7789Y7391D01*
X7787Y7389D01*
X7784Y7386D01*
X7781Y7383D01*
X7781Y7383D01*
X7781Y7383D01*
X7780Y7383D01*
X7780Y7382D01*
X7778Y7381D01*
X7776Y7379D01*
X7774Y7377D01*
X7773Y7375D01*
X7771Y7374D01*
X7770Y7373D01*
X7770Y7372D01*
X7770Y7372D01*
X7769Y7372D01*
X7769Y7371D01*
X7768Y7371D01*
X7767Y7369D01*
X7766Y7367D01*
X7803D01*
Y7350D01*
X7738D01*
Y7350D01*
Y7350D01*
X7738Y7351D01*
X7738Y7352D01*
X7738Y7353D01*
X7738Y7354D01*
X7739Y7356D01*
X7740Y7359D01*
X7741Y7362D01*
X7742Y7365D01*
X7744Y7369D01*
Y7369D01*
X7744Y7369D01*
X7745Y7370D01*
X7745Y7370D01*
X7746Y7371D01*
X7746Y7372D01*
X7747Y7373D01*
X7749Y7375D01*
X7750Y7377D01*
X7751Y7378D01*
X7753Y7380D01*
X7755Y7382D01*
X7757Y7384D01*
X7760Y7387D01*
X7762Y7389D01*
X7765Y7392D01*
X7765Y7392D01*
X7766Y7393D01*
X7766Y7393D01*
X7767Y7394D01*
X7768Y7395D01*
X7769Y7396D01*
X7772Y7398D01*
X7774Y7401D01*
X7777Y7404D01*
X7778Y7405D01*
X7779Y7406D01*
X7780Y7407D01*
X7780Y7408D01*
X7781Y7408D01*
X7781Y7409D01*
X7782Y7410D01*
X7782Y7412D01*
X7783Y7413D01*
X7784Y7415D01*
X7784Y7417D01*
X7784Y7419D01*
Y7420D01*
Y7420D01*
Y7420D01*
X7784Y7422D01*
X7784Y7423D01*
X7784Y7425D01*
X7783Y7426D01*
X7782Y7428D01*
X7781Y7429D01*
X7781Y7429D01*
X7780Y7430D01*
X7780Y7430D01*
X7779Y7431D01*
X7777Y7431D01*
X7776Y7432D01*
X7774Y7432D01*
X7772Y7433D01*
X7771D01*
X7770Y7432D01*
X7768Y7432D01*
X7767Y7432D01*
X7765Y7431D01*
X7764Y7430D01*
X7762Y7429D01*
X7762Y7429D01*
X7762Y7428D01*
X7761Y7428D01*
X7761Y7426D01*
X7760Y7425D01*
X7759Y7423D01*
X7759Y7420D01*
X7758Y7417D01*
X7740Y7419D01*
Y7419D01*
X7740Y7420D01*
Y7421D01*
X7740Y7422D01*
X7740Y7423D01*
X7741Y7424D01*
X7741Y7426D01*
X7742Y7428D01*
X7743Y7431D01*
X7745Y7435D01*
X7746Y7437D01*
X7747Y7439D01*
X7749Y7440D01*
X7750Y7441D01*
X7750Y7441D01*
X7751Y7442D01*
X7751Y7442D01*
X7752Y7442D01*
X7753Y7443D01*
X7754Y7443D01*
X7755Y7444D01*
X7756Y7445D01*
X7758Y7445D01*
X7759Y7446D01*
X7763Y7447D01*
X7767Y7448D01*
X7770Y7448D01*
X7772Y7448D01*
X7774D01*
X7775Y7448D01*
D02*
G37*
G36*
X8118Y6779D02*
X8120Y6779D01*
X8122Y6779D01*
X8124Y6779D01*
X8126Y6778D01*
X8128Y6778D01*
X8130Y6777D01*
X8133Y6776D01*
X8135Y6775D01*
X8138Y6774D01*
X8140Y6772D01*
X8142Y6771D01*
X8145Y6769D01*
X8145D01*
X8145Y6769D01*
X8145Y6768D01*
X8146Y6768D01*
X8146Y6767D01*
X8147Y6766D01*
X8148Y6764D01*
X8150Y6762D01*
X8152Y6759D01*
X8153Y6755D01*
X8155Y6751D01*
X8135Y6746D01*
Y6746D01*
X8135Y6747D01*
Y6747D01*
X8135Y6748D01*
X8134Y6749D01*
X8134Y6750D01*
X8133Y6752D01*
X8131Y6754D01*
X8130Y6756D01*
X8128Y6758D01*
X8128Y6758D01*
X8127Y6759D01*
X8126Y6760D01*
X8124Y6760D01*
X8122Y6761D01*
X8120Y6762D01*
X8117Y6762D01*
X8115Y6763D01*
X8114D01*
X8113Y6762D01*
X8112Y6762D01*
X8111Y6762D01*
X8108Y6762D01*
X8106Y6761D01*
X8103Y6759D01*
X8101Y6758D01*
X8100Y6757D01*
X8098Y6756D01*
X8097Y6755D01*
Y6755D01*
X8097Y6754D01*
X8096Y6754D01*
X8096Y6753D01*
X8095Y6752D01*
X8095Y6751D01*
X8094Y6750D01*
X8094Y6749D01*
X8093Y6747D01*
X8092Y6745D01*
X8092Y6743D01*
X8091Y6741D01*
X8091Y6738D01*
X8091Y6736D01*
X8090Y6733D01*
X8090Y6729D01*
Y6729D01*
Y6728D01*
Y6728D01*
X8090Y6726D01*
Y6725D01*
X8091Y6723D01*
X8091Y6721D01*
X8091Y6719D01*
X8092Y6715D01*
X8093Y6710D01*
X8094Y6708D01*
X8095Y6706D01*
X8096Y6704D01*
X8097Y6703D01*
X8097Y6703D01*
X8097Y6703D01*
X8098Y6702D01*
X8098Y6702D01*
X8100Y6700D01*
X8102Y6699D01*
X8104Y6697D01*
X8107Y6696D01*
X8110Y6695D01*
X8112Y6695D01*
X8114Y6695D01*
X8115D01*
X8115Y6695D01*
X8117Y6695D01*
X8119Y6696D01*
X8121Y6696D01*
X8123Y6697D01*
X8125Y6698D01*
X8128Y6700D01*
X8128Y6700D01*
X8129Y6701D01*
X8129Y6702D01*
X8131Y6704D01*
X8132Y6706D01*
X8133Y6709D01*
X8135Y6712D01*
X8136Y6716D01*
X8155Y6710D01*
Y6710D01*
X8155Y6709D01*
X8154Y6708D01*
X8154Y6707D01*
X8153Y6706D01*
X8153Y6704D01*
X8152Y6703D01*
X8151Y6701D01*
X8149Y6697D01*
X8147Y6693D01*
X8144Y6689D01*
X8142Y6688D01*
X8140Y6686D01*
X8140Y6686D01*
X8140Y6686D01*
X8139Y6685D01*
X8138Y6685D01*
X8137Y6684D01*
X8136Y6684D01*
X8135Y6683D01*
X8133Y6682D01*
X8131Y6681D01*
X8129Y6681D01*
X8127Y6680D01*
X8125Y6680D01*
X8123Y6679D01*
X8120Y6679D01*
X8117Y6678D01*
X8114Y6678D01*
X8113D01*
X8112Y6678D01*
X8111Y6679D01*
X8109Y6679D01*
X8107Y6679D01*
X8105Y6679D01*
X8103Y6680D01*
X8101Y6681D01*
X8098Y6682D01*
X8095Y6683D01*
X8093Y6684D01*
X8090Y6685D01*
X8087Y6687D01*
X8085Y6689D01*
X8082Y6692D01*
X8082Y6692D01*
X8082Y6692D01*
X8081Y6693D01*
X8080Y6694D01*
X8080Y6695D01*
X8078Y6697D01*
X8077Y6699D01*
X8076Y6701D01*
X8075Y6704D01*
X8074Y6706D01*
X8073Y6709D01*
X8072Y6713D01*
X8071Y6716D01*
X8071Y6720D01*
X8070Y6724D01*
X8070Y6728D01*
Y6728D01*
Y6728D01*
Y6729D01*
X8070Y6730D01*
Y6732D01*
X8070Y6734D01*
X8071Y6736D01*
X8071Y6739D01*
X8072Y6742D01*
X8072Y6745D01*
X8073Y6748D01*
X8074Y6751D01*
X8075Y6754D01*
X8077Y6757D01*
X8078Y6760D01*
X8080Y6763D01*
X8083Y6766D01*
X8083Y6766D01*
X8083Y6766D01*
X8084Y6767D01*
X8085Y6768D01*
X8086Y6769D01*
X8088Y6770D01*
X8089Y6771D01*
X8091Y6773D01*
X8094Y6774D01*
X8096Y6775D01*
X8099Y6776D01*
X8102Y6777D01*
X8105Y6778D01*
X8108Y6779D01*
X8112Y6779D01*
X8116Y6779D01*
X8117D01*
X8118Y6779D01*
D02*
G37*
G36*
X8202Y6778D02*
X8203Y6778D01*
X8205Y6778D01*
X8206Y6777D01*
X8208Y6777D01*
X8212Y6776D01*
X8215Y6775D01*
X8217Y6774D01*
X8219Y6773D01*
X8221Y6772D01*
X8223Y6770D01*
X8223Y6770D01*
X8223Y6770D01*
X8223Y6769D01*
X8224Y6769D01*
X8225Y6768D01*
X8225Y6767D01*
X8226Y6766D01*
X8227Y6765D01*
X8228Y6762D01*
X8230Y6759D01*
X8230Y6757D01*
X8230Y6755D01*
X8231Y6753D01*
X8231Y6751D01*
Y6750D01*
Y6750D01*
X8231Y6748D01*
X8231Y6747D01*
X8230Y6745D01*
X8230Y6743D01*
X8229Y6740D01*
X8228Y6738D01*
X8228Y6738D01*
X8228Y6737D01*
X8227Y6736D01*
X8227Y6734D01*
X8226Y6733D01*
X8224Y6730D01*
X8223Y6728D01*
X8221Y6726D01*
X8221Y6726D01*
X8220Y6725D01*
X8219Y6724D01*
X8218Y6723D01*
X8216Y6721D01*
X8214Y6719D01*
X8212Y6716D01*
X8209Y6713D01*
X8209Y6713D01*
X8208Y6713D01*
X8208Y6713D01*
X8207Y6712D01*
X8206Y6711D01*
X8204Y6709D01*
X8202Y6707D01*
X8200Y6705D01*
X8199Y6704D01*
X8198Y6703D01*
X8197Y6702D01*
X8197Y6702D01*
X8197Y6702D01*
X8197Y6701D01*
X8196Y6701D01*
X8195Y6699D01*
X8194Y6697D01*
X8231D01*
Y6680D01*
X8165D01*
Y6680D01*
Y6680D01*
X8165Y6681D01*
X8166Y6682D01*
X8166Y6683D01*
X8166Y6684D01*
X8166Y6686D01*
X8167Y6689D01*
X8168Y6692D01*
X8170Y6695D01*
X8172Y6699D01*
Y6699D01*
X8172Y6699D01*
X8172Y6700D01*
X8173Y6700D01*
X8173Y6701D01*
X8174Y6702D01*
X8175Y6703D01*
X8176Y6705D01*
X8178Y6707D01*
X8179Y6708D01*
X8181Y6710D01*
X8183Y6712D01*
X8185Y6714D01*
X8187Y6717D01*
X8190Y6719D01*
X8193Y6722D01*
X8193Y6722D01*
X8193Y6723D01*
X8194Y6723D01*
X8195Y6724D01*
X8196Y6725D01*
X8197Y6726D01*
X8199Y6728D01*
X8202Y6731D01*
X8204Y6734D01*
X8206Y6735D01*
X8207Y6736D01*
X8208Y6737D01*
X8208Y6738D01*
X8208Y6738D01*
X8209Y6739D01*
X8209Y6740D01*
X8210Y6742D01*
X8211Y6743D01*
X8212Y6745D01*
X8212Y6747D01*
X8212Y6749D01*
Y6750D01*
Y6750D01*
Y6750D01*
X8212Y6752D01*
X8212Y6753D01*
X8211Y6755D01*
X8211Y6756D01*
X8210Y6758D01*
X8209Y6759D01*
X8209Y6759D01*
X8208Y6760D01*
X8207Y6760D01*
X8206Y6761D01*
X8205Y6761D01*
X8203Y6762D01*
X8202Y6762D01*
X8199Y6763D01*
X8198D01*
X8197Y6762D01*
X8196Y6762D01*
X8194Y6762D01*
X8193Y6761D01*
X8191Y6760D01*
X8190Y6759D01*
X8190Y6759D01*
X8189Y6758D01*
X8189Y6758D01*
X8188Y6756D01*
X8188Y6755D01*
X8187Y6753D01*
X8186Y6750D01*
X8186Y6747D01*
X8168Y6749D01*
Y6749D01*
X8168Y6750D01*
Y6751D01*
X8168Y6752D01*
X8168Y6753D01*
X8169Y6754D01*
X8169Y6756D01*
X8169Y6758D01*
X8171Y6761D01*
X8172Y6765D01*
X8174Y6767D01*
X8175Y6769D01*
X8176Y6770D01*
X8178Y6771D01*
X8178Y6771D01*
X8178Y6772D01*
X8179Y6772D01*
X8179Y6772D01*
X8180Y6773D01*
X8181Y6773D01*
X8182Y6774D01*
X8184Y6775D01*
X8185Y6775D01*
X8187Y6776D01*
X8191Y6777D01*
X8195Y6778D01*
X8197Y6778D01*
X8200Y6778D01*
X8201D01*
X8202Y6778D01*
D02*
G37*
G36*
X8705Y6797D02*
X8707D01*
X8708Y6797D01*
X8710D01*
X8714Y6797D01*
X8718Y6796D01*
X8721Y6796D01*
X8723Y6795D01*
X8724Y6795D01*
X8724D01*
X8724Y6795D01*
X8725Y6794D01*
X8727Y6794D01*
X8728Y6793D01*
X8730Y6791D01*
X8732Y6790D01*
X8734Y6788D01*
X8735Y6785D01*
Y6785D01*
X8736Y6785D01*
X8736Y6785D01*
X8736Y6784D01*
X8737Y6783D01*
X8738Y6781D01*
X8738Y6779D01*
X8739Y6776D01*
X8740Y6773D01*
X8740Y6770D01*
Y6770D01*
Y6770D01*
Y6769D01*
X8740Y6768D01*
Y6767D01*
X8740Y6766D01*
X8739Y6764D01*
X8738Y6761D01*
X8737Y6758D01*
X8735Y6755D01*
X8734Y6753D01*
X8733Y6752D01*
X8733Y6752D01*
X8733Y6752D01*
X8733Y6751D01*
X8732Y6751D01*
X8731Y6750D01*
X8731Y6750D01*
X8730Y6749D01*
X8729Y6748D01*
X8727Y6747D01*
X8726Y6747D01*
X8724Y6746D01*
X8722Y6745D01*
X8720Y6745D01*
X8719Y6744D01*
X8716Y6743D01*
X8714Y6743D01*
X8714D01*
X8714Y6743D01*
X8715Y6742D01*
X8716Y6742D01*
X8718Y6741D01*
X8719Y6739D01*
X8721Y6738D01*
X8723Y6737D01*
X8724Y6735D01*
X8725Y6735D01*
X8725Y6734D01*
X8726Y6733D01*
X8727Y6731D01*
X8729Y6729D01*
X8730Y6728D01*
X8731Y6726D01*
X8732Y6725D01*
X8733Y6723D01*
X8734Y6721D01*
X8736Y6719D01*
X8748Y6700D01*
X8724D01*
X8710Y6721D01*
X8710Y6721D01*
X8710Y6722D01*
X8709Y6722D01*
X8709Y6723D01*
X8708Y6724D01*
X8707Y6725D01*
X8706Y6727D01*
X8704Y6730D01*
X8702Y6732D01*
X8701Y6734D01*
X8700Y6735D01*
X8699Y6736D01*
X8699Y6736D01*
X8699Y6736D01*
X8698Y6737D01*
X8698Y6737D01*
X8697Y6738D01*
X8696Y6738D01*
X8695Y6739D01*
X8694Y6740D01*
X8693D01*
X8693Y6740D01*
X8692Y6740D01*
X8691Y6740D01*
X8690Y6740D01*
X8688Y6741D01*
X8686Y6741D01*
X8680D01*
Y6700D01*
X8660D01*
Y6798D01*
X8704D01*
X8705Y6797D01*
D02*
G37*
G36*
X9187Y6798D02*
X9188Y6798D01*
X9190Y6798D01*
X9191Y6797D01*
X9193Y6797D01*
X9196Y6796D01*
X9198Y6795D01*
X9200Y6794D01*
X9202Y6793D01*
X9204Y6792D01*
X9205Y6791D01*
X9207Y6789D01*
X9207Y6789D01*
X9207Y6789D01*
X9208Y6789D01*
X9208Y6788D01*
X9209Y6787D01*
X9211Y6785D01*
X9212Y6782D01*
X9213Y6779D01*
X9214Y6776D01*
X9214Y6775D01*
X9214Y6773D01*
Y6773D01*
Y6772D01*
X9214Y6772D01*
X9214Y6771D01*
X9214Y6770D01*
X9213Y6769D01*
X9213Y6767D01*
X9212Y6766D01*
X9211Y6764D01*
X9211Y6762D01*
X9209Y6761D01*
X9208Y6759D01*
X9206Y6757D01*
X9204Y6756D01*
X9202Y6754D01*
X9200Y6752D01*
X9200D01*
X9200Y6752D01*
X9201D01*
X9201Y6752D01*
X9203Y6752D01*
X9205Y6751D01*
X9207Y6750D01*
X9209Y6748D01*
X9211Y6746D01*
X9213Y6744D01*
X9214Y6744D01*
X9214Y6743D01*
X9215Y6742D01*
X9216Y6740D01*
X9217Y6738D01*
X9217Y6735D01*
X9218Y6732D01*
X9218Y6729D01*
Y6729D01*
Y6729D01*
Y6728D01*
X9218Y6727D01*
X9218Y6726D01*
X9218Y6725D01*
X9217Y6723D01*
X9217Y6722D01*
X9216Y6718D01*
X9215Y6716D01*
X9214Y6714D01*
X9213Y6713D01*
X9212Y6711D01*
X9211Y6709D01*
X9209Y6707D01*
X9209Y6707D01*
X9208Y6707D01*
X9208Y6706D01*
X9207Y6706D01*
X9206Y6705D01*
X9205Y6704D01*
X9204Y6704D01*
X9202Y6703D01*
X9201Y6702D01*
X9199Y6701D01*
X9197Y6700D01*
X9195Y6700D01*
X9193Y6699D01*
X9191Y6699D01*
X9188Y6698D01*
X9185Y6698D01*
X9184D01*
X9183Y6698D01*
X9182Y6698D01*
X9181Y6699D01*
X9179Y6699D01*
X9178Y6699D01*
X9174Y6700D01*
X9171Y6701D01*
X9169Y6702D01*
X9167Y6703D01*
X9165Y6705D01*
X9163Y6706D01*
X9163Y6706D01*
X9163Y6706D01*
X9163Y6707D01*
X9162Y6707D01*
X9161Y6708D01*
X9161Y6709D01*
X9160Y6710D01*
X9159Y6711D01*
X9158Y6713D01*
X9157Y6714D01*
X9156Y6717D01*
X9154Y6721D01*
X9154Y6723D01*
X9153Y6726D01*
X9172Y6728D01*
Y6728D01*
Y6728D01*
X9172Y6727D01*
X9172Y6726D01*
X9172Y6724D01*
X9173Y6722D01*
X9174Y6720D01*
X9175Y6719D01*
X9176Y6717D01*
X9176Y6717D01*
X9177Y6717D01*
X9178Y6716D01*
X9179Y6716D01*
X9180Y6715D01*
X9182Y6714D01*
X9183Y6714D01*
X9185Y6714D01*
X9186D01*
X9186Y6714D01*
X9187Y6714D01*
X9189Y6714D01*
X9190Y6715D01*
X9192Y6716D01*
X9193Y6717D01*
X9195Y6718D01*
X9195Y6718D01*
X9196Y6719D01*
X9196Y6720D01*
X9197Y6721D01*
X9198Y6723D01*
X9199Y6725D01*
X9199Y6727D01*
X9199Y6730D01*
Y6730D01*
Y6730D01*
Y6731D01*
X9199Y6732D01*
X9199Y6734D01*
X9198Y6736D01*
X9197Y6738D01*
X9196Y6740D01*
X9195Y6741D01*
X9195Y6741D01*
X9194Y6742D01*
X9194Y6743D01*
X9193Y6743D01*
X9191Y6744D01*
X9190Y6745D01*
X9188Y6745D01*
X9186Y6746D01*
X9185D01*
X9184Y6745D01*
X9182Y6745D01*
X9181Y6745D01*
X9179Y6745D01*
X9177Y6744D01*
X9179Y6759D01*
X9181D01*
X9182Y6759D01*
X9184Y6759D01*
X9186Y6760D01*
X9188Y6760D01*
X9189Y6761D01*
X9191Y6762D01*
X9191Y6763D01*
X9192Y6763D01*
X9192Y6764D01*
X9193Y6765D01*
X9194Y6766D01*
X9195Y6768D01*
X9195Y6770D01*
X9195Y6772D01*
Y6772D01*
Y6773D01*
X9195Y6773D01*
X9195Y6775D01*
X9194Y6776D01*
X9194Y6777D01*
X9193Y6779D01*
X9192Y6780D01*
X9192Y6780D01*
X9192Y6780D01*
X9191Y6781D01*
X9190Y6781D01*
X9189Y6782D01*
X9188Y6782D01*
X9186Y6782D01*
X9184Y6783D01*
X9183D01*
X9183Y6782D01*
X9182Y6782D01*
X9180Y6782D01*
X9179Y6781D01*
X9177Y6780D01*
X9176Y6779D01*
X9176Y6779D01*
X9176Y6779D01*
X9175Y6778D01*
X9174Y6777D01*
X9174Y6775D01*
X9173Y6774D01*
X9172Y6772D01*
X9172Y6769D01*
X9155Y6772D01*
Y6772D01*
X9155Y6773D01*
Y6773D01*
X9155Y6774D01*
X9156Y6775D01*
X9156Y6778D01*
X9157Y6780D01*
X9158Y6782D01*
X9159Y6784D01*
X9160Y6787D01*
X9160Y6787D01*
X9161Y6787D01*
X9162Y6788D01*
X9163Y6790D01*
X9164Y6791D01*
X9166Y6792D01*
X9168Y6794D01*
X9170Y6795D01*
X9171D01*
X9171Y6795D01*
X9172Y6795D01*
X9173Y6796D01*
X9175Y6797D01*
X9177Y6797D01*
X9179Y6798D01*
X9182Y6798D01*
X9185Y6798D01*
X9186D01*
X9187Y6798D01*
D02*
G37*
G36*
X8789D02*
X8790Y6798D01*
X8791Y6798D01*
X8793Y6797D01*
X8795Y6797D01*
X8798Y6796D01*
X8802Y6795D01*
X8804Y6794D01*
X8806Y6793D01*
X8807Y6792D01*
X8809Y6790D01*
X8809Y6790D01*
X8809Y6790D01*
X8810Y6789D01*
X8810Y6789D01*
X8811Y6788D01*
X8812Y6787D01*
X8812Y6786D01*
X8813Y6785D01*
X8815Y6782D01*
X8816Y6779D01*
X8817Y6777D01*
X8817Y6775D01*
X8817Y6773D01*
X8817Y6771D01*
Y6770D01*
Y6770D01*
X8817Y6768D01*
X8817Y6767D01*
X8817Y6765D01*
X8816Y6763D01*
X8816Y6760D01*
X8815Y6758D01*
X8815Y6758D01*
X8815Y6757D01*
X8814Y6756D01*
X8813Y6754D01*
X8812Y6753D01*
X8811Y6750D01*
X8809Y6748D01*
X8807Y6746D01*
X8807Y6746D01*
X8807Y6745D01*
X8806Y6744D01*
X8805Y6743D01*
X8803Y6741D01*
X8801Y6739D01*
X8798Y6736D01*
X8795Y6733D01*
X8795Y6733D01*
X8795Y6733D01*
X8794Y6733D01*
X8794Y6732D01*
X8792Y6731D01*
X8790Y6729D01*
X8789Y6727D01*
X8787Y6725D01*
X8785Y6724D01*
X8784Y6723D01*
X8784Y6722D01*
X8784Y6722D01*
X8783Y6722D01*
X8783Y6721D01*
X8783Y6721D01*
X8781Y6719D01*
X8780Y6717D01*
X8817D01*
Y6700D01*
X8752D01*
Y6700D01*
Y6700D01*
X8752Y6701D01*
X8752Y6702D01*
X8752Y6703D01*
X8752Y6704D01*
X8753Y6706D01*
X8754Y6709D01*
X8755Y6712D01*
X8756Y6715D01*
X8758Y6719D01*
Y6719D01*
X8758Y6719D01*
X8759Y6720D01*
X8759Y6720D01*
X8760Y6721D01*
X8761Y6722D01*
X8762Y6723D01*
X8763Y6725D01*
X8764Y6727D01*
X8766Y6728D01*
X8767Y6730D01*
X8769Y6732D01*
X8771Y6734D01*
X8774Y6737D01*
X8776Y6739D01*
X8779Y6742D01*
X8779Y6742D01*
X8780Y6743D01*
X8780Y6743D01*
X8781Y6744D01*
X8782Y6745D01*
X8783Y6746D01*
X8786Y6748D01*
X8788Y6751D01*
X8791Y6754D01*
X8792Y6755D01*
X8793Y6756D01*
X8794Y6757D01*
X8795Y6758D01*
X8795Y6758D01*
X8795Y6759D01*
X8796Y6760D01*
X8797Y6762D01*
X8797Y6763D01*
X8798Y6765D01*
X8798Y6767D01*
X8799Y6769D01*
Y6770D01*
Y6770D01*
Y6770D01*
X8798Y6772D01*
X8798Y6773D01*
X8798Y6775D01*
X8797Y6776D01*
X8796Y6778D01*
X8795Y6779D01*
X8795Y6779D01*
X8795Y6780D01*
X8794Y6780D01*
X8793Y6781D01*
X8791Y6781D01*
X8790Y6782D01*
X8788Y6782D01*
X8786Y6783D01*
X8785D01*
X8784Y6782D01*
X8783Y6782D01*
X8781Y6782D01*
X8779Y6781D01*
X8778Y6780D01*
X8776Y6779D01*
X8776Y6779D01*
X8776Y6778D01*
X8775Y6778D01*
X8775Y6776D01*
X8774Y6775D01*
X8773Y6773D01*
X8773Y6770D01*
X8773Y6767D01*
X8754Y6769D01*
Y6769D01*
X8754Y6770D01*
Y6771D01*
X8754Y6772D01*
X8755Y6773D01*
X8755Y6774D01*
X8755Y6776D01*
X8756Y6778D01*
X8757Y6781D01*
X8759Y6785D01*
X8760Y6787D01*
X8761Y6789D01*
X8763Y6790D01*
X8764Y6791D01*
X8764Y6791D01*
X8765Y6792D01*
X8765Y6792D01*
X8766Y6792D01*
X8767Y6793D01*
X8768Y6793D01*
X8769Y6794D01*
X8770Y6795D01*
X8772Y6795D01*
X8774Y6796D01*
X8777Y6797D01*
X8782Y6798D01*
X8784Y6798D01*
X8786Y6798D01*
X8788D01*
X8789Y6798D01*
D02*
G37*
G36*
X8512Y6700D02*
X8493D01*
Y6771D01*
X8493Y6770D01*
X8493Y6770D01*
X8492Y6770D01*
X8491Y6769D01*
X8490Y6768D01*
X8489Y6767D01*
X8488Y6766D01*
X8486Y6765D01*
X8485Y6764D01*
X8483Y6763D01*
X8481Y6762D01*
X8479Y6761D01*
X8474Y6759D01*
X8469Y6757D01*
Y6773D01*
X8469D01*
X8469Y6774D01*
X8470Y6774D01*
X8470Y6774D01*
X8472Y6775D01*
X8474Y6775D01*
X8476Y6777D01*
X8479Y6778D01*
X8482Y6780D01*
X8485Y6782D01*
X8485Y6782D01*
X8485Y6783D01*
X8486Y6783D01*
X8486Y6784D01*
X8488Y6785D01*
X8490Y6787D01*
X8492Y6789D01*
X8493Y6792D01*
X8495Y6795D01*
X8497Y6798D01*
X8512D01*
Y6700D01*
D02*
G37*
G36*
X8415Y6797D02*
X8417D01*
X8418Y6797D01*
X8420D01*
X8424Y6797D01*
X8428Y6796D01*
X8431Y6796D01*
X8433Y6795D01*
X8434Y6795D01*
X8434D01*
X8434Y6795D01*
X8435Y6794D01*
X8437Y6794D01*
X8438Y6793D01*
X8440Y6791D01*
X8442Y6790D01*
X8444Y6788D01*
X8445Y6785D01*
Y6785D01*
X8446Y6785D01*
X8446Y6785D01*
X8446Y6784D01*
X8447Y6783D01*
X8448Y6781D01*
X8448Y6779D01*
X8449Y6776D01*
X8450Y6773D01*
X8450Y6770D01*
Y6770D01*
Y6770D01*
Y6769D01*
X8450Y6768D01*
Y6767D01*
X8450Y6766D01*
X8449Y6764D01*
X8448Y6761D01*
X8447Y6758D01*
X8445Y6755D01*
X8444Y6753D01*
X8443Y6752D01*
X8443Y6752D01*
X8443Y6752D01*
X8443Y6751D01*
X8442Y6751D01*
X8441Y6750D01*
X8441Y6750D01*
X8440Y6749D01*
X8439Y6748D01*
X8437Y6747D01*
X8436Y6747D01*
X8434Y6746D01*
X8432Y6745D01*
X8430Y6745D01*
X8429Y6744D01*
X8426Y6743D01*
X8424Y6743D01*
X8424D01*
X8424Y6743D01*
X8425Y6742D01*
X8426Y6742D01*
X8428Y6741D01*
X8429Y6739D01*
X8431Y6738D01*
X8433Y6737D01*
X8434Y6735D01*
X8435Y6735D01*
X8435Y6734D01*
X8436Y6733D01*
X8437Y6731D01*
X8439Y6729D01*
X8440Y6728D01*
X8441Y6726D01*
X8442Y6725D01*
X8443Y6723D01*
X8444Y6721D01*
X8446Y6719D01*
X8458Y6700D01*
X8434D01*
X8420Y6721D01*
X8420Y6721D01*
X8420Y6722D01*
X8419Y6722D01*
X8419Y6723D01*
X8418Y6724D01*
X8417Y6725D01*
X8416Y6727D01*
X8414Y6730D01*
X8412Y6732D01*
X8411Y6734D01*
X8410Y6735D01*
X8409Y6736D01*
X8409Y6736D01*
X8409Y6736D01*
X8408Y6737D01*
X8408Y6737D01*
X8407Y6738D01*
X8406Y6738D01*
X8405Y6739D01*
X8404Y6740D01*
X8403D01*
X8403Y6740D01*
X8402Y6740D01*
X8401Y6740D01*
X8400Y6740D01*
X8398Y6741D01*
X8396Y6741D01*
X8390D01*
Y6700D01*
X8370D01*
Y6798D01*
X8414D01*
X8415Y6797D01*
D02*
G37*
G36*
X6108Y7470D02*
X6087D01*
X6078Y7492D01*
X6039D01*
X6031Y7470D01*
X6010D01*
X6048Y7568D01*
X6069D01*
X6108Y7470D01*
D02*
G37*
G36*
X7168Y6689D02*
X7170Y6689D01*
X7172Y6689D01*
X7174Y6689D01*
X7176Y6688D01*
X7178Y6688D01*
X7180Y6687D01*
X7183Y6686D01*
X7185Y6685D01*
X7188Y6684D01*
X7190Y6682D01*
X7192Y6681D01*
X7195Y6679D01*
X7195D01*
X7195Y6679D01*
X7195Y6678D01*
X7196Y6678D01*
X7196Y6677D01*
X7197Y6676D01*
X7198Y6674D01*
X7200Y6672D01*
X7202Y6669D01*
X7203Y6665D01*
X7205Y6661D01*
X7185Y6656D01*
Y6656D01*
X7185Y6657D01*
Y6657D01*
X7185Y6658D01*
X7184Y6659D01*
X7184Y6660D01*
X7183Y6662D01*
X7181Y6664D01*
X7180Y6666D01*
X7178Y6668D01*
X7178Y6668D01*
X7177Y6669D01*
X7176Y6670D01*
X7174Y6670D01*
X7172Y6671D01*
X7170Y6672D01*
X7167Y6672D01*
X7165Y6673D01*
X7164D01*
X7163Y6672D01*
X7162Y6672D01*
X7161Y6672D01*
X7158Y6672D01*
X7156Y6671D01*
X7153Y6669D01*
X7151Y6668D01*
X7150Y6667D01*
X7148Y6666D01*
X7147Y6665D01*
Y6665D01*
X7147Y6664D01*
X7146Y6664D01*
X7146Y6663D01*
X7145Y6662D01*
X7145Y6661D01*
X7144Y6660D01*
X7144Y6659D01*
X7143Y6657D01*
X7142Y6655D01*
X7142Y6653D01*
X7141Y6651D01*
X7141Y6648D01*
X7141Y6646D01*
X7140Y6643D01*
X7140Y6639D01*
Y6639D01*
Y6638D01*
Y6638D01*
X7140Y6636D01*
Y6635D01*
X7141Y6633D01*
X7141Y6631D01*
X7141Y6629D01*
X7142Y6625D01*
X7143Y6620D01*
X7144Y6618D01*
X7145Y6616D01*
X7146Y6614D01*
X7147Y6613D01*
X7147Y6613D01*
X7147Y6613D01*
X7148Y6612D01*
X7148Y6612D01*
X7150Y6610D01*
X7152Y6609D01*
X7154Y6607D01*
X7157Y6606D01*
X7160Y6605D01*
X7162Y6605D01*
X7164Y6605D01*
X7165D01*
X7165Y6605D01*
X7167Y6605D01*
X7169Y6606D01*
X7171Y6606D01*
X7173Y6607D01*
X7175Y6608D01*
X7178Y6610D01*
X7178Y6610D01*
X7179Y6611D01*
X7179Y6612D01*
X7181Y6614D01*
X7182Y6616D01*
X7183Y6619D01*
X7185Y6622D01*
X7186Y6626D01*
X7205Y6620D01*
Y6620D01*
X7205Y6619D01*
X7204Y6618D01*
X7204Y6617D01*
X7203Y6616D01*
X7203Y6614D01*
X7202Y6613D01*
X7201Y6611D01*
X7199Y6607D01*
X7197Y6603D01*
X7194Y6599D01*
X7192Y6598D01*
X7190Y6596D01*
X7190Y6596D01*
X7190Y6596D01*
X7189Y6595D01*
X7188Y6595D01*
X7187Y6594D01*
X7186Y6594D01*
X7185Y6593D01*
X7183Y6592D01*
X7181Y6591D01*
X7179Y6591D01*
X7177Y6590D01*
X7175Y6590D01*
X7173Y6589D01*
X7170Y6589D01*
X7167Y6588D01*
X7164Y6588D01*
X7163D01*
X7162Y6588D01*
X7161Y6589D01*
X7159Y6589D01*
X7157Y6589D01*
X7155Y6589D01*
X7153Y6590D01*
X7151Y6591D01*
X7148Y6592D01*
X7145Y6593D01*
X7143Y6594D01*
X7140Y6595D01*
X7137Y6597D01*
X7135Y6599D01*
X7132Y6602D01*
X7132Y6602D01*
X7132Y6602D01*
X7131Y6603D01*
X7130Y6604D01*
X7130Y6605D01*
X7128Y6607D01*
X7127Y6609D01*
X7126Y6611D01*
X7125Y6614D01*
X7124Y6616D01*
X7123Y6619D01*
X7122Y6623D01*
X7121Y6626D01*
X7121Y6630D01*
X7120Y6634D01*
X7120Y6638D01*
Y6638D01*
Y6638D01*
Y6639D01*
X7120Y6640D01*
Y6642D01*
X7120Y6644D01*
X7121Y6646D01*
X7121Y6649D01*
X7122Y6652D01*
X7122Y6655D01*
X7123Y6658D01*
X7124Y6661D01*
X7125Y6664D01*
X7127Y6667D01*
X7128Y6670D01*
X7130Y6673D01*
X7133Y6676D01*
X7133Y6676D01*
X7133Y6676D01*
X7134Y6677D01*
X7135Y6678D01*
X7136Y6679D01*
X7138Y6680D01*
X7139Y6681D01*
X7141Y6683D01*
X7144Y6684D01*
X7146Y6685D01*
X7149Y6686D01*
X7152Y6687D01*
X7155Y6688D01*
X7158Y6689D01*
X7162Y6689D01*
X7166Y6689D01*
X7167D01*
X7168Y6689D01*
D02*
G37*
G36*
X6260Y7470D02*
X6242D01*
Y7541D01*
X6241Y7540D01*
X6241Y7540D01*
X6241Y7540D01*
X6240Y7539D01*
X6239Y7538D01*
X6238Y7537D01*
X6236Y7536D01*
X6235Y7535D01*
X6233Y7534D01*
X6231Y7533D01*
X6229Y7532D01*
X6227Y7531D01*
X6223Y7529D01*
X6218Y7527D01*
Y7543D01*
X6218D01*
X6218Y7544D01*
X6218Y7544D01*
X6219Y7544D01*
X6220Y7545D01*
X6222Y7545D01*
X6225Y7547D01*
X6227Y7548D01*
X6230Y7550D01*
X6233Y7552D01*
X6233Y7552D01*
X6234Y7553D01*
X6234Y7553D01*
X6235Y7554D01*
X6236Y7555D01*
X6238Y7557D01*
X6240Y7559D01*
X6242Y7562D01*
X6244Y7565D01*
X6245Y7568D01*
X6260D01*
Y7470D01*
D02*
G37*
G36*
X8217Y7118D02*
X8218Y7118D01*
X8219Y7118D01*
X8220Y7117D01*
X8222Y7117D01*
X8224Y7116D01*
X8226Y7116D01*
X8228Y7115D01*
X8229Y7114D01*
X8231Y7113D01*
X8233Y7111D01*
X8235Y7110D01*
X8236Y7108D01*
X8236Y7108D01*
X8237Y7107D01*
X8237Y7107D01*
X8238Y7106D01*
X8239Y7104D01*
X8239Y7103D01*
X8240Y7101D01*
X8241Y7098D01*
X8242Y7096D01*
X8243Y7093D01*
X8244Y7090D01*
X8244Y7086D01*
X8245Y7082D01*
X8245Y7078D01*
X8246Y7073D01*
X8246Y7068D01*
Y7068D01*
Y7068D01*
Y7067D01*
Y7067D01*
Y7065D01*
X8246Y7064D01*
X8246Y7061D01*
X8245Y7059D01*
X8245Y7056D01*
X8245Y7053D01*
X8244Y7049D01*
X8243Y7046D01*
X8243Y7043D01*
X8242Y7040D01*
X8241Y7036D01*
X8239Y7033D01*
X8238Y7031D01*
X8236Y7028D01*
X8236Y7028D01*
X8236Y7028D01*
X8235Y7027D01*
X8235Y7027D01*
X8234Y7026D01*
X8233Y7025D01*
X8232Y7024D01*
X8231Y7023D01*
X8229Y7022D01*
X8227Y7021D01*
X8226Y7020D01*
X8224Y7020D01*
X8221Y7019D01*
X8219Y7019D01*
X8217Y7018D01*
X8214Y7018D01*
X8214D01*
X8213Y7018D01*
X8212D01*
X8211Y7018D01*
X8209Y7019D01*
X8208Y7019D01*
X8206Y7020D01*
X8204Y7020D01*
X8202Y7021D01*
X8200Y7022D01*
X8199Y7023D01*
X8197Y7024D01*
X8195Y7025D01*
X8193Y7027D01*
X8191Y7029D01*
X8191Y7029D01*
X8191Y7030D01*
X8190Y7030D01*
X8190Y7031D01*
X8189Y7032D01*
X8188Y7034D01*
X8188Y7036D01*
X8187Y7038D01*
X8186Y7041D01*
X8185Y7043D01*
X8185Y7047D01*
X8184Y7050D01*
X8183Y7054D01*
X8183Y7058D01*
X8183Y7063D01*
X8183Y7068D01*
Y7068D01*
Y7068D01*
Y7069D01*
Y7069D01*
Y7071D01*
X8183Y7073D01*
X8183Y7075D01*
X8183Y7078D01*
X8183Y7080D01*
X8184Y7084D01*
X8184Y7087D01*
X8185Y7090D01*
X8186Y7093D01*
X8187Y7097D01*
X8188Y7100D01*
X8189Y7103D01*
X8190Y7106D01*
X8192Y7108D01*
X8192Y7108D01*
X8192Y7108D01*
X8193Y7109D01*
X8194Y7110D01*
X8194Y7110D01*
X8195Y7111D01*
X8197Y7112D01*
X8198Y7113D01*
X8199Y7114D01*
X8201Y7115D01*
X8203Y7116D01*
X8205Y7117D01*
X8207Y7117D01*
X8209Y7118D01*
X8212Y7118D01*
X8214Y7118D01*
X8216D01*
X8217Y7118D01*
D02*
G37*
G36*
X6196Y7470D02*
X6176D01*
X6137Y7534D01*
Y7470D01*
X6118D01*
Y7568D01*
X6137D01*
X6178Y7502D01*
Y7568D01*
X6196D01*
Y7470D01*
D02*
G37*
G36*
X7203Y7490D02*
X7185D01*
X7185Y7567D01*
X7166Y7490D01*
X7147D01*
X7128Y7567D01*
Y7490D01*
X7109D01*
Y7588D01*
X7139D01*
X7156Y7521D01*
X7174Y7588D01*
X7203D01*
Y7490D01*
D02*
G37*
G36*
X7076D02*
X7055D01*
X7035Y7563D01*
X7016Y7490D01*
X6994D01*
X6971Y7588D01*
X6991D01*
X7006Y7520D01*
X7024Y7588D01*
X7048D01*
X7065Y7519D01*
X7079Y7588D01*
X7099D01*
X7076Y7490D01*
D02*
G37*
G36*
X8732Y6248D02*
X8733Y6248D01*
X8735Y6248D01*
X8736Y6247D01*
X8738Y6247D01*
X8741Y6246D01*
X8743Y6245D01*
X8745Y6244D01*
X8747Y6243D01*
X8749Y6242D01*
X8751Y6241D01*
X8752Y6239D01*
X8752Y6239D01*
X8752Y6239D01*
X8753Y6239D01*
X8753Y6238D01*
X8754Y6237D01*
X8756Y6235D01*
X8757Y6232D01*
X8758Y6229D01*
X8759Y6226D01*
X8759Y6225D01*
X8759Y6223D01*
Y6223D01*
Y6222D01*
X8759Y6222D01*
X8759Y6221D01*
X8759Y6220D01*
X8758Y6219D01*
X8758Y6217D01*
X8757Y6216D01*
X8756Y6214D01*
X8756Y6212D01*
X8754Y6211D01*
X8753Y6209D01*
X8751Y6207D01*
X8750Y6206D01*
X8747Y6204D01*
X8745Y6202D01*
X8745D01*
X8745Y6202D01*
X8746D01*
X8746Y6202D01*
X8748Y6202D01*
X8750Y6201D01*
X8752Y6200D01*
X8754Y6198D01*
X8756Y6196D01*
X8758Y6194D01*
X8759Y6194D01*
X8759Y6193D01*
X8760Y6192D01*
X8761Y6190D01*
X8762Y6188D01*
X8763Y6185D01*
X8763Y6182D01*
X8763Y6179D01*
Y6179D01*
Y6179D01*
Y6178D01*
X8763Y6177D01*
X8763Y6176D01*
X8763Y6175D01*
X8763Y6173D01*
X8762Y6172D01*
X8761Y6168D01*
X8760Y6166D01*
X8759Y6164D01*
X8758Y6163D01*
X8757Y6161D01*
X8756Y6159D01*
X8754Y6157D01*
X8754Y6157D01*
X8753Y6157D01*
X8753Y6156D01*
X8752Y6156D01*
X8751Y6155D01*
X8750Y6154D01*
X8749Y6154D01*
X8747Y6153D01*
X8746Y6152D01*
X8744Y6151D01*
X8742Y6150D01*
X8740Y6150D01*
X8738Y6149D01*
X8736Y6149D01*
X8733Y6148D01*
X8731Y6148D01*
X8729D01*
X8728Y6148D01*
X8727Y6148D01*
X8726Y6149D01*
X8724Y6149D01*
X8723Y6149D01*
X8719Y6150D01*
X8716Y6151D01*
X8714Y6152D01*
X8712Y6153D01*
X8710Y6155D01*
X8709Y6156D01*
X8708Y6156D01*
X8708Y6156D01*
X8708Y6157D01*
X8707Y6157D01*
X8706Y6158D01*
X8706Y6159D01*
X8705Y6160D01*
X8704Y6161D01*
X8703Y6163D01*
X8702Y6164D01*
X8701Y6167D01*
X8699Y6171D01*
X8699Y6173D01*
X8699Y6176D01*
X8717Y6178D01*
Y6178D01*
Y6178D01*
X8717Y6177D01*
X8717Y6176D01*
X8717Y6174D01*
X8718Y6172D01*
X8719Y6170D01*
X8720Y6169D01*
X8721Y6167D01*
X8721Y6167D01*
X8722Y6167D01*
X8723Y6166D01*
X8724Y6166D01*
X8725Y6165D01*
X8727Y6164D01*
X8728Y6164D01*
X8730Y6164D01*
X8731D01*
X8731Y6164D01*
X8732Y6164D01*
X8734Y6164D01*
X8735Y6165D01*
X8737Y6166D01*
X8739Y6167D01*
X8740Y6168D01*
X8740Y6168D01*
X8741Y6169D01*
X8741Y6170D01*
X8742Y6171D01*
X8743Y6173D01*
X8744Y6175D01*
X8744Y6177D01*
X8744Y6180D01*
Y6180D01*
Y6180D01*
Y6181D01*
X8744Y6182D01*
X8744Y6184D01*
X8743Y6186D01*
X8743Y6188D01*
X8742Y6190D01*
X8740Y6191D01*
X8740Y6191D01*
X8740Y6192D01*
X8739Y6193D01*
X8738Y6193D01*
X8736Y6194D01*
X8735Y6195D01*
X8733Y6195D01*
X8731Y6196D01*
X8730D01*
X8729Y6195D01*
X8727Y6195D01*
X8726Y6195D01*
X8724Y6195D01*
X8722Y6194D01*
X8724Y6209D01*
X8726D01*
X8727Y6209D01*
X8729Y6209D01*
X8731Y6210D01*
X8733Y6210D01*
X8734Y6211D01*
X8736Y6212D01*
X8736Y6213D01*
X8737Y6213D01*
X8737Y6214D01*
X8738Y6215D01*
X8739Y6216D01*
X8740Y6218D01*
X8740Y6220D01*
X8740Y6222D01*
Y6222D01*
Y6223D01*
X8740Y6223D01*
X8740Y6225D01*
X8740Y6226D01*
X8739Y6227D01*
X8738Y6229D01*
X8737Y6230D01*
X8737Y6230D01*
X8737Y6230D01*
X8736Y6231D01*
X8735Y6231D01*
X8734Y6232D01*
X8733Y6232D01*
X8731Y6232D01*
X8729Y6233D01*
X8729D01*
X8728Y6232D01*
X8727Y6232D01*
X8725Y6232D01*
X8724Y6231D01*
X8722Y6230D01*
X8721Y6229D01*
X8721Y6229D01*
X8721Y6229D01*
X8720Y6228D01*
X8719Y6227D01*
X8719Y6225D01*
X8718Y6224D01*
X8718Y6222D01*
X8717Y6219D01*
X8700Y6222D01*
Y6222D01*
X8700Y6223D01*
Y6223D01*
X8700Y6224D01*
X8701Y6225D01*
X8701Y6228D01*
X8702Y6230D01*
X8703Y6232D01*
X8704Y6234D01*
X8705Y6237D01*
X8705Y6237D01*
X8706Y6237D01*
X8707Y6238D01*
X8708Y6240D01*
X8709Y6241D01*
X8711Y6242D01*
X8713Y6244D01*
X8715Y6245D01*
X8716D01*
X8716Y6245D01*
X8717Y6245D01*
X8718Y6246D01*
X8720Y6247D01*
X8722Y6247D01*
X8724Y6248D01*
X8727Y6248D01*
X8730Y6248D01*
X8731D01*
X8732Y6248D01*
D02*
G37*
G36*
X7273Y6626D02*
X7285D01*
Y6610D01*
X7273D01*
Y6590D01*
X7254D01*
Y6610D01*
X7214D01*
Y6626D01*
X7257Y6688D01*
X7273D01*
Y6626D01*
D02*
G37*
G36*
X8682Y6186D02*
Y6186D01*
Y6185D01*
Y6185D01*
Y6184D01*
Y6183D01*
X8682Y6181D01*
X8682Y6179D01*
X8682Y6176D01*
X8681Y6173D01*
X8681Y6170D01*
X8680Y6167D01*
Y6167D01*
X8680Y6166D01*
X8680Y6166D01*
X8680Y6166D01*
X8679Y6164D01*
X8678Y6162D01*
X8676Y6160D01*
X8675Y6158D01*
X8672Y6155D01*
X8670Y6153D01*
X8670D01*
X8669Y6153D01*
X8669Y6153D01*
X8668Y6152D01*
X8668Y6152D01*
X8667Y6152D01*
X8666Y6151D01*
X8665Y6151D01*
X8663Y6150D01*
X8662Y6150D01*
X8658Y6149D01*
X8654Y6148D01*
X8650Y6148D01*
X8649D01*
X8648Y6148D01*
X8646Y6148D01*
X8645Y6149D01*
X8644Y6149D01*
X8642Y6149D01*
X8638Y6150D01*
X8636Y6151D01*
X8635Y6152D01*
X8633Y6153D01*
X8631Y6154D01*
X8629Y6155D01*
X8628Y6156D01*
X8628Y6156D01*
X8627Y6157D01*
X8627Y6157D01*
X8626Y6158D01*
X8626Y6159D01*
X8625Y6160D01*
X8625Y6161D01*
X8624Y6162D01*
X8623Y6164D01*
X8622Y6166D01*
X8622Y6167D01*
X8621Y6170D01*
X8621Y6172D01*
X8620Y6174D01*
X8620Y6177D01*
X8620Y6180D01*
X8639Y6182D01*
Y6182D01*
Y6182D01*
Y6181D01*
X8639Y6181D01*
Y6179D01*
X8639Y6177D01*
X8639Y6175D01*
X8640Y6173D01*
X8640Y6172D01*
X8641Y6170D01*
X8641Y6170D01*
X8642Y6169D01*
X8642Y6168D01*
X8644Y6168D01*
X8645Y6167D01*
X8647Y6166D01*
X8648Y6165D01*
X8651Y6165D01*
X8652D01*
X8653Y6165D01*
X8654Y6165D01*
X8656Y6166D01*
X8657Y6166D01*
X8659Y6167D01*
X8660Y6169D01*
X8660Y6169D01*
X8660Y6169D01*
X8661Y6170D01*
X8661Y6172D01*
X8662Y6173D01*
X8662Y6174D01*
X8662Y6175D01*
X8662Y6177D01*
X8662Y6178D01*
X8663Y6180D01*
X8663Y6182D01*
Y6184D01*
Y6248D01*
X8682D01*
Y6186D01*
D02*
G37*
G36*
X8078Y7020D02*
X8057D01*
X8048Y7042D01*
X8009D01*
X8001Y7020D01*
X7980D01*
X8018Y7118D01*
X8039D01*
X8078Y7020D01*
D02*
G37*
G36*
X8166D02*
X8146D01*
X8107Y7084D01*
Y7020D01*
X8088D01*
Y7118D01*
X8107D01*
X8148Y7052D01*
Y7118D01*
X8166D01*
Y7020D01*
D02*
G37*
G36*
X5920Y7927D02*
X5923Y7927D01*
X5926Y7927D01*
X5929Y7927D01*
X5932Y7926D01*
X5934Y7926D01*
X5935D01*
X5935Y7925D01*
X5935Y7925D01*
X5936Y7925D01*
X5938Y7924D01*
X5939Y7923D01*
X5942Y7922D01*
X5944Y7921D01*
X5947Y7919D01*
X5949Y7917D01*
X5949D01*
X5949Y7916D01*
X5950Y7915D01*
X5951Y7914D01*
X5952Y7912D01*
X5954Y7910D01*
X5956Y7907D01*
X5957Y7904D01*
X5958Y7901D01*
Y7901D01*
X5959Y7900D01*
X5959Y7900D01*
X5959Y7899D01*
X5959Y7898D01*
X5959Y7897D01*
X5960Y7896D01*
X5960Y7894D01*
X5960Y7893D01*
X5961Y7891D01*
X5961Y7889D01*
X5961Y7887D01*
X5961Y7883D01*
X5962Y7878D01*
Y7878D01*
Y7877D01*
Y7877D01*
Y7876D01*
X5961Y7875D01*
Y7874D01*
X5961Y7872D01*
X5961Y7871D01*
X5961Y7867D01*
X5960Y7864D01*
X5960Y7860D01*
X5959Y7857D01*
Y7857D01*
X5958Y7857D01*
X5958Y7856D01*
X5958Y7855D01*
X5958Y7854D01*
X5957Y7853D01*
X5956Y7851D01*
X5954Y7848D01*
X5953Y7845D01*
X5950Y7842D01*
X5948Y7840D01*
X5948Y7839D01*
X5947Y7839D01*
X5946Y7838D01*
X5944Y7837D01*
X5942Y7836D01*
X5940Y7834D01*
X5937Y7833D01*
X5934Y7832D01*
X5934D01*
X5934Y7832D01*
X5934D01*
X5933Y7832D01*
X5932Y7831D01*
X5930Y7831D01*
X5927Y7831D01*
X5924Y7830D01*
X5921Y7830D01*
X5917Y7830D01*
X5880D01*
Y7928D01*
X5919D01*
X5920Y7927D01*
D02*
G37*
%LPC*%
G36*
X8664Y5301D02*
X8650D01*
Y5273D01*
X8663D01*
X8664Y5273D01*
X8667D01*
X8669Y5274D01*
X8672Y5274D01*
X8674Y5274D01*
X8675Y5274D01*
X8676Y5275D01*
X8676Y5275D01*
X8677Y5275D01*
X8677Y5275D01*
X8678Y5276D01*
X8679Y5277D01*
X8680Y5277D01*
X8681Y5278D01*
X8682Y5279D01*
X8682Y5280D01*
X8683Y5280D01*
X8683Y5281D01*
X8683Y5282D01*
X8684Y5283D01*
X8684Y5284D01*
X8684Y5286D01*
X8684Y5287D01*
Y5287D01*
Y5288D01*
X8684Y5289D01*
X8684Y5290D01*
X8684Y5292D01*
X8683Y5293D01*
X8682Y5295D01*
X8681Y5296D01*
X8681Y5296D01*
X8681Y5297D01*
X8680Y5297D01*
X8679Y5298D01*
X8678Y5299D01*
X8677Y5299D01*
X8675Y5300D01*
X8673Y5300D01*
X8673D01*
X8673Y5300D01*
X8672Y5301D01*
X8670Y5301D01*
X8668D01*
X8667Y5301D01*
X8666D01*
X8664Y5301D01*
D02*
G37*
G36*
X6924Y7571D02*
X6910D01*
Y7543D01*
X6923D01*
X6924Y7543D01*
X6927D01*
X6929Y7544D01*
X6932Y7544D01*
X6934Y7544D01*
X6935Y7544D01*
X6936Y7545D01*
X6936Y7545D01*
X6937Y7545D01*
X6937Y7545D01*
X6938Y7546D01*
X6939Y7547D01*
X6940Y7547D01*
X6941Y7548D01*
X6942Y7549D01*
X6942Y7550D01*
X6943Y7550D01*
X6943Y7551D01*
X6943Y7552D01*
X6944Y7553D01*
X6944Y7554D01*
X6944Y7556D01*
X6944Y7557D01*
Y7557D01*
Y7558D01*
X6944Y7559D01*
X6944Y7560D01*
X6944Y7562D01*
X6943Y7563D01*
X6942Y7565D01*
X6941Y7566D01*
X6941Y7566D01*
X6941Y7567D01*
X6940Y7567D01*
X6939Y7568D01*
X6938Y7569D01*
X6937Y7569D01*
X6935Y7570D01*
X6933Y7570D01*
X6933D01*
X6933Y7570D01*
X6932Y7571D01*
X6930Y7571D01*
X6928D01*
X6927Y7571D01*
X6926D01*
X6924Y7571D01*
D02*
G37*
G36*
X8412Y6781D02*
X8390D01*
Y6756D01*
X8409D01*
X8412Y6756D01*
X8415Y6757D01*
X8418Y6757D01*
X8419Y6757D01*
X8420Y6757D01*
X8421Y6757D01*
X8422Y6757D01*
X8422D01*
X8422Y6758D01*
X8423Y6758D01*
X8424Y6758D01*
X8426Y6760D01*
X8427Y6760D01*
X8427Y6761D01*
X8428Y6762D01*
X8428Y6762D01*
X8428Y6763D01*
X8429Y6763D01*
X8429Y6765D01*
X8429Y6766D01*
X8429Y6767D01*
X8429Y6769D01*
Y6769D01*
Y6770D01*
X8429Y6770D01*
X8429Y6772D01*
X8429Y6773D01*
X8428Y6774D01*
X8428Y6776D01*
X8427Y6777D01*
X8427Y6777D01*
X8426Y6777D01*
X8426Y6778D01*
X8425Y6778D01*
X8424Y6779D01*
X8423Y6780D01*
X8421Y6780D01*
X8419Y6781D01*
X8419D01*
X8419Y6781D01*
X8418D01*
X8417Y6781D01*
X8414D01*
X8412Y6781D01*
D02*
G37*
G36*
X8702D02*
X8680D01*
Y6756D01*
X8699D01*
X8702Y6756D01*
X8705Y6757D01*
X8708Y6757D01*
X8709Y6757D01*
X8710Y6757D01*
X8711Y6757D01*
X8712Y6757D01*
X8712D01*
X8712Y6758D01*
X8713Y6758D01*
X8714Y6758D01*
X8716Y6760D01*
X8717Y6760D01*
X8717Y6761D01*
X8718Y6762D01*
X8718Y6762D01*
X8718Y6763D01*
X8719Y6763D01*
X8719Y6765D01*
X8719Y6766D01*
X8719Y6767D01*
X8719Y6769D01*
Y6769D01*
Y6770D01*
X8719Y6770D01*
X8719Y6772D01*
X8719Y6773D01*
X8718Y6774D01*
X8718Y6776D01*
X8717Y6777D01*
X8717Y6777D01*
X8716Y6777D01*
X8716Y6778D01*
X8715Y6778D01*
X8714Y6779D01*
X8713Y6780D01*
X8711Y6780D01*
X8709Y6781D01*
X8709D01*
X8709Y6781D01*
X8708D01*
X8707Y6781D01*
X8704D01*
X8702Y6781D01*
D02*
G37*
G36*
X8028Y7095D02*
X8015Y7059D01*
X8042D01*
X8028Y7095D01*
D02*
G37*
G36*
X8909Y5128D02*
X8909D01*
X8908Y5127D01*
X8907Y5127D01*
X8905Y5127D01*
X8904Y5126D01*
X8902Y5125D01*
X8900Y5124D01*
X8898Y5122D01*
X8898Y5122D01*
X8897Y5121D01*
X8897Y5120D01*
X8896Y5118D01*
X8895Y5116D01*
X8894Y5113D01*
X8894Y5110D01*
X8894Y5107D01*
Y5106D01*
Y5106D01*
Y5105D01*
X8894Y5105D01*
Y5104D01*
X8894Y5102D01*
X8894Y5100D01*
X8895Y5097D01*
X8896Y5094D01*
X8897Y5091D01*
X8897Y5090D01*
X8898Y5089D01*
X8899Y5089D01*
X8899Y5088D01*
X8900Y5087D01*
X8902Y5086D01*
X8903Y5085D01*
X8905Y5084D01*
X8907Y5084D01*
X8910Y5083D01*
X8910D01*
X8911Y5083D01*
X8912Y5084D01*
X8913Y5084D01*
X8915Y5085D01*
X8917Y5086D01*
X8919Y5087D01*
X8921Y5088D01*
X8921Y5089D01*
X8921Y5089D01*
X8922Y5091D01*
X8923Y5093D01*
X8923Y5094D01*
X8924Y5095D01*
X8924Y5096D01*
X8924Y5098D01*
X8924Y5100D01*
X8925Y5101D01*
X8925Y5103D01*
Y5106D01*
Y5106D01*
Y5106D01*
Y5107D01*
Y5107D01*
X8925Y5108D01*
X8925Y5109D01*
X8924Y5112D01*
X8924Y5114D01*
X8923Y5117D01*
X8922Y5120D01*
X8920Y5122D01*
X8920Y5122D01*
X8920Y5123D01*
X8919Y5124D01*
X8917Y5125D01*
X8916Y5126D01*
X8914Y5127D01*
X8912Y5127D01*
X8909Y5128D01*
D02*
G37*
G36*
X7612Y7431D02*
X7590D01*
Y7406D01*
X7609D01*
X7612Y7406D01*
X7615Y7407D01*
X7618Y7407D01*
X7619Y7407D01*
X7620Y7407D01*
X7621Y7407D01*
X7622Y7407D01*
X7622D01*
X7622Y7408D01*
X7623Y7408D01*
X7624Y7408D01*
X7626Y7410D01*
X7627Y7410D01*
X7627Y7411D01*
X7628Y7412D01*
X7628Y7412D01*
X7628Y7413D01*
X7629Y7413D01*
X7629Y7415D01*
X7629Y7416D01*
X7629Y7417D01*
X7629Y7419D01*
Y7419D01*
Y7420D01*
X7629Y7420D01*
X7629Y7422D01*
X7629Y7423D01*
X7628Y7424D01*
X7628Y7426D01*
X7627Y7427D01*
X7627Y7427D01*
X7626Y7427D01*
X7626Y7428D01*
X7625Y7428D01*
X7624Y7429D01*
X7623Y7430D01*
X7621Y7430D01*
X7619Y7431D01*
X7619D01*
X7619Y7431D01*
X7618D01*
X7617Y7431D01*
X7614D01*
X7612Y7431D01*
D02*
G37*
G36*
X5913Y7911D02*
X5900D01*
Y7846D01*
X5917D01*
X5919Y7847D01*
X5921D01*
X5923Y7847D01*
X5925Y7847D01*
X5926Y7847D01*
X5927D01*
X5927Y7848D01*
X5928Y7848D01*
X5929Y7848D01*
X5930Y7849D01*
X5932Y7850D01*
X5933Y7850D01*
X5934Y7851D01*
X5934Y7852D01*
X5935Y7852D01*
X5935Y7853D01*
X5936Y7854D01*
X5937Y7855D01*
X5938Y7857D01*
X5938Y7858D01*
X5939Y7861D01*
Y7861D01*
X5939Y7861D01*
Y7861D01*
X5939Y7862D01*
X5940Y7863D01*
X5940Y7863D01*
X5940Y7866D01*
X5941Y7868D01*
X5941Y7871D01*
X5941Y7875D01*
X5941Y7879D01*
Y7879D01*
Y7879D01*
Y7880D01*
Y7880D01*
Y7881D01*
X5941Y7883D01*
X5941Y7885D01*
X5941Y7888D01*
X5940Y7891D01*
X5940Y7893D01*
X5939Y7896D01*
Y7896D01*
X5939Y7896D01*
X5939Y7897D01*
X5938Y7898D01*
X5938Y7899D01*
X5937Y7901D01*
X5936Y7902D01*
X5935Y7904D01*
X5934Y7905D01*
X5933Y7906D01*
X5933Y7906D01*
X5932Y7907D01*
X5931Y7907D01*
X5930Y7908D01*
X5928Y7909D01*
X5927Y7910D01*
X5925Y7910D01*
X5924D01*
X5924Y7910D01*
X5923Y7910D01*
X5921Y7911D01*
X5920D01*
X5919Y7911D01*
X5917D01*
X5916Y7911D01*
X5914D01*
X5913Y7911D01*
D02*
G37*
G36*
X5104Y5231D02*
X5090D01*
Y5203D01*
X5103D01*
X5104Y5203D01*
X5107D01*
X5109Y5204D01*
X5112Y5204D01*
X5114Y5204D01*
X5115Y5204D01*
X5116Y5205D01*
X5116Y5205D01*
X5117Y5205D01*
X5117Y5205D01*
X5118Y5206D01*
X5119Y5207D01*
X5120Y5207D01*
X5121Y5208D01*
X5122Y5209D01*
X5122Y5210D01*
X5123Y5210D01*
X5123Y5211D01*
X5123Y5212D01*
X5124Y5213D01*
X5124Y5214D01*
X5124Y5216D01*
X5124Y5217D01*
Y5217D01*
Y5218D01*
X5124Y5219D01*
X5124Y5220D01*
X5124Y5222D01*
X5123Y5223D01*
X5122Y5225D01*
X5121Y5226D01*
X5121Y5226D01*
X5121Y5227D01*
X5120Y5227D01*
X5119Y5228D01*
X5118Y5229D01*
X5117Y5229D01*
X5115Y5230D01*
X5113Y5230D01*
X5113D01*
X5113Y5230D01*
X5112Y5231D01*
X5110Y5231D01*
X5108D01*
X5107Y5231D01*
X5106D01*
X5104Y5231D01*
D02*
G37*
G36*
X9070Y5128D02*
X9069D01*
X9068Y5128D01*
X9067Y5127D01*
X9065Y5127D01*
X9063Y5126D01*
X9062Y5125D01*
X9060Y5123D01*
X9060Y5123D01*
X9060Y5123D01*
X9059Y5122D01*
X9058Y5120D01*
X9057Y5118D01*
X9057Y5116D01*
X9056Y5114D01*
X9056Y5111D01*
X9084D01*
Y5111D01*
Y5112D01*
Y5112D01*
X9084Y5113D01*
X9084Y5114D01*
X9084Y5116D01*
X9083Y5118D01*
X9082Y5120D01*
X9081Y5122D01*
X9080Y5124D01*
X9080Y5124D01*
X9079Y5124D01*
X9078Y5125D01*
X9077Y5126D01*
X9076Y5127D01*
X9074Y5127D01*
X9072Y5128D01*
X9070Y5128D01*
D02*
G37*
G36*
X8993Y5128D02*
X8992D01*
X8992Y5127D01*
X8990Y5127D01*
X8989Y5127D01*
X8987Y5126D01*
X8985Y5125D01*
X8983Y5124D01*
X8981Y5122D01*
X8981Y5122D01*
X8981Y5121D01*
X8980Y5120D01*
X8979Y5118D01*
X8978Y5116D01*
X8978Y5113D01*
X8977Y5110D01*
X8977Y5107D01*
Y5106D01*
Y5106D01*
Y5105D01*
X8977Y5105D01*
Y5104D01*
X8977Y5102D01*
X8977Y5100D01*
X8978Y5097D01*
X8979Y5094D01*
X8980Y5091D01*
X8981Y5090D01*
X8982Y5089D01*
X8982Y5089D01*
X8982Y5088D01*
X8983Y5087D01*
X8985Y5086D01*
X8986Y5085D01*
X8988Y5084D01*
X8991Y5084D01*
X8993Y5083D01*
X8993D01*
X8994Y5083D01*
X8995Y5084D01*
X8997Y5084D01*
X8998Y5085D01*
X9000Y5086D01*
X9002Y5087D01*
X9004Y5088D01*
X9004Y5089D01*
X9005Y5089D01*
X9005Y5091D01*
X9006Y5093D01*
X9006Y5094D01*
X9007Y5095D01*
X9007Y5096D01*
X9008Y5098D01*
X9008Y5100D01*
X9008Y5101D01*
X9008Y5103D01*
Y5106D01*
Y5106D01*
Y5106D01*
Y5107D01*
Y5107D01*
X9008Y5108D01*
X9008Y5109D01*
X9008Y5112D01*
X9007Y5114D01*
X9006Y5117D01*
X9005Y5120D01*
X9004Y5122D01*
X9004Y5122D01*
X9003Y5123D01*
X9002Y5124D01*
X9001Y5125D01*
X8999Y5126D01*
X8997Y5127D01*
X8995Y5127D01*
X8993Y5128D01*
D02*
G37*
G36*
X9007Y5303D02*
X9006D01*
X9005Y5302D01*
X9004Y5302D01*
X9002Y5302D01*
X9000Y5302D01*
X8997Y5300D01*
X8995Y5300D01*
X8993Y5299D01*
X8992Y5298D01*
X8990Y5297D01*
X8988Y5296D01*
X8987Y5294D01*
X8987Y5294D01*
X8987Y5294D01*
X8986Y5293D01*
X8986Y5293D01*
X8985Y5292D01*
X8985Y5291D01*
X8984Y5289D01*
X8983Y5288D01*
X8983Y5286D01*
X8982Y5284D01*
X8981Y5282D01*
X8981Y5280D01*
X8980Y5277D01*
X8980Y5275D01*
X8980Y5272D01*
X8980Y5269D01*
Y5269D01*
Y5268D01*
Y5267D01*
X8980Y5266D01*
X8980Y5265D01*
X8980Y5263D01*
X8980Y5261D01*
X8981Y5259D01*
X8981Y5255D01*
X8983Y5251D01*
X8984Y5249D01*
X8985Y5247D01*
X8986Y5245D01*
X8987Y5244D01*
X8987Y5243D01*
X8988Y5243D01*
X8988Y5243D01*
X8989Y5242D01*
X8989Y5242D01*
X8990Y5241D01*
X8991Y5240D01*
X8993Y5239D01*
X8995Y5238D01*
X8999Y5236D01*
X9000Y5236D01*
X9002Y5235D01*
X9005Y5235D01*
X9007Y5235D01*
X9008D01*
X9009Y5235D01*
X9010Y5235D01*
X9011Y5235D01*
X9013Y5236D01*
X9017Y5237D01*
X9018Y5238D01*
X9020Y5238D01*
X9021Y5239D01*
X9023Y5241D01*
X9025Y5242D01*
X9026Y5243D01*
X9026Y5244D01*
X9026Y5244D01*
X9027Y5244D01*
X9027Y5245D01*
X9028Y5246D01*
X9028Y5247D01*
X9029Y5248D01*
X9030Y5250D01*
X9030Y5252D01*
X9031Y5253D01*
X9032Y5256D01*
X9032Y5258D01*
X9033Y5260D01*
X9033Y5263D01*
X9033Y5266D01*
X9034Y5269D01*
Y5269D01*
Y5270D01*
Y5271D01*
X9033Y5272D01*
X9033Y5273D01*
X9033Y5275D01*
X9033Y5277D01*
X9033Y5279D01*
X9032Y5283D01*
X9030Y5287D01*
X9030Y5289D01*
X9029Y5291D01*
X9027Y5293D01*
X9026Y5294D01*
X9026Y5294D01*
X9026Y5295D01*
X9025Y5295D01*
X9025Y5296D01*
X9024Y5296D01*
X9023Y5297D01*
X9022Y5298D01*
X9021Y5299D01*
X9020Y5299D01*
X9018Y5300D01*
X9015Y5301D01*
X9013Y5302D01*
X9011Y5302D01*
X9009Y5302D01*
X9007Y5303D01*
D02*
G37*
G36*
X8214Y7103D02*
X8214D01*
X8213Y7102D01*
X8212Y7102D01*
X8211Y7102D01*
X8210Y7102D01*
X8209Y7101D01*
X8208Y7100D01*
X8208Y7100D01*
X8208Y7100D01*
X8207Y7099D01*
X8207Y7099D01*
X8206Y7098D01*
X8205Y7096D01*
X8205Y7095D01*
X8204Y7093D01*
Y7092D01*
X8204Y7092D01*
Y7092D01*
X8204Y7091D01*
X8204Y7090D01*
X8204Y7089D01*
X8203Y7088D01*
X8203Y7087D01*
X8203Y7085D01*
X8203Y7083D01*
X8203Y7081D01*
X8203Y7079D01*
X8202Y7077D01*
Y7074D01*
X8202Y7071D01*
Y7068D01*
Y7068D01*
Y7067D01*
Y7066D01*
Y7065D01*
Y7064D01*
X8202Y7062D01*
Y7060D01*
X8203Y7059D01*
X8203Y7055D01*
X8203Y7051D01*
X8203Y7049D01*
X8203Y7047D01*
X8204Y7046D01*
X8204Y7044D01*
X8204Y7044D01*
X8204Y7043D01*
X8205Y7042D01*
X8205Y7041D01*
X8206Y7039D01*
X8207Y7038D01*
X8207Y7037D01*
X8208Y7036D01*
X8208Y7036D01*
X8209Y7036D01*
X8209Y7035D01*
X8210Y7035D01*
X8211Y7034D01*
X8212Y7034D01*
X8213Y7034D01*
X8214Y7034D01*
X8215D01*
X8215Y7034D01*
X8216Y7034D01*
X8217Y7034D01*
X8218Y7035D01*
X8219Y7035D01*
X8220Y7036D01*
X8220Y7036D01*
X8220Y7036D01*
X8221Y7037D01*
X8222Y7038D01*
X8222Y7039D01*
X8223Y7040D01*
X8224Y7042D01*
X8224Y7044D01*
Y7044D01*
X8224Y7044D01*
Y7044D01*
X8224Y7045D01*
X8225Y7046D01*
X8225Y7047D01*
X8225Y7048D01*
X8225Y7049D01*
X8225Y7051D01*
X8226Y7053D01*
X8226Y7055D01*
X8226Y7057D01*
X8226Y7059D01*
Y7062D01*
X8226Y7065D01*
Y7068D01*
Y7068D01*
Y7069D01*
Y7070D01*
Y7071D01*
Y7072D01*
X8226Y7074D01*
Y7076D01*
X8226Y7078D01*
X8226Y7081D01*
X8225Y7085D01*
X8225Y7087D01*
X8225Y7089D01*
X8225Y7090D01*
X8224Y7092D01*
Y7092D01*
X8224Y7092D01*
X8224Y7093D01*
X8224Y7094D01*
X8223Y7095D01*
X8222Y7097D01*
X8222Y7098D01*
X8221Y7099D01*
X8220Y7100D01*
X8220Y7100D01*
X8220Y7101D01*
X8219Y7101D01*
X8218Y7101D01*
X8218Y7102D01*
X8217Y7102D01*
X8215Y7102D01*
X8214Y7103D01*
D02*
G37*
G36*
X9332Y5278D02*
X9331D01*
X9330Y5278D01*
X9329Y5277D01*
X9327Y5277D01*
X9325Y5276D01*
X9324Y5275D01*
X9322Y5273D01*
X9322Y5273D01*
X9322Y5273D01*
X9321Y5272D01*
X9320Y5270D01*
X9319Y5268D01*
X9319Y5266D01*
X9318Y5264D01*
X9318Y5261D01*
X9346D01*
Y5261D01*
Y5262D01*
Y5262D01*
X9346Y5263D01*
X9346Y5264D01*
X9346Y5266D01*
X9345Y5268D01*
X9344Y5270D01*
X9343Y5272D01*
X9342Y5274D01*
X9342Y5274D01*
X9341Y5274D01*
X9340Y5275D01*
X9339Y5276D01*
X9338Y5277D01*
X9336Y5277D01*
X9334Y5278D01*
X9332Y5278D01*
D02*
G37*
G36*
X5582Y7911D02*
X5560D01*
Y7886D01*
X5579D01*
X5582Y7886D01*
X5585Y7887D01*
X5588Y7887D01*
X5589Y7887D01*
X5590Y7887D01*
X5591Y7887D01*
X5592Y7887D01*
X5592D01*
X5592Y7888D01*
X5593Y7888D01*
X5594Y7888D01*
X5596Y7890D01*
X5597Y7890D01*
X5597Y7891D01*
X5598Y7892D01*
X5598Y7892D01*
X5598Y7893D01*
X5599Y7893D01*
X5599Y7895D01*
X5599Y7896D01*
X5599Y7897D01*
X5599Y7899D01*
Y7899D01*
Y7900D01*
X5599Y7900D01*
X5599Y7902D01*
X5599Y7903D01*
X5598Y7904D01*
X5598Y7906D01*
X5597Y7907D01*
X5597Y7907D01*
X5596Y7907D01*
X5596Y7908D01*
X5595Y7908D01*
X5594Y7909D01*
X5593Y7910D01*
X5591Y7910D01*
X5589Y7911D01*
X5589D01*
X5589Y7911D01*
X5588D01*
X5587Y7911D01*
X5584D01*
X5582Y7911D01*
D02*
G37*
G36*
X6058Y7545D02*
X6045Y7509D01*
X6072D01*
X6058Y7545D01*
D02*
G37*
G36*
X6482Y7961D02*
X6460D01*
Y7936D01*
X6479D01*
X6482Y7936D01*
X6485Y7937D01*
X6488Y7937D01*
X6489Y7937D01*
X6490Y7937D01*
X6491Y7937D01*
X6492Y7937D01*
X6492D01*
X6492Y7938D01*
X6493Y7938D01*
X6494Y7938D01*
X6496Y7940D01*
X6497Y7940D01*
X6497Y7941D01*
X6498Y7942D01*
X6498Y7942D01*
X6498Y7943D01*
X6499Y7943D01*
X6499Y7945D01*
X6499Y7946D01*
X6499Y7947D01*
X6499Y7949D01*
Y7949D01*
Y7950D01*
X6499Y7950D01*
X6499Y7952D01*
X6499Y7953D01*
X6498Y7954D01*
X6498Y7956D01*
X6497Y7957D01*
X6497Y7957D01*
X6496Y7957D01*
X6496Y7958D01*
X6495Y7958D01*
X6494Y7959D01*
X6493Y7960D01*
X6491Y7960D01*
X6489Y7961D01*
X6489D01*
X6489Y7961D01*
X6488D01*
X6487Y7961D01*
X6484D01*
X6482Y7961D01*
D02*
G37*
G36*
X7282Y6961D02*
X7260D01*
Y6936D01*
X7279D01*
X7282Y6936D01*
X7285Y6937D01*
X7288Y6937D01*
X7289Y6937D01*
X7290Y6937D01*
X7291Y6937D01*
X7292Y6937D01*
X7292D01*
X7292Y6938D01*
X7293Y6938D01*
X7294Y6938D01*
X7296Y6940D01*
X7297Y6940D01*
X7297Y6941D01*
X7298Y6942D01*
X7298Y6942D01*
X7298Y6943D01*
X7299Y6943D01*
X7299Y6945D01*
X7299Y6946D01*
X7299Y6947D01*
X7299Y6949D01*
Y6949D01*
Y6950D01*
X7299Y6950D01*
X7299Y6952D01*
X7299Y6953D01*
X7298Y6954D01*
X7298Y6956D01*
X7297Y6957D01*
X7297Y6957D01*
X7296Y6957D01*
X7296Y6958D01*
X7295Y6958D01*
X7294Y6959D01*
X7293Y6960D01*
X7291Y6960D01*
X7289Y6961D01*
X7289D01*
X7289Y6961D01*
X7288D01*
X7287Y6961D01*
X7284D01*
X7282Y6961D01*
D02*
G37*
G36*
X9102Y6781D02*
X9080D01*
Y6756D01*
X9099D01*
X9102Y6756D01*
X9105Y6757D01*
X9108Y6757D01*
X9109Y6757D01*
X9110Y6757D01*
X9111Y6757D01*
X9112Y6757D01*
X9112D01*
X9112Y6758D01*
X9113Y6758D01*
X9114Y6758D01*
X9116Y6760D01*
X9117Y6760D01*
X9117Y6761D01*
X9118Y6762D01*
X9118Y6762D01*
X9118Y6763D01*
X9119Y6763D01*
X9119Y6765D01*
X9119Y6766D01*
X9119Y6767D01*
X9119Y6769D01*
Y6769D01*
Y6770D01*
X9119Y6770D01*
X9119Y6772D01*
X9119Y6773D01*
X9118Y6774D01*
X9118Y6776D01*
X9117Y6777D01*
X9117Y6777D01*
X9116Y6777D01*
X9116Y6778D01*
X9115Y6778D01*
X9114Y6779D01*
X9113Y6780D01*
X9111Y6780D01*
X9109Y6781D01*
X9109D01*
X9109Y6781D01*
X9108D01*
X9107Y6781D01*
X9104D01*
X9102Y6781D01*
D02*
G37*
G36*
X6856Y6844D02*
X6833Y6811D01*
X6856D01*
Y6844D01*
D02*
G37*
G36*
X6767Y6856D02*
X6745D01*
Y6831D01*
X6764D01*
X6767Y6831D01*
X6770Y6832D01*
X6773Y6832D01*
X6774Y6832D01*
X6775Y6832D01*
X6776Y6832D01*
X6777Y6832D01*
X6777D01*
X6777Y6833D01*
X6778Y6833D01*
X6779Y6833D01*
X6781Y6835D01*
X6782Y6835D01*
X6782Y6836D01*
X6783Y6837D01*
X6783Y6837D01*
X6783Y6838D01*
X6784Y6838D01*
X6784Y6840D01*
X6784Y6841D01*
X6784Y6842D01*
X6784Y6844D01*
Y6844D01*
Y6845D01*
X6784Y6845D01*
X6784Y6847D01*
X6784Y6848D01*
X6783Y6849D01*
X6783Y6851D01*
X6782Y6852D01*
X6782Y6852D01*
X6781Y6852D01*
X6781Y6853D01*
X6780Y6853D01*
X6779Y6854D01*
X6778Y6855D01*
X6776Y6855D01*
X6774Y6856D01*
X6774D01*
X6774Y6856D01*
X6773D01*
X6772Y6856D01*
X6769D01*
X6767Y6856D01*
D02*
G37*
G36*
X9453Y5278D02*
X9452D01*
X9451Y5278D01*
X9450Y5277D01*
X9448Y5277D01*
X9447Y5276D01*
X9445Y5275D01*
X9443Y5273D01*
X9443Y5273D01*
X9443Y5273D01*
X9442Y5272D01*
X9441Y5270D01*
X9441Y5268D01*
X9440Y5266D01*
X9440Y5264D01*
X9439Y5261D01*
X9467D01*
Y5261D01*
Y5262D01*
Y5262D01*
X9467Y5263D01*
X9467Y5264D01*
X9467Y5266D01*
X9466Y5268D01*
X9466Y5270D01*
X9464Y5272D01*
X9463Y5274D01*
X9463Y5274D01*
X9462Y5274D01*
X9462Y5275D01*
X9460Y5276D01*
X9459Y5277D01*
X9457Y5277D01*
X9456Y5278D01*
X9453Y5278D01*
D02*
G37*
G36*
X7254Y6659D02*
X7232Y6626D01*
X7254D01*
Y6659D01*
D02*
G37*
G36*
X9211Y5453D02*
X9210D01*
X9209Y5452D01*
X9209Y5452D01*
X9208Y5452D01*
X9207Y5452D01*
X9205Y5451D01*
X9204Y5450D01*
X9204Y5450D01*
X9204Y5450D01*
X9204Y5449D01*
X9203Y5449D01*
X9202Y5448D01*
X9202Y5446D01*
X9201Y5445D01*
X9201Y5443D01*
Y5442D01*
X9200Y5442D01*
Y5442D01*
X9200Y5441D01*
X9200Y5440D01*
X9200Y5439D01*
X9200Y5438D01*
X9200Y5437D01*
X9199Y5435D01*
X9199Y5433D01*
X9199Y5431D01*
X9199Y5429D01*
X9199Y5427D01*
Y5424D01*
X9199Y5421D01*
Y5418D01*
Y5418D01*
Y5417D01*
Y5416D01*
Y5415D01*
Y5414D01*
X9199Y5412D01*
Y5410D01*
X9199Y5409D01*
X9199Y5405D01*
X9199Y5401D01*
X9200Y5399D01*
X9200Y5397D01*
X9200Y5396D01*
X9200Y5394D01*
X9201Y5394D01*
X9201Y5393D01*
X9201Y5392D01*
X9201Y5391D01*
X9202Y5389D01*
X9203Y5388D01*
X9204Y5387D01*
X9205Y5386D01*
X9205Y5386D01*
X9205Y5386D01*
X9206Y5385D01*
X9206Y5385D01*
X9207Y5384D01*
X9208Y5384D01*
X9209Y5384D01*
X9211Y5384D01*
X9211D01*
X9212Y5384D01*
X9212Y5384D01*
X9213Y5384D01*
X9214Y5385D01*
X9215Y5385D01*
X9216Y5386D01*
X9217Y5386D01*
X9217Y5386D01*
X9217Y5387D01*
X9218Y5388D01*
X9219Y5389D01*
X9219Y5390D01*
X9220Y5392D01*
X9221Y5394D01*
Y5394D01*
X9221Y5394D01*
Y5394D01*
X9221Y5395D01*
X9221Y5396D01*
X9221Y5397D01*
X9221Y5398D01*
X9222Y5399D01*
X9222Y5401D01*
X9222Y5403D01*
X9222Y5405D01*
X9222Y5407D01*
X9222Y5409D01*
Y5412D01*
X9222Y5415D01*
Y5418D01*
Y5418D01*
Y5419D01*
Y5420D01*
Y5421D01*
Y5422D01*
X9222Y5424D01*
Y5426D01*
X9222Y5428D01*
X9222Y5431D01*
X9222Y5435D01*
X9222Y5437D01*
X9221Y5439D01*
X9221Y5440D01*
X9221Y5442D01*
Y5442D01*
X9221Y5442D01*
X9220Y5443D01*
X9220Y5444D01*
X9220Y5445D01*
X9219Y5447D01*
X9218Y5448D01*
X9217Y5449D01*
X9216Y5450D01*
X9216Y5450D01*
X9216Y5451D01*
X9215Y5451D01*
X9215Y5451D01*
X9214Y5452D01*
X9213Y5452D01*
X9212Y5452D01*
X9211Y5453D01*
D02*
G37*
%LPD*%
D35*
X5682Y6555D02*
G03*
X5682Y6555I-12J0D01*
G01*
X8872Y6810D02*
G03*
X8872Y6810I-12J0D01*
G01*
X6510Y7343D02*
G03*
X6510Y7343I-12J0D01*
G01*
D36*
X6028Y7800D02*
G03*
X6028Y7800I-8J0D01*
G01*
X5925Y7668D02*
X5975D01*
X5925D02*
X5950Y7693D01*
X5975Y7668D01*
D37*
X8150Y6314D02*
Y6365D01*
X8125Y6340D02*
X8175D01*
D38*
X7743Y7160D02*
Y7180D01*
X7618Y7160D02*
Y7180D01*
X8668Y6530D02*
Y6550D01*
X8793Y6530D02*
Y6550D01*
X9068Y6530D02*
Y6550D01*
X9193Y6530D02*
Y6550D01*
X6612Y7700D02*
Y7720D01*
X6488Y7700D02*
Y7720D01*
X6200Y6720D02*
Y6880D01*
X5700Y6720D02*
Y6880D01*
X6200D01*
X5700Y6720D02*
X6200D01*
X8580Y7135D02*
X8720D01*
X8580Y6825D02*
X8720D01*
X8580D02*
Y7135D01*
X8720Y6825D02*
Y7135D01*
X6615Y7020D02*
X6785D01*
X6615Y7330D02*
X6785D01*
Y7020D02*
Y7330D01*
X6615Y7020D02*
Y7330D01*
D39*
X5509Y6242D02*
X8591D01*
Y5696D02*
Y6242D01*
X5509Y5696D02*
Y6242D01*
M02*
