G04 Layer_Color=128*
%FSLAX42Y42*%
%MOMM*%
G71*
G01*
G75*
%ADD37C,0.13*%
D37*
X9407Y7873D02*
X9483D01*
X9445Y7835D02*
Y7911D01*
X9661Y7873D02*
X9737D01*
X9699Y7835D02*
Y7911D01*
X9407Y7619D02*
X9483D01*
X9445Y7581D02*
Y7657D01*
X9661Y7619D02*
X9737D01*
X9699Y7581D02*
Y7657D01*
X9407Y7365D02*
X9483D01*
X9445Y7327D02*
Y7403D01*
X9661Y7365D02*
X9737D01*
X9699Y7327D02*
Y7403D01*
X9407Y7111D02*
X9483D01*
X9445Y7073D02*
Y7149D01*
X9661Y7111D02*
X9737D01*
X9699Y7073D02*
Y7149D01*
X9407Y6857D02*
X9483D01*
X9445Y6819D02*
Y6895D01*
X9661Y6857D02*
X9737D01*
X9699Y6819D02*
Y6895D01*
X9407Y6603D02*
X9483D01*
X9445Y6565D02*
Y6641D01*
X9661Y6603D02*
X9737D01*
X9699Y6565D02*
Y6641D01*
X9407Y6349D02*
X9483D01*
X9445Y6311D02*
Y6387D01*
X9661Y6349D02*
X9737D01*
X9699Y6311D02*
Y6387D01*
X9407Y6095D02*
X9483D01*
X9445Y6057D02*
Y6133D01*
X9661Y6095D02*
X9737D01*
X9699Y6057D02*
Y6133D01*
X9407Y5841D02*
X9483D01*
X9445Y5803D02*
Y5879D01*
X9661Y5841D02*
X9737D01*
X9699Y5803D02*
Y5879D01*
X9407Y5587D02*
X9483D01*
X9445Y5549D02*
Y5625D01*
X9661Y5587D02*
X9737D01*
X9699Y5549D02*
Y5625D01*
X5089Y7873D02*
X5165D01*
X5127Y7835D02*
Y7911D01*
X5343Y7873D02*
X5419D01*
X5381Y7835D02*
Y7911D01*
X5089Y7619D02*
X5165D01*
X5127Y7581D02*
Y7657D01*
X5343Y7619D02*
X5419D01*
X5381Y7581D02*
Y7657D01*
X5089Y7365D02*
X5165D01*
X5127Y7327D02*
Y7403D01*
X5343Y7365D02*
X5419D01*
X5381Y7327D02*
Y7403D01*
X5089Y7111D02*
X5165D01*
X5127Y7073D02*
Y7149D01*
X5343Y7111D02*
X5419D01*
X5381Y7073D02*
Y7149D01*
X5089Y6857D02*
X5165D01*
X5127Y6819D02*
Y6895D01*
X5343Y6857D02*
X5419D01*
X5381Y6819D02*
Y6895D01*
X5089Y6603D02*
X5165D01*
X5127Y6565D02*
Y6641D01*
X5343Y6603D02*
X5419D01*
X5381Y6565D02*
Y6641D01*
X5089Y6349D02*
X5165D01*
X5127Y6311D02*
Y6387D01*
X5343Y6349D02*
X5419D01*
X5381Y6311D02*
Y6387D01*
X5089Y6095D02*
X5165D01*
X5127Y6057D02*
Y6133D01*
X5343Y6095D02*
X5419D01*
X5381Y6057D02*
Y6133D01*
X5089Y5841D02*
X5165D01*
X5127Y5803D02*
Y5879D01*
X5343Y5841D02*
X5419D01*
X5381Y5803D02*
Y5879D01*
X5089Y5587D02*
X5165D01*
X5127Y5549D02*
Y5625D01*
X5343Y5587D02*
X5419D01*
X5381Y5549D02*
Y5625D01*
X5634Y5950D02*
X5964D01*
X5799Y5785D02*
Y6115D01*
X8136Y5950D02*
X8466D01*
X8301Y5785D02*
Y6115D01*
X6584Y5808D02*
X6685D01*
X6635Y5757D02*
Y5859D01*
X6861Y5808D02*
X6962D01*
X6911Y5757D02*
Y5859D01*
X7138Y5808D02*
X7240D01*
X7189Y5757D02*
Y5859D01*
X7415Y5808D02*
X7517D01*
X7466Y5757D02*
Y5859D01*
X6444Y6092D02*
X6546D01*
X6495Y6041D02*
Y6143D01*
X6721Y6092D02*
X6823D01*
X6772Y6041D02*
Y6143D01*
X7000Y6092D02*
X7102D01*
X7051Y6041D02*
Y6143D01*
X7277Y6092D02*
X7379D01*
X7328Y6041D02*
Y6143D01*
X7554Y6092D02*
X7656D01*
X7605Y6041D02*
Y6143D01*
X8110Y6880D02*
X8170D01*
X8140Y6850D02*
Y6910D01*
X8330Y7690D02*
X8390D01*
X8360Y7660D02*
Y7720D01*
X7630Y7590D02*
X7690D01*
X7660Y7560D02*
Y7620D01*
X9264Y7240D02*
X9336D01*
X9300Y7204D02*
Y7276D01*
X9150Y7030D02*
X9210D01*
X9180Y7000D02*
Y7060D01*
X9540Y6980D02*
X9600D01*
X9570Y6950D02*
Y7010D01*
X7860Y7253D02*
X7920D01*
X7890Y7222D02*
Y7282D01*
X7860Y6850D02*
X7920D01*
X7890Y6820D02*
Y6880D01*
X8610Y7400D02*
X8670D01*
X8640Y7370D02*
Y7430D01*
X8330Y7390D02*
X8390D01*
X8360Y7360D02*
Y7420D01*
X8910Y6440D02*
X8970D01*
X8940Y6410D02*
Y6470D01*
X7120Y7130D02*
X7180D01*
X7150Y7100D02*
Y7160D01*
X6310Y7790D02*
X6370D01*
X6340Y7760D02*
Y7820D01*
X6310Y7580D02*
X6370D01*
X6340Y7550D02*
Y7610D01*
X6660Y7410D02*
X6720D01*
X6690Y7380D02*
Y7440D01*
X6295Y7175D02*
X6355D01*
X6325Y7145D02*
Y7205D01*
X5720Y6320D02*
X5780D01*
X5750Y6290D02*
Y6350D01*
X6460Y6920D02*
X6520D01*
X6490Y6890D02*
Y6950D01*
X6470Y6750D02*
X6530D01*
X6500Y6720D02*
Y6780D01*
X6982Y6662D02*
X7043D01*
X7012Y6632D02*
Y6693D01*
X6295Y6950D02*
X6355D01*
X6325Y6920D02*
Y6980D01*
M02*
