G04 Layer_Color=8150272*
%FSLAX42Y42*%
%MOMM*%
G71*
G01*
G75*
%ADD41R,1.65X1.25*%
%ADD43R,1.50X1.10*%
%ADD49C,1.72*%
%ADD50C,5.03*%
%ADD51C,2.08*%
%ADD52R,2.08X2.08*%
%ADD53C,1.50*%
%ADD54C,1.47*%
%ADD55R,1.11X1.01*%
%ADD56R,1.65X1.45*%
%ADD57R,1.75X1.75*%
%ADD58R,1.75X1.55*%
%ADD59R,1.55X1.75*%
D41*
X8710Y7232D02*
D03*
Y7047D02*
D03*
X8410Y7232D02*
D03*
Y7047D02*
D03*
X8190Y7787D02*
D03*
Y7602D02*
D03*
X7840D02*
D03*
Y7787D02*
D03*
D43*
X9010Y7270D02*
D03*
Y7050D02*
D03*
X8110Y7270D02*
D03*
Y7050D02*
D03*
X9130Y6440D02*
D03*
Y6640D02*
D03*
X8730Y6440D02*
D03*
Y6640D02*
D03*
X8440Y6430D02*
D03*
Y6630D02*
D03*
X8150Y6640D02*
D03*
Y6440D02*
D03*
D49*
X9445Y7873D02*
D03*
X9699D02*
D03*
X9445Y7619D02*
D03*
X9699D02*
D03*
X9445Y7365D02*
D03*
X9699D02*
D03*
X9445Y7111D02*
D03*
X9699D02*
D03*
X9445Y6857D02*
D03*
X9699D02*
D03*
X9445Y6603D02*
D03*
X9699D02*
D03*
X9445Y6349D02*
D03*
X9699D02*
D03*
X9445Y6095D02*
D03*
X9699D02*
D03*
X9445Y5841D02*
D03*
X9699D02*
D03*
X9445Y5587D02*
D03*
X9699D02*
D03*
X5127Y7873D02*
D03*
X5381D02*
D03*
X5127Y7619D02*
D03*
X5381D02*
D03*
X5127Y7365D02*
D03*
X5381D02*
D03*
X5127Y7111D02*
D03*
X5381D02*
D03*
X5127Y6857D02*
D03*
X5381D02*
D03*
X5127Y6603D02*
D03*
X5381D02*
D03*
X5127Y6349D02*
D03*
X5381D02*
D03*
X5127Y6095D02*
D03*
X5381D02*
D03*
X5127Y5841D02*
D03*
X5381D02*
D03*
X5127Y5587D02*
D03*
X5381D02*
D03*
D50*
X5799Y5950D02*
D03*
X8301D02*
D03*
D51*
X6635Y5808D02*
D03*
X6911D02*
D03*
X7189D02*
D03*
X7466D02*
D03*
X6495Y6092D02*
D03*
X6772D02*
D03*
X7051D02*
D03*
X7328D02*
D03*
D52*
X7605D02*
D03*
D53*
X8140Y6880D02*
D03*
X8360Y7690D02*
D03*
X7660Y7590D02*
D03*
X9180Y7030D02*
D03*
X9570Y6980D02*
D03*
X7890Y7253D02*
D03*
Y6850D02*
D03*
X8640Y7400D02*
D03*
X8360Y7390D02*
D03*
X8940Y6440D02*
D03*
X7150Y7130D02*
D03*
X6340Y7790D02*
D03*
Y7580D02*
D03*
X6690Y7410D02*
D03*
X6325Y7175D02*
D03*
X5750Y6320D02*
D03*
X6490Y6920D02*
D03*
X6500Y6750D02*
D03*
X7012Y6662D02*
D03*
X6325Y6950D02*
D03*
D54*
X9300Y7240D02*
D03*
D55*
X7571Y7696D02*
D03*
X7359Y7599D02*
D03*
Y7791D02*
D03*
X8696Y7696D02*
D03*
X8484Y7599D02*
D03*
Y7791D02*
D03*
D56*
X7680Y7253D02*
D03*
Y7088D02*
D03*
D57*
X7350Y7272D02*
D03*
Y7088D02*
D03*
D58*
X6545Y7610D02*
D03*
Y7810D02*
D03*
D59*
X6893Y7610D02*
D03*
X7088D02*
D03*
M02*
