G04 Layer_Color=25308*
%FSLAX42Y42*%
%MOMM*%
G71*
G01*
G75*
%ADD10R,1.30X0.90*%
%ADD11R,1.45X1.05*%
%ADD12R,1.45X1.15*%
%ADD13O,0.70X2.50*%
%ADD14O,2.00X0.30*%
%ADD15R,0.90X0.90*%
%ADD16R,1.14X1.52*%
%ADD17R,1.35X1.10*%
%ADD18O,1.55X0.25*%
%ADD19C,1.52*%
%ADD25C,4.83*%
%ADD26C,1.88*%
%ADD27R,1.88X1.88*%
D10*
X5650Y7740D02*
D03*
Y7520D02*
D03*
X6800Y6465D02*
D03*
Y6685D02*
D03*
D11*
X6550Y7803D02*
D03*
Y7618D02*
D03*
X8730Y6447D02*
D03*
Y6632D02*
D03*
X9130Y6447D02*
D03*
Y6632D02*
D03*
X7680Y7262D02*
D03*
Y7078D02*
D03*
D12*
X8440Y6618D02*
D03*
Y6443D02*
D03*
X7350Y7257D02*
D03*
Y7082D02*
D03*
D13*
X6140Y7045D02*
D03*
X6013D02*
D03*
X5886D02*
D03*
X5759D02*
D03*
X6140Y6555D02*
D03*
X6013D02*
D03*
X5886D02*
D03*
X5759D02*
D03*
D14*
X8440Y7080D02*
D03*
Y7030D02*
D03*
Y6980D02*
D03*
Y6930D02*
D03*
Y6880D02*
D03*
X8860Y7080D02*
D03*
Y7030D02*
D03*
Y6980D02*
D03*
Y6930D02*
D03*
Y6880D02*
D03*
D15*
X5950Y7605D02*
D03*
Y7755D02*
D03*
D16*
X7098Y6475D02*
D03*
X7302D02*
D03*
D17*
X8150Y6460D02*
D03*
Y6600D02*
D03*
D18*
X6903Y7075D02*
D03*
Y7125D02*
D03*
Y7175D02*
D03*
Y7225D02*
D03*
Y7275D02*
D03*
X6498Y7075D02*
D03*
Y7125D02*
D03*
Y7175D02*
D03*
Y7225D02*
D03*
Y7275D02*
D03*
D19*
X6160Y7660D02*
D03*
X6325Y6775D02*
D03*
X7890Y7070D02*
D03*
X7070Y7390D02*
D03*
X5250Y5350D02*
D03*
X5127Y7873D02*
D03*
X5381D02*
D03*
X5127Y7619D02*
D03*
X5381D02*
D03*
X5127Y7365D02*
D03*
X5381D02*
D03*
X5127Y7111D02*
D03*
X5381D02*
D03*
X5127Y6857D02*
D03*
X5381D02*
D03*
X5127Y6603D02*
D03*
X5381D02*
D03*
X5127Y6349D02*
D03*
X5381D02*
D03*
X5127Y6095D02*
D03*
X5381D02*
D03*
X5127Y5841D02*
D03*
X5381D02*
D03*
X5127Y5587D02*
D03*
X5381D02*
D03*
X9445Y7873D02*
D03*
X9699D02*
D03*
X9445Y7619D02*
D03*
X9699D02*
D03*
X9445Y7365D02*
D03*
X9699D02*
D03*
X9445Y7111D02*
D03*
X9699D02*
D03*
X9445Y6857D02*
D03*
X9699D02*
D03*
X9445Y6603D02*
D03*
X9699D02*
D03*
X9445Y6349D02*
D03*
X9699D02*
D03*
X9445Y6095D02*
D03*
X9699D02*
D03*
X9445Y5841D02*
D03*
X9699D02*
D03*
X9445Y5587D02*
D03*
X9699D02*
D03*
D25*
X5799Y5950D02*
D03*
X8301D02*
D03*
D26*
X6635Y5808D02*
D03*
X6911D02*
D03*
X7189D02*
D03*
X7466D02*
D03*
X6495Y6092D02*
D03*
X6772D02*
D03*
X7051D02*
D03*
X7328D02*
D03*
D27*
X7605D02*
D03*
M02*
