G04 Layer_Color=25308*
%FSLAX42Y42*%
%MOMM*%
G71*
G01*
G75*
%ADD10R,1.30X0.90*%
%ADD11R,1.45X1.05*%
%ADD19C,1.52*%
%ADD25C,4.83*%
%ADD26C,1.88*%
%ADD27R,1.88X1.88*%
%ADD30R,0.91X0.81*%
%ADD31R,1.55X1.35*%
%ADD32R,1.55X1.55*%
%ADD33R,1.35X1.55*%
%ADD34R,1.45X1.25*%
D10*
X8150Y6640D02*
D03*
Y6440D02*
D03*
X8440Y6430D02*
D03*
Y6630D02*
D03*
X9130Y6440D02*
D03*
Y6640D02*
D03*
X8730Y6440D02*
D03*
Y6640D02*
D03*
X9010Y7270D02*
D03*
Y7050D02*
D03*
X8110Y7270D02*
D03*
Y7050D02*
D03*
D11*
X8190Y7787D02*
D03*
Y7602D02*
D03*
X7840D02*
D03*
Y7787D02*
D03*
X8710Y7232D02*
D03*
Y7047D02*
D03*
X8410Y7232D02*
D03*
Y7047D02*
D03*
D19*
X5127Y7873D02*
D03*
X5381D02*
D03*
X5127Y7619D02*
D03*
X5381D02*
D03*
X5127Y7365D02*
D03*
X5381D02*
D03*
X5127Y7111D02*
D03*
X5381D02*
D03*
X5127Y6857D02*
D03*
X5381D02*
D03*
X5127Y6603D02*
D03*
X5381D02*
D03*
X5127Y6349D02*
D03*
X5381D02*
D03*
X5127Y6095D02*
D03*
X5381D02*
D03*
X5127Y5841D02*
D03*
X5381D02*
D03*
X5127Y5587D02*
D03*
X5381D02*
D03*
X9445Y7873D02*
D03*
X9699D02*
D03*
X9445Y7619D02*
D03*
X9699D02*
D03*
X9445Y7365D02*
D03*
X9699D02*
D03*
X9445Y7111D02*
D03*
X9699D02*
D03*
X9445Y6857D02*
D03*
X9699D02*
D03*
X9445Y6603D02*
D03*
X9699D02*
D03*
X9445Y6349D02*
D03*
X9699D02*
D03*
X9445Y6095D02*
D03*
X9699D02*
D03*
X9445Y5841D02*
D03*
X9699D02*
D03*
X9445Y5587D02*
D03*
X9699D02*
D03*
D25*
X5799Y5950D02*
D03*
X8301D02*
D03*
D26*
X6635Y5808D02*
D03*
X6911D02*
D03*
X7189D02*
D03*
X7466D02*
D03*
X6495Y6092D02*
D03*
X6772D02*
D03*
X7051D02*
D03*
X7328D02*
D03*
D27*
X7605D02*
D03*
D30*
X7571Y7696D02*
D03*
X7359Y7599D02*
D03*
Y7791D02*
D03*
X8696Y7696D02*
D03*
X8484Y7599D02*
D03*
Y7791D02*
D03*
D31*
X6545Y7610D02*
D03*
Y7810D02*
D03*
D32*
X7350Y7272D02*
D03*
Y7088D02*
D03*
D33*
X6893Y7610D02*
D03*
X7088D02*
D03*
D34*
X7680Y7253D02*
D03*
Y7088D02*
D03*
M02*
