G04 Layer_Color=13813960*
%FSLAX42Y42*%
%MOMM*%
G71*
G01*
G75*
%ADD37C,0.20*%
%ADD38C,0.20*%
G36*
X8523Y7965D02*
X8525Y7962D01*
X8527Y7959D01*
X8529Y7957D01*
X8530Y7955D01*
X8532Y7954D01*
X8533Y7953D01*
X8533Y7953D01*
X8533Y7952D01*
X8533Y7952D01*
X8537Y7950D01*
X8539Y7948D01*
X8542Y7947D01*
X8545Y7945D01*
X8547Y7945D01*
X8548Y7944D01*
X8548Y7944D01*
X8549Y7944D01*
X8549Y7943D01*
X8549D01*
Y7927D01*
X8544Y7929D01*
X8540Y7931D01*
X8537Y7932D01*
X8536Y7933D01*
X8534Y7934D01*
X8532Y7935D01*
X8530Y7936D01*
X8529Y7937D01*
X8528Y7938D01*
X8527Y7939D01*
X8526Y7940D01*
X8526Y7940D01*
X8525Y7940D01*
X8525Y7941D01*
Y7870D01*
X8506D01*
Y7968D01*
X8522D01*
X8523Y7965D01*
D02*
G37*
G36*
X8768Y6819D02*
X8772Y6819D01*
X8775Y6818D01*
X8778Y6817D01*
X8781Y6816D01*
X8784Y6815D01*
X8786Y6814D01*
X8789Y6813D01*
X8791Y6811D01*
X8792Y6810D01*
X8794Y6809D01*
X8795Y6808D01*
X8796Y6807D01*
X8797Y6806D01*
X8797Y6806D01*
X8797Y6806D01*
X8800Y6803D01*
X8802Y6800D01*
X8803Y6797D01*
X8805Y6794D01*
X8806Y6791D01*
X8807Y6788D01*
X8808Y6785D01*
X8808Y6782D01*
X8809Y6779D01*
X8809Y6776D01*
X8810Y6774D01*
X8810Y6772D01*
Y6770D01*
X8810Y6769D01*
Y6768D01*
Y6768D01*
Y6768D01*
X8810Y6764D01*
X8809Y6760D01*
X8809Y6756D01*
X8808Y6753D01*
X8807Y6749D01*
X8806Y6746D01*
X8805Y6744D01*
X8804Y6741D01*
X8803Y6739D01*
X8802Y6737D01*
X8800Y6735D01*
X8800Y6734D01*
X8799Y6733D01*
X8798Y6732D01*
X8798Y6732D01*
X8798Y6732D01*
X8795Y6729D01*
X8793Y6727D01*
X8790Y6725D01*
X8787Y6724D01*
X8785Y6723D01*
X8782Y6722D01*
X8779Y6721D01*
X8777Y6720D01*
X8775Y6719D01*
X8773Y6719D01*
X8771Y6719D01*
X8769Y6719D01*
X8768Y6718D01*
X8767Y6718D01*
X8766D01*
X8763Y6718D01*
X8760Y6719D01*
X8757Y6719D01*
X8755Y6720D01*
X8753Y6720D01*
X8751Y6721D01*
X8749Y6721D01*
X8747Y6722D01*
X8745Y6723D01*
X8744Y6724D01*
X8743Y6724D01*
X8742Y6725D01*
X8741Y6725D01*
X8740Y6726D01*
X8740Y6726D01*
X8740Y6726D01*
X8738Y6728D01*
X8736Y6729D01*
X8733Y6733D01*
X8731Y6737D01*
X8729Y6741D01*
X8728Y6743D01*
X8727Y6744D01*
X8727Y6746D01*
X8726Y6747D01*
X8726Y6748D01*
X8725Y6749D01*
X8725Y6750D01*
Y6750D01*
X8744Y6756D01*
X8745Y6752D01*
X8747Y6749D01*
X8748Y6746D01*
X8749Y6744D01*
X8751Y6742D01*
X8751Y6741D01*
X8752Y6740D01*
X8752Y6740D01*
X8755Y6738D01*
X8757Y6737D01*
X8759Y6736D01*
X8761Y6736D01*
X8763Y6735D01*
X8765Y6735D01*
X8765Y6735D01*
X8766D01*
X8768Y6735D01*
X8770Y6735D01*
X8773Y6736D01*
X8776Y6737D01*
X8778Y6739D01*
X8780Y6740D01*
X8782Y6742D01*
X8782Y6742D01*
X8783Y6743D01*
X8783Y6743D01*
X8783Y6743D01*
X8784Y6744D01*
X8785Y6746D01*
X8786Y6748D01*
X8787Y6750D01*
X8788Y6755D01*
X8789Y6759D01*
X8789Y6761D01*
X8789Y6763D01*
X8790Y6765D01*
Y6766D01*
X8790Y6768D01*
Y6768D01*
Y6769D01*
Y6769D01*
X8790Y6773D01*
X8789Y6776D01*
X8789Y6778D01*
X8789Y6781D01*
X8788Y6783D01*
X8788Y6785D01*
X8787Y6787D01*
X8786Y6789D01*
X8786Y6790D01*
X8785Y6791D01*
X8785Y6792D01*
X8784Y6793D01*
X8784Y6794D01*
X8783Y6794D01*
X8783Y6795D01*
Y6795D01*
X8782Y6796D01*
X8780Y6797D01*
X8779Y6798D01*
X8777Y6799D01*
X8774Y6801D01*
X8772Y6802D01*
X8769Y6802D01*
X8768Y6802D01*
X8767Y6802D01*
X8766Y6803D01*
X8765D01*
X8763Y6802D01*
X8760Y6802D01*
X8758Y6801D01*
X8756Y6800D01*
X8754Y6800D01*
X8753Y6799D01*
X8752Y6798D01*
X8752Y6798D01*
X8750Y6796D01*
X8749Y6794D01*
X8747Y6792D01*
X8746Y6790D01*
X8746Y6789D01*
X8745Y6788D01*
X8745Y6787D01*
Y6787D01*
X8745Y6786D01*
Y6786D01*
X8725Y6791D01*
X8727Y6795D01*
X8728Y6799D01*
X8730Y6802D01*
X8732Y6804D01*
X8733Y6806D01*
X8734Y6807D01*
X8734Y6808D01*
X8735Y6808D01*
X8735Y6809D01*
X8735Y6809D01*
X8735D01*
X8738Y6811D01*
X8740Y6812D01*
X8742Y6814D01*
X8745Y6815D01*
X8747Y6816D01*
X8750Y6817D01*
X8752Y6818D01*
X8754Y6818D01*
X8756Y6819D01*
X8758Y6819D01*
X8760Y6819D01*
X8762Y6819D01*
X8763Y6819D01*
X8764D01*
X8768Y6819D01*
D02*
G37*
G36*
X8617Y7969D02*
X8620Y7969D01*
X8624Y7968D01*
X8627Y7967D01*
X8630Y7966D01*
X8633Y7965D01*
X8636Y7964D01*
X8638Y7963D01*
X8640Y7961D01*
X8642Y7960D01*
X8644Y7959D01*
X8645Y7958D01*
X8646Y7957D01*
X8647Y7957D01*
X8647Y7956D01*
X8647Y7956D01*
X8650Y7953D01*
X8652Y7951D01*
X8653Y7948D01*
X8655Y7945D01*
X8656Y7941D01*
X8657Y7938D01*
X8658Y7935D01*
X8658Y7932D01*
X8659Y7930D01*
X8659Y7927D01*
X8660Y7925D01*
X8660Y7923D01*
Y7921D01*
X8660Y7920D01*
Y7919D01*
Y7919D01*
X8660Y7914D01*
X8659Y7910D01*
X8659Y7906D01*
X8658Y7903D01*
X8657Y7899D01*
X8656Y7896D01*
X8655Y7894D01*
X8654Y7891D01*
X8653Y7889D01*
X8651Y7887D01*
X8650Y7885D01*
X8649Y7884D01*
X8648Y7883D01*
X8648Y7882D01*
X8647Y7882D01*
X8647Y7881D01*
X8645Y7879D01*
X8642Y7877D01*
X8639Y7875D01*
X8636Y7874D01*
X8633Y7873D01*
X8631Y7871D01*
X8628Y7871D01*
X8625Y7870D01*
X8622Y7869D01*
X8620Y7869D01*
X8618Y7869D01*
X8616Y7868D01*
X8614Y7868D01*
X8613Y7868D01*
X8612D01*
X8608Y7868D01*
X8604Y7869D01*
X8600Y7869D01*
X8597Y7870D01*
X8596Y7871D01*
X8595Y7871D01*
X8593Y7871D01*
X8593Y7872D01*
X8592Y7872D01*
X8591Y7872D01*
X8591Y7872D01*
X8591D01*
X8589Y7871D01*
X8587Y7870D01*
X8585Y7868D01*
X8584Y7868D01*
X8582Y7867D01*
X8581Y7866D01*
X8580Y7865D01*
X8580Y7865D01*
X8579Y7865D01*
X8579Y7864D01*
X8578Y7864D01*
X8578Y7864D01*
X8575Y7862D01*
X8573Y7862D01*
X8572Y7861D01*
X8571Y7861D01*
X8570Y7860D01*
X8569Y7860D01*
X8569D01*
X8562Y7874D01*
X8565Y7875D01*
X8568Y7877D01*
X8570Y7878D01*
X8573Y7879D01*
X8575Y7880D01*
X8576Y7881D01*
X8577Y7882D01*
X8577Y7882D01*
X8577Y7882D01*
X8578D01*
X8576Y7885D01*
X8574Y7887D01*
X8572Y7890D01*
X8571Y7892D01*
X8570Y7894D01*
X8570Y7895D01*
X8569Y7896D01*
X8569Y7896D01*
X8569Y7896D01*
Y7897D01*
X8568Y7900D01*
X8567Y7904D01*
X8566Y7908D01*
X8566Y7911D01*
X8566Y7913D01*
X8566Y7914D01*
Y7916D01*
X8565Y7917D01*
Y7918D01*
Y7918D01*
Y7919D01*
Y7919D01*
X8566Y7923D01*
X8566Y7927D01*
X8567Y7931D01*
X8567Y7935D01*
X8568Y7938D01*
X8569Y7941D01*
X8571Y7944D01*
X8572Y7946D01*
X8573Y7949D01*
X8574Y7950D01*
X8575Y7952D01*
X8576Y7954D01*
X8577Y7955D01*
X8578Y7955D01*
X8578Y7956D01*
X8578Y7956D01*
X8581Y7958D01*
X8583Y7960D01*
X8586Y7962D01*
X8589Y7964D01*
X8592Y7965D01*
X8595Y7966D01*
X8598Y7967D01*
X8600Y7968D01*
X8603Y7968D01*
X8605Y7969D01*
X8607Y7969D01*
X8609Y7969D01*
X8611D01*
X8612Y7969D01*
X8613D01*
X8617Y7969D01*
D02*
G37*
G36*
X7792Y7968D02*
X7794Y7968D01*
X7797Y7967D01*
X7799Y7967D01*
X7801Y7966D01*
X7803Y7966D01*
X7804Y7965D01*
X7805Y7965D01*
X7807Y7964D01*
X7808Y7963D01*
X7809Y7963D01*
X7810Y7962D01*
X7810Y7962D01*
X7811Y7961D01*
X7811Y7961D01*
X7811Y7961D01*
X7812Y7960D01*
X7814Y7958D01*
X7815Y7957D01*
X7815Y7955D01*
X7817Y7952D01*
X7818Y7949D01*
X7818Y7947D01*
X7818Y7946D01*
X7819Y7945D01*
X7819Y7944D01*
Y7943D01*
Y7943D01*
Y7943D01*
X7819Y7940D01*
X7818Y7938D01*
X7818Y7936D01*
X7817Y7935D01*
X7816Y7933D01*
X7816Y7932D01*
X7816Y7931D01*
X7815Y7931D01*
X7814Y7929D01*
X7812Y7928D01*
X7811Y7926D01*
X7809Y7925D01*
X7807Y7924D01*
X7806Y7923D01*
X7805Y7923D01*
X7805Y7923D01*
X7805D01*
X7808Y7921D01*
X7810Y7920D01*
X7813Y7918D01*
X7814Y7916D01*
X7816Y7915D01*
X7817Y7914D01*
X7817Y7913D01*
X7817Y7913D01*
Y7912D01*
X7819Y7910D01*
X7820Y7907D01*
X7820Y7905D01*
X7821Y7903D01*
X7821Y7901D01*
X7821Y7899D01*
Y7899D01*
Y7898D01*
Y7898D01*
Y7898D01*
X7821Y7895D01*
X7821Y7893D01*
X7820Y7890D01*
X7819Y7888D01*
X7819Y7886D01*
X7818Y7884D01*
X7817Y7883D01*
X7816Y7881D01*
X7815Y7880D01*
X7814Y7878D01*
X7813Y7877D01*
X7812Y7877D01*
X7812Y7876D01*
X7811Y7875D01*
X7811Y7875D01*
X7811Y7875D01*
X7809Y7874D01*
X7807Y7873D01*
X7805Y7872D01*
X7803Y7871D01*
X7800Y7870D01*
X7796Y7869D01*
X7795Y7869D01*
X7793Y7869D01*
X7792Y7868D01*
X7791Y7868D01*
X7790Y7868D01*
X7789D01*
X7786Y7868D01*
X7783Y7869D01*
X7781Y7869D01*
X7779Y7869D01*
X7777Y7870D01*
X7775Y7871D01*
X7773Y7872D01*
X7772Y7872D01*
X7770Y7873D01*
X7769Y7874D01*
X7768Y7875D01*
X7767Y7875D01*
X7766Y7876D01*
X7766Y7876D01*
X7766Y7876D01*
X7766Y7877D01*
X7764Y7878D01*
X7763Y7880D01*
X7761Y7882D01*
X7760Y7884D01*
X7760Y7886D01*
X7759Y7887D01*
X7758Y7891D01*
X7758Y7892D01*
X7757Y7894D01*
X7757Y7895D01*
X7757Y7896D01*
X7757Y7897D01*
Y7898D01*
Y7898D01*
Y7899D01*
X7757Y7902D01*
X7758Y7904D01*
X7758Y7907D01*
X7759Y7909D01*
X7760Y7911D01*
X7760Y7912D01*
X7761Y7913D01*
X7761Y7913D01*
X7763Y7915D01*
X7765Y7917D01*
X7767Y7919D01*
X7769Y7920D01*
X7771Y7921D01*
X7772Y7922D01*
X7773Y7922D01*
X7773Y7923D01*
X7773Y7923D01*
X7773D01*
X7771Y7924D01*
X7769Y7925D01*
X7768Y7926D01*
X7766Y7928D01*
X7765Y7929D01*
X7764Y7930D01*
X7764Y7930D01*
X7764Y7931D01*
X7762Y7933D01*
X7761Y7935D01*
X7761Y7937D01*
X7760Y7939D01*
X7760Y7940D01*
X7760Y7942D01*
Y7943D01*
Y7943D01*
Y7943D01*
X7760Y7945D01*
X7760Y7947D01*
X7761Y7950D01*
X7762Y7953D01*
X7764Y7956D01*
X7765Y7958D01*
X7766Y7959D01*
X7766Y7960D01*
X7767Y7960D01*
X7767Y7961D01*
X7768Y7961D01*
X7768Y7961D01*
X7769Y7962D01*
X7771Y7963D01*
X7773Y7964D01*
X7774Y7965D01*
X7778Y7966D01*
X7782Y7967D01*
X7783Y7968D01*
X7785Y7968D01*
X7786Y7968D01*
X7787Y7968D01*
X7788Y7968D01*
X7789D01*
X7792Y7968D01*
D02*
G37*
G36*
X7915Y7870D02*
X7895D01*
Y7911D01*
X7889D01*
X7887Y7911D01*
X7885Y7910D01*
X7884Y7910D01*
X7883Y7910D01*
X7882Y7910D01*
X7882Y7910D01*
X7881D01*
X7880Y7909D01*
X7879Y7908D01*
X7878Y7908D01*
X7877Y7907D01*
X7877Y7907D01*
X7876Y7906D01*
X7876Y7906D01*
X7876Y7906D01*
X7875Y7905D01*
X7874Y7904D01*
X7873Y7902D01*
X7871Y7900D01*
X7869Y7897D01*
X7868Y7895D01*
X7867Y7894D01*
X7866Y7893D01*
X7866Y7892D01*
X7865Y7892D01*
X7865Y7891D01*
X7865Y7891D01*
X7851Y7870D01*
X7827D01*
X7839Y7889D01*
X7841Y7891D01*
X7842Y7893D01*
X7843Y7895D01*
X7844Y7896D01*
X7845Y7898D01*
X7846Y7899D01*
X7848Y7901D01*
X7849Y7903D01*
X7850Y7904D01*
X7850Y7905D01*
X7851Y7905D01*
X7852Y7907D01*
X7854Y7908D01*
X7856Y7909D01*
X7857Y7911D01*
X7859Y7912D01*
X7860Y7912D01*
X7861Y7913D01*
X7861Y7913D01*
X7861D01*
X7859Y7913D01*
X7856Y7914D01*
X7855Y7915D01*
X7853Y7915D01*
X7851Y7916D01*
X7849Y7917D01*
X7848Y7917D01*
X7846Y7918D01*
X7845Y7919D01*
X7844Y7920D01*
X7844Y7920D01*
X7843Y7921D01*
X7842Y7921D01*
X7842Y7922D01*
X7842Y7922D01*
X7842Y7922D01*
X7841Y7923D01*
X7840Y7925D01*
X7838Y7928D01*
X7837Y7931D01*
X7836Y7934D01*
X7835Y7936D01*
X7835Y7937D01*
Y7938D01*
X7835Y7939D01*
Y7940D01*
Y7940D01*
Y7940D01*
X7835Y7943D01*
X7836Y7946D01*
X7837Y7949D01*
X7837Y7951D01*
X7838Y7953D01*
X7839Y7954D01*
X7839Y7955D01*
X7839Y7955D01*
X7840Y7955D01*
Y7955D01*
X7841Y7958D01*
X7843Y7960D01*
X7845Y7961D01*
X7847Y7963D01*
X7848Y7964D01*
X7850Y7964D01*
X7851Y7965D01*
X7851Y7965D01*
X7851D01*
X7852Y7965D01*
X7854Y7966D01*
X7857Y7966D01*
X7861Y7967D01*
X7865Y7967D01*
X7867D01*
X7868Y7967D01*
X7870D01*
X7871Y7968D01*
X7915D01*
Y7870D01*
D02*
G37*
G36*
X8685Y6818D02*
X8687Y6818D01*
X8690Y6817D01*
X8692Y6817D01*
X8694Y6816D01*
X8695Y6815D01*
X8696Y6815D01*
X8696Y6815D01*
X8696D01*
X8698Y6814D01*
X8700Y6812D01*
X8702Y6811D01*
X8704Y6810D01*
X8705Y6808D01*
X8706Y6807D01*
X8706Y6807D01*
X8706Y6807D01*
X8708Y6804D01*
X8709Y6802D01*
X8709Y6800D01*
X8710Y6798D01*
X8711Y6795D01*
X8711Y6794D01*
X8711Y6793D01*
Y6793D01*
X8712Y6792D01*
Y6792D01*
X8694Y6789D01*
X8694Y6792D01*
X8693Y6794D01*
X8693Y6795D01*
X8692Y6797D01*
X8691Y6798D01*
X8691Y6799D01*
X8690Y6799D01*
X8690Y6799D01*
X8689Y6800D01*
X8688Y6801D01*
X8686Y6802D01*
X8685Y6802D01*
X8684Y6802D01*
X8683Y6803D01*
X8682D01*
X8680Y6802D01*
X8679Y6802D01*
X8677Y6802D01*
X8676Y6801D01*
X8675Y6801D01*
X8675Y6800D01*
X8674Y6800D01*
X8674Y6800D01*
X8673Y6799D01*
X8673Y6797D01*
X8672Y6796D01*
X8672Y6795D01*
X8671Y6793D01*
X8671Y6793D01*
Y6792D01*
Y6792D01*
X8671Y6790D01*
X8672Y6788D01*
X8673Y6786D01*
X8673Y6785D01*
X8674Y6784D01*
X8675Y6783D01*
X8675Y6783D01*
X8675Y6782D01*
X8677Y6781D01*
X8679Y6780D01*
X8681Y6780D01*
X8683Y6779D01*
X8684Y6779D01*
X8686Y6779D01*
X8687D01*
X8689Y6764D01*
X8687Y6765D01*
X8686Y6765D01*
X8684Y6765D01*
X8683Y6765D01*
X8682Y6766D01*
X8680D01*
X8678Y6765D01*
X8677Y6765D01*
X8675Y6764D01*
X8674Y6763D01*
X8673Y6763D01*
X8672Y6762D01*
X8671Y6761D01*
X8671Y6761D01*
X8670Y6760D01*
X8669Y6758D01*
X8668Y6756D01*
X8668Y6754D01*
X8667Y6752D01*
X8667Y6751D01*
Y6750D01*
Y6750D01*
Y6750D01*
X8667Y6747D01*
X8668Y6745D01*
X8669Y6743D01*
X8669Y6741D01*
X8670Y6740D01*
X8671Y6739D01*
X8671Y6738D01*
X8671Y6738D01*
X8673Y6737D01*
X8675Y6736D01*
X8676Y6735D01*
X8678Y6734D01*
X8679Y6734D01*
X8680Y6734D01*
X8681Y6734D01*
X8681D01*
X8683Y6734D01*
X8685Y6734D01*
X8686Y6735D01*
X8688Y6736D01*
X8689Y6736D01*
X8690Y6737D01*
X8690Y6737D01*
X8690Y6737D01*
X8692Y6739D01*
X8693Y6740D01*
X8693Y6742D01*
X8694Y6744D01*
X8695Y6746D01*
X8695Y6747D01*
X8695Y6748D01*
Y6748D01*
Y6748D01*
X8713Y6746D01*
X8713Y6743D01*
X8712Y6741D01*
X8711Y6737D01*
X8709Y6734D01*
X8708Y6733D01*
X8708Y6731D01*
X8707Y6730D01*
X8706Y6729D01*
X8705Y6728D01*
X8704Y6727D01*
X8704Y6727D01*
X8703Y6726D01*
X8703Y6726D01*
X8703Y6726D01*
X8701Y6725D01*
X8699Y6723D01*
X8698Y6722D01*
X8696Y6721D01*
X8692Y6720D01*
X8689Y6719D01*
X8687Y6719D01*
X8686Y6719D01*
X8684Y6718D01*
X8683Y6718D01*
X8682Y6718D01*
X8681D01*
X8678Y6718D01*
X8676Y6719D01*
X8674Y6719D01*
X8671Y6720D01*
X8669Y6720D01*
X8667Y6721D01*
X8666Y6722D01*
X8664Y6723D01*
X8663Y6724D01*
X8661Y6724D01*
X8660Y6725D01*
X8659Y6726D01*
X8659Y6726D01*
X8658Y6727D01*
X8658Y6727D01*
X8658Y6727D01*
X8656Y6729D01*
X8655Y6731D01*
X8653Y6733D01*
X8652Y6734D01*
X8651Y6736D01*
X8650Y6738D01*
X8649Y6742D01*
X8649Y6743D01*
X8649Y6745D01*
X8648Y6746D01*
X8648Y6747D01*
X8648Y6748D01*
Y6749D01*
Y6749D01*
Y6749D01*
X8648Y6752D01*
X8649Y6755D01*
X8650Y6758D01*
X8651Y6760D01*
X8652Y6762D01*
X8652Y6763D01*
X8653Y6764D01*
X8653Y6764D01*
X8655Y6766D01*
X8657Y6768D01*
X8660Y6770D01*
X8662Y6771D01*
X8664Y6772D01*
X8665Y6772D01*
X8666Y6772D01*
X8666D01*
X8666Y6772D01*
X8667D01*
X8664Y6774D01*
X8662Y6776D01*
X8660Y6777D01*
X8658Y6779D01*
X8657Y6781D01*
X8656Y6782D01*
X8655Y6784D01*
X8654Y6786D01*
X8654Y6787D01*
X8653Y6789D01*
X8653Y6790D01*
X8653Y6791D01*
X8653Y6792D01*
X8653Y6792D01*
Y6793D01*
Y6793D01*
X8653Y6795D01*
X8653Y6796D01*
X8654Y6799D01*
X8655Y6802D01*
X8656Y6805D01*
X8657Y6807D01*
X8658Y6808D01*
X8659Y6809D01*
X8659Y6809D01*
X8659Y6809D01*
X8659Y6809D01*
X8661Y6811D01*
X8663Y6812D01*
X8665Y6813D01*
X8666Y6814D01*
X8668Y6815D01*
X8670Y6816D01*
X8674Y6817D01*
X8675Y6817D01*
X8677Y6818D01*
X8678Y6818D01*
X8679Y6818D01*
X8680Y6818D01*
X8682D01*
X8685Y6818D01*
D02*
G37*
G36*
X8430Y6765D02*
X8415Y6763D01*
X8413Y6765D01*
X8412Y6766D01*
X8411Y6767D01*
X8410Y6768D01*
X8407Y6769D01*
X8405Y6770D01*
X8403Y6770D01*
X8402Y6770D01*
X8401Y6770D01*
X8400D01*
X8398Y6770D01*
X8396Y6770D01*
X8394Y6769D01*
X8392Y6768D01*
X8391Y6767D01*
X8390Y6767D01*
X8390Y6766D01*
X8390Y6766D01*
X8388Y6764D01*
X8387Y6762D01*
X8386Y6760D01*
X8386Y6757D01*
X8386Y6755D01*
X8386Y6754D01*
Y6753D01*
Y6753D01*
Y6752D01*
Y6752D01*
X8386Y6749D01*
X8386Y6746D01*
X8387Y6744D01*
X8387Y6742D01*
X8388Y6740D01*
X8389Y6739D01*
X8389Y6738D01*
X8390Y6738D01*
X8391Y6736D01*
X8393Y6735D01*
X8395Y6734D01*
X8396Y6734D01*
X8397Y6733D01*
X8399Y6733D01*
X8399Y6733D01*
X8400D01*
X8401Y6733D01*
X8403Y6734D01*
X8405Y6734D01*
X8406Y6735D01*
X8407Y6736D01*
X8408Y6736D01*
X8409Y6737D01*
X8409Y6737D01*
X8410Y6738D01*
X8411Y6740D01*
X8412Y6742D01*
X8413Y6743D01*
X8413Y6745D01*
X8413Y6746D01*
X8413Y6747D01*
Y6747D01*
X8432Y6745D01*
X8432Y6743D01*
X8431Y6740D01*
X8430Y6737D01*
X8428Y6733D01*
X8427Y6732D01*
X8426Y6730D01*
X8426Y6729D01*
X8425Y6728D01*
X8424Y6727D01*
X8423Y6727D01*
X8423Y6726D01*
X8422Y6726D01*
X8422Y6725D01*
X8422Y6725D01*
X8420Y6724D01*
X8419Y6723D01*
X8417Y6722D01*
X8415Y6721D01*
X8411Y6720D01*
X8408Y6719D01*
X8406Y6719D01*
X8405Y6719D01*
X8403Y6718D01*
X8402Y6718D01*
X8401Y6718D01*
X8400D01*
X8397Y6718D01*
X8394Y6719D01*
X8391Y6719D01*
X8389Y6720D01*
X8386Y6721D01*
X8384Y6722D01*
X8382Y6723D01*
X8380Y6725D01*
X8379Y6726D01*
X8377Y6727D01*
X8376Y6728D01*
X8375Y6729D01*
X8374Y6730D01*
X8374Y6730D01*
X8374Y6731D01*
X8373Y6731D01*
X8372Y6733D01*
X8371Y6735D01*
X8370Y6736D01*
X8369Y6738D01*
X8368Y6742D01*
X8367Y6746D01*
X8367Y6747D01*
X8367Y6748D01*
X8366Y6750D01*
Y6751D01*
X8366Y6752D01*
Y6752D01*
Y6753D01*
Y6753D01*
X8366Y6755D01*
X8367Y6758D01*
X8367Y6760D01*
X8368Y6763D01*
X8368Y6765D01*
X8369Y6767D01*
X8370Y6768D01*
X8371Y6770D01*
X8372Y6771D01*
X8372Y6773D01*
X8373Y6774D01*
X8374Y6775D01*
X8374Y6775D01*
X8375Y6776D01*
X8375Y6776D01*
X8375Y6776D01*
X8377Y6778D01*
X8378Y6779D01*
X8380Y6780D01*
X8382Y6782D01*
X8384Y6782D01*
X8386Y6783D01*
X8389Y6784D01*
X8390Y6785D01*
X8392Y6785D01*
X8393Y6785D01*
X8394Y6785D01*
X8395Y6785D01*
X8396D01*
X8399Y6785D01*
X8401Y6785D01*
X8403Y6784D01*
X8405Y6784D01*
X8407Y6783D01*
X8408Y6783D01*
X8409Y6782D01*
X8409Y6782D01*
X8409D01*
X8406Y6799D01*
X8371D01*
Y6816D01*
X8420D01*
X8430Y6765D01*
D02*
G37*
G36*
X8265Y7870D02*
X8245D01*
Y7911D01*
X8239D01*
X8237Y7911D01*
X8235Y7910D01*
X8234Y7910D01*
X8233Y7910D01*
X8232Y7910D01*
X8232Y7910D01*
X8231D01*
X8230Y7909D01*
X8229Y7908D01*
X8228Y7908D01*
X8227Y7907D01*
X8227Y7907D01*
X8226Y7906D01*
X8226Y7906D01*
X8226Y7906D01*
X8225Y7905D01*
X8224Y7904D01*
X8223Y7902D01*
X8221Y7900D01*
X8219Y7897D01*
X8218Y7895D01*
X8217Y7894D01*
X8216Y7893D01*
X8216Y7892D01*
X8215Y7892D01*
X8215Y7891D01*
X8215Y7891D01*
X8201Y7870D01*
X8177D01*
X8189Y7889D01*
X8191Y7891D01*
X8192Y7893D01*
X8193Y7895D01*
X8194Y7896D01*
X8195Y7898D01*
X8196Y7899D01*
X8198Y7901D01*
X8199Y7903D01*
X8200Y7904D01*
X8200Y7905D01*
X8201Y7905D01*
X8202Y7907D01*
X8204Y7908D01*
X8206Y7909D01*
X8207Y7911D01*
X8209Y7912D01*
X8210Y7912D01*
X8211Y7913D01*
X8211Y7913D01*
X8211D01*
X8209Y7913D01*
X8206Y7914D01*
X8205Y7915D01*
X8203Y7915D01*
X8201Y7916D01*
X8199Y7917D01*
X8198Y7917D01*
X8196Y7918D01*
X8195Y7919D01*
X8194Y7920D01*
X8194Y7920D01*
X8193Y7921D01*
X8192Y7921D01*
X8192Y7922D01*
X8192Y7922D01*
X8192Y7922D01*
X8191Y7923D01*
X8190Y7925D01*
X8188Y7928D01*
X8187Y7931D01*
X8186Y7934D01*
X8185Y7936D01*
X8185Y7937D01*
Y7938D01*
X8185Y7939D01*
Y7940D01*
Y7940D01*
Y7940D01*
X8185Y7943D01*
X8186Y7946D01*
X8187Y7949D01*
X8187Y7951D01*
X8188Y7953D01*
X8189Y7954D01*
X8189Y7955D01*
X8189Y7955D01*
X8190Y7955D01*
Y7955D01*
X8191Y7958D01*
X8193Y7960D01*
X8195Y7961D01*
X8197Y7963D01*
X8198Y7964D01*
X8200Y7964D01*
X8201Y7965D01*
X8201Y7965D01*
X8201D01*
X8202Y7965D01*
X8204Y7966D01*
X8207Y7966D01*
X8211Y7967D01*
X8215Y7967D01*
X8217D01*
X8218Y7967D01*
X8220D01*
X8221Y7968D01*
X8265D01*
Y7870D01*
D02*
G37*
G36*
X8488Y6819D02*
X8492Y6819D01*
X8495Y6818D01*
X8498Y6817D01*
X8501Y6816D01*
X8504Y6815D01*
X8506Y6814D01*
X8509Y6813D01*
X8511Y6811D01*
X8512Y6810D01*
X8514Y6809D01*
X8515Y6808D01*
X8516Y6807D01*
X8517Y6806D01*
X8517Y6806D01*
X8517Y6806D01*
X8520Y6803D01*
X8522Y6800D01*
X8523Y6797D01*
X8525Y6794D01*
X8526Y6791D01*
X8527Y6788D01*
X8528Y6785D01*
X8528Y6782D01*
X8529Y6779D01*
X8529Y6776D01*
X8530Y6774D01*
X8530Y6772D01*
Y6770D01*
X8530Y6769D01*
Y6768D01*
Y6768D01*
Y6768D01*
X8530Y6764D01*
X8529Y6760D01*
X8529Y6756D01*
X8528Y6753D01*
X8527Y6749D01*
X8526Y6746D01*
X8525Y6744D01*
X8524Y6741D01*
X8523Y6739D01*
X8522Y6737D01*
X8520Y6735D01*
X8520Y6734D01*
X8519Y6733D01*
X8518Y6732D01*
X8518Y6732D01*
X8518Y6732D01*
X8515Y6729D01*
X8513Y6727D01*
X8510Y6725D01*
X8507Y6724D01*
X8505Y6723D01*
X8502Y6722D01*
X8499Y6721D01*
X8497Y6720D01*
X8495Y6719D01*
X8493Y6719D01*
X8491Y6719D01*
X8489Y6719D01*
X8488Y6718D01*
X8487Y6718D01*
X8486D01*
X8483Y6718D01*
X8480Y6719D01*
X8477Y6719D01*
X8475Y6720D01*
X8473Y6720D01*
X8471Y6721D01*
X8469Y6721D01*
X8467Y6722D01*
X8465Y6723D01*
X8464Y6724D01*
X8463Y6724D01*
X8462Y6725D01*
X8461Y6725D01*
X8460Y6726D01*
X8460Y6726D01*
X8460Y6726D01*
X8458Y6728D01*
X8456Y6729D01*
X8453Y6733D01*
X8451Y6737D01*
X8449Y6741D01*
X8448Y6743D01*
X8447Y6744D01*
X8447Y6746D01*
X8446Y6747D01*
X8446Y6748D01*
X8445Y6749D01*
X8445Y6750D01*
Y6750D01*
X8464Y6756D01*
X8465Y6752D01*
X8467Y6749D01*
X8468Y6746D01*
X8469Y6744D01*
X8471Y6742D01*
X8471Y6741D01*
X8472Y6740D01*
X8472Y6740D01*
X8475Y6738D01*
X8477Y6737D01*
X8479Y6736D01*
X8481Y6736D01*
X8483Y6735D01*
X8485Y6735D01*
X8485Y6735D01*
X8486D01*
X8488Y6735D01*
X8490Y6735D01*
X8493Y6736D01*
X8496Y6737D01*
X8498Y6739D01*
X8500Y6740D01*
X8502Y6742D01*
X8502Y6742D01*
X8503Y6743D01*
X8503Y6743D01*
X8503Y6743D01*
X8504Y6744D01*
X8505Y6746D01*
X8506Y6748D01*
X8507Y6750D01*
X8508Y6755D01*
X8509Y6759D01*
X8509Y6761D01*
X8509Y6763D01*
X8510Y6765D01*
Y6766D01*
X8510Y6768D01*
Y6768D01*
Y6769D01*
Y6769D01*
X8510Y6773D01*
X8509Y6776D01*
X8509Y6778D01*
X8509Y6781D01*
X8508Y6783D01*
X8508Y6785D01*
X8507Y6787D01*
X8506Y6789D01*
X8506Y6790D01*
X8505Y6791D01*
X8505Y6792D01*
X8504Y6793D01*
X8504Y6794D01*
X8503Y6794D01*
X8503Y6795D01*
Y6795D01*
X8502Y6796D01*
X8500Y6797D01*
X8499Y6798D01*
X8497Y6799D01*
X8494Y6801D01*
X8492Y6802D01*
X8489Y6802D01*
X8488Y6802D01*
X8487Y6802D01*
X8486Y6803D01*
X8485D01*
X8483Y6802D01*
X8480Y6802D01*
X8478Y6801D01*
X8476Y6800D01*
X8474Y6800D01*
X8473Y6799D01*
X8472Y6798D01*
X8472Y6798D01*
X8470Y6796D01*
X8469Y6794D01*
X8467Y6792D01*
X8466Y6790D01*
X8466Y6789D01*
X8465Y6788D01*
X8465Y6787D01*
Y6787D01*
X8465Y6786D01*
Y6786D01*
X8445Y6791D01*
X8447Y6795D01*
X8448Y6799D01*
X8450Y6802D01*
X8452Y6804D01*
X8453Y6806D01*
X8454Y6807D01*
X8454Y6808D01*
X8455Y6808D01*
X8455Y6809D01*
X8455Y6809D01*
X8455D01*
X8458Y6811D01*
X8460Y6812D01*
X8462Y6814D01*
X8465Y6815D01*
X8467Y6816D01*
X8470Y6817D01*
X8472Y6818D01*
X8474Y6818D01*
X8476Y6819D01*
X8478Y6819D01*
X8480Y6819D01*
X8482Y6819D01*
X8483Y6819D01*
X8484D01*
X8488Y6819D01*
D02*
G37*
G36*
X9168D02*
X9172Y6819D01*
X9175Y6818D01*
X9178Y6817D01*
X9181Y6816D01*
X9184Y6815D01*
X9186Y6814D01*
X9189Y6813D01*
X9191Y6811D01*
X9192Y6810D01*
X9194Y6809D01*
X9195Y6808D01*
X9196Y6807D01*
X9197Y6806D01*
X9197Y6806D01*
X9197Y6806D01*
X9200Y6803D01*
X9202Y6800D01*
X9203Y6797D01*
X9205Y6794D01*
X9206Y6791D01*
X9207Y6788D01*
X9208Y6785D01*
X9208Y6782D01*
X9209Y6779D01*
X9209Y6776D01*
X9210Y6774D01*
X9210Y6772D01*
Y6770D01*
X9210Y6769D01*
Y6768D01*
Y6768D01*
Y6768D01*
X9210Y6764D01*
X9209Y6760D01*
X9209Y6756D01*
X9208Y6753D01*
X9207Y6749D01*
X9206Y6746D01*
X9205Y6744D01*
X9204Y6741D01*
X9203Y6739D01*
X9202Y6737D01*
X9200Y6735D01*
X9200Y6734D01*
X9199Y6733D01*
X9198Y6732D01*
X9198Y6732D01*
X9198Y6732D01*
X9195Y6729D01*
X9193Y6727D01*
X9190Y6725D01*
X9187Y6724D01*
X9185Y6723D01*
X9182Y6722D01*
X9179Y6721D01*
X9177Y6720D01*
X9175Y6719D01*
X9173Y6719D01*
X9171Y6719D01*
X9169Y6719D01*
X9168Y6718D01*
X9167Y6718D01*
X9166D01*
X9163Y6718D01*
X9160Y6719D01*
X9157Y6719D01*
X9155Y6720D01*
X9153Y6720D01*
X9151Y6721D01*
X9149Y6721D01*
X9147Y6722D01*
X9145Y6723D01*
X9144Y6724D01*
X9143Y6724D01*
X9142Y6725D01*
X9141Y6725D01*
X9140Y6726D01*
X9140Y6726D01*
X9140Y6726D01*
X9138Y6728D01*
X9136Y6729D01*
X9133Y6733D01*
X9131Y6737D01*
X9129Y6741D01*
X9128Y6743D01*
X9127Y6744D01*
X9127Y6746D01*
X9126Y6747D01*
X9126Y6748D01*
X9125Y6749D01*
X9125Y6750D01*
Y6750D01*
X9144Y6756D01*
X9145Y6752D01*
X9147Y6749D01*
X9148Y6746D01*
X9149Y6744D01*
X9151Y6742D01*
X9151Y6741D01*
X9152Y6740D01*
X9152Y6740D01*
X9155Y6738D01*
X9157Y6737D01*
X9159Y6736D01*
X9161Y6736D01*
X9163Y6735D01*
X9165Y6735D01*
X9165Y6735D01*
X9166D01*
X9168Y6735D01*
X9170Y6735D01*
X9173Y6736D01*
X9176Y6737D01*
X9178Y6739D01*
X9180Y6740D01*
X9182Y6742D01*
X9182Y6742D01*
X9183Y6743D01*
X9183Y6743D01*
X9183Y6743D01*
X9184Y6744D01*
X9185Y6746D01*
X9186Y6748D01*
X9187Y6750D01*
X9188Y6755D01*
X9189Y6759D01*
X9189Y6761D01*
X9189Y6763D01*
X9190Y6765D01*
Y6766D01*
X9190Y6768D01*
Y6768D01*
Y6769D01*
Y6769D01*
X9190Y6773D01*
X9189Y6776D01*
X9189Y6778D01*
X9189Y6781D01*
X9188Y6783D01*
X9188Y6785D01*
X9187Y6787D01*
X9186Y6789D01*
X9186Y6790D01*
X9185Y6791D01*
X9185Y6792D01*
X9184Y6793D01*
X9184Y6794D01*
X9183Y6794D01*
X9183Y6795D01*
Y6795D01*
X9182Y6796D01*
X9180Y6797D01*
X9179Y6798D01*
X9177Y6799D01*
X9174Y6801D01*
X9172Y6802D01*
X9169Y6802D01*
X9168Y6802D01*
X9167Y6802D01*
X9166Y6803D01*
X9165D01*
X9163Y6802D01*
X9160Y6802D01*
X9158Y6801D01*
X9156Y6800D01*
X9154Y6800D01*
X9153Y6799D01*
X9152Y6798D01*
X9152Y6798D01*
X9150Y6796D01*
X9149Y6794D01*
X9147Y6792D01*
X9146Y6790D01*
X9146Y6789D01*
X9145Y6788D01*
X9145Y6787D01*
Y6787D01*
X9145Y6786D01*
Y6786D01*
X9125Y6791D01*
X9127Y6795D01*
X9128Y6799D01*
X9130Y6802D01*
X9132Y6804D01*
X9133Y6806D01*
X9134Y6807D01*
X9134Y6808D01*
X9135Y6808D01*
X9135Y6809D01*
X9135Y6809D01*
X9135D01*
X9138Y6811D01*
X9140Y6812D01*
X9142Y6814D01*
X9145Y6815D01*
X9147Y6816D01*
X9150Y6817D01*
X9152Y6818D01*
X9154Y6818D01*
X9156Y6819D01*
X9158Y6819D01*
X9160Y6819D01*
X9162Y6819D01*
X9163Y6819D01*
X9164D01*
X9168Y6819D01*
D02*
G37*
G36*
X9081Y6815D02*
X9083Y6812D01*
X9085Y6809D01*
X9087Y6807D01*
X9089Y6805D01*
X9090Y6804D01*
X9091Y6803D01*
X9091Y6803D01*
X9091Y6802D01*
X9092Y6802D01*
X9095Y6800D01*
X9098Y6798D01*
X9100Y6797D01*
X9103Y6795D01*
X9105Y6795D01*
X9106Y6794D01*
X9107Y6794D01*
X9107Y6794D01*
X9107Y6793D01*
X9107D01*
Y6777D01*
X9102Y6779D01*
X9098Y6781D01*
X9096Y6782D01*
X9094Y6783D01*
X9092Y6784D01*
X9090Y6785D01*
X9089Y6786D01*
X9087Y6787D01*
X9086Y6788D01*
X9085Y6789D01*
X9084Y6790D01*
X9084Y6790D01*
X9083Y6790D01*
X9083Y6791D01*
Y6720D01*
X9065D01*
Y6818D01*
X9080D01*
X9081Y6815D01*
D02*
G37*
G36*
X8608Y7147D02*
X8605Y7145D01*
X8602Y7143D01*
X8599Y7142D01*
X8597Y7140D01*
X8595Y7138D01*
X8594Y7136D01*
X8593Y7136D01*
X8593Y7135D01*
X8592Y7135D01*
X8592Y7135D01*
X8590Y7132D01*
X8588Y7129D01*
X8587Y7126D01*
X8585Y7124D01*
X8585Y7122D01*
X8584Y7120D01*
X8584Y7120D01*
X8584Y7119D01*
X8583Y7119D01*
Y7119D01*
X8567D01*
X8569Y7124D01*
X8571Y7129D01*
X8572Y7131D01*
X8573Y7133D01*
X8574Y7135D01*
X8575Y7136D01*
X8576Y7138D01*
X8577Y7139D01*
X8578Y7140D01*
X8579Y7141D01*
X8580Y7142D01*
X8580Y7143D01*
X8580Y7143D01*
X8581Y7143D01*
X8510D01*
Y7162D01*
X8608D01*
Y7147D01*
D02*
G37*
G36*
X8563Y7253D02*
X8568Y7253D01*
X8572Y7252D01*
X8576Y7252D01*
X8580Y7251D01*
X8583Y7250D01*
X8586Y7249D01*
X8588Y7249D01*
X8591Y7248D01*
X8593Y7247D01*
X8594Y7246D01*
X8596Y7245D01*
X8597Y7245D01*
X8597Y7244D01*
X8598Y7244D01*
X8598Y7244D01*
X8600Y7242D01*
X8601Y7240D01*
X8603Y7239D01*
X8604Y7237D01*
X8605Y7235D01*
X8606Y7233D01*
X8606Y7231D01*
X8607Y7230D01*
X8607Y7228D01*
X8608Y7227D01*
X8608Y7225D01*
X8608Y7224D01*
X8608Y7223D01*
Y7222D01*
Y7222D01*
Y7222D01*
X8608Y7219D01*
X8608Y7217D01*
X8607Y7214D01*
X8607Y7212D01*
X8606Y7210D01*
X8605Y7208D01*
X8604Y7207D01*
X8603Y7205D01*
X8602Y7204D01*
X8601Y7203D01*
X8600Y7202D01*
X8600Y7201D01*
X8599Y7200D01*
X8598Y7200D01*
X8598Y7200D01*
X8598Y7199D01*
X8596Y7198D01*
X8593Y7196D01*
X8590Y7195D01*
X8587Y7194D01*
X8583Y7193D01*
X8580Y7192D01*
X8577Y7192D01*
X8574Y7191D01*
X8570Y7191D01*
X8568Y7191D01*
X8565Y7190D01*
X8563Y7190D01*
X8561Y7190D01*
X8558D01*
X8553Y7190D01*
X8548Y7190D01*
X8544Y7191D01*
X8540Y7191D01*
X8537Y7192D01*
X8533Y7193D01*
X8531Y7194D01*
X8528Y7194D01*
X8526Y7195D01*
X8524Y7196D01*
X8522Y7197D01*
X8521Y7197D01*
X8520Y7198D01*
X8520Y7198D01*
X8519Y7198D01*
X8519Y7199D01*
X8517Y7200D01*
X8515Y7202D01*
X8514Y7204D01*
X8513Y7206D01*
X8512Y7208D01*
X8511Y7210D01*
X8510Y7212D01*
X8510Y7213D01*
X8509Y7215D01*
X8509Y7217D01*
X8508Y7218D01*
X8508Y7219D01*
Y7220D01*
X8508Y7221D01*
Y7221D01*
Y7222D01*
X8508Y7224D01*
X8509Y7227D01*
X8509Y7229D01*
X8510Y7231D01*
X8510Y7233D01*
X8511Y7235D01*
X8512Y7236D01*
X8513Y7238D01*
X8514Y7239D01*
X8515Y7240D01*
X8516Y7241D01*
X8517Y7242D01*
X8517Y7243D01*
X8518Y7243D01*
X8518Y7244D01*
X8518Y7244D01*
X8521Y7245D01*
X8523Y7247D01*
X8526Y7248D01*
X8530Y7249D01*
X8533Y7250D01*
X8536Y7251D01*
X8539Y7252D01*
X8543Y7252D01*
X8546Y7252D01*
X8549Y7253D01*
X8551Y7253D01*
X8554Y7253D01*
X8555Y7253D01*
X8558D01*
X8563Y7253D01*
D02*
G37*
G36*
X8529Y7096D02*
X8531Y7094D01*
X8533Y7093D01*
X8535Y7092D01*
X8536Y7091D01*
X8538Y7090D01*
X8539Y7089D01*
X8541Y7087D01*
X8543Y7086D01*
X8544Y7085D01*
X8545Y7085D01*
X8545Y7084D01*
X8547Y7083D01*
X8548Y7081D01*
X8549Y7079D01*
X8551Y7078D01*
X8552Y7076D01*
X8552Y7075D01*
X8553Y7074D01*
X8553Y7074D01*
Y7074D01*
X8553Y7076D01*
X8554Y7079D01*
X8555Y7080D01*
X8555Y7082D01*
X8556Y7084D01*
X8557Y7086D01*
X8557Y7087D01*
X8558Y7089D01*
X8559Y7090D01*
X8560Y7091D01*
X8560Y7091D01*
X8561Y7092D01*
X8561Y7093D01*
X8562Y7093D01*
X8562Y7093D01*
X8562Y7093D01*
X8563Y7094D01*
X8565Y7095D01*
X8568Y7097D01*
X8571Y7098D01*
X8574Y7099D01*
X8576Y7100D01*
X8577Y7100D01*
X8578D01*
X8579Y7100D01*
X8580D01*
X8583Y7100D01*
X8586Y7099D01*
X8589Y7098D01*
X8591Y7098D01*
X8593Y7097D01*
X8594Y7096D01*
X8595Y7096D01*
X8595Y7096D01*
X8595Y7095D01*
X8595D01*
X8598Y7094D01*
X8600Y7092D01*
X8601Y7090D01*
X8603Y7088D01*
X8604Y7087D01*
X8604Y7085D01*
X8605Y7084D01*
X8605Y7084D01*
Y7084D01*
X8605Y7083D01*
X8606Y7081D01*
X8606Y7078D01*
X8607Y7074D01*
X8607Y7070D01*
Y7068D01*
X8607Y7067D01*
Y7065D01*
X8608Y7064D01*
Y7063D01*
Y7062D01*
Y7062D01*
Y7061D01*
Y7020D01*
X8510D01*
Y7040D01*
X8551D01*
Y7044D01*
Y7046D01*
X8551Y7048D01*
X8550Y7050D01*
X8550Y7051D01*
X8550Y7052D01*
X8550Y7053D01*
X8550Y7053D01*
Y7054D01*
X8549Y7055D01*
X8548Y7056D01*
X8548Y7057D01*
X8547Y7058D01*
X8547Y7058D01*
X8546Y7059D01*
X8546Y7059D01*
X8546Y7059D01*
X8545Y7060D01*
X8544Y7061D01*
X8542Y7062D01*
X8540Y7064D01*
X8537Y7066D01*
X8535Y7067D01*
X8534Y7068D01*
X8533Y7069D01*
X8532Y7069D01*
X8532Y7070D01*
X8531Y7070D01*
X8531Y7070D01*
X8510Y7084D01*
Y7108D01*
X8529Y7096D01*
D02*
G37*
G36*
X9257Y7894D02*
Y7892D01*
X9257Y7890D01*
X9258Y7888D01*
X9258Y7887D01*
X9258Y7885D01*
X9258Y7884D01*
X9258Y7883D01*
X9259Y7882D01*
X9259Y7880D01*
X9260Y7879D01*
X9260Y7879D01*
X9260Y7879D01*
X9261Y7877D01*
X9263Y7876D01*
X9264Y7876D01*
X9266Y7875D01*
X9267Y7875D01*
X9268Y7875D01*
X9269D01*
X9272Y7875D01*
X9273Y7876D01*
X9275Y7877D01*
X9276Y7878D01*
X9278Y7878D01*
X9278Y7879D01*
X9279Y7880D01*
X9279Y7880D01*
X9280Y7882D01*
X9280Y7883D01*
X9281Y7885D01*
X9281Y7887D01*
X9281Y7889D01*
Y7891D01*
X9281Y7891D01*
Y7892D01*
Y7892D01*
Y7892D01*
X9300Y7890D01*
X9300Y7887D01*
X9300Y7884D01*
X9299Y7882D01*
X9299Y7880D01*
X9298Y7877D01*
X9298Y7876D01*
X9297Y7874D01*
X9296Y7872D01*
X9295Y7871D01*
X9295Y7870D01*
X9294Y7869D01*
X9294Y7868D01*
X9293Y7867D01*
X9293Y7867D01*
X9292Y7866D01*
X9292Y7866D01*
X9291Y7865D01*
X9289Y7864D01*
X9287Y7863D01*
X9285Y7862D01*
X9284Y7861D01*
X9282Y7860D01*
X9278Y7859D01*
X9276Y7859D01*
X9275Y7859D01*
X9274Y7858D01*
X9272Y7858D01*
X9271Y7858D01*
X9270D01*
X9266Y7858D01*
X9262Y7859D01*
X9258Y7860D01*
X9257Y7860D01*
X9255Y7861D01*
X9254Y7861D01*
X9253Y7862D01*
X9252Y7862D01*
X9252Y7862D01*
X9251Y7863D01*
X9251Y7863D01*
X9250Y7863D01*
X9250D01*
X9248Y7865D01*
X9245Y7868D01*
X9244Y7870D01*
X9242Y7872D01*
X9241Y7874D01*
X9240Y7876D01*
X9240Y7876D01*
X9240Y7876D01*
X9240Y7877D01*
Y7877D01*
X9239Y7880D01*
X9239Y7883D01*
X9238Y7886D01*
X9238Y7889D01*
X9238Y7891D01*
X9238Y7893D01*
Y7894D01*
Y7895D01*
Y7895D01*
Y7896D01*
Y7896D01*
Y7958D01*
X9257D01*
Y7894D01*
D02*
G37*
G36*
X9191Y7958D02*
X9193Y7958D01*
X9198Y7957D01*
X9201Y7956D01*
X9203Y7955D01*
X9205Y7955D01*
X9206Y7954D01*
X9207Y7953D01*
X9208Y7953D01*
X9209Y7952D01*
X9210Y7952D01*
X9210Y7952D01*
X9210Y7951D01*
X9211Y7951D01*
X9212Y7950D01*
X9214Y7949D01*
X9215Y7947D01*
X9216Y7945D01*
X9218Y7941D01*
X9219Y7938D01*
X9220Y7936D01*
X9220Y7934D01*
X9220Y7933D01*
X9220Y7932D01*
X9221Y7931D01*
Y7930D01*
X9221Y7929D01*
Y7929D01*
X9202Y7927D01*
X9202Y7930D01*
X9201Y7933D01*
X9201Y7935D01*
X9200Y7936D01*
X9200Y7938D01*
X9199Y7938D01*
X9199Y7939D01*
X9199Y7939D01*
X9197Y7940D01*
X9196Y7941D01*
X9194Y7942D01*
X9192Y7942D01*
X9191Y7942D01*
X9190Y7943D01*
X9189D01*
X9187Y7942D01*
X9185Y7942D01*
X9184Y7941D01*
X9182Y7941D01*
X9181Y7940D01*
X9180Y7940D01*
X9180Y7939D01*
X9180Y7939D01*
X9179Y7938D01*
X9178Y7936D01*
X9177Y7935D01*
X9177Y7933D01*
X9177Y7932D01*
X9176Y7930D01*
Y7930D01*
Y7930D01*
Y7929D01*
X9177Y7927D01*
X9177Y7925D01*
X9178Y7923D01*
X9178Y7922D01*
X9179Y7920D01*
X9180Y7919D01*
X9180Y7918D01*
X9180Y7918D01*
X9181Y7917D01*
X9182Y7916D01*
X9183Y7915D01*
X9184Y7914D01*
X9187Y7911D01*
X9189Y7908D01*
X9192Y7906D01*
X9193Y7905D01*
X9194Y7904D01*
X9195Y7903D01*
X9195Y7903D01*
X9196Y7902D01*
X9196Y7902D01*
X9199Y7899D01*
X9201Y7897D01*
X9204Y7894D01*
X9206Y7892D01*
X9208Y7890D01*
X9209Y7888D01*
X9211Y7887D01*
X9212Y7885D01*
X9213Y7883D01*
X9214Y7882D01*
X9215Y7881D01*
X9216Y7880D01*
X9216Y7880D01*
X9217Y7879D01*
X9217Y7879D01*
Y7879D01*
X9219Y7875D01*
X9220Y7872D01*
X9221Y7869D01*
X9222Y7866D01*
X9223Y7864D01*
X9223Y7863D01*
X9223Y7862D01*
X9223Y7861D01*
X9223Y7860D01*
Y7860D01*
Y7860D01*
X9158D01*
Y7877D01*
X9195D01*
X9194Y7879D01*
X9192Y7881D01*
X9192Y7881D01*
X9191Y7882D01*
X9191Y7882D01*
X9191Y7882D01*
X9190Y7883D01*
X9190Y7884D01*
X9188Y7885D01*
X9186Y7887D01*
X9185Y7889D01*
X9183Y7891D01*
X9181Y7892D01*
X9181Y7893D01*
X9180Y7893D01*
X9180Y7893D01*
X9180Y7893D01*
X9177Y7896D01*
X9174Y7899D01*
X9172Y7901D01*
X9170Y7903D01*
X9169Y7904D01*
X9168Y7905D01*
X9168Y7906D01*
X9167Y7906D01*
X9166Y7908D01*
X9164Y7910D01*
X9163Y7913D01*
X9162Y7914D01*
X9161Y7916D01*
X9160Y7917D01*
X9160Y7918D01*
X9160Y7918D01*
X9159Y7920D01*
X9159Y7923D01*
X9158Y7925D01*
X9158Y7927D01*
X9158Y7928D01*
X9158Y7930D01*
Y7930D01*
Y7931D01*
X9158Y7933D01*
X9158Y7935D01*
X9158Y7937D01*
X9159Y7939D01*
X9160Y7942D01*
X9162Y7945D01*
X9163Y7946D01*
X9163Y7947D01*
X9164Y7948D01*
X9165Y7949D01*
X9165Y7949D01*
X9166Y7950D01*
X9166Y7950D01*
X9166Y7950D01*
X9167Y7952D01*
X9169Y7953D01*
X9171Y7954D01*
X9173Y7955D01*
X9177Y7956D01*
X9180Y7957D01*
X9182Y7957D01*
X9184Y7958D01*
X9185Y7958D01*
X9186Y7958D01*
X9187Y7958D01*
X9189D01*
X9191Y7958D01*
D02*
G37*
G36*
X8219Y7136D02*
X8221Y7134D01*
X8223Y7133D01*
X8225Y7132D01*
X8226Y7131D01*
X8228Y7130D01*
X8229Y7129D01*
X8231Y7127D01*
X8233Y7126D01*
X8234Y7125D01*
X8235Y7125D01*
X8235Y7124D01*
X8237Y7123D01*
X8238Y7121D01*
X8239Y7119D01*
X8241Y7118D01*
X8242Y7116D01*
X8242Y7115D01*
X8243Y7114D01*
X8243Y7114D01*
Y7114D01*
X8243Y7116D01*
X8244Y7119D01*
X8245Y7120D01*
X8245Y7122D01*
X8246Y7124D01*
X8247Y7126D01*
X8247Y7127D01*
X8248Y7129D01*
X8249Y7130D01*
X8250Y7131D01*
X8250Y7131D01*
X8251Y7132D01*
X8251Y7133D01*
X8252Y7133D01*
X8252Y7133D01*
X8252Y7133D01*
X8253Y7134D01*
X8255Y7135D01*
X8258Y7137D01*
X8261Y7138D01*
X8264Y7139D01*
X8266Y7140D01*
X8267Y7140D01*
X8268D01*
X8269Y7140D01*
X8270D01*
X8273Y7140D01*
X8276Y7139D01*
X8279Y7138D01*
X8281Y7138D01*
X8283Y7137D01*
X8284Y7136D01*
X8285Y7136D01*
X8285Y7136D01*
X8285Y7135D01*
X8285D01*
X8288Y7134D01*
X8290Y7132D01*
X8291Y7130D01*
X8293Y7128D01*
X8294Y7127D01*
X8294Y7125D01*
X8295Y7124D01*
X8295Y7124D01*
Y7124D01*
X8295Y7123D01*
X8296Y7121D01*
X8296Y7118D01*
X8297Y7114D01*
X8297Y7110D01*
Y7108D01*
X8297Y7107D01*
Y7105D01*
X8298Y7104D01*
Y7103D01*
Y7102D01*
Y7102D01*
Y7101D01*
Y7060D01*
X8200D01*
Y7080D01*
X8241D01*
Y7084D01*
Y7086D01*
X8241Y7088D01*
X8240Y7090D01*
X8240Y7091D01*
X8240Y7092D01*
X8240Y7093D01*
X8240Y7093D01*
Y7094D01*
X8239Y7095D01*
X8238Y7096D01*
X8238Y7097D01*
X8237Y7098D01*
X8237Y7098D01*
X8236Y7099D01*
X8236Y7099D01*
X8236Y7099D01*
X8235Y7100D01*
X8234Y7101D01*
X8232Y7102D01*
X8230Y7104D01*
X8227Y7106D01*
X8225Y7107D01*
X8224Y7108D01*
X8223Y7109D01*
X8222Y7109D01*
X8222Y7110D01*
X8221Y7110D01*
X8221Y7110D01*
X8200Y7124D01*
Y7148D01*
X8219Y7136D01*
D02*
G37*
G36*
X8829Y7146D02*
X8831Y7144D01*
X8833Y7143D01*
X8835Y7142D01*
X8836Y7141D01*
X8838Y7140D01*
X8839Y7139D01*
X8841Y7137D01*
X8843Y7136D01*
X8844Y7135D01*
X8845Y7135D01*
X8845Y7134D01*
X8847Y7133D01*
X8848Y7131D01*
X8849Y7129D01*
X8851Y7128D01*
X8852Y7126D01*
X8852Y7125D01*
X8853Y7124D01*
X8853Y7124D01*
Y7124D01*
X8853Y7126D01*
X8854Y7129D01*
X8855Y7130D01*
X8855Y7132D01*
X8856Y7134D01*
X8857Y7136D01*
X8857Y7137D01*
X8858Y7139D01*
X8859Y7140D01*
X8860Y7141D01*
X8860Y7141D01*
X8861Y7142D01*
X8861Y7143D01*
X8862Y7143D01*
X8862Y7143D01*
X8862Y7143D01*
X8863Y7144D01*
X8865Y7145D01*
X8868Y7147D01*
X8871Y7148D01*
X8874Y7149D01*
X8876Y7150D01*
X8877Y7150D01*
X8878D01*
X8879Y7150D01*
X8880D01*
X8883Y7150D01*
X8886Y7149D01*
X8889Y7148D01*
X8891Y7148D01*
X8893Y7147D01*
X8894Y7146D01*
X8895Y7146D01*
X8895Y7146D01*
X8895Y7145D01*
X8895D01*
X8898Y7144D01*
X8900Y7142D01*
X8901Y7140D01*
X8903Y7138D01*
X8904Y7137D01*
X8904Y7135D01*
X8905Y7134D01*
X8905Y7134D01*
Y7134D01*
X8905Y7133D01*
X8906Y7131D01*
X8906Y7128D01*
X8907Y7124D01*
X8907Y7120D01*
Y7118D01*
X8907Y7117D01*
Y7115D01*
X8908Y7114D01*
Y7113D01*
Y7112D01*
Y7112D01*
Y7111D01*
Y7070D01*
X8810D01*
Y7090D01*
X8851D01*
Y7094D01*
Y7096D01*
X8851Y7098D01*
X8850Y7100D01*
X8850Y7101D01*
X8850Y7102D01*
X8850Y7103D01*
X8850Y7103D01*
Y7104D01*
X8849Y7105D01*
X8848Y7106D01*
X8848Y7107D01*
X8847Y7108D01*
X8847Y7108D01*
X8846Y7109D01*
X8846Y7109D01*
X8846Y7109D01*
X8845Y7110D01*
X8844Y7111D01*
X8842Y7112D01*
X8840Y7114D01*
X8837Y7116D01*
X8835Y7117D01*
X8834Y7118D01*
X8833Y7119D01*
X8832Y7119D01*
X8832Y7120D01*
X8831Y7120D01*
X8831Y7120D01*
X8810Y7134D01*
Y7158D01*
X8829Y7146D01*
D02*
G37*
G36*
X8844Y7229D02*
X8846Y7229D01*
X8849Y7229D01*
X8851Y7228D01*
X8853Y7227D01*
X8855Y7227D01*
X8857Y7226D01*
X8858Y7225D01*
X8860Y7224D01*
X8861Y7224D01*
X8862Y7223D01*
X8863Y7222D01*
X8864Y7222D01*
X8864Y7221D01*
X8864Y7221D01*
X8864Y7221D01*
X8866Y7219D01*
X8867Y7218D01*
X8869Y7216D01*
X8870Y7214D01*
X8870Y7213D01*
X8871Y7211D01*
X8872Y7208D01*
X8873Y7206D01*
X8873Y7205D01*
X8873Y7204D01*
X8873Y7203D01*
X8873Y7202D01*
Y7202D01*
Y7201D01*
Y7201D01*
X8873Y7199D01*
X8873Y7197D01*
X8873Y7195D01*
X8872Y7194D01*
X8871Y7191D01*
X8869Y7188D01*
X8868Y7186D01*
X8867Y7185D01*
X8866Y7185D01*
X8866Y7184D01*
X8866Y7184D01*
X8865Y7184D01*
X8865Y7183D01*
X8868Y7184D01*
X8871Y7184D01*
X8873Y7184D01*
X8876Y7185D01*
X8878Y7185D01*
X8879Y7186D01*
X8881Y7186D01*
X8882Y7187D01*
X8884Y7187D01*
X8885Y7187D01*
X8886Y7188D01*
X8886Y7188D01*
X8887Y7188D01*
X8887Y7189D01*
X8887Y7189D01*
X8889Y7190D01*
X8890Y7192D01*
X8891Y7194D01*
X8892Y7195D01*
X8892Y7197D01*
X8892Y7198D01*
X8893Y7198D01*
Y7199D01*
X8892Y7200D01*
X8892Y7202D01*
X8892Y7203D01*
X8891Y7204D01*
X8891Y7205D01*
X8890Y7205D01*
X8890Y7206D01*
X8890Y7206D01*
X8889Y7207D01*
X8888Y7208D01*
X8886Y7208D01*
X8885Y7209D01*
X8884Y7209D01*
X8883Y7209D01*
X8882Y7210D01*
X8882D01*
X8884Y7228D01*
X8888Y7227D01*
X8891Y7225D01*
X8895Y7224D01*
X8897Y7222D01*
X8899Y7221D01*
X8900Y7220D01*
X8901Y7219D01*
X8901Y7219D01*
X8901Y7218D01*
X8902Y7218D01*
Y7218D01*
X8903Y7217D01*
X8904Y7215D01*
X8905Y7212D01*
X8907Y7209D01*
X8907Y7206D01*
X8908Y7204D01*
X8908Y7203D01*
Y7202D01*
X8908Y7201D01*
Y7200D01*
Y7200D01*
Y7200D01*
X8908Y7197D01*
X8908Y7194D01*
X8907Y7192D01*
X8906Y7189D01*
X8905Y7187D01*
X8904Y7185D01*
X8903Y7183D01*
X8902Y7181D01*
X8901Y7179D01*
X8900Y7178D01*
X8899Y7177D01*
X8898Y7176D01*
X8897Y7175D01*
X8897Y7174D01*
X8896Y7174D01*
X8896Y7174D01*
X8894Y7172D01*
X8891Y7171D01*
X8888Y7170D01*
X8885Y7168D01*
X8882Y7167D01*
X8879Y7167D01*
X8875Y7166D01*
X8872Y7165D01*
X8869Y7165D01*
X8867Y7165D01*
X8864Y7164D01*
X8862Y7164D01*
X8860Y7164D01*
X8857D01*
X8853Y7164D01*
X8848Y7165D01*
X8844Y7165D01*
X8840Y7166D01*
X8837Y7166D01*
X8834Y7167D01*
X8831Y7168D01*
X8829Y7169D01*
X8826Y7170D01*
X8825Y7171D01*
X8823Y7171D01*
X8822Y7172D01*
X8821Y7173D01*
X8820Y7173D01*
X8820Y7173D01*
X8820Y7174D01*
X8818Y7175D01*
X8816Y7177D01*
X8814Y7179D01*
X8813Y7182D01*
X8812Y7183D01*
X8811Y7186D01*
X8810Y7188D01*
X8810Y7189D01*
X8809Y7191D01*
X8809Y7193D01*
X8809Y7194D01*
X8808Y7196D01*
Y7197D01*
X8808Y7197D01*
Y7198D01*
Y7198D01*
X8808Y7201D01*
X8809Y7203D01*
X8809Y7205D01*
X8810Y7207D01*
X8810Y7209D01*
X8811Y7211D01*
X8812Y7213D01*
X8813Y7214D01*
X8814Y7216D01*
X8814Y7217D01*
X8815Y7218D01*
X8816Y7219D01*
X8816Y7220D01*
X8817Y7220D01*
X8817Y7220D01*
X8817Y7221D01*
X8819Y7222D01*
X8821Y7224D01*
X8823Y7225D01*
X8825Y7226D01*
X8827Y7227D01*
X8829Y7227D01*
X8833Y7228D01*
X8834Y7229D01*
X8836Y7229D01*
X8837Y7229D01*
X8839Y7229D01*
X8840Y7229D01*
X8841D01*
X8844Y7229D01*
D02*
G37*
G36*
X9080Y7360D02*
X9060D01*
Y7401D01*
X9054D01*
X9052Y7401D01*
X9050Y7400D01*
X9049Y7400D01*
X9048Y7400D01*
X9047Y7400D01*
X9047Y7400D01*
X9046D01*
X9045Y7399D01*
X9044Y7398D01*
X9043Y7398D01*
X9042Y7397D01*
X9042Y7397D01*
X9041Y7396D01*
X9041Y7396D01*
X9041Y7396D01*
X9040Y7395D01*
X9039Y7394D01*
X9038Y7392D01*
X9036Y7390D01*
X9034Y7387D01*
X9033Y7385D01*
X9032Y7384D01*
X9031Y7383D01*
X9031Y7382D01*
X9030Y7382D01*
X9030Y7381D01*
X9030Y7381D01*
X9016Y7360D01*
X8992D01*
X9004Y7379D01*
X9006Y7381D01*
X9007Y7383D01*
X9008Y7385D01*
X9009Y7386D01*
X9010Y7388D01*
X9011Y7389D01*
X9013Y7391D01*
X9014Y7393D01*
X9015Y7394D01*
X9015Y7395D01*
X9016Y7395D01*
X9017Y7397D01*
X9019Y7398D01*
X9021Y7399D01*
X9022Y7401D01*
X9024Y7402D01*
X9025Y7402D01*
X9026Y7403D01*
X9026Y7403D01*
X9026D01*
X9024Y7403D01*
X9021Y7404D01*
X9020Y7405D01*
X9018Y7405D01*
X9016Y7406D01*
X9014Y7407D01*
X9013Y7407D01*
X9011Y7408D01*
X9010Y7409D01*
X9009Y7410D01*
X9009Y7410D01*
X9008Y7411D01*
X9007Y7411D01*
X9007Y7412D01*
X9007Y7412D01*
X9007Y7412D01*
X9006Y7413D01*
X9005Y7415D01*
X9003Y7418D01*
X9002Y7421D01*
X9001Y7424D01*
X9000Y7426D01*
X9000Y7427D01*
Y7428D01*
X9000Y7429D01*
Y7430D01*
Y7430D01*
Y7430D01*
X9000Y7433D01*
X9001Y7436D01*
X9002Y7439D01*
X9002Y7441D01*
X9003Y7443D01*
X9004Y7444D01*
X9004Y7445D01*
X9004Y7445D01*
X9005Y7445D01*
Y7445D01*
X9006Y7448D01*
X9008Y7450D01*
X9010Y7451D01*
X9012Y7453D01*
X9013Y7454D01*
X9015Y7454D01*
X9016Y7455D01*
X9016Y7455D01*
X9016D01*
X9017Y7455D01*
X9019Y7456D01*
X9022Y7456D01*
X9026Y7457D01*
X9030Y7457D01*
X9032D01*
X9033Y7457D01*
X9035D01*
X9036Y7458D01*
X9080D01*
Y7360D01*
D02*
G37*
G36*
X8253Y7218D02*
X8258Y7217D01*
X8262Y7217D01*
X8266Y7216D01*
X8269Y7216D01*
X8272Y7215D01*
X8275Y7214D01*
X8278Y7213D01*
X8280Y7212D01*
X8281Y7211D01*
X8283Y7211D01*
X8284Y7210D01*
X8285Y7209D01*
X8286Y7209D01*
X8286Y7208D01*
X8287Y7208D01*
X8289Y7206D01*
X8290Y7204D01*
X8292Y7203D01*
X8293Y7201D01*
X8294Y7198D01*
X8295Y7196D01*
X8296Y7194D01*
X8297Y7193D01*
X8297Y7191D01*
X8298Y7189D01*
X8298Y7188D01*
X8298Y7186D01*
Y7185D01*
X8298Y7185D01*
Y7184D01*
Y7184D01*
X8298Y7181D01*
X8298Y7179D01*
X8297Y7177D01*
X8297Y7175D01*
X8296Y7173D01*
X8295Y7171D01*
X8294Y7169D01*
X8294Y7168D01*
X8293Y7166D01*
X8292Y7165D01*
X8291Y7164D01*
X8290Y7163D01*
X8290Y7162D01*
X8289Y7162D01*
X8289Y7162D01*
X8289Y7161D01*
X8287Y7160D01*
X8285Y7159D01*
X8283Y7157D01*
X8281Y7156D01*
X8279Y7156D01*
X8277Y7155D01*
X8273Y7154D01*
X8272Y7153D01*
X8270Y7153D01*
X8269Y7153D01*
X8267Y7153D01*
X8266Y7153D01*
X8265D01*
X8262Y7153D01*
X8260Y7153D01*
X8257Y7153D01*
X8255Y7154D01*
X8253Y7155D01*
X8251Y7155D01*
X8249Y7156D01*
X8248Y7157D01*
X8247Y7158D01*
X8245Y7158D01*
X8244Y7159D01*
X8243Y7160D01*
X8243Y7160D01*
X8242Y7161D01*
X8242Y7161D01*
X8242Y7161D01*
X8240Y7163D01*
X8239Y7164D01*
X8238Y7166D01*
X8237Y7168D01*
X8236Y7169D01*
X8235Y7171D01*
X8234Y7174D01*
X8233Y7177D01*
X8233Y7178D01*
X8233Y7179D01*
X8233Y7180D01*
Y7180D01*
Y7181D01*
Y7181D01*
X8233Y7183D01*
X8233Y7185D01*
X8234Y7186D01*
X8234Y7188D01*
X8235Y7191D01*
X8237Y7194D01*
X8238Y7196D01*
X8239Y7196D01*
X8240Y7197D01*
X8240Y7198D01*
X8241Y7198D01*
X8241Y7198D01*
X8241Y7198D01*
X8238Y7198D01*
X8235Y7198D01*
X8233Y7198D01*
X8230Y7197D01*
X8228Y7197D01*
X8227Y7196D01*
X8225Y7196D01*
X8224Y7195D01*
X8222Y7195D01*
X8221Y7195D01*
X8221Y7194D01*
X8220Y7194D01*
X8219Y7194D01*
X8219Y7193D01*
X8219Y7193D01*
X8217Y7192D01*
X8216Y7190D01*
X8215Y7188D01*
X8214Y7187D01*
X8214Y7185D01*
X8214Y7184D01*
X8214Y7184D01*
Y7183D01*
X8214Y7182D01*
X8214Y7180D01*
X8215Y7179D01*
X8215Y7178D01*
X8215Y7177D01*
X8216Y7177D01*
X8216Y7176D01*
X8216Y7176D01*
X8217Y7175D01*
X8219Y7174D01*
X8220Y7174D01*
X8221Y7173D01*
X8223Y7173D01*
X8224Y7173D01*
X8224Y7173D01*
X8225D01*
X8222Y7155D01*
X8220Y7155D01*
X8218Y7156D01*
X8216Y7156D01*
X8215Y7157D01*
X8213Y7158D01*
X8211Y7158D01*
X8210Y7159D01*
X8209Y7160D01*
X8208Y7161D01*
X8207Y7161D01*
X8206Y7162D01*
X8205Y7163D01*
X8205Y7163D01*
X8205Y7163D01*
X8204Y7164D01*
X8204Y7164D01*
X8203Y7165D01*
X8202Y7167D01*
X8201Y7170D01*
X8200Y7173D01*
X8199Y7176D01*
X8198Y7178D01*
X8198Y7179D01*
Y7180D01*
X8198Y7181D01*
Y7182D01*
Y7182D01*
Y7182D01*
X8198Y7185D01*
X8199Y7188D01*
X8199Y7190D01*
X8200Y7193D01*
X8201Y7195D01*
X8202Y7197D01*
X8203Y7199D01*
X8204Y7201D01*
X8205Y7203D01*
X8206Y7204D01*
X8207Y7205D01*
X8208Y7206D01*
X8209Y7207D01*
X8209Y7207D01*
X8210Y7208D01*
X8210Y7208D01*
X8212Y7210D01*
X8215Y7211D01*
X8218Y7213D01*
X8221Y7214D01*
X8224Y7215D01*
X8227Y7215D01*
X8231Y7216D01*
X8234Y7217D01*
X8237Y7217D01*
X8239Y7217D01*
X8242Y7218D01*
X8244Y7218D01*
X8246Y7218D01*
X8249D01*
X8253Y7218D01*
D02*
G37*
G36*
X8986Y7439D02*
X8943D01*
X8948Y7433D01*
X8952Y7426D01*
X8954Y7423D01*
X8956Y7420D01*
X8957Y7417D01*
X8959Y7414D01*
X8960Y7411D01*
X8961Y7409D01*
X8962Y7407D01*
X8963Y7405D01*
X8964Y7403D01*
X8964Y7402D01*
X8964Y7401D01*
X8964Y7401D01*
X8966Y7397D01*
X8967Y7393D01*
X8968Y7390D01*
X8969Y7386D01*
X8970Y7382D01*
X8970Y7379D01*
X8971Y7376D01*
X8971Y7373D01*
X8972Y7370D01*
X8972Y7367D01*
X8972Y7365D01*
X8973Y7364D01*
Y7362D01*
X8973Y7361D01*
Y7360D01*
Y7360D01*
X8955D01*
X8955Y7365D01*
X8954Y7370D01*
X8953Y7375D01*
X8953Y7377D01*
X8953Y7379D01*
X8952Y7381D01*
X8952Y7383D01*
X8952Y7385D01*
X8951Y7386D01*
X8951Y7388D01*
X8951Y7388D01*
X8951Y7389D01*
Y7389D01*
X8949Y7395D01*
X8947Y7401D01*
X8946Y7404D01*
X8945Y7406D01*
X8944Y7409D01*
X8943Y7411D01*
X8942Y7413D01*
X8941Y7415D01*
X8940Y7416D01*
X8939Y7418D01*
X8939Y7419D01*
X8938Y7419D01*
X8938Y7420D01*
X8938Y7420D01*
X8936Y7423D01*
X8935Y7425D01*
X8934Y7428D01*
X8932Y7430D01*
X8931Y7432D01*
X8929Y7434D01*
X8928Y7435D01*
X8927Y7437D01*
X8926Y7438D01*
X8925Y7440D01*
X8924Y7440D01*
X8923Y7441D01*
X8923Y7442D01*
X8922Y7442D01*
X8922Y7443D01*
X8922Y7443D01*
Y7456D01*
X8986D01*
Y7439D01*
D02*
G37*
G36*
X8168Y7915D02*
X8153Y7913D01*
X8152Y7915D01*
X8151Y7916D01*
X8149Y7917D01*
X8148Y7918D01*
X8146Y7919D01*
X8143Y7920D01*
X8142Y7920D01*
X8140Y7920D01*
X8140Y7920D01*
X8139D01*
X8136Y7920D01*
X8134Y7920D01*
X8132Y7919D01*
X8131Y7918D01*
X8130Y7917D01*
X8129Y7917D01*
X8128Y7916D01*
X8128Y7916D01*
X8127Y7914D01*
X8126Y7912D01*
X8125Y7910D01*
X8125Y7907D01*
X8124Y7905D01*
X8124Y7904D01*
Y7903D01*
Y7903D01*
Y7902D01*
Y7902D01*
X8124Y7899D01*
X8125Y7896D01*
X8125Y7894D01*
X8126Y7892D01*
X8127Y7890D01*
X8127Y7889D01*
X8128Y7888D01*
X8128Y7888D01*
X8130Y7886D01*
X8131Y7885D01*
X8133Y7884D01*
X8135Y7884D01*
X8136Y7883D01*
X8137Y7883D01*
X8138Y7883D01*
X8138D01*
X8140Y7883D01*
X8142Y7884D01*
X8143Y7884D01*
X8145Y7885D01*
X8146Y7886D01*
X8147Y7886D01*
X8147Y7887D01*
X8147Y7887D01*
X8149Y7888D01*
X8150Y7890D01*
X8151Y7892D01*
X8151Y7893D01*
X8152Y7895D01*
X8152Y7896D01*
X8152Y7897D01*
Y7897D01*
X8171Y7895D01*
X8170Y7893D01*
X8170Y7890D01*
X8168Y7887D01*
X8167Y7883D01*
X8166Y7882D01*
X8165Y7880D01*
X8164Y7879D01*
X8163Y7878D01*
X8163Y7877D01*
X8162Y7877D01*
X8161Y7876D01*
X8161Y7876D01*
X8161Y7875D01*
X8161Y7875D01*
X8159Y7874D01*
X8157Y7873D01*
X8155Y7872D01*
X8153Y7871D01*
X8150Y7870D01*
X8146Y7869D01*
X8145Y7869D01*
X8143Y7869D01*
X8142Y7868D01*
X8141Y7868D01*
X8140Y7868D01*
X8138D01*
X8135Y7868D01*
X8132Y7869D01*
X8130Y7869D01*
X8127Y7870D01*
X8125Y7871D01*
X8123Y7872D01*
X8121Y7873D01*
X8119Y7875D01*
X8117Y7876D01*
X8116Y7877D01*
X8115Y7878D01*
X8114Y7879D01*
X8113Y7880D01*
X8112Y7880D01*
X8112Y7881D01*
X8112Y7881D01*
X8111Y7883D01*
X8110Y7885D01*
X8109Y7886D01*
X8108Y7888D01*
X8107Y7892D01*
X8106Y7896D01*
X8105Y7897D01*
X8105Y7898D01*
X8105Y7900D01*
Y7901D01*
X8105Y7902D01*
Y7902D01*
Y7903D01*
Y7903D01*
X8105Y7905D01*
X8105Y7908D01*
X8106Y7910D01*
X8106Y7913D01*
X8107Y7915D01*
X8108Y7917D01*
X8108Y7918D01*
X8109Y7920D01*
X8110Y7921D01*
X8111Y7923D01*
X8112Y7924D01*
X8112Y7925D01*
X8113Y7925D01*
X8113Y7926D01*
X8113Y7926D01*
X8114Y7926D01*
X8115Y7928D01*
X8117Y7929D01*
X8119Y7930D01*
X8121Y7932D01*
X8122Y7932D01*
X8124Y7933D01*
X8127Y7934D01*
X8129Y7935D01*
X8130Y7935D01*
X8132Y7935D01*
X8133Y7935D01*
X8133Y7935D01*
X8135D01*
X8137Y7935D01*
X8140Y7935D01*
X8142Y7934D01*
X8144Y7934D01*
X8145Y7933D01*
X8146Y7933D01*
X8147Y7932D01*
X8147Y7932D01*
X8148D01*
X8145Y7949D01*
X8109D01*
Y7966D01*
X8159D01*
X8168Y7915D01*
D02*
G37*
G36*
X5627Y7894D02*
Y7892D01*
X5627Y7890D01*
X5628Y7888D01*
X5628Y7887D01*
X5628Y7885D01*
X5628Y7884D01*
X5628Y7883D01*
X5629Y7882D01*
X5629Y7880D01*
X5630Y7879D01*
X5630Y7879D01*
X5630Y7879D01*
X5631Y7877D01*
X5633Y7876D01*
X5634Y7876D01*
X5636Y7875D01*
X5637Y7875D01*
X5638Y7875D01*
X5639D01*
X5642Y7875D01*
X5643Y7876D01*
X5645Y7877D01*
X5646Y7878D01*
X5648Y7878D01*
X5648Y7879D01*
X5649Y7880D01*
X5649Y7880D01*
X5650Y7882D01*
X5650Y7883D01*
X5651Y7885D01*
X5651Y7887D01*
X5651Y7889D01*
Y7891D01*
X5651Y7891D01*
Y7892D01*
Y7892D01*
Y7892D01*
X5670Y7890D01*
X5670Y7887D01*
X5670Y7884D01*
X5669Y7882D01*
X5669Y7880D01*
X5668Y7877D01*
X5668Y7876D01*
X5667Y7874D01*
X5666Y7872D01*
X5665Y7871D01*
X5665Y7870D01*
X5664Y7869D01*
X5664Y7868D01*
X5663Y7867D01*
X5663Y7867D01*
X5662Y7866D01*
X5662Y7866D01*
X5661Y7865D01*
X5659Y7864D01*
X5657Y7863D01*
X5655Y7862D01*
X5654Y7861D01*
X5652Y7860D01*
X5648Y7859D01*
X5646Y7859D01*
X5645Y7859D01*
X5644Y7858D01*
X5642Y7858D01*
X5641Y7858D01*
X5640D01*
X5636Y7858D01*
X5632Y7859D01*
X5628Y7860D01*
X5627Y7860D01*
X5625Y7861D01*
X5624Y7861D01*
X5623Y7862D01*
X5622Y7862D01*
X5622Y7862D01*
X5621Y7863D01*
X5621Y7863D01*
X5620Y7863D01*
X5620D01*
X5618Y7865D01*
X5615Y7868D01*
X5614Y7870D01*
X5612Y7872D01*
X5611Y7874D01*
X5610Y7876D01*
X5610Y7876D01*
X5610Y7876D01*
X5610Y7877D01*
Y7877D01*
X5609Y7880D01*
X5609Y7883D01*
X5608Y7886D01*
X5608Y7889D01*
X5608Y7891D01*
X5608Y7893D01*
Y7894D01*
Y7895D01*
Y7895D01*
Y7896D01*
Y7896D01*
Y7958D01*
X5627D01*
Y7894D01*
D02*
G37*
G36*
X6975Y7825D02*
X6977Y7822D01*
X6978Y7819D01*
X6980Y7817D01*
X6982Y7815D01*
X6984Y7814D01*
X6984Y7813D01*
X6985Y7813D01*
X6985Y7812D01*
X6985Y7812D01*
X6988Y7810D01*
X6991Y7808D01*
X6994Y7807D01*
X6996Y7805D01*
X6998Y7805D01*
X7000Y7804D01*
X7000Y7804D01*
X7001Y7804D01*
X7001Y7803D01*
X7001D01*
Y7787D01*
X6996Y7789D01*
X6991Y7791D01*
X6989Y7792D01*
X6987Y7793D01*
X6985Y7794D01*
X6984Y7795D01*
X6982Y7796D01*
X6981Y7797D01*
X6980Y7798D01*
X6979Y7799D01*
X6978Y7800D01*
X6977Y7800D01*
X6977Y7800D01*
X6977Y7801D01*
Y7730D01*
X6958D01*
Y7828D01*
X6973D01*
X6975Y7825D01*
D02*
G37*
G36*
X7100Y7730D02*
X7080D01*
Y7771D01*
X7074D01*
X7072Y7771D01*
X7070Y7770D01*
X7069Y7770D01*
X7068Y7770D01*
X7067Y7770D01*
X7067Y7770D01*
X7066D01*
X7065Y7769D01*
X7064Y7768D01*
X7063Y7768D01*
X7062Y7767D01*
X7062Y7767D01*
X7061Y7766D01*
X7061Y7766D01*
X7061Y7766D01*
X7060Y7765D01*
X7059Y7764D01*
X7058Y7762D01*
X7056Y7760D01*
X7054Y7757D01*
X7053Y7755D01*
X7052Y7754D01*
X7051Y7753D01*
X7051Y7752D01*
X7050Y7752D01*
X7050Y7751D01*
X7050Y7751D01*
X7036Y7730D01*
X7012D01*
X7024Y7749D01*
X7026Y7751D01*
X7027Y7753D01*
X7028Y7755D01*
X7029Y7756D01*
X7030Y7758D01*
X7031Y7759D01*
X7033Y7761D01*
X7034Y7763D01*
X7035Y7764D01*
X7035Y7765D01*
X7036Y7765D01*
X7037Y7767D01*
X7039Y7768D01*
X7041Y7769D01*
X7042Y7771D01*
X7044Y7772D01*
X7045Y7772D01*
X7046Y7773D01*
X7046Y7773D01*
X7046D01*
X7044Y7773D01*
X7041Y7774D01*
X7040Y7775D01*
X7038Y7775D01*
X7036Y7776D01*
X7034Y7777D01*
X7033Y7777D01*
X7031Y7778D01*
X7030Y7779D01*
X7029Y7780D01*
X7029Y7780D01*
X7028Y7781D01*
X7027Y7781D01*
X7027Y7782D01*
X7027Y7782D01*
X7027Y7782D01*
X7026Y7783D01*
X7025Y7785D01*
X7023Y7788D01*
X7022Y7791D01*
X7021Y7794D01*
X7020Y7796D01*
X7020Y7797D01*
Y7798D01*
X7020Y7799D01*
Y7800D01*
Y7800D01*
Y7800D01*
X7020Y7803D01*
X7021Y7806D01*
X7022Y7809D01*
X7022Y7811D01*
X7023Y7813D01*
X7024Y7814D01*
X7024Y7815D01*
X7024Y7815D01*
X7025Y7815D01*
Y7815D01*
X7026Y7818D01*
X7028Y7820D01*
X7030Y7821D01*
X7032Y7823D01*
X7033Y7824D01*
X7035Y7824D01*
X7036Y7825D01*
X7036Y7825D01*
X7036D01*
X7037Y7825D01*
X7039Y7826D01*
X7042Y7826D01*
X7046Y7827D01*
X7050Y7827D01*
X7052D01*
X7053Y7827D01*
X7055D01*
X7056Y7828D01*
X7100D01*
Y7730D01*
D02*
G37*
G36*
X5560Y7955D02*
X5561Y7952D01*
X5563Y7949D01*
X5565Y7947D01*
X5567Y7945D01*
X5569Y7944D01*
X5569Y7943D01*
X5570Y7943D01*
X5570Y7942D01*
X5570Y7942D01*
X5573Y7940D01*
X5576Y7938D01*
X5579Y7937D01*
X5581Y7935D01*
X5583Y7935D01*
X5585Y7934D01*
X5585Y7934D01*
X5586Y7934D01*
X5586Y7933D01*
X5586D01*
Y7917D01*
X5581Y7919D01*
X5576Y7921D01*
X5574Y7922D01*
X5572Y7923D01*
X5570Y7924D01*
X5569Y7925D01*
X5567Y7926D01*
X5566Y7927D01*
X5565Y7928D01*
X5564Y7929D01*
X5563Y7930D01*
X5562Y7930D01*
X5562Y7930D01*
X5562Y7931D01*
Y7860D01*
X5543D01*
Y7958D01*
X5558D01*
X5560Y7955D01*
D02*
G37*
G36*
X7388Y7484D02*
X7392Y7484D01*
X7395Y7483D01*
X7398Y7482D01*
X7401Y7481D01*
X7404Y7480D01*
X7406Y7479D01*
X7409Y7478D01*
X7411Y7476D01*
X7412Y7475D01*
X7414Y7474D01*
X7415Y7473D01*
X7416Y7472D01*
X7417Y7471D01*
X7417Y7471D01*
X7417Y7471D01*
X7420Y7468D01*
X7422Y7465D01*
X7423Y7462D01*
X7425Y7459D01*
X7426Y7456D01*
X7427Y7453D01*
X7428Y7450D01*
X7428Y7447D01*
X7429Y7444D01*
X7429Y7441D01*
X7430Y7439D01*
X7430Y7437D01*
Y7435D01*
X7430Y7434D01*
Y7433D01*
Y7433D01*
Y7433D01*
X7430Y7429D01*
X7429Y7425D01*
X7429Y7421D01*
X7428Y7418D01*
X7427Y7414D01*
X7426Y7411D01*
X7425Y7409D01*
X7424Y7406D01*
X7423Y7404D01*
X7422Y7402D01*
X7420Y7400D01*
X7420Y7399D01*
X7419Y7398D01*
X7418Y7397D01*
X7418Y7397D01*
X7418Y7397D01*
X7415Y7394D01*
X7413Y7392D01*
X7410Y7390D01*
X7407Y7389D01*
X7405Y7388D01*
X7402Y7387D01*
X7399Y7386D01*
X7397Y7385D01*
X7395Y7384D01*
X7392Y7384D01*
X7391Y7384D01*
X7389Y7384D01*
X7388Y7383D01*
X7387Y7383D01*
X7386D01*
X7383Y7383D01*
X7380Y7384D01*
X7377Y7384D01*
X7375Y7385D01*
X7373Y7385D01*
X7371Y7386D01*
X7369Y7386D01*
X7367Y7387D01*
X7365Y7388D01*
X7364Y7389D01*
X7363Y7389D01*
X7362Y7390D01*
X7361Y7390D01*
X7360Y7391D01*
X7360Y7391D01*
X7360Y7391D01*
X7358Y7393D01*
X7356Y7394D01*
X7353Y7398D01*
X7351Y7402D01*
X7349Y7406D01*
X7348Y7408D01*
X7347Y7409D01*
X7347Y7411D01*
X7346Y7412D01*
X7346Y7413D01*
X7345Y7414D01*
X7345Y7415D01*
Y7415D01*
X7364Y7421D01*
X7365Y7417D01*
X7367Y7414D01*
X7368Y7411D01*
X7369Y7409D01*
X7371Y7407D01*
X7371Y7406D01*
X7372Y7405D01*
X7372Y7405D01*
X7375Y7403D01*
X7377Y7402D01*
X7379Y7401D01*
X7381Y7401D01*
X7383Y7400D01*
X7385Y7400D01*
X7385Y7400D01*
X7386D01*
X7388Y7400D01*
X7390Y7400D01*
X7393Y7401D01*
X7396Y7402D01*
X7398Y7404D01*
X7400Y7405D01*
X7402Y7407D01*
X7402Y7407D01*
X7403Y7408D01*
X7403Y7408D01*
X7403Y7408D01*
X7404Y7409D01*
X7405Y7411D01*
X7406Y7413D01*
X7407Y7415D01*
X7408Y7420D01*
X7409Y7424D01*
X7409Y7426D01*
X7409Y7428D01*
X7410Y7430D01*
Y7431D01*
X7410Y7433D01*
Y7433D01*
Y7434D01*
Y7434D01*
X7410Y7438D01*
X7409Y7441D01*
X7409Y7443D01*
X7409Y7446D01*
X7408Y7448D01*
X7408Y7450D01*
X7407Y7452D01*
X7406Y7454D01*
X7406Y7455D01*
X7405Y7456D01*
X7405Y7457D01*
X7404Y7458D01*
X7404Y7459D01*
X7403Y7459D01*
X7403Y7460D01*
Y7460D01*
X7402Y7461D01*
X7400Y7462D01*
X7399Y7463D01*
X7397Y7464D01*
X7394Y7466D01*
X7392Y7467D01*
X7389Y7467D01*
X7388Y7467D01*
X7387Y7467D01*
X7386Y7468D01*
X7385D01*
X7383Y7467D01*
X7380Y7467D01*
X7378Y7466D01*
X7376Y7465D01*
X7374Y7465D01*
X7373Y7464D01*
X7372Y7463D01*
X7372Y7463D01*
X7370Y7461D01*
X7369Y7459D01*
X7367Y7457D01*
X7366Y7455D01*
X7366Y7454D01*
X7365Y7453D01*
X7365Y7452D01*
Y7452D01*
X7365Y7451D01*
Y7451D01*
X7345Y7456D01*
X7347Y7460D01*
X7348Y7464D01*
X7350Y7467D01*
X7352Y7469D01*
X7353Y7471D01*
X7354Y7472D01*
X7354Y7473D01*
X7355Y7473D01*
X7355Y7474D01*
X7355Y7474D01*
X7355D01*
X7358Y7476D01*
X7360Y7477D01*
X7362Y7479D01*
X7365Y7480D01*
X7367Y7481D01*
X7370Y7482D01*
X7372Y7483D01*
X7374Y7483D01*
X7376Y7484D01*
X7378Y7484D01*
X7380Y7484D01*
X7382Y7484D01*
X7383Y7484D01*
X7384D01*
X7388Y7484D01*
D02*
G37*
G36*
X7300Y7483D02*
X7302Y7483D01*
X7305Y7482D01*
X7307Y7481D01*
X7310Y7480D01*
X7312Y7479D01*
X7314Y7478D01*
X7316Y7477D01*
X7317Y7476D01*
X7318Y7475D01*
X7320Y7474D01*
X7321Y7473D01*
X7321Y7472D01*
X7322Y7472D01*
X7322Y7471D01*
X7322Y7471D01*
X7324Y7469D01*
X7326Y7466D01*
X7327Y7463D01*
X7328Y7460D01*
X7329Y7457D01*
X7330Y7454D01*
X7331Y7450D01*
X7331Y7447D01*
X7331Y7444D01*
X7332Y7442D01*
X7332Y7439D01*
X7332Y7437D01*
X7332Y7435D01*
Y7433D01*
Y7433D01*
Y7433D01*
Y7433D01*
Y7432D01*
X7332Y7428D01*
X7332Y7423D01*
X7331Y7419D01*
X7331Y7415D01*
X7330Y7412D01*
X7329Y7409D01*
X7328Y7406D01*
X7328Y7404D01*
X7327Y7401D01*
X7326Y7400D01*
X7325Y7398D01*
X7324Y7397D01*
X7324Y7396D01*
X7323Y7395D01*
X7323Y7395D01*
X7323Y7395D01*
X7321Y7393D01*
X7319Y7391D01*
X7317Y7389D01*
X7315Y7388D01*
X7313Y7387D01*
X7311Y7386D01*
X7309Y7385D01*
X7307Y7385D01*
X7305Y7384D01*
X7304Y7384D01*
X7302Y7384D01*
X7301Y7383D01*
X7300D01*
X7299Y7383D01*
X7298D01*
X7296Y7383D01*
X7294Y7384D01*
X7291Y7384D01*
X7289Y7385D01*
X7287Y7385D01*
X7285Y7386D01*
X7284Y7387D01*
X7282Y7388D01*
X7281Y7389D01*
X7279Y7389D01*
X7278Y7390D01*
X7277Y7391D01*
X7277Y7391D01*
X7276Y7392D01*
X7276Y7392D01*
X7276Y7392D01*
X7274Y7394D01*
X7273Y7396D01*
X7272Y7398D01*
X7271Y7400D01*
X7270Y7402D01*
X7269Y7404D01*
X7268Y7408D01*
X7268Y7409D01*
X7267Y7411D01*
X7267Y7412D01*
X7267Y7414D01*
X7267Y7415D01*
Y7416D01*
Y7416D01*
Y7416D01*
X7267Y7419D01*
X7267Y7421D01*
X7268Y7424D01*
X7268Y7426D01*
X7269Y7428D01*
X7270Y7430D01*
X7270Y7432D01*
X7271Y7433D01*
X7272Y7435D01*
X7273Y7436D01*
X7274Y7437D01*
X7274Y7438D01*
X7275Y7439D01*
X7275Y7439D01*
X7275Y7439D01*
X7275Y7439D01*
X7277Y7441D01*
X7279Y7442D01*
X7280Y7444D01*
X7282Y7445D01*
X7284Y7445D01*
X7286Y7446D01*
X7289Y7447D01*
X7290Y7448D01*
X7291Y7448D01*
X7293Y7448D01*
X7294Y7448D01*
X7294Y7448D01*
X7296D01*
X7297Y7448D01*
X7299Y7448D01*
X7301Y7448D01*
X7303Y7447D01*
X7306Y7446D01*
X7308Y7444D01*
X7310Y7443D01*
X7311Y7442D01*
X7312Y7441D01*
X7312Y7441D01*
X7313Y7441D01*
X7313Y7440D01*
X7313Y7440D01*
X7313Y7443D01*
X7312Y7446D01*
X7312Y7448D01*
X7312Y7451D01*
X7311Y7453D01*
X7311Y7454D01*
X7310Y7456D01*
X7310Y7457D01*
X7309Y7459D01*
X7309Y7460D01*
X7309Y7461D01*
X7308Y7461D01*
X7308Y7462D01*
X7308Y7462D01*
X7308Y7462D01*
X7306Y7464D01*
X7305Y7465D01*
X7303Y7466D01*
X7301Y7467D01*
X7300Y7467D01*
X7299Y7467D01*
X7298Y7468D01*
X7298D01*
X7296Y7467D01*
X7295Y7467D01*
X7293Y7467D01*
X7292Y7466D01*
X7292Y7466D01*
X7291Y7465D01*
X7291Y7465D01*
X7290Y7465D01*
X7289Y7464D01*
X7289Y7463D01*
X7288Y7461D01*
X7288Y7460D01*
X7287Y7459D01*
X7287Y7458D01*
X7287Y7457D01*
Y7457D01*
X7269Y7459D01*
X7270Y7463D01*
X7271Y7466D01*
X7273Y7470D01*
X7274Y7472D01*
X7276Y7474D01*
X7276Y7475D01*
X7277Y7476D01*
X7278Y7476D01*
X7278Y7476D01*
X7278Y7477D01*
X7278D01*
X7280Y7478D01*
X7281Y7479D01*
X7284Y7480D01*
X7287Y7482D01*
X7290Y7482D01*
X7293Y7483D01*
X7294Y7483D01*
X7295D01*
X7296Y7483D01*
X7297D01*
X7300Y7483D01*
D02*
G37*
G36*
X6723Y7771D02*
X6728Y7771D01*
X6732Y7771D01*
X6736Y7770D01*
X6739Y7769D01*
X6742Y7768D01*
X6745Y7767D01*
X6748Y7767D01*
X6750Y7766D01*
X6751Y7765D01*
X6753Y7764D01*
X6754Y7763D01*
X6755Y7763D01*
X6756Y7762D01*
X6756Y7762D01*
X6757Y7762D01*
X6759Y7760D01*
X6760Y7758D01*
X6762Y7756D01*
X6763Y7754D01*
X6764Y7752D01*
X6765Y7750D01*
X6766Y7748D01*
X6767Y7746D01*
X6767Y7744D01*
X6768Y7743D01*
X6768Y7741D01*
X6768Y7740D01*
Y7739D01*
X6768Y7738D01*
Y7738D01*
Y7737D01*
X6768Y7735D01*
X6768Y7733D01*
X6767Y7730D01*
X6767Y7728D01*
X6766Y7726D01*
X6765Y7724D01*
X6764Y7723D01*
X6764Y7721D01*
X6763Y7720D01*
X6762Y7719D01*
X6761Y7718D01*
X6760Y7717D01*
X6760Y7716D01*
X6759Y7715D01*
X6759Y7715D01*
X6759Y7715D01*
X6757Y7713D01*
X6755Y7712D01*
X6753Y7711D01*
X6751Y7710D01*
X6749Y7709D01*
X6747Y7708D01*
X6743Y7707D01*
X6742Y7707D01*
X6740Y7707D01*
X6739Y7707D01*
X6737Y7706D01*
X6736Y7706D01*
X6735D01*
X6732Y7706D01*
X6730Y7707D01*
X6727Y7707D01*
X6725Y7708D01*
X6723Y7708D01*
X6721Y7709D01*
X6719Y7710D01*
X6718Y7711D01*
X6717Y7711D01*
X6715Y7712D01*
X6714Y7713D01*
X6713Y7713D01*
X6713Y7714D01*
X6712Y7714D01*
X6712Y7714D01*
X6712Y7715D01*
X6710Y7716D01*
X6709Y7718D01*
X6708Y7720D01*
X6707Y7721D01*
X6706Y7723D01*
X6705Y7724D01*
X6704Y7728D01*
X6703Y7730D01*
X6703Y7731D01*
X6703Y7732D01*
X6703Y7733D01*
Y7734D01*
Y7734D01*
Y7734D01*
X6703Y7736D01*
X6703Y7738D01*
X6704Y7740D01*
X6704Y7742D01*
X6705Y7745D01*
X6707Y7747D01*
X6708Y7749D01*
X6709Y7750D01*
X6710Y7751D01*
X6710Y7751D01*
X6711Y7752D01*
X6711Y7752D01*
X6711Y7752D01*
X6708Y7752D01*
X6705Y7751D01*
X6703Y7751D01*
X6700Y7751D01*
X6698Y7750D01*
X6697Y7750D01*
X6695Y7749D01*
X6694Y7749D01*
X6692Y7748D01*
X6691Y7748D01*
X6691Y7748D01*
X6690Y7747D01*
X6689Y7747D01*
X6689Y7747D01*
X6689Y7747D01*
X6687Y7745D01*
X6686Y7743D01*
X6685Y7742D01*
X6684Y7740D01*
X6684Y7739D01*
X6684Y7738D01*
X6684Y7737D01*
Y7737D01*
X6684Y7735D01*
X6684Y7734D01*
X6685Y7733D01*
X6685Y7732D01*
X6685Y7731D01*
X6686Y7730D01*
X6686Y7730D01*
X6686Y7730D01*
X6687Y7729D01*
X6689Y7728D01*
X6690Y7727D01*
X6691Y7727D01*
X6693Y7727D01*
X6694Y7726D01*
X6694Y7726D01*
X6695D01*
X6692Y7708D01*
X6690Y7709D01*
X6688Y7709D01*
X6686Y7710D01*
X6685Y7711D01*
X6683Y7711D01*
X6681Y7712D01*
X6680Y7713D01*
X6679Y7713D01*
X6678Y7714D01*
X6677Y7715D01*
X6676Y7716D01*
X6675Y7716D01*
X6675Y7717D01*
X6675Y7717D01*
X6674Y7717D01*
X6674Y7717D01*
X6673Y7719D01*
X6672Y7720D01*
X6671Y7723D01*
X6670Y7726D01*
X6669Y7729D01*
X6668Y7732D01*
X6668Y7733D01*
Y7734D01*
X6668Y7735D01*
Y7735D01*
Y7736D01*
Y7736D01*
X6668Y7739D01*
X6669Y7741D01*
X6669Y7744D01*
X6670Y7746D01*
X6671Y7749D01*
X6672Y7751D01*
X6673Y7753D01*
X6674Y7754D01*
X6675Y7756D01*
X6676Y7757D01*
X6677Y7759D01*
X6678Y7760D01*
X6679Y7760D01*
X6679Y7761D01*
X6680Y7761D01*
X6680Y7761D01*
X6682Y7763D01*
X6685Y7765D01*
X6688Y7766D01*
X6691Y7767D01*
X6694Y7768D01*
X6697Y7769D01*
X6701Y7770D01*
X6704Y7770D01*
X6707Y7771D01*
X6709Y7771D01*
X6712Y7771D01*
X6714Y7771D01*
X6716Y7771D01*
X6719D01*
X6723Y7771D01*
D02*
G37*
G36*
X6706Y7676D02*
X6702Y7675D01*
X6699Y7673D01*
X6696Y7672D01*
X6694Y7671D01*
X6692Y7669D01*
X6691Y7669D01*
X6690Y7668D01*
X6690Y7668D01*
X6688Y7665D01*
X6687Y7663D01*
X6686Y7661D01*
X6686Y7659D01*
X6685Y7657D01*
X6685Y7655D01*
X6685Y7655D01*
Y7654D01*
Y7654D01*
Y7654D01*
X6685Y7652D01*
X6685Y7650D01*
X6686Y7647D01*
X6687Y7644D01*
X6689Y7642D01*
X6690Y7640D01*
X6692Y7638D01*
X6692Y7638D01*
X6693Y7637D01*
X6693Y7637D01*
X6693Y7637D01*
X6694Y7636D01*
X6696Y7635D01*
X6698Y7634D01*
X6700Y7633D01*
X6705Y7632D01*
X6709Y7631D01*
X6711Y7631D01*
X6713Y7631D01*
X6715Y7630D01*
X6716D01*
X6718Y7630D01*
X6719D01*
X6723Y7630D01*
X6726Y7631D01*
X6728Y7631D01*
X6731Y7631D01*
X6733Y7632D01*
X6735Y7632D01*
X6737Y7633D01*
X6739Y7634D01*
X6740Y7634D01*
X6741Y7635D01*
X6742Y7635D01*
X6743Y7636D01*
X6744Y7636D01*
X6744Y7637D01*
X6745Y7637D01*
X6745D01*
X6746Y7638D01*
X6747Y7640D01*
X6748Y7641D01*
X6749Y7643D01*
X6751Y7646D01*
X6752Y7648D01*
X6752Y7651D01*
X6752Y7652D01*
X6752Y7653D01*
X6753Y7654D01*
Y7654D01*
Y7654D01*
Y7655D01*
X6752Y7657D01*
X6752Y7660D01*
X6751Y7662D01*
X6750Y7664D01*
X6750Y7666D01*
X6749Y7667D01*
X6748Y7668D01*
X6748Y7668D01*
X6746Y7670D01*
X6744Y7671D01*
X6742Y7673D01*
X6740Y7674D01*
X6739Y7674D01*
X6738Y7675D01*
X6737Y7675D01*
X6737D01*
X6736Y7675D01*
X6736D01*
X6741Y7695D01*
X6745Y7693D01*
X6749Y7692D01*
X6752Y7690D01*
X6754Y7688D01*
X6756Y7687D01*
X6757Y7686D01*
X6758Y7686D01*
X6758Y7685D01*
X6759Y7685D01*
X6759Y7685D01*
Y7685D01*
X6761Y7682D01*
X6762Y7680D01*
X6764Y7678D01*
X6765Y7675D01*
X6766Y7673D01*
X6767Y7670D01*
X6768Y7668D01*
X6768Y7666D01*
X6769Y7664D01*
X6769Y7662D01*
X6769Y7660D01*
X6769Y7658D01*
X6769Y7657D01*
Y7656D01*
Y7656D01*
Y7656D01*
X6769Y7652D01*
X6769Y7648D01*
X6768Y7645D01*
X6767Y7642D01*
X6766Y7639D01*
X6765Y7636D01*
X6764Y7634D01*
X6763Y7631D01*
X6761Y7629D01*
X6760Y7628D01*
X6759Y7626D01*
X6758Y7625D01*
X6757Y7624D01*
X6756Y7623D01*
X6756Y7623D01*
X6756Y7623D01*
X6753Y7620D01*
X6750Y7618D01*
X6747Y7617D01*
X6744Y7615D01*
X6741Y7614D01*
X6738Y7613D01*
X6735Y7612D01*
X6732Y7612D01*
X6729Y7611D01*
X6726Y7611D01*
X6724Y7610D01*
X6722Y7610D01*
X6720D01*
X6719Y7610D01*
X6718D01*
X6714Y7610D01*
X6710Y7611D01*
X6706Y7611D01*
X6703Y7612D01*
X6699Y7613D01*
X6696Y7614D01*
X6694Y7615D01*
X6691Y7616D01*
X6689Y7617D01*
X6687Y7618D01*
X6685Y7620D01*
X6684Y7620D01*
X6683Y7621D01*
X6682Y7622D01*
X6682Y7622D01*
X6682Y7622D01*
X6679Y7625D01*
X6677Y7627D01*
X6675Y7630D01*
X6674Y7633D01*
X6673Y7635D01*
X6672Y7638D01*
X6671Y7641D01*
X6670Y7643D01*
X6669Y7645D01*
X6669Y7647D01*
X6669Y7649D01*
X6669Y7651D01*
X6668Y7652D01*
X6668Y7653D01*
Y7654D01*
Y7654D01*
X6668Y7657D01*
X6669Y7660D01*
X6669Y7663D01*
X6670Y7665D01*
X6670Y7667D01*
X6671Y7669D01*
X6671Y7671D01*
X6672Y7673D01*
X6673Y7675D01*
X6674Y7676D01*
X6674Y7677D01*
X6675Y7678D01*
X6675Y7679D01*
X6676Y7680D01*
X6676Y7680D01*
X6676Y7680D01*
X6678Y7682D01*
X6679Y7684D01*
X6683Y7687D01*
X6687Y7689D01*
X6691Y7691D01*
X6693Y7692D01*
X6694Y7693D01*
X6696Y7693D01*
X6697Y7694D01*
X6698Y7694D01*
X6699Y7695D01*
X6700Y7695D01*
X6700D01*
X6706Y7676D01*
D02*
G37*
G36*
X7657Y7424D02*
X7615D01*
X7620Y7418D01*
X7624Y7411D01*
X7626Y7408D01*
X7627Y7405D01*
X7629Y7402D01*
X7630Y7399D01*
X7632Y7396D01*
X7633Y7394D01*
X7634Y7392D01*
X7634Y7390D01*
X7635Y7388D01*
X7635Y7387D01*
X7636Y7386D01*
X7636Y7386D01*
X7637Y7382D01*
X7639Y7378D01*
X7640Y7375D01*
X7641Y7371D01*
X7641Y7367D01*
X7642Y7364D01*
X7643Y7361D01*
X7643Y7358D01*
X7643Y7355D01*
X7644Y7352D01*
X7644Y7350D01*
X7644Y7349D01*
Y7347D01*
X7644Y7346D01*
Y7345D01*
Y7345D01*
X7626D01*
X7626Y7350D01*
X7626Y7355D01*
X7625Y7360D01*
X7625Y7362D01*
X7624Y7364D01*
X7624Y7366D01*
X7623Y7368D01*
X7623Y7370D01*
X7623Y7371D01*
X7622Y7373D01*
X7622Y7373D01*
X7622Y7374D01*
Y7374D01*
X7620Y7380D01*
X7618Y7386D01*
X7617Y7389D01*
X7616Y7391D01*
X7615Y7394D01*
X7614Y7396D01*
X7613Y7398D01*
X7612Y7400D01*
X7611Y7401D01*
X7611Y7403D01*
X7610Y7404D01*
X7610Y7404D01*
X7610Y7405D01*
X7610Y7405D01*
X7608Y7408D01*
X7606Y7410D01*
X7605Y7413D01*
X7604Y7415D01*
X7602Y7417D01*
X7601Y7419D01*
X7600Y7420D01*
X7598Y7422D01*
X7597Y7423D01*
X7596Y7425D01*
X7595Y7425D01*
X7595Y7426D01*
X7594Y7427D01*
X7594Y7427D01*
X7593Y7428D01*
X7593Y7428D01*
Y7441D01*
X7657D01*
Y7424D01*
D02*
G37*
G36*
X7713Y7444D02*
X7717Y7444D01*
X7720Y7443D01*
X7723Y7442D01*
X7726Y7441D01*
X7729Y7440D01*
X7731Y7439D01*
X7734Y7438D01*
X7736Y7436D01*
X7737Y7435D01*
X7739Y7434D01*
X7740Y7433D01*
X7741Y7432D01*
X7742Y7431D01*
X7742Y7431D01*
X7742Y7431D01*
X7745Y7428D01*
X7747Y7425D01*
X7748Y7422D01*
X7750Y7419D01*
X7751Y7416D01*
X7752Y7413D01*
X7753Y7410D01*
X7753Y7407D01*
X7754Y7404D01*
X7754Y7401D01*
X7755Y7399D01*
X7755Y7397D01*
Y7395D01*
X7755Y7394D01*
Y7393D01*
Y7393D01*
Y7393D01*
X7755Y7389D01*
X7754Y7385D01*
X7754Y7381D01*
X7753Y7378D01*
X7752Y7374D01*
X7751Y7371D01*
X7750Y7369D01*
X7749Y7366D01*
X7748Y7364D01*
X7747Y7362D01*
X7745Y7360D01*
X7745Y7359D01*
X7744Y7358D01*
X7743Y7357D01*
X7743Y7357D01*
X7743Y7357D01*
X7740Y7354D01*
X7738Y7352D01*
X7735Y7350D01*
X7732Y7349D01*
X7730Y7348D01*
X7727Y7347D01*
X7724Y7346D01*
X7722Y7345D01*
X7720Y7344D01*
X7717Y7344D01*
X7716Y7344D01*
X7714Y7344D01*
X7713Y7343D01*
X7712Y7343D01*
X7711D01*
X7708Y7343D01*
X7705Y7344D01*
X7702Y7344D01*
X7700Y7345D01*
X7698Y7345D01*
X7696Y7346D01*
X7694Y7346D01*
X7692Y7347D01*
X7690Y7348D01*
X7689Y7349D01*
X7688Y7349D01*
X7687Y7350D01*
X7686Y7350D01*
X7685Y7351D01*
X7685Y7351D01*
X7685Y7351D01*
X7683Y7353D01*
X7681Y7354D01*
X7678Y7358D01*
X7676Y7362D01*
X7674Y7366D01*
X7673Y7368D01*
X7672Y7369D01*
X7672Y7371D01*
X7671Y7372D01*
X7671Y7373D01*
X7670Y7374D01*
X7670Y7375D01*
Y7375D01*
X7689Y7381D01*
X7690Y7377D01*
X7692Y7374D01*
X7693Y7371D01*
X7694Y7369D01*
X7696Y7367D01*
X7696Y7366D01*
X7697Y7365D01*
X7697Y7365D01*
X7700Y7363D01*
X7702Y7362D01*
X7704Y7361D01*
X7706Y7361D01*
X7708Y7360D01*
X7710Y7360D01*
X7710Y7360D01*
X7711D01*
X7713Y7360D01*
X7715Y7360D01*
X7718Y7361D01*
X7721Y7362D01*
X7723Y7364D01*
X7725Y7365D01*
X7727Y7367D01*
X7727Y7367D01*
X7728Y7368D01*
X7728Y7368D01*
X7728Y7368D01*
X7729Y7369D01*
X7730Y7371D01*
X7731Y7373D01*
X7732Y7375D01*
X7733Y7380D01*
X7734Y7384D01*
X7734Y7386D01*
X7734Y7388D01*
X7735Y7390D01*
Y7391D01*
X7735Y7393D01*
Y7393D01*
Y7394D01*
Y7394D01*
X7735Y7398D01*
X7734Y7401D01*
X7734Y7403D01*
X7734Y7406D01*
X7733Y7408D01*
X7733Y7410D01*
X7732Y7412D01*
X7731Y7414D01*
X7731Y7415D01*
X7730Y7416D01*
X7730Y7417D01*
X7729Y7418D01*
X7729Y7419D01*
X7728Y7419D01*
X7728Y7420D01*
Y7420D01*
X7727Y7421D01*
X7725Y7422D01*
X7724Y7423D01*
X7722Y7424D01*
X7719Y7426D01*
X7717Y7427D01*
X7714Y7427D01*
X7713Y7427D01*
X7712Y7427D01*
X7711Y7428D01*
X7710D01*
X7708Y7427D01*
X7705Y7427D01*
X7703Y7426D01*
X7701Y7425D01*
X7699Y7425D01*
X7698Y7424D01*
X7697Y7423D01*
X7697Y7423D01*
X7695Y7421D01*
X7694Y7419D01*
X7692Y7417D01*
X7691Y7415D01*
X7691Y7414D01*
X7690Y7413D01*
X7690Y7412D01*
Y7412D01*
X7690Y7411D01*
Y7411D01*
X7670Y7416D01*
X7672Y7420D01*
X7673Y7424D01*
X7675Y7427D01*
X7677Y7429D01*
X7678Y7431D01*
X7679Y7432D01*
X7679Y7433D01*
X7680Y7433D01*
X7680Y7434D01*
X7680Y7434D01*
X7680D01*
X7683Y7436D01*
X7685Y7437D01*
X7687Y7439D01*
X7690Y7440D01*
X7692Y7441D01*
X7695Y7442D01*
X7697Y7443D01*
X7699Y7443D01*
X7701Y7444D01*
X7703Y7444D01*
X7705Y7444D01*
X7707Y7444D01*
X7708Y7444D01*
X7709D01*
X7713Y7444D01*
D02*
G37*
G36*
X8103Y6818D02*
X8106Y6818D01*
X8108Y6817D01*
X8110Y6817D01*
X8112Y6816D01*
X8114Y6816D01*
X8116Y6815D01*
X8117Y6815D01*
X8118Y6814D01*
X8119Y6813D01*
X8120Y6813D01*
X8121Y6812D01*
X8122Y6812D01*
X8122Y6811D01*
X8122Y6811D01*
X8123Y6811D01*
X8124Y6810D01*
X8125Y6808D01*
X8126Y6807D01*
X8127Y6805D01*
X8128Y6802D01*
X8129Y6799D01*
X8130Y6797D01*
X8130Y6796D01*
X8130Y6795D01*
X8130Y6794D01*
Y6793D01*
Y6793D01*
Y6793D01*
X8130Y6790D01*
X8130Y6788D01*
X8129Y6786D01*
X8129Y6785D01*
X8128Y6783D01*
X8128Y6782D01*
X8127Y6781D01*
X8127Y6781D01*
X8126Y6779D01*
X8124Y6778D01*
X8122Y6776D01*
X8120Y6775D01*
X8119Y6774D01*
X8118Y6773D01*
X8117Y6773D01*
X8117Y6773D01*
X8116D01*
X8119Y6771D01*
X8122Y6770D01*
X8124Y6768D01*
X8126Y6766D01*
X8127Y6765D01*
X8128Y6764D01*
X8129Y6763D01*
X8129Y6763D01*
Y6762D01*
X8130Y6760D01*
X8131Y6757D01*
X8132Y6755D01*
X8132Y6753D01*
X8132Y6751D01*
X8133Y6749D01*
Y6749D01*
Y6748D01*
Y6748D01*
Y6748D01*
X8132Y6745D01*
X8132Y6743D01*
X8132Y6740D01*
X8131Y6738D01*
X8130Y6736D01*
X8129Y6734D01*
X8128Y6733D01*
X8127Y6731D01*
X8126Y6730D01*
X8125Y6728D01*
X8125Y6727D01*
X8124Y6727D01*
X8123Y6726D01*
X8123Y6725D01*
X8122Y6725D01*
X8122Y6725D01*
X8120Y6724D01*
X8119Y6723D01*
X8117Y6722D01*
X8115Y6721D01*
X8111Y6720D01*
X8108Y6719D01*
X8106Y6719D01*
X8105Y6719D01*
X8103Y6718D01*
X8102Y6718D01*
X8101Y6718D01*
X8100D01*
X8097Y6718D01*
X8095Y6719D01*
X8093Y6719D01*
X8090Y6719D01*
X8088Y6720D01*
X8086Y6721D01*
X8085Y6722D01*
X8083Y6722D01*
X8082Y6723D01*
X8081Y6724D01*
X8079Y6725D01*
X8079Y6725D01*
X8078Y6726D01*
X8077Y6726D01*
X8077Y6726D01*
X8077Y6727D01*
X8075Y6728D01*
X8074Y6730D01*
X8073Y6732D01*
X8072Y6734D01*
X8071Y6736D01*
X8070Y6737D01*
X8069Y6741D01*
X8069Y6742D01*
X8069Y6744D01*
X8069Y6745D01*
X8068Y6746D01*
X8068Y6747D01*
Y6748D01*
Y6748D01*
Y6749D01*
X8068Y6752D01*
X8069Y6754D01*
X8070Y6757D01*
X8070Y6759D01*
X8071Y6761D01*
X8072Y6762D01*
X8072Y6763D01*
X8073Y6763D01*
X8074Y6765D01*
X8076Y6767D01*
X8078Y6769D01*
X8080Y6770D01*
X8082Y6771D01*
X8084Y6772D01*
X8084Y6772D01*
X8085Y6773D01*
X8085Y6773D01*
X8085D01*
X8083Y6774D01*
X8081Y6775D01*
X8079Y6776D01*
X8078Y6778D01*
X8076Y6779D01*
X8076Y6780D01*
X8075Y6780D01*
X8075Y6781D01*
X8074Y6783D01*
X8073Y6785D01*
X8072Y6787D01*
X8072Y6789D01*
X8072Y6790D01*
X8071Y6792D01*
Y6793D01*
Y6793D01*
Y6793D01*
X8072Y6795D01*
X8072Y6797D01*
X8073Y6800D01*
X8074Y6803D01*
X8075Y6806D01*
X8077Y6808D01*
X8077Y6809D01*
X8078Y6810D01*
X8078Y6810D01*
X8079Y6811D01*
X8079Y6811D01*
X8079Y6811D01*
X8081Y6812D01*
X8082Y6813D01*
X8084Y6814D01*
X8086Y6815D01*
X8089Y6816D01*
X8093Y6817D01*
X8095Y6818D01*
X8096Y6818D01*
X8097Y6818D01*
X8099Y6818D01*
X8099Y6818D01*
X8101D01*
X8103Y6818D01*
D02*
G37*
G36*
X8188Y6819D02*
X8192Y6819D01*
X8195Y6818D01*
X8198Y6817D01*
X8201Y6816D01*
X8204Y6815D01*
X8206Y6814D01*
X8209Y6813D01*
X8211Y6811D01*
X8212Y6810D01*
X8214Y6809D01*
X8215Y6808D01*
X8216Y6807D01*
X8217Y6806D01*
X8217Y6806D01*
X8217Y6806D01*
X8220Y6803D01*
X8222Y6800D01*
X8223Y6797D01*
X8225Y6794D01*
X8226Y6791D01*
X8227Y6788D01*
X8228Y6785D01*
X8228Y6782D01*
X8229Y6779D01*
X8229Y6776D01*
X8230Y6774D01*
X8230Y6772D01*
Y6770D01*
X8230Y6769D01*
Y6768D01*
Y6768D01*
Y6768D01*
X8230Y6764D01*
X8229Y6760D01*
X8229Y6756D01*
X8228Y6753D01*
X8227Y6749D01*
X8226Y6746D01*
X8225Y6744D01*
X8224Y6741D01*
X8223Y6739D01*
X8222Y6737D01*
X8220Y6735D01*
X8220Y6734D01*
X8219Y6733D01*
X8218Y6732D01*
X8218Y6732D01*
X8218Y6732D01*
X8215Y6729D01*
X8213Y6727D01*
X8210Y6725D01*
X8207Y6724D01*
X8205Y6723D01*
X8202Y6722D01*
X8199Y6721D01*
X8197Y6720D01*
X8195Y6719D01*
X8193Y6719D01*
X8191Y6719D01*
X8189Y6719D01*
X8188Y6718D01*
X8187Y6718D01*
X8186D01*
X8183Y6718D01*
X8180Y6719D01*
X8177Y6719D01*
X8175Y6720D01*
X8173Y6720D01*
X8171Y6721D01*
X8169Y6721D01*
X8167Y6722D01*
X8165Y6723D01*
X8164Y6724D01*
X8163Y6724D01*
X8162Y6725D01*
X8161Y6725D01*
X8160Y6726D01*
X8160Y6726D01*
X8160Y6726D01*
X8158Y6728D01*
X8156Y6729D01*
X8153Y6733D01*
X8151Y6737D01*
X8149Y6741D01*
X8148Y6743D01*
X8147Y6744D01*
X8147Y6746D01*
X8146Y6747D01*
X8146Y6748D01*
X8145Y6749D01*
X8145Y6750D01*
Y6750D01*
X8164Y6756D01*
X8165Y6752D01*
X8167Y6749D01*
X8168Y6746D01*
X8169Y6744D01*
X8171Y6742D01*
X8171Y6741D01*
X8172Y6740D01*
X8172Y6740D01*
X8175Y6738D01*
X8177Y6737D01*
X8179Y6736D01*
X8181Y6736D01*
X8183Y6735D01*
X8185Y6735D01*
X8185Y6735D01*
X8186D01*
X8188Y6735D01*
X8190Y6735D01*
X8193Y6736D01*
X8196Y6737D01*
X8198Y6739D01*
X8200Y6740D01*
X8202Y6742D01*
X8202Y6742D01*
X8203Y6743D01*
X8203Y6743D01*
X8203Y6743D01*
X8204Y6744D01*
X8205Y6746D01*
X8206Y6748D01*
X8207Y6750D01*
X8208Y6755D01*
X8209Y6759D01*
X8209Y6761D01*
X8209Y6763D01*
X8210Y6765D01*
Y6766D01*
X8210Y6768D01*
Y6768D01*
Y6769D01*
Y6769D01*
X8210Y6773D01*
X8209Y6776D01*
X8209Y6778D01*
X8209Y6781D01*
X8208Y6783D01*
X8208Y6785D01*
X8207Y6787D01*
X8206Y6789D01*
X8206Y6790D01*
X8205Y6791D01*
X8205Y6792D01*
X8204Y6793D01*
X8204Y6794D01*
X8203Y6794D01*
X8203Y6795D01*
Y6795D01*
X8202Y6796D01*
X8200Y6797D01*
X8199Y6798D01*
X8197Y6799D01*
X8194Y6801D01*
X8192Y6802D01*
X8189Y6802D01*
X8188Y6802D01*
X8187Y6802D01*
X8186Y6803D01*
X8185D01*
X8183Y6802D01*
X8180Y6802D01*
X8178Y6801D01*
X8176Y6800D01*
X8174Y6800D01*
X8173Y6799D01*
X8172Y6798D01*
X8172Y6798D01*
X8170Y6796D01*
X8169Y6794D01*
X8167Y6792D01*
X8166Y6790D01*
X8166Y6789D01*
X8165Y6788D01*
X8165Y6787D01*
Y6787D01*
X8165Y6786D01*
Y6786D01*
X8145Y6791D01*
X8147Y6795D01*
X8148Y6799D01*
X8150Y6802D01*
X8152Y6804D01*
X8153Y6806D01*
X8154Y6807D01*
X8154Y6808D01*
X8155Y6808D01*
X8155Y6809D01*
X8155Y6809D01*
X8155D01*
X8158Y6811D01*
X8160Y6812D01*
X8162Y6814D01*
X8165Y6815D01*
X8167Y6816D01*
X8170Y6817D01*
X8172Y6818D01*
X8174Y6818D01*
X8176Y6819D01*
X8178Y6819D01*
X8180Y6819D01*
X8182Y6819D01*
X8183Y6819D01*
X8184D01*
X8188Y6819D01*
D02*
G37*
G36*
X6933Y7766D02*
Y7750D01*
X6893D01*
Y7730D01*
X6875D01*
Y7750D01*
X6863D01*
Y7766D01*
X6875D01*
Y7828D01*
X6891D01*
X6933Y7766D01*
D02*
G37*
G36*
X7404Y7968D02*
X7407Y7968D01*
X7411Y7967D01*
X7415Y7966D01*
X7416Y7965D01*
X7418Y7965D01*
X7419Y7964D01*
X7420Y7963D01*
X7422Y7963D01*
X7422Y7962D01*
X7423Y7962D01*
X7424Y7962D01*
X7424Y7961D01*
X7424Y7961D01*
X7426Y7960D01*
X7427Y7959D01*
X7428Y7957D01*
X7429Y7955D01*
X7431Y7951D01*
X7432Y7948D01*
X7433Y7946D01*
X7433Y7944D01*
X7434Y7943D01*
X7434Y7942D01*
X7434Y7941D01*
Y7940D01*
X7434Y7939D01*
Y7939D01*
X7416Y7937D01*
X7415Y7940D01*
X7415Y7943D01*
X7414Y7945D01*
X7414Y7946D01*
X7413Y7948D01*
X7412Y7948D01*
X7412Y7949D01*
X7412Y7949D01*
X7410Y7950D01*
X7409Y7951D01*
X7407Y7952D01*
X7406Y7952D01*
X7405Y7952D01*
X7403Y7953D01*
X7402D01*
X7400Y7952D01*
X7398Y7952D01*
X7397Y7951D01*
X7396Y7951D01*
X7395Y7950D01*
X7394Y7950D01*
X7393Y7949D01*
X7393Y7949D01*
X7392Y7948D01*
X7391Y7946D01*
X7391Y7945D01*
X7390Y7943D01*
X7390Y7942D01*
X7390Y7940D01*
Y7940D01*
Y7940D01*
Y7939D01*
X7390Y7937D01*
X7390Y7935D01*
X7391Y7933D01*
X7392Y7932D01*
X7392Y7930D01*
X7393Y7929D01*
X7394Y7928D01*
X7394Y7928D01*
X7394Y7927D01*
X7395Y7926D01*
X7396Y7925D01*
X7397Y7924D01*
X7400Y7921D01*
X7402Y7918D01*
X7405Y7916D01*
X7406Y7915D01*
X7407Y7914D01*
X7408Y7913D01*
X7409Y7913D01*
X7409Y7912D01*
X7409Y7912D01*
X7412Y7909D01*
X7415Y7907D01*
X7417Y7904D01*
X7419Y7902D01*
X7421Y7900D01*
X7423Y7898D01*
X7424Y7897D01*
X7426Y7895D01*
X7427Y7893D01*
X7428Y7892D01*
X7428Y7891D01*
X7429Y7890D01*
X7430Y7890D01*
X7430Y7889D01*
X7430Y7889D01*
Y7889D01*
X7432Y7885D01*
X7433Y7882D01*
X7435Y7879D01*
X7435Y7876D01*
X7436Y7874D01*
X7436Y7873D01*
X7436Y7872D01*
X7436Y7871D01*
X7437Y7870D01*
Y7870D01*
Y7870D01*
X7371D01*
Y7887D01*
X7408D01*
X7407Y7889D01*
X7406Y7891D01*
X7405Y7891D01*
X7405Y7892D01*
X7405Y7892D01*
X7404Y7892D01*
X7404Y7893D01*
X7403Y7894D01*
X7402Y7895D01*
X7400Y7897D01*
X7398Y7899D01*
X7396Y7901D01*
X7395Y7902D01*
X7394Y7903D01*
X7394Y7903D01*
X7393Y7903D01*
X7393Y7903D01*
X7390Y7906D01*
X7387Y7909D01*
X7385Y7911D01*
X7384Y7913D01*
X7382Y7914D01*
X7382Y7915D01*
X7381Y7916D01*
X7381Y7916D01*
X7379Y7918D01*
X7377Y7920D01*
X7376Y7923D01*
X7375Y7924D01*
X7374Y7926D01*
X7374Y7927D01*
X7374Y7928D01*
X7373Y7928D01*
X7373Y7930D01*
X7372Y7933D01*
X7372Y7935D01*
X7371Y7937D01*
X7371Y7938D01*
X7371Y7940D01*
Y7940D01*
Y7941D01*
X7371Y7943D01*
X7371Y7945D01*
X7372Y7947D01*
X7372Y7949D01*
X7374Y7952D01*
X7375Y7955D01*
X7376Y7956D01*
X7377Y7957D01*
X7377Y7958D01*
X7378Y7959D01*
X7379Y7959D01*
X7379Y7960D01*
X7379Y7960D01*
X7379Y7960D01*
X7381Y7962D01*
X7383Y7963D01*
X7384Y7964D01*
X7386Y7965D01*
X7390Y7966D01*
X7394Y7967D01*
X7395Y7967D01*
X7397Y7968D01*
X7398Y7968D01*
X7400Y7968D01*
X7401Y7968D01*
X7402D01*
X7404Y7968D01*
D02*
G37*
G36*
X7497Y7969D02*
X7500Y7969D01*
X7504Y7968D01*
X7507Y7967D01*
X7510Y7966D01*
X7513Y7965D01*
X7516Y7964D01*
X7518Y7963D01*
X7520Y7961D01*
X7522Y7960D01*
X7524Y7959D01*
X7525Y7958D01*
X7526Y7957D01*
X7527Y7957D01*
X7527Y7956D01*
X7527Y7956D01*
X7530Y7953D01*
X7532Y7951D01*
X7533Y7948D01*
X7535Y7945D01*
X7536Y7941D01*
X7537Y7938D01*
X7538Y7935D01*
X7538Y7932D01*
X7539Y7930D01*
X7539Y7927D01*
X7540Y7925D01*
X7540Y7923D01*
Y7921D01*
X7540Y7920D01*
Y7919D01*
Y7919D01*
X7540Y7914D01*
X7539Y7910D01*
X7539Y7906D01*
X7538Y7903D01*
X7537Y7899D01*
X7536Y7896D01*
X7535Y7894D01*
X7534Y7891D01*
X7533Y7889D01*
X7531Y7887D01*
X7530Y7885D01*
X7529Y7884D01*
X7528Y7883D01*
X7528Y7882D01*
X7527Y7882D01*
X7527Y7881D01*
X7525Y7879D01*
X7522Y7877D01*
X7519Y7875D01*
X7516Y7874D01*
X7513Y7873D01*
X7511Y7871D01*
X7508Y7871D01*
X7505Y7870D01*
X7502Y7869D01*
X7500Y7869D01*
X7498Y7869D01*
X7496Y7868D01*
X7494Y7868D01*
X7493Y7868D01*
X7492D01*
X7488Y7868D01*
X7484Y7869D01*
X7480Y7869D01*
X7477Y7870D01*
X7476Y7871D01*
X7475Y7871D01*
X7473Y7871D01*
X7473Y7872D01*
X7472Y7872D01*
X7471Y7872D01*
X7471Y7872D01*
X7471D01*
X7469Y7871D01*
X7467Y7870D01*
X7465Y7868D01*
X7464Y7868D01*
X7462Y7867D01*
X7461Y7866D01*
X7460Y7865D01*
X7460Y7865D01*
X7459Y7865D01*
X7459Y7864D01*
X7458Y7864D01*
X7458Y7864D01*
X7455Y7862D01*
X7453Y7862D01*
X7452Y7861D01*
X7451Y7861D01*
X7450Y7860D01*
X7449Y7860D01*
X7449D01*
X7442Y7874D01*
X7445Y7875D01*
X7448Y7877D01*
X7450Y7878D01*
X7453Y7879D01*
X7455Y7880D01*
X7456Y7881D01*
X7457Y7882D01*
X7457Y7882D01*
X7457Y7882D01*
X7458D01*
X7456Y7885D01*
X7454Y7887D01*
X7452Y7890D01*
X7451Y7892D01*
X7450Y7894D01*
X7450Y7895D01*
X7449Y7896D01*
X7449Y7896D01*
X7449Y7896D01*
Y7897D01*
X7448Y7900D01*
X7447Y7904D01*
X7446Y7908D01*
X7446Y7911D01*
X7446Y7913D01*
X7446Y7914D01*
Y7916D01*
X7445Y7917D01*
Y7918D01*
Y7918D01*
Y7919D01*
Y7919D01*
X7446Y7923D01*
X7446Y7927D01*
X7447Y7931D01*
X7447Y7935D01*
X7448Y7938D01*
X7449Y7941D01*
X7451Y7944D01*
X7452Y7946D01*
X7453Y7949D01*
X7454Y7950D01*
X7455Y7952D01*
X7456Y7954D01*
X7457Y7955D01*
X7458Y7955D01*
X7458Y7956D01*
X7458Y7956D01*
X7461Y7958D01*
X7463Y7960D01*
X7466Y7962D01*
X7469Y7964D01*
X7472Y7965D01*
X7475Y7966D01*
X7478Y7967D01*
X7480Y7968D01*
X7483Y7968D01*
X7485Y7969D01*
X7487Y7969D01*
X7489Y7969D01*
X7491D01*
X7492Y7969D01*
X7493D01*
X7497Y7969D01*
D02*
G37*
%LPC*%
G36*
X8265Y7197D02*
X8263D01*
X8260Y7197D01*
X8258Y7196D01*
X8256Y7196D01*
X8254Y7195D01*
X8253Y7194D01*
X8252Y7194D01*
X8251Y7193D01*
X8251Y7193D01*
X8249Y7192D01*
X8248Y7190D01*
X8248Y7189D01*
X8247Y7187D01*
X8247Y7186D01*
X8247Y7185D01*
X8247Y7184D01*
Y7184D01*
X8247Y7182D01*
X8247Y7180D01*
X8248Y7179D01*
X8249Y7177D01*
X8249Y7176D01*
X8250Y7175D01*
X8251Y7175D01*
X8251Y7175D01*
X8253Y7173D01*
X8255Y7173D01*
X8257Y7172D01*
X8260Y7172D01*
X8262Y7171D01*
X8263Y7171D01*
X8265D01*
X8268Y7171D01*
X8271Y7172D01*
X8273Y7172D01*
X8275Y7173D01*
X8277Y7173D01*
X8278Y7174D01*
X8278Y7174D01*
X8278Y7174D01*
X8280Y7176D01*
X8281Y7177D01*
X8282Y7179D01*
X8282Y7180D01*
X8282Y7181D01*
X8283Y7182D01*
Y7183D01*
Y7183D01*
X8282Y7185D01*
X8282Y7187D01*
X8281Y7189D01*
X8280Y7190D01*
X8279Y7191D01*
X8278Y7192D01*
X8278Y7193D01*
X8278Y7193D01*
X8275Y7194D01*
X8273Y7195D01*
X8271Y7196D01*
X8269Y7196D01*
X8266Y7197D01*
X8265Y7197D01*
D02*
G37*
G36*
X8562Y7234D02*
X8555D01*
X8552Y7233D01*
X8549D01*
X8547Y7233D01*
X8545Y7233D01*
X8543Y7233D01*
X8541Y7233D01*
X8539Y7233D01*
X8538Y7232D01*
X8537Y7232D01*
X8536Y7232D01*
X8535Y7232D01*
X8534Y7232D01*
X8534D01*
X8534Y7232D01*
X8534D01*
X8532Y7231D01*
X8530Y7230D01*
X8529Y7230D01*
X8528Y7229D01*
X8527Y7228D01*
X8526Y7228D01*
X8526Y7228D01*
X8526Y7228D01*
X8525Y7227D01*
X8525Y7226D01*
X8524Y7225D01*
X8524Y7224D01*
X8524Y7223D01*
X8524Y7222D01*
Y7222D01*
Y7222D01*
X8524Y7220D01*
X8524Y7219D01*
X8524Y7218D01*
X8525Y7217D01*
X8525Y7217D01*
X8526Y7216D01*
X8526Y7216D01*
X8526Y7216D01*
X8527Y7215D01*
X8528Y7214D01*
X8529Y7213D01*
X8531Y7213D01*
X8532Y7212D01*
X8533Y7212D01*
X8534Y7212D01*
X8534Y7211D01*
X8536Y7211D01*
X8537Y7211D01*
X8539Y7211D01*
X8541Y7210D01*
X8545Y7210D01*
X8549Y7210D01*
X8550Y7210D01*
X8552D01*
X8554Y7210D01*
X8561D01*
X8564Y7210D01*
X8567D01*
X8569Y7210D01*
X8571Y7210D01*
X8573Y7210D01*
X8575Y7210D01*
X8577Y7211D01*
X8578Y7211D01*
X8579Y7211D01*
X8580Y7211D01*
X8581Y7211D01*
X8582Y7211D01*
X8582D01*
X8582Y7212D01*
X8583D01*
X8585Y7212D01*
X8586Y7213D01*
X8588Y7213D01*
X8589Y7214D01*
X8589Y7215D01*
X8590Y7215D01*
X8590Y7215D01*
X8590Y7216D01*
X8591Y7217D01*
X8592Y7218D01*
X8592Y7219D01*
X8592Y7220D01*
X8592Y7220D01*
X8593Y7221D01*
Y7221D01*
Y7222D01*
X8592Y7223D01*
X8592Y7224D01*
X8592Y7225D01*
X8591Y7226D01*
X8591Y7227D01*
X8591Y7227D01*
X8590Y7227D01*
X8590Y7228D01*
X8589Y7228D01*
X8588Y7229D01*
X8587Y7230D01*
X8585Y7231D01*
X8584Y7231D01*
X8583Y7231D01*
X8582Y7232D01*
X8582Y7232D01*
X8582D01*
X8580Y7232D01*
X8579Y7232D01*
X8577Y7233D01*
X8575Y7233D01*
X8571Y7233D01*
X8568Y7233D01*
X8566Y7233D01*
X8564D01*
X8562Y7234D01*
D02*
G37*
G36*
X8580Y7079D02*
X8579D01*
X8577Y7079D01*
X8576Y7079D01*
X8575Y7079D01*
X8573Y7079D01*
X8573Y7078D01*
X8572Y7078D01*
X8572Y7078D01*
X8571Y7077D01*
X8570Y7077D01*
X8570Y7076D01*
X8568Y7074D01*
X8568Y7073D01*
X8568Y7072D01*
X8567Y7072D01*
Y7072D01*
X8567Y7071D01*
X8567Y7070D01*
X8567Y7069D01*
X8567Y7068D01*
X8567Y7065D01*
X8566Y7062D01*
X8566Y7059D01*
Y7058D01*
Y7057D01*
Y7056D01*
Y7055D01*
Y7054D01*
Y7054D01*
Y7040D01*
X8591D01*
Y7055D01*
Y7057D01*
Y7059D01*
Y7061D01*
Y7062D01*
X8591Y7064D01*
Y7065D01*
Y7066D01*
Y7067D01*
X8591Y7068D01*
Y7069D01*
X8591Y7069D01*
Y7069D01*
X8590Y7071D01*
X8590Y7073D01*
X8589Y7074D01*
X8588Y7075D01*
X8588Y7076D01*
X8587Y7076D01*
X8587Y7077D01*
X8587Y7077D01*
X8586Y7078D01*
X8584Y7078D01*
X8583Y7079D01*
X8582Y7079D01*
X8580Y7079D01*
X8580Y7079D01*
D02*
G37*
G36*
X6735Y7750D02*
X6733D01*
X6730Y7750D01*
X6728Y7750D01*
X6726Y7749D01*
X6724Y7749D01*
X6723Y7748D01*
X6722Y7747D01*
X6721Y7747D01*
X6721Y7747D01*
X6719Y7745D01*
X6718Y7744D01*
X6718Y7742D01*
X6717Y7741D01*
X6717Y7739D01*
X6717Y7738D01*
X6717Y7738D01*
Y7738D01*
X6717Y7736D01*
X6717Y7734D01*
X6718Y7732D01*
X6719Y7731D01*
X6719Y7730D01*
X6720Y7729D01*
X6721Y7728D01*
X6721Y7728D01*
X6723Y7727D01*
X6725Y7726D01*
X6727Y7725D01*
X6730Y7725D01*
X6732Y7725D01*
X6733Y7725D01*
X6735D01*
X6738Y7725D01*
X6741Y7725D01*
X6743Y7726D01*
X6745Y7726D01*
X6747Y7727D01*
X6748Y7727D01*
X6748Y7728D01*
X6748Y7728D01*
X6750Y7729D01*
X6751Y7731D01*
X6752Y7732D01*
X6752Y7734D01*
X6752Y7735D01*
X6753Y7736D01*
Y7736D01*
Y7737D01*
X6752Y7739D01*
X6752Y7740D01*
X6751Y7742D01*
X6750Y7743D01*
X6749Y7745D01*
X6748Y7745D01*
X6748Y7746D01*
X6748Y7746D01*
X6745Y7748D01*
X6743Y7749D01*
X6741Y7749D01*
X6739Y7750D01*
X6736Y7750D01*
X6735Y7750D01*
D02*
G37*
G36*
X7494Y7953D02*
X7493D01*
X7491Y7952D01*
X7488Y7952D01*
X7486Y7952D01*
X7485Y7951D01*
X7481Y7950D01*
X7480Y7949D01*
X7478Y7948D01*
X7477Y7948D01*
X7476Y7947D01*
X7475Y7946D01*
X7475Y7945D01*
X7474Y7945D01*
X7473Y7945D01*
X7473Y7944D01*
X7473Y7944D01*
X7472Y7942D01*
X7471Y7941D01*
X7470Y7939D01*
X7469Y7937D01*
X7468Y7932D01*
X7467Y7928D01*
X7466Y7926D01*
X7466Y7925D01*
X7466Y7923D01*
X7466Y7922D01*
X7466Y7920D01*
Y7919D01*
Y7919D01*
Y7919D01*
X7466Y7916D01*
X7466Y7913D01*
X7466Y7910D01*
X7467Y7908D01*
X7467Y7907D01*
X7467Y7905D01*
X7468Y7904D01*
X7468Y7904D01*
Y7904D01*
X7469Y7902D01*
X7469Y7900D01*
X7470Y7898D01*
X7471Y7896D01*
X7472Y7895D01*
X7473Y7894D01*
X7473Y7893D01*
X7473Y7893D01*
X7477Y7896D01*
X7480Y7898D01*
X7483Y7899D01*
X7486Y7901D01*
X7488Y7902D01*
X7489Y7902D01*
X7490Y7903D01*
X7491Y7903D01*
X7492Y7903D01*
X7492Y7903D01*
X7492D01*
X7497Y7892D01*
X7495Y7891D01*
X7493Y7890D01*
X7491Y7889D01*
X7489Y7888D01*
X7488Y7887D01*
X7486Y7886D01*
X7486Y7886D01*
X7485Y7886D01*
X7488Y7885D01*
X7490Y7885D01*
X7491Y7885D01*
X7492D01*
X7493Y7885D01*
X7493D01*
X7495Y7885D01*
X7497Y7885D01*
X7499Y7885D01*
X7501Y7886D01*
X7504Y7887D01*
X7507Y7889D01*
X7508Y7890D01*
X7509Y7890D01*
X7510Y7891D01*
X7511Y7892D01*
X7512Y7892D01*
X7512Y7893D01*
X7512Y7893D01*
X7512Y7893D01*
X7513Y7895D01*
X7515Y7897D01*
X7516Y7899D01*
X7517Y7901D01*
X7518Y7905D01*
X7519Y7909D01*
X7519Y7911D01*
X7519Y7913D01*
X7519Y7915D01*
X7520Y7916D01*
X7520Y7917D01*
Y7918D01*
Y7919D01*
Y7919D01*
X7520Y7922D01*
X7519Y7925D01*
X7519Y7927D01*
X7519Y7930D01*
X7518Y7932D01*
X7517Y7934D01*
X7517Y7936D01*
X7516Y7938D01*
X7515Y7939D01*
X7515Y7941D01*
X7514Y7942D01*
X7513Y7943D01*
X7513Y7943D01*
X7513Y7944D01*
X7512Y7944D01*
X7512Y7944D01*
X7511Y7946D01*
X7509Y7947D01*
X7508Y7948D01*
X7506Y7949D01*
X7504Y7950D01*
X7503Y7950D01*
X7500Y7952D01*
X7497Y7952D01*
X7496Y7952D01*
X7495Y7952D01*
X7494Y7953D01*
D02*
G37*
G36*
X8270Y7119D02*
X8269D01*
X8267Y7119D01*
X8266Y7119D01*
X8265Y7119D01*
X8263Y7119D01*
X8263Y7118D01*
X8262Y7118D01*
X8262Y7118D01*
X8261Y7117D01*
X8260Y7117D01*
X8260Y7116D01*
X8258Y7114D01*
X8258Y7113D01*
X8258Y7112D01*
X8257Y7112D01*
Y7112D01*
X8257Y7111D01*
X8257Y7110D01*
X8257Y7109D01*
X8257Y7108D01*
X8257Y7105D01*
X8256Y7102D01*
X8256Y7099D01*
Y7098D01*
Y7097D01*
Y7096D01*
Y7095D01*
Y7094D01*
Y7094D01*
Y7080D01*
X8281D01*
Y7095D01*
Y7097D01*
Y7099D01*
Y7101D01*
Y7102D01*
X8281Y7104D01*
Y7105D01*
Y7106D01*
Y7107D01*
X8281Y7108D01*
Y7109D01*
X8281Y7109D01*
Y7109D01*
X8280Y7111D01*
X8280Y7113D01*
X8279Y7114D01*
X8278Y7115D01*
X8278Y7116D01*
X8277Y7116D01*
X8277Y7117D01*
X8277Y7117D01*
X8276Y7118D01*
X8274Y7118D01*
X8273Y7119D01*
X8272Y7119D01*
X8270Y7119D01*
X8270Y7119D01*
D02*
G37*
G36*
X8614Y7953D02*
X8613D01*
X8611Y7952D01*
X8608Y7952D01*
X8606Y7952D01*
X8605Y7951D01*
X8601Y7950D01*
X8600Y7949D01*
X8598Y7948D01*
X8597Y7948D01*
X8596Y7947D01*
X8595Y7946D01*
X8595Y7945D01*
X8594Y7945D01*
X8593Y7945D01*
X8593Y7944D01*
X8593Y7944D01*
X8592Y7942D01*
X8591Y7941D01*
X8590Y7939D01*
X8589Y7937D01*
X8588Y7932D01*
X8587Y7928D01*
X8586Y7926D01*
X8586Y7925D01*
X8586Y7923D01*
X8586Y7922D01*
X8586Y7920D01*
Y7919D01*
Y7919D01*
Y7919D01*
X8586Y7916D01*
X8586Y7913D01*
X8586Y7910D01*
X8587Y7908D01*
X8587Y7907D01*
X8587Y7905D01*
X8588Y7904D01*
X8588Y7904D01*
Y7904D01*
X8589Y7902D01*
X8589Y7900D01*
X8590Y7898D01*
X8591Y7896D01*
X8592Y7895D01*
X8593Y7894D01*
X8593Y7893D01*
X8593Y7893D01*
X8597Y7896D01*
X8600Y7898D01*
X8603Y7899D01*
X8606Y7901D01*
X8608Y7902D01*
X8609Y7902D01*
X8610Y7903D01*
X8611Y7903D01*
X8612Y7903D01*
X8612Y7903D01*
X8612D01*
X8617Y7892D01*
X8615Y7891D01*
X8613Y7890D01*
X8611Y7889D01*
X8609Y7888D01*
X8608Y7887D01*
X8606Y7886D01*
X8606Y7886D01*
X8605Y7886D01*
X8608Y7885D01*
X8610Y7885D01*
X8611Y7885D01*
X8612D01*
X8613Y7885D01*
X8613D01*
X8615Y7885D01*
X8617Y7885D01*
X8619Y7885D01*
X8621Y7886D01*
X8624Y7887D01*
X8627Y7889D01*
X8628Y7890D01*
X8629Y7890D01*
X8630Y7891D01*
X8631Y7892D01*
X8632Y7892D01*
X8632Y7893D01*
X8632Y7893D01*
X8632Y7893D01*
X8633Y7895D01*
X8635Y7897D01*
X8636Y7899D01*
X8637Y7901D01*
X8638Y7905D01*
X8639Y7909D01*
X8639Y7911D01*
X8639Y7913D01*
X8639Y7915D01*
X8640Y7916D01*
X8640Y7917D01*
Y7918D01*
Y7919D01*
Y7919D01*
X8640Y7922D01*
X8639Y7925D01*
X8639Y7927D01*
X8639Y7930D01*
X8638Y7932D01*
X8637Y7934D01*
X8637Y7936D01*
X8636Y7938D01*
X8635Y7939D01*
X8635Y7941D01*
X8634Y7942D01*
X8633Y7943D01*
X8633Y7943D01*
X8633Y7944D01*
X8632Y7944D01*
X8632Y7944D01*
X8631Y7946D01*
X8629Y7947D01*
X8628Y7948D01*
X8626Y7949D01*
X8624Y7950D01*
X8623Y7950D01*
X8620Y7952D01*
X8617Y7952D01*
X8616Y7952D01*
X8615Y7952D01*
X8614Y7953D01*
D02*
G37*
G36*
X6893Y7799D02*
Y7766D01*
X6916D01*
X6893Y7799D01*
D02*
G37*
G36*
X7790Y7953D02*
X7789D01*
X7787Y7953D01*
X7786Y7953D01*
X7784Y7952D01*
X7783Y7952D01*
X7782Y7951D01*
X7781Y7951D01*
X7781Y7950D01*
X7781Y7950D01*
X7780Y7949D01*
X7779Y7947D01*
X7778Y7946D01*
X7778Y7945D01*
X7778Y7943D01*
X7778Y7942D01*
Y7942D01*
Y7942D01*
X7778Y7940D01*
X7778Y7938D01*
X7779Y7936D01*
X7779Y7935D01*
X7780Y7934D01*
X7780Y7933D01*
X7781Y7933D01*
X7781Y7933D01*
X7782Y7932D01*
X7783Y7931D01*
X7785Y7930D01*
X7786Y7930D01*
X7788Y7930D01*
X7789Y7930D01*
X7789D01*
X7791Y7930D01*
X7793Y7930D01*
X7794Y7931D01*
X7796Y7931D01*
X7797Y7932D01*
X7797Y7932D01*
X7798Y7933D01*
X7798Y7933D01*
X7799Y7934D01*
X7800Y7935D01*
X7800Y7937D01*
X7801Y7938D01*
X7801Y7939D01*
X7801Y7940D01*
Y7941D01*
Y7941D01*
X7801Y7943D01*
X7801Y7945D01*
X7800Y7947D01*
X7799Y7948D01*
X7799Y7949D01*
X7798Y7950D01*
X7798Y7950D01*
X7798Y7950D01*
X7797Y7951D01*
X7795Y7952D01*
X7794Y7952D01*
X7792Y7953D01*
X7791Y7953D01*
X7790Y7953D01*
D02*
G37*
G36*
X8245Y7951D02*
X8223D01*
X8221Y7951D01*
X8218D01*
X8217Y7951D01*
X8216D01*
X8216Y7951D01*
X8216D01*
X8214Y7950D01*
X8212Y7950D01*
X8211Y7949D01*
X8210Y7948D01*
X8209Y7948D01*
X8209Y7947D01*
X8208Y7947D01*
X8208Y7947D01*
X8207Y7946D01*
X8207Y7944D01*
X8206Y7943D01*
X8206Y7942D01*
X8206Y7940D01*
X8206Y7940D01*
Y7939D01*
Y7939D01*
X8206Y7937D01*
X8206Y7936D01*
X8206Y7935D01*
X8206Y7933D01*
X8207Y7933D01*
X8207Y7932D01*
X8207Y7932D01*
X8208Y7931D01*
X8208Y7930D01*
X8209Y7930D01*
X8211Y7928D01*
X8212Y7928D01*
X8213Y7928D01*
X8213Y7927D01*
X8213D01*
X8214Y7927D01*
X8215Y7927D01*
X8216Y7927D01*
X8217Y7927D01*
X8220Y7927D01*
X8223Y7926D01*
X8226Y7926D01*
X8245D01*
Y7951D01*
D02*
G37*
G36*
X8102Y6765D02*
X8101D01*
X8098Y6765D01*
X8097Y6764D01*
X8095Y6764D01*
X8093Y6763D01*
X8092Y6762D01*
X8091Y6761D01*
X8091Y6761D01*
X8091Y6761D01*
X8089Y6759D01*
X8088Y6757D01*
X8088Y6755D01*
X8087Y6753D01*
X8087Y6752D01*
X8087Y6751D01*
Y6750D01*
Y6750D01*
Y6749D01*
X8087Y6747D01*
X8087Y6744D01*
X8088Y6742D01*
X8089Y6740D01*
X8089Y6739D01*
X8090Y6738D01*
X8091Y6737D01*
X8091Y6737D01*
X8092Y6736D01*
X8094Y6735D01*
X8095Y6734D01*
X8097Y6734D01*
X8098Y6734D01*
X8099Y6733D01*
X8100D01*
X8102Y6733D01*
X8104Y6734D01*
X8106Y6735D01*
X8107Y6735D01*
X8109Y6736D01*
X8109Y6737D01*
X8110Y6737D01*
X8110Y6737D01*
X8111Y6739D01*
X8112Y6741D01*
X8113Y6743D01*
X8114Y6745D01*
X8114Y6747D01*
X8114Y6748D01*
Y6749D01*
Y6749D01*
Y6750D01*
Y6750D01*
X8114Y6752D01*
X8114Y6754D01*
X8113Y6755D01*
X8112Y6757D01*
X8112Y6758D01*
X8111Y6759D01*
X8111Y6760D01*
X8111Y6760D01*
X8109Y6762D01*
X8108Y6763D01*
X8106Y6764D01*
X8104Y6764D01*
X8103Y6765D01*
X8102Y6765D01*
D02*
G37*
G36*
X8102Y6803D02*
X8101D01*
X8099Y6803D01*
X8097Y6803D01*
X8096Y6802D01*
X8095Y6802D01*
X8094Y6801D01*
X8093Y6801D01*
X8092Y6800D01*
X8092Y6800D01*
X8091Y6799D01*
X8090Y6797D01*
X8090Y6796D01*
X8089Y6795D01*
X8089Y6793D01*
X8089Y6792D01*
Y6792D01*
Y6792D01*
X8089Y6790D01*
X8090Y6788D01*
X8090Y6786D01*
X8091Y6785D01*
X8091Y6784D01*
X8092Y6783D01*
X8092Y6783D01*
X8092Y6783D01*
X8094Y6782D01*
X8095Y6781D01*
X8096Y6780D01*
X8098Y6780D01*
X8099Y6780D01*
X8100Y6780D01*
X8101D01*
X8103Y6780D01*
X8104Y6780D01*
X8106Y6781D01*
X8107Y6781D01*
X8108Y6782D01*
X8109Y6782D01*
X8109Y6783D01*
X8109Y6783D01*
X8110Y6784D01*
X8111Y6785D01*
X8112Y6787D01*
X8112Y6788D01*
X8112Y6789D01*
X8112Y6790D01*
Y6791D01*
Y6791D01*
X8112Y6793D01*
X8112Y6795D01*
X8111Y6797D01*
X8111Y6798D01*
X8110Y6799D01*
X8110Y6800D01*
X8109Y6800D01*
X8109Y6800D01*
X8108Y6801D01*
X8107Y6802D01*
X8105Y6802D01*
X8104Y6803D01*
X8103Y6803D01*
X8102Y6803D01*
D02*
G37*
G36*
X7895Y7951D02*
X7873D01*
X7871Y7951D01*
X7868D01*
X7867Y7951D01*
X7866D01*
X7866Y7951D01*
X7866D01*
X7864Y7950D01*
X7862Y7950D01*
X7861Y7949D01*
X7860Y7948D01*
X7859Y7948D01*
X7859Y7947D01*
X7858Y7947D01*
X7858Y7947D01*
X7857Y7946D01*
X7857Y7944D01*
X7856Y7943D01*
X7856Y7942D01*
X7856Y7940D01*
X7856Y7940D01*
Y7939D01*
Y7939D01*
X7856Y7937D01*
X7856Y7936D01*
X7856Y7935D01*
X7856Y7933D01*
X7857Y7933D01*
X7857Y7932D01*
X7857Y7932D01*
X7858Y7931D01*
X7858Y7930D01*
X7859Y7930D01*
X7861Y7928D01*
X7862Y7928D01*
X7863Y7928D01*
X7863Y7927D01*
X7863D01*
X7864Y7927D01*
X7865Y7927D01*
X7866Y7927D01*
X7867Y7927D01*
X7870Y7927D01*
X7873Y7926D01*
X7876Y7926D01*
X7895D01*
Y7951D01*
D02*
G37*
G36*
X7299Y7435D02*
X7298D01*
X7296Y7434D01*
X7295Y7434D01*
X7293Y7433D01*
X7292Y7432D01*
X7291Y7432D01*
X7290Y7431D01*
X7289Y7430D01*
X7289Y7430D01*
X7288Y7428D01*
X7287Y7426D01*
X7286Y7424D01*
X7286Y7421D01*
X7286Y7419D01*
X7285Y7418D01*
Y7417D01*
Y7416D01*
Y7416D01*
Y7416D01*
X7286Y7413D01*
X7286Y7410D01*
X7286Y7408D01*
X7287Y7406D01*
X7288Y7404D01*
X7288Y7403D01*
X7289Y7403D01*
X7289Y7403D01*
X7290Y7401D01*
X7292Y7400D01*
X7293Y7400D01*
X7295Y7399D01*
X7296Y7399D01*
X7297Y7399D01*
X7298D01*
X7300Y7399D01*
X7301Y7400D01*
X7303Y7400D01*
X7304Y7401D01*
X7306Y7402D01*
X7307Y7403D01*
X7307Y7403D01*
X7307Y7404D01*
X7309Y7406D01*
X7310Y7408D01*
X7310Y7410D01*
X7311Y7412D01*
X7311Y7415D01*
X7311Y7416D01*
Y7417D01*
Y7417D01*
Y7418D01*
Y7418D01*
X7311Y7421D01*
X7311Y7423D01*
X7310Y7425D01*
X7309Y7427D01*
X7309Y7428D01*
X7308Y7429D01*
X7308Y7430D01*
X7308Y7430D01*
X7306Y7432D01*
X7305Y7433D01*
X7303Y7433D01*
X7302Y7434D01*
X7300Y7434D01*
X7299Y7435D01*
D02*
G37*
G36*
X8880Y7129D02*
X8879D01*
X8877Y7129D01*
X8876Y7129D01*
X8875Y7129D01*
X8873Y7129D01*
X8873Y7128D01*
X8872Y7128D01*
X8872Y7128D01*
X8871Y7127D01*
X8870Y7127D01*
X8870Y7126D01*
X8868Y7124D01*
X8868Y7123D01*
X8868Y7122D01*
X8867Y7122D01*
Y7122D01*
X8867Y7121D01*
X8867Y7120D01*
X8867Y7119D01*
X8867Y7118D01*
X8867Y7115D01*
X8866Y7112D01*
X8866Y7109D01*
Y7108D01*
Y7107D01*
Y7106D01*
Y7105D01*
Y7104D01*
Y7104D01*
Y7090D01*
X8891D01*
Y7105D01*
Y7107D01*
Y7109D01*
Y7111D01*
Y7112D01*
X8891Y7114D01*
Y7115D01*
Y7116D01*
Y7117D01*
X8891Y7118D01*
Y7119D01*
X8891Y7119D01*
Y7119D01*
X8890Y7121D01*
X8890Y7123D01*
X8889Y7124D01*
X8888Y7125D01*
X8888Y7126D01*
X8887Y7126D01*
X8887Y7127D01*
X8887Y7127D01*
X8886Y7128D01*
X8884Y7128D01*
X8883Y7129D01*
X8882Y7129D01*
X8880Y7129D01*
X8880Y7129D01*
D02*
G37*
G36*
X9060Y7441D02*
X9038D01*
X9036Y7441D01*
X9033D01*
X9032Y7441D01*
X9031D01*
X9031Y7441D01*
X9031D01*
X9029Y7440D01*
X9027Y7440D01*
X9026Y7439D01*
X9025Y7438D01*
X9024Y7438D01*
X9024Y7437D01*
X9023Y7437D01*
X9023Y7437D01*
X9022Y7436D01*
X9022Y7434D01*
X9021Y7433D01*
X9021Y7432D01*
X9021Y7430D01*
X9021Y7430D01*
Y7429D01*
Y7429D01*
X9021Y7427D01*
X9021Y7426D01*
X9021Y7425D01*
X9021Y7423D01*
X9022Y7423D01*
X9022Y7422D01*
X9022Y7422D01*
X9023Y7421D01*
X9023Y7420D01*
X9024Y7420D01*
X9026Y7418D01*
X9027Y7418D01*
X9028Y7418D01*
X9028Y7417D01*
X9028D01*
X9029Y7417D01*
X9030Y7417D01*
X9031Y7417D01*
X9032Y7417D01*
X9035Y7417D01*
X9038Y7416D01*
X9041Y7416D01*
X9060D01*
Y7441D01*
D02*
G37*
G36*
X7790Y7915D02*
X7789D01*
X7787Y7915D01*
X7785Y7914D01*
X7783Y7914D01*
X7782Y7913D01*
X7781Y7912D01*
X7780Y7911D01*
X7779Y7911D01*
X7779Y7911D01*
X7778Y7909D01*
X7777Y7907D01*
X7776Y7905D01*
X7776Y7903D01*
X7775Y7902D01*
X7775Y7901D01*
Y7900D01*
Y7900D01*
Y7899D01*
X7775Y7897D01*
X7776Y7894D01*
X7777Y7892D01*
X7777Y7890D01*
X7778Y7889D01*
X7779Y7888D01*
X7779Y7887D01*
X7779Y7887D01*
X7781Y7886D01*
X7782Y7885D01*
X7784Y7884D01*
X7785Y7884D01*
X7787Y7884D01*
X7788Y7883D01*
X7789D01*
X7791Y7883D01*
X7793Y7884D01*
X7795Y7885D01*
X7796Y7885D01*
X7797Y7886D01*
X7798Y7887D01*
X7799Y7887D01*
X7799Y7887D01*
X7800Y7889D01*
X7801Y7891D01*
X7802Y7893D01*
X7802Y7895D01*
X7802Y7897D01*
X7803Y7898D01*
Y7899D01*
Y7899D01*
Y7900D01*
Y7900D01*
X7803Y7902D01*
X7802Y7904D01*
X7802Y7905D01*
X7801Y7907D01*
X7800Y7908D01*
X7800Y7909D01*
X7800Y7910D01*
X7799Y7910D01*
X7798Y7912D01*
X7796Y7913D01*
X7795Y7914D01*
X7793Y7914D01*
X7792Y7915D01*
X7790Y7915D01*
D02*
G37*
G36*
X7080Y7811D02*
X7058D01*
X7056Y7811D01*
X7053D01*
X7052Y7811D01*
X7051D01*
X7051Y7811D01*
X7051D01*
X7049Y7810D01*
X7047Y7810D01*
X7046Y7809D01*
X7045Y7808D01*
X7044Y7808D01*
X7044Y7807D01*
X7043Y7807D01*
X7043Y7807D01*
X7042Y7806D01*
X7042Y7804D01*
X7041Y7803D01*
X7041Y7802D01*
X7041Y7800D01*
X7041Y7800D01*
Y7799D01*
Y7799D01*
X7041Y7797D01*
X7041Y7796D01*
X7041Y7795D01*
X7041Y7793D01*
X7042Y7793D01*
X7042Y7792D01*
X7042Y7792D01*
X7043Y7791D01*
X7043Y7790D01*
X7044Y7790D01*
X7046Y7788D01*
X7047Y7788D01*
X7048Y7788D01*
X7048Y7787D01*
X7048D01*
X7049Y7787D01*
X7050Y7787D01*
X7051Y7787D01*
X7052Y7787D01*
X7055Y7787D01*
X7058Y7786D01*
X7061Y7786D01*
X7080D01*
Y7811D01*
D02*
G37*
G36*
X8843Y7211D02*
X8841D01*
X8838Y7211D01*
X8835Y7211D01*
X8833Y7210D01*
X8831Y7209D01*
X8829Y7209D01*
X8828Y7208D01*
X8828Y7208D01*
X8828Y7208D01*
X8826Y7206D01*
X8825Y7205D01*
X8825Y7203D01*
X8824Y7202D01*
X8824Y7201D01*
X8824Y7200D01*
Y7199D01*
Y7199D01*
X8824Y7197D01*
X8825Y7195D01*
X8825Y7193D01*
X8826Y7192D01*
X8827Y7191D01*
X8828Y7190D01*
X8828Y7189D01*
X8829Y7189D01*
X8831Y7188D01*
X8833Y7187D01*
X8835Y7186D01*
X8837Y7186D01*
X8840Y7185D01*
X8841Y7185D01*
X8843D01*
X8846Y7185D01*
X8848Y7186D01*
X8850Y7186D01*
X8852Y7187D01*
X8853Y7188D01*
X8854Y7188D01*
X8855Y7189D01*
X8855Y7189D01*
X8857Y7190D01*
X8858Y7192D01*
X8858Y7193D01*
X8859Y7195D01*
X8859Y7196D01*
X8860Y7197D01*
Y7198D01*
Y7198D01*
X8859Y7200D01*
X8859Y7202D01*
X8858Y7203D01*
X8857Y7205D01*
X8857Y7206D01*
X8856Y7207D01*
X8855Y7207D01*
X8855Y7207D01*
X8853Y7209D01*
X8851Y7210D01*
X8849Y7210D01*
X8846Y7211D01*
X8844Y7211D01*
X8843Y7211D01*
D02*
G37*
%LPD*%
D37*
X8128Y7685D02*
Y7705D01*
X8253Y7685D02*
Y7705D01*
X7903Y7685D02*
Y7705D01*
X7778Y7685D02*
Y7705D01*
X8647Y7130D02*
Y7150D01*
X8772Y7130D02*
Y7150D01*
X8347Y7130D02*
Y7150D01*
X8472Y7130D02*
Y7150D01*
D38*
X7530Y7776D02*
Y7836D01*
X7449D02*
X7530D01*
Y7554D02*
Y7614D01*
X7449Y7554D02*
X7530D01*
X8655Y7776D02*
Y7836D01*
X8574D02*
X8655D01*
Y7554D02*
Y7614D01*
X8574Y7554D02*
X8655D01*
M02*
